<?xml version="1.0" encoding="UTF-8"?>
<svg id="b" data-name="Layer 2" xmlns="http://www.w3.org/2000/svg" width="365.286" height="48.975" viewBox="0 0 365.286 48.975">
  <g id="c" data-name="Layer 1">
    <g>
      <path d="M64.607,16.325l24.228,32.006h-48.665c8.145-10.668,16.291-21.337,24.437-32.006" fill="#8b2524"/>
      <path d="M118.948,8.764v16.883h5.994c3.693,0,6.432-.698,8.216-2.094,1.782-1.396,2.673-3.512,2.673-6.348s-.891-4.951-2.673-6.347c-1.784-1.395-4.523-2.094-8.216-2.094h-5.994ZM124.748,45.495v2.835h-17.656v-2.835c2.533,0,4.134-.096,4.8-.29.666-.193.999-.654.999-1.385V10.311c0-.73-.333-1.192-.999-1.386-.666-.193-2.267-.29-4.8-.29v-2.835h18.236c5.283,0,9.419.998,12.405,2.996,2.986,1.998,4.479,4.801,4.479,8.409,0,2.793-.978,5.123-2.933,6.992-1.954,1.869-4.715,3.169-8.28,3.899l9.601,13.984c.816,1.203,1.621,2.02,2.417,2.449.794.43,2.18.709,4.155.838l2.126.129v2.835h-11.986l-10.568-17.722c-.431-.729-.914-1.245-1.45-1.546-.538-.3-1.235-.451-2.094-.451h-4.254v15.208c0,.731.333,1.192.999,1.385.665.194,2.265.29,4.8.29" fill="#fff"/>
      <path d="M164.547,20.557c-2.019,0-3.759.805-5.219,2.417-1.461,1.611-2.384,3.792-2.77,6.54h14.369c-.043-3.006-.591-5.251-1.643-6.734-1.053-1.482-2.632-2.223-4.737-2.223M174.085,40.468l2.384,1.675c-1.031,2.105-2.601,3.77-4.705,4.994-2.105,1.224-4.404,1.837-6.895,1.837-3.952,0-7.271-1.45-9.955-4.35-2.687-2.9-4.028-6.605-4.028-11.116,0-2.062.322-4.037.966-5.928.645-1.89,1.567-3.566,2.771-5.027,1.288-1.632,2.824-2.899,4.606-3.802,1.783-.902,3.642-1.353,5.574-1.353,3.609,0,6.432,1.16,8.473,3.479,2.04,2.32,3.061,5.457,3.061,9.408v2.063h-19.977v.193c0,3.824.904,6.874,2.707,9.15,1.804,2.277,4.146,3.415,7.025,3.415,1.675,0,3.114-.355,4.316-1.063,1.202-.709,2.428-1.901,3.674-3.577" fill="#fff"/>
      <path d="M196.639,20.492c-2.75,0-4.972,1.16-6.669,3.479-1.698,2.32-2.545,5.349-2.545,9.086,0,3.48.773,6.327,2.319,8.539,1.548,2.213,3.587,3.319,6.122,3.319,1.331,0,2.599-.322,3.803-.966,1.202-.645,2.384-1.632,3.544-2.965v-17.012c-.644-1.117-1.537-1.976-2.675-2.577-1.137-.602-2.439-.902-3.898-.902M213.2,46.203v1.418l-9.086,1.353h-.902v-5.735c-1.031,1.633-2.417,2.996-4.155,4.092-1.741,1.095-3.512,1.643-5.317,1.643-3.479,0-6.358-1.395-8.635-4.189-2.277-2.791-3.415-6.271-3.415-10.438,0-5.027,1.321-9.108,3.963-12.244,2.642-3.136,6.025-4.705,10.15-4.705,1.374,0,2.738.258,4.091.773,1.353.515,2.459,1.182,3.319,1.997V7.475c0-.558-.074-.966-.225-1.224-.151-.258-.57-.536-1.257-.838l-2.963-1.353v-1.418l9.085-2.642h.902v42.788c0,.559.075.966.226,1.224.15.257.569.537,1.257.838l2.964,1.353Z" fill="#fff"/>
      <path d="M228.995,20.492c-1.719,0-3.105.441-4.156,1.321-1.053.881-1.58,2.03-1.58,3.447,0,1.075.43,1.977,1.29,2.707.858.731,2.771,1.547,5.734,2.449,1.933.602,3.352,1.107,4.254,1.515s1.697.828,2.384,1.256c1.073.774,1.868,1.666,2.384,2.675.515,1.009.773,2.181.773,3.512,0,2.793-1.151,5.09-3.448,6.894-2.299,1.805-5.145,2.707-8.538,2.707-1.675,0-3.363-.236-5.059-.709-1.697-.472-3.362-1.18-4.993-2.126l-.646-7.926h2.514c.514,2.621,1.482,4.554,2.899,5.8,1.418,1.246,3.352,1.869,5.8,1.869,1.847,0,3.384-.461,4.608-1.386,1.225-.923,1.836-2.137,1.836-3.64,0-1.202-.451-2.213-1.353-3.029-.901-.816-2.858-1.653-5.864-2.513-1.848-.558-3.201-1.02-4.06-1.386-.861-.364-1.59-.784-2.192-1.256-.988-.687-1.729-1.515-2.222-2.482-.495-.966-.741-2.072-.741-3.319,0-2.706,1.041-4.961,3.125-6.766,2.083-1.805,4.673-2.707,7.765-2.707,1.504,0,2.964.194,4.382.58,1.417.387,2.856.988,4.316,1.804v7.668h-2.255c-.386-2.448-1.139-4.221-2.255-5.316-1.118-1.096-2.685-1.643-4.704-1.643" fill="#fff"/>
      <path d="M264.694,41.886l1.675,2.062c-1.159,1.59-2.61,2.825-4.349,3.705-1.74.88-3.576,1.321-5.51,1.321-2.362,0-4.307-.686-5.832-2.062-1.525-1.374-2.287-3.114-2.287-5.22v-20.491h-4.123v-3.158h4.123v-7.732l5.542-1.612v9.344h9.601v3.158h-9.601v18.945c0,1.633.409,2.868,1.224,3.705.816.838,2.019,1.257,3.61,1.257,1.03,0,2.029-.258,2.996-.773.966-.515,1.943-1.331,2.931-2.449" fill="#fff"/>
      <path d="M283.317,45.752c2.577,0,4.574-1.095,5.992-3.286,1.418-2.191,2.126-5.284,2.126-9.28s-.708-7.088-2.126-9.279c-1.418-2.192-3.415-3.286-5.992-3.286s-4.576,1.095-5.993,3.286c-1.418,2.191-2.126,5.284-2.126,9.279s.708,7.089,2.126,9.28c1.417,2.192,3.416,3.286,5.993,3.286M283.317,48.974c-3.996,0-7.336-1.482-10.02-4.447-2.687-2.964-4.028-6.744-4.028-11.342s1.341-8.377,4.028-11.341c2.684-2.964,6.025-4.447,10.02-4.447s7.335,1.482,10.02,4.447c2.684,2.964,4.028,6.745,4.028,11.341s-1.344,8.378-4.028,11.342c-2.685,2.964-6.025,4.447-10.02,4.447" fill="#fff"/>
      <path d="M316.44,45.559v2.771h-13.919v-2.771c1.89,0,3.061-.064,3.512-.193.451-.129.677-.473.677-1.031v-19.462c0-.557-.075-.965-.226-1.224-.15-.258-.569-.536-1.256-.838l-2.965-1.354v-1.417l9.087-2.643h.902v5.735c1.246-1.632,2.845-2.996,4.8-4.091,1.955-1.096,3.855-1.644,5.703-1.644,2.749,0,4.887.957,6.412,2.868,1.525,1.911,2.287,4.543,2.287,7.894v16.174c0,.558.226.902.677,1.031.451.129,1.621.193,3.512.193v2.771h-13.92v-2.771c1.891,0,3.061-.064,3.512-.193.451-.129.678-.473.678-1.031v-15.659c0-2.32-.495-4.081-1.482-5.284-.989-1.202-2.45-1.805-4.382-1.805-1.332,0-2.697.345-4.092,1.031-1.397.688-2.632,1.611-3.705,2.771v18.945c0,.558.226.902.677,1.031.451.129,1.621.193,3.512.193" fill="#fff"/>
      <path d="M353.363,20.557c-2.019,0-3.759.805-5.219,2.417-1.461,1.611-2.384,3.792-2.77,6.54h14.369c-.043-3.006-.591-5.251-1.643-6.734-1.053-1.482-2.632-2.223-4.737-2.223M362.901,40.468l2.384,1.675c-1.031,2.105-2.601,3.77-4.704,4.994-2.106,1.224-4.405,1.837-6.896,1.837-3.952,0-7.271-1.45-9.955-4.35-2.687-2.9-4.028-6.605-4.028-11.116,0-2.062.322-4.037.966-5.928.645-1.89,1.567-3.566,2.771-5.027,1.288-1.632,2.824-2.899,4.607-3.802,1.782-.902,3.641-1.353,5.574-1.353,3.609,0,6.432,1.16,8.473,3.479,2.04,2.32,3.061,5.457,3.061,9.408v2.063h-19.977v.193c0,3.824.904,6.874,2.708,9.15,1.803,2.277,4.145,3.415,7.023,3.415,1.676,0,3.115-.355,4.317-1.063,1.203-.709,2.428-1.901,3.674-3.577" fill="#fff"/>
      <polygon points="34.279 48.975 0 48.975 26.211 14.647 36.963 .564 48.957 16.407 53.905 23.268 34.279 48.975" fill="#8b2524"/>
    </g>
  </g>
</svg>