<?xml version="1.0" standalone="no"?>
<!DOCTYPE svg PUBLIC "-//W3C//DTD SVG 1.1//EN" "http://www.w3.org/Graphics/SVG/1.1/DTD/svg11.dtd" >
<svg xmlns="http://www.w3.org/2000/svg" xmlns:xlink="http://www.w3.org/1999/xlink" version="1.1">
<metadata>
Created by FontForge 20201107 at Thu Dec 18 20:05:30 2025
 By 
Copyright (c) 2022 by PangramPangramFoundry. All rights reserved.
</metadata>
<defs>
<font id="PPMori-SemiBoldItalic" horiz-adv-x="0" >
  <font-face 
    font-family="PP Mori SemiBold"
    font-weight="600"
    font-style="italic"
    font-stretch="normal"
    units-per-em="2048"
    panose-1="0 0 7 0 0 0 0 0 0 0"
    ascent="1638"
    descent="-410"
    x-height="1085"
    cap-height="1434"
    bbox="-817 -817 4454 2507"
    underline-thickness="102"
    underline-position="-204"
    slope="-11.5"
    unicode-range="U+000D-1F318"
  />
<missing-glyph horiz-adv-x="1191" 
d="M969 0h-965l291 1434h965zM373 1384l268 -618l522 618h-790zM330 1343l-252 -1247l524 623zM662 717l272 -625l254 1247zM623 670l-525 -621h793z" />
    <glyph glyph-name="f_f" unicode="ff" horiz-adv-x="1480" 
d="M377 0h-244l180 881h-190l43 204h188l27 136q34 166 128.5 240.5t281.5 74.5h237l-41 -205h-219q-57 0 -95 -32t-50 -95l-25 -119h401l27 136q34 166 128.5 240.5t281.5 74.5h237l-41 -205h-219q-57 0 -95 -32t-50 -95l-25 -119h316l-43 -204h-314l-180 -881h-244
l180 881h-401z" />
    <glyph glyph-name="f_t" unicode="ft" horiz-adv-x="1513" 
d="M377 0h-244l180 881h-190l43 204h188l27 136q34 166 128.5 240.5t281.5 74.5h237l-41 -205h-219q-57 0 -95 -32t-50 -95l-25 -119h449l75 371h244l-76 -371h281l-43 -204h-279l-108 -537q-17 -80 7 -109.5t101 -29.5h121l-41 -205h-135q-182 0 -257.5 85t-43.5 247
l113 549h-449z" />
    <glyph glyph-name="t_f" unicode="tf" horiz-adv-x="1449" 
d="M635 0h-133q-182 0 -258.5 85t-42.5 247l110 549h-188l43 204h186l76 371h246l-76 -371h371l26 136q34 166 128.5 240.5t281.5 74.5h237l-40 -205h-220q-57 0 -95 -32t-50 -95l-25 -119h316l-43 -204h-314l-180 -881h-243l180 881h-371l-111 -537q-15 -80 9.5 -109.5
t99.5 -29.5h121z" />
    <glyph glyph-name="t_t" unicode="tt" horiz-adv-x="1439" 
d="M635 0h-133q-182 0 -258.5 85t-42.5 247l110 549h-188l43 204h186l76 371h246l-76 -371h375l76 371h245l-75 -371h278l-43 -204h-276l-111 -537q-15 -80 9.5 -109.5t99.5 -29.5h120l-41 -205h-133q-182 0 -258.5 85t-42.5 247l111 549h-375l-111 -537q-15 -80 9.5 -109.5
t99.5 -29.5h121z" />
    <glyph glyph-name=".notdef" horiz-adv-x="1191" 
d="M969 0h-965l291 1434h965zM373 1384l268 -618l522 618h-790zM330 1343l-252 -1247l524 623zM662 717l272 -625l254 1247zM623 670l-525 -621h793z" />
    <glyph glyph-name=".null" horiz-adv-x="1228" 
 />
    <glyph glyph-name="nonmarkingreturn" horiz-adv-x="682" 
 />
    <glyph glyph-name="CR" unicode="&#xd;" horiz-adv-x="1228" 
 />
    <glyph glyph-name="space" unicode=" " horiz-adv-x="446" 
 />
    <glyph glyph-name="exclam" unicode="!" horiz-adv-x="546" 
d="M356 379h-241l235 1157h242zM188 -27q-66 0 -110.5 45.5t-44.5 112.5q0 66 44.5 111t110.5 45q67 0 112.5 -45t45.5 -111q0 -67 -45 -112.5t-113 -45.5z" />
    <glyph glyph-name="quotedbl" unicode="&#x22;" horiz-adv-x="839" 
d="M412 860h-217l137 676h217zM776 860h-217l137 676h217z" />
    <glyph glyph-name="numbersign" unicode="#" horiz-adv-x="1583" 
d="M518 344l-172 -391l-207 47l154 344h-268l38 186h314l158 359h-377l39 186h421l187 418l205 -47l-164 -371h282l187 418l205 -47l-164 -371h272l-39 -186h-317l-160 -359h383l-39 -186h-428l-172 -391l-205 47l152 344h-285zM762 889l-160 -359h285l157 359h-282z" />
    <glyph glyph-name="dollar" unicode="$" horiz-adv-x="1306" 
d="M1268 975h-242q6 95 -34 158.5t-118 91.5l-79 -396l79 -30q58 -21 97.5 -38.5t88 -49t77.5 -66.5t49 -88.5t20 -118.5q0 -217 -161.5 -343t-426.5 -126l-49 -245h-163l53 258q-207 35 -313.5 155t-77.5 305h245q-10 -94 40.5 -154.5t150.5 -84.5l92 456l-31 13
q-129 46 -180 76q-164 95 -164 284q0 132 72 231t193.5 150t273.5 51l47 230h164l-49 -246q175 -38 271 -160t75 -313zM463 1055q0 -66 43.5 -101t136.5 -67l72 358q-111 -5 -181.5 -55t-70.5 -135zM776 594l-26 10l-86 -416q137 5 215.5 64t78.5 158q0 69 -45.5 110.5
t-136.5 73.5z" />
    <glyph glyph-name="percent" unicode="%" horiz-adv-x="1916" 
d="M1767 1436l-1339 -1495l-178 86l1335 1493zM442 702q-126 0 -201 78.5t-75 216.5q0 89 28 172.5t79 149.5t129.5 105.5t172.5 39.5q124 0 197.5 -78.5t73.5 -218.5q0 -88 -28.5 -171t-79.5 -148.5t-128 -105.5t-168 -40zM467 868q64 0 112.5 44.5t70.5 106.5t22 128
q0 73 -32 113t-91 40q-62 0 -110.5 -42.5t-71.5 -104.5t-23 -129q0 -75 32 -115.5t91 -40.5zM1419 -31q-126 0 -201 79.5t-75 217.5q0 119 47 223.5t142 173t220 68.5q122 0 196.5 -78.5t74.5 -218.5q0 -87 -29 -170t-79.5 -149t-128 -106t-167.5 -40zM1444 135q64 0 112 45
t69.5 107.5t21.5 128.5q0 72 -32 111.5t-89 39.5q-62 0 -111 -42.5t-72.5 -104.5t-23.5 -129q0 -73 33 -114.5t92 -41.5z" />
    <glyph glyph-name="ampersand" unicode="&#x26;" horiz-adv-x="1415" 
d="M543 -31q-243 0 -381.5 131.5t-98.5 343.5q15 75 53.5 138t98 112.5t116.5 84t134 71.5q-92 144 -92 264q0 150 112.5 250t288.5 100q172 0 263.5 -101.5t62.5 -254.5q-12 -58 -42 -107t-78.5 -88t-96.5 -67.5t-115 -59.5l236 -329q80 140 122 346h222
q-55 -319 -213 -531l149 -206l-192 -117l-115 166q-192 -146 -434 -146zM662 940q100 46 155 91.5t62 107.5q6 53 -28 89t-95 36q-68 0 -113 -41.5t-45 -108.5q0 -71 64 -174zM569 182q161 0 289 103l-287 413q-117 -58 -185 -117t-85 -143q-22 -115 51 -185.5t217 -70.5z
" />
    <glyph glyph-name="quotesingle" unicode="'" horiz-adv-x="464" 
d="M399 856h-206l139 680h207z" />
    <glyph glyph-name="parenleft" unicode="(" horiz-adv-x="643" 
d="M453 -217l-197 -68q-63 124 -100 283t-37 328q0 328 134.5 654t381.5 589l180 -84q-227 -246 -353 -545.5t-126 -605.5q0 -312 117 -551z" />
    <glyph glyph-name="parenright" unicode=")" horiz-adv-x="630" 
d="M57 -293l-192 74q220 246 345.5 564t125.5 630q0 301 -100 532l196 62q121 -263 121 -596q0 -342 -133 -681t-363 -585z" />
    <glyph glyph-name="asterisk" unicode="*" horiz-adv-x="1036" 
d="M618 610h-172l62 299l-311 -161l-52 151l318 166l-248 164l109 143l245 -162l60 301h172l-60 -301l310 160l51 -151l-305 -158l239 -160l-108 -143l-246 164z" />
    <glyph glyph-name="plus" unicode="+" horiz-adv-x="1169" 
d="M614 143h-221l78 385h-399l41 199h399l80 389h221l-80 -389h397l-38 -199h-400z" />
    <glyph glyph-name="comma" unicode="," horiz-adv-x="522" 
d="M397 303l-377 -711l-192 58l371 712z" />
    <glyph glyph-name="hyphen" unicode="-" horiz-adv-x="1067" 
d="M989 528h-917l41 199h917z" />
    <glyph glyph-name="period" unicode="." horiz-adv-x="475" 
d="M154 -27q-68 0 -113 45.5t-45 112.5q0 66 45.5 111t112.5 45t112 -45t45 -111q0 -68 -45 -113t-112 -45z" />
    <glyph glyph-name="slash" unicode="/" horiz-adv-x="782" 
d="M993 1565l-907 -1807l-225 66l907 1802z" />
    <glyph glyph-name="zero" unicode="0" horiz-adv-x="1271" 
d="M530 -31q-203 0 -317.5 134.5t-114.5 383.5q0 144 31 285t93.5 266t148 220t202 150.5t248.5 55.5q199 0 310.5 -133.5t111.5 -384.5q0 -143 -29 -283t-88.5 -265.5t-143 -221t-200.5 -151.5t-252 -56zM571 197q81 0 152 45.5t120.5 120t85.5 169t53 193.5t17 193
q0 321 -223 321q-101 0 -185.5 -68t-137.5 -175.5t-82 -231.5t-29 -244q0 -158 58 -240.5t171 -82.5z" />
    <glyph glyph-name="one" unicode="1" horiz-adv-x="782" 
d="M524 0h-248l218 1067q-131 -143 -353 -143h-16l47 235h16q160 0 256.5 64.5t122.5 189.5l4 21h244z" />
    <glyph glyph-name="two" unicode="2" horiz-adv-x="1179" 
d="M1161 999q-17 -87 -64.5 -160.5t-112.5 -126.5t-141.5 -99t-155 -88.5t-147 -85.5t-125 -99t-83.5 -119h704l-45 -221h-973l23 125q17 91 56.5 169t91 134.5t114 104.5t128.5 85.5t131 72t125 69t108 71t81 83.5t44 102q18 101 -38 164t-159 63q-120 0 -200 -74.5
t-105 -210.5h-250q40 244 194.5 375t380.5 131q222 0 338.5 -132t79.5 -333z" />
    <glyph glyph-name="three" unicode="3" horiz-adv-x="1210" 
d="M547 -31q-253 0 -394 128.5t-110 359.5h242q-12 -132 62.5 -199.5t217.5 -67.5q140 0 224.5 68t84.5 180q0 91 -62 141t-175 50h-215l39 202h215q119 0 193.5 64.5t74.5 167.5q0 83 -54.5 131.5t-150.5 48.5q-103 0 -183.5 -58t-111.5 -175h-249q48 217 206.5 335.5
t368.5 118.5q186 0 304 -92.5t118 -253.5q0 -143 -93 -247t-245 -138q121 -31 187.5 -112t66.5 -199q0 -199 -156.5 -326t-404.5 -127z" />
    <glyph glyph-name="four" unicode="4" horiz-adv-x="1294" 
d="M899 0h-246l66 319h-699l46 218l876 897h248l-180 -893h245l-45 -222h-245zM870 1075l-522 -534h414z" />
    <glyph glyph-name="five" unicode="5" horiz-adv-x="1218" 
d="M530 -31q-226 0 -353.5 126.5t-110.5 342.5h251q-5 -111 60.5 -178t185.5 -67q145 0 234.5 99t89.5 243q0 97 -53.5 155t-157.5 58q-150 0 -268 -115h-265l254 801h828l-45 -224h-611l-125 -389q66 60 152 93.5t176 33.5q163 0 260.5 -99.5t97.5 -285.5
q0 -166 -71.5 -300t-209.5 -214t-319 -80z" />
    <glyph glyph-name="six" unicode="6" horiz-adv-x="1271" 
d="M604 -31q-232 0 -366 147.5t-134 409.5q0 142 31 277.5t94.5 255t152.5 210t212.5 143t265.5 52.5q217 0 336 -121.5t96 -332.5h-245q11 109 -47.5 171t-170.5 62q-166 0 -287.5 -126t-174.5 -345q-10 -43 -15 -70q71 118 194 190.5t267 72.5q173 0 275 -108.5
t102 -299.5q0 -253 -165.5 -420.5t-420.5 -167.5zM616 190q150 0 240 100.5t90 241.5q0 104 -58 167t-161 63t-183.5 -53t-120.5 -131t-40 -162q0 -96 58.5 -161t174.5 -65z" />
    <glyph glyph-name="seven" unicode="7" horiz-adv-x="1105" 
d="M313 0h-305l901 1212h-725l43 222h1018l-45 -222z" />
    <glyph glyph-name="eight" unicode="8" horiz-adv-x="1247" 
d="M532 -31q-232 0 -363.5 96.5t-131.5 264.5q0 150 101.5 260.5t273.5 161.5q-89 46 -140 121t-51 171q0 126 71.5 222.5t193 147t272.5 50.5q213 0 336 -98.5t123 -259.5q0 -127 -76 -222t-215 -145q103 -44 161 -122.5t58 -182.5q0 -205 -165.5 -335t-447.5 -130z
M692 827q129 0 206 64.5t77 167.5q0 89 -61.5 140.5t-172.5 51.5q-125 0 -204.5 -63.5t-79.5 -163.5q0 -89 63.5 -143t171.5 -54zM549 193q152 0 247 72t95 186q0 92 -69 146t-187 54q-145 0 -246.5 -75t-101.5 -191q0 -90 68 -141t194 -51z" />
    <glyph glyph-name="nine" unicode="9" horiz-adv-x="1232" 
d="M500 -31q-219 0 -341.5 118.5t-105.5 328.5h242q-6 -112 55 -169t176 -57q154 0 263.5 122.5t152.5 338.5l12 58q-51 -105 -153 -166.5t-236 -61.5q-189 0 -299 113t-110 299q0 248 161.5 409.5t411.5 161.5q225 0 344 -145.5t119 -413.5q0 -137 -23.5 -267t-77 -252.5
t-131.5 -214t-196.5 -147t-263.5 -55.5zM610 688q76 0 139 30t102.5 78.5t61 107.5t21.5 120q0 97 -55.5 160t-159.5 63q-135 0 -228.5 -98.5t-93.5 -235.5q0 -107 58 -166t155 -59z" />
    <glyph glyph-name="colon" unicode=":" horiz-adv-x="477" 
d="M324 805q-68 0 -113 45.5t-45 112.5q0 66 45.5 110.5t112.5 44.5t112 -44.5t45 -110.5q0 -68 -45 -113t-112 -45zM156 -27q-68 0 -113 45.5t-45 112.5q0 66 45.5 111t112.5 45t112 -45t45 -111q0 -68 -45 -113t-112 -45z" />
    <glyph glyph-name="semicolon" unicode=";" horiz-adv-x="536" 
d="M371 805q-66 0 -111 45.5t-45 112.5q0 66 45 110.5t111 44.5q67 0 112 -44.5t45 -110.5q0 -68 -45 -113t-112 -45zM397 303l-377 -711l-192 58l371 712z" />
    <glyph glyph-name="less" unicode="&#x3c;" horiz-adv-x="1218" 
d="M999 154l-116 -181l-815 478l49 247l1011 476l109 -177l-934 -440z" />
    <glyph glyph-name="equal" unicode="=" horiz-adv-x="1191" 
d="M1141 723h-1016l41 203h1016zM1049 276h-1016l43 201h1016z" />
    <glyph glyph-name="greater" unicode="&#x3e;" horiz-adv-x="1220" 
d="M1118 451l-1012 -478l-110 181l936 438l-694 405l114 177l815 -476z" />
    <glyph glyph-name="question" unicode="?" horiz-adv-x="1132" 
d="M651 387h-237l16 82q14 67 45 122.5t70.5 93t84.5 70t89 61t81.5 58t64.5 68t36 84.5q19 95 -36 156t-158 61q-119 0 -198.5 -74.5t-102.5 -210.5h-252q42 243 194.5 374.5t370.5 131.5q223 0 341 -130t81 -326q-16 -87 -67.5 -156.5t-114 -114t-124.5 -83t-109 -85
t-58 -100.5zM502 -27q-68 0 -113 45.5t-45 112.5q0 66 45.5 111t112.5 45t112 -45t45 -111q0 -68 -45 -113t-112 -45z" />
    <glyph glyph-name="at" unicode="@" horiz-adv-x="1781" 
d="M815 -231q-345 0 -535 166.5t-190 480.5q0 197 72 377t199 316.5t314.5 218t405.5 81.5q306 0 480 -158t174 -444q0 -124 -32.5 -238t-91 -203t-147.5 -142.5t-194 -53.5q-92 0 -141.5 46t-38.5 118q-124 -164 -320 -164q-139 0 -210 86.5t-71 218.5q0 76 21.5 154.5
t64 150t100.5 127.5t137.5 89.5t168.5 33.5q100 0 161.5 -45t80.5 -123l67 152h107l-166 -594q-13 -47 3 -72.5t58 -25.5q79 0 143.5 71.5t98 178.5t33.5 221q0 212 -126 329t-366 117q-142 0 -270 -43t-224 -119t-166.5 -176t-106.5 -218t-36 -241q0 -251 149 -379.5
t423 -128.5q228 0 428 95l-31 -181q-181 -79 -426 -79zM827 315q95 0 176.5 76t116.5 201q38 132 -1 212.5t-140 80.5q-89 0 -162.5 -60t-112 -148t-38.5 -179q0 -82 42 -132.5t119 -50.5z" />
    <glyph glyph-name="A" unicode="A" horiz-adv-x="1492" 
d="M190 -6h-266l879 1436h244l296 -1436h-239l-72 354h-626zM874 1122l-335 -551h450z" />
    <glyph glyph-name="B" unicode="B" horiz-adv-x="1378" 
d="M739 0h-698l291 1434h669q164 0 261.5 -82t97.5 -222q0 -153 -104.5 -258t-268.5 -139q126 -15 203.5 -92t77.5 -199q0 -192 -145.5 -317t-383.5 -125zM532 1214l-75 -378h422q102 0 171.5 68.5t69.5 168.5q0 72 -40 106.5t-111 34.5h-437zM414 623l-82 -402h459
q102 0 166.5 72.5t64.5 169.5q0 77 -46.5 118.5t-129.5 41.5h-432z" />
    <glyph glyph-name="C" unicode="C" horiz-adv-x="1538" 
d="M692 -31q-268 0 -425.5 154t-157.5 428q0 185 61 351.5t169.5 291t269 197.5t349.5 73q270 0 417.5 -150.5t140.5 -432.5h-246q0 362 -342 362q-127 0 -235.5 -55t-181.5 -147t-114 -212.5t-41 -250.5q0 -187 95 -286t274 -99q161 0 287.5 92t195.5 268h248
q-99 -291 -293 -437.5t-471 -146.5z" />
    <glyph glyph-name="D" unicode="D" horiz-adv-x="1454" 
d="M575 0h-534l291 1434h516q263 0 417 -142.5t154 -406.5q0 -174 -59 -333t-165 -282t-267.5 -196.5t-352.5 -73.5zM532 1212l-200 -991h295q120 0 224 55t173 145.5t108 205t39 233.5q0 168 -89.5 260t-262.5 92h-287z" />
    <glyph glyph-name="E" unicode="E" horiz-adv-x="1251" 
d="M1061 0h-1020l291 1434h1001l-45 -222h-756l-73 -368h684l-45 -215h-684l-82 -408h772z" />
    <glyph glyph-name="F" unicode="F" horiz-adv-x="1236" 
d="M287 0h-246l291 1434h1016l-45 -222h-771l-79 -395h714l-45 -221h-714z" />
    <glyph glyph-name="G" unicode="G" horiz-adv-x="1587" 
d="M668 -31q-252 0 -405.5 155t-153.5 427q0 186 59.5 352t166 290.5t265.5 197.5t348 73q278 0 427.5 -150t140.5 -433h-246q-5 180 -88 271t-252 91q-128 0 -236.5 -55t-181 -147t-113.5 -212t-41 -251q0 -187 95 -286t272 -99q155 0 268.5 94t143.5 256h-432l43 207h487
q140 0 199.5 -68t31.5 -199l-98 -483h-215l88 438h-2q-60 -227 -208.5 -348t-362.5 -121z" />
    <glyph glyph-name="H" unicode="H" horiz-adv-x="1572" 
d="M287 0h-246l291 1434h246l-119 -590h778l121 590h246l-291 -1434h-246l127 623h-780z" />
    <glyph glyph-name="I" unicode="I" horiz-adv-x="546" 
d="M287 0h-246l291 1434h246z" />
    <glyph glyph-name="J" unicode="J" horiz-adv-x="1183" 
d="M455 -31q-218 0 -334.5 115t-77.5 307l43 203h246l-41 -203q-19 -94 33 -146t165 -52q109 0 186 55.5t99 165.5l207 1020h246l-207 -1026q-45 -219 -191 -329t-374 -110z" />
    <glyph glyph-name="K" unicode="K" horiz-adv-x="1427" 
d="M287 0h-246l291 1434h246l-138 -678l762 678h338l-682 -588l432 -846h-276l-342 686l-297 -256z" />
    <glyph glyph-name="L" unicode="L" horiz-adv-x="1196" 
d="M1018 0h-977l291 1434h246l-246 -1213h731z" />
    <glyph glyph-name="M" unicode="M" horiz-adv-x="1802" 
d="M287 0h-246l291 1434h289l217 -1147l684 1147h311l-291 -1434h-246l203 999l-598 -999h-217l-192 1006z" />
    <glyph glyph-name="N" unicode="N" horiz-adv-x="1523" 
d="M287 0h-246l291 1434h256l497 -1094l224 1094h245l-290 -1434h-258l-496 1094z" />
    <glyph glyph-name="O" unicode="O" horiz-adv-x="1570" 
d="M702 -31q-267 0 -429 158t-162 442q0 184 62.5 348.5t172.5 285t269 191t343 70.5q264 0 418 -161t154 -441q0 -180 -59 -342.5t-164.5 -284.5t-262.5 -194t-342 -72zM725 193q157 0 285.5 86t201 236t72.5 333q0 189 -94.5 292t-261.5 103q-161 0 -293 -86
t-206.5 -235.5t-74.5 -331.5q0 -190 97.5 -293.5t273.5 -103.5z" />
    <glyph glyph-name="P" unicode="P" horiz-adv-x="1406" 
d="M287 0h-246l291 1434h719q170 0 274.5 -99.5t104.5 -273.5q0 -108 -38.5 -206t-108.5 -173t-176.5 -119.5t-234.5 -44.5h-481zM532 1212l-96 -473h469q122 0 199.5 89.5t77.5 205.5q0 89 -48 133.5t-137 44.5h-465z" />
    <glyph glyph-name="Q" unicode="Q" horiz-adv-x="1574" 
d="M1386 -190l-180 -93l-186 314q-149 -62 -315 -62q-175 0 -308 68.5t-209.5 206.5t-76.5 329q0 244 107 447.5t301 323.5t435 120q269 0 422.5 -159.5t153.5 -444.5q0 -223 -88 -414.5t-246 -314.5zM725 193q101 0 178 32l-182 310l180 90l174 -293q99 89 155 224t56 292
q0 186 -94.5 290.5t-261.5 104.5q-161 0 -293 -86t-206.5 -235.5t-74.5 -331.5q0 -190 97.5 -293.5t271.5 -103.5z" />
    <glyph glyph-name="R" unicode="R" horiz-adv-x="1402" 
d="M287 0h-246l291 1434h696q164 0 267.5 -88.5t103.5 -249.5q0 -163 -110 -282.5t-279 -160.5q138 -31 159 -174l76 -479h-246l-65 438q-8 46 -40 74.5t-79 28.5h-418zM532 1212l-92 -454h443q118 0 194 83t76 197q0 86 -47 130t-135 44h-439z" />
    <glyph glyph-name="S" unicode="S" horiz-adv-x="1306" 
d="M616 -31q-276 0 -428.5 127t-119.5 346h245q-13 -125 77.5 -189.5t254.5 -64.5q145 0 229 59.5t84 162.5q0 69 -45.5 110.5t-136.5 73.5l-211 78q-129 46 -180 76q-164 95 -164 284q0 132 72 231t194 150t275 51q117 0 214 -31.5t167 -91t104 -154t21 -212.5h-242
q9 132 -69 201t-220 69q-120 0 -197 -50.5t-77 -139.5q0 -31 12 -56t27 -41t49.5 -33.5t56.5 -26t72 -26.5l194 -73q58 -21 97.5 -38.5t88 -49t77.5 -66.5t49 -88.5t20 -118.5q0 -217 -162.5 -343t-427.5 -126z" />
    <glyph glyph-name="T" unicode="T" horiz-adv-x="1323" 
d="M676 0h-248l246 1212h-475l43 222h1202l-45 -222h-477z" />
    <glyph glyph-name="U" unicode="U" horiz-adv-x="1437" 
d="M606 -31q-166 0 -285 58.5t-173.5 175t-22.5 274.5l194 957h246l-192 -953q-56 -286 272 -286q71 0 132.5 15t116.5 47t93.5 89.5t54.5 136.5l193 951h246l-193 -959q-50 -245 -223.5 -375.5t-458.5 -130.5z" />
    <glyph glyph-name="V" unicode="V" horiz-adv-x="1409" 
d="M733 0h-258l-266 1434h248l198 -1102l635 1102h275z" />
    <glyph glyph-name="W" unicode="W" horiz-adv-x="1980" 
d="M592 0h-268l-115 1434h246l80 -1084l516 1084h229l76 -1072l516 1072h264l-696 -1434h-266l-74 1075z" />
    <glyph glyph-name="X" unicode="X" horiz-adv-x="1466" 
d="M252 0h-318l705 735l-373 699h271l272 -521l481 521h314l-678 -725l381 -709h-271l-282 532z" />
    <glyph glyph-name="Y" unicode="Y" horiz-adv-x="1376" 
d="M702 0h-247l125 612l-377 822h260l266 -592l504 592h305l-711 -822z" />
    <glyph glyph-name="Z" unicode="Z" horiz-adv-x="1247" 
d="M1055 0h-1084l47 227l959 985h-721l47 222h1024l-47 -228l-956 -985h776z" />
    <glyph glyph-name="bracketleft" unicode="[" horiz-adv-x="710" 
d="M512 -262h-500l373 1827h500l-39 -187h-287l-297 -1454h287z" />
    <glyph glyph-name="backslash" unicode="\" horiz-adv-x="751" 
d="M598 -176l-221 -66l-172 1807l221 61z" />
    <glyph glyph-name="bracketright" unicode="]" horiz-adv-x="712" 
d="M743 1565l-370 -1827h-500l39 186h287l295 1454h-289l39 187h499z" />
    <glyph glyph-name="asciicircum" unicode="^" horiz-adv-x="991" 
d="M403 885h-266l430 549h215l211 -549h-235l-115 315z" />
    <glyph glyph-name="underscore" unicode="_" horiz-adv-x="1107" 
d="M877 -229h-959l41 198h959z" />
    <glyph glyph-name="grave" unicode="`" horiz-adv-x="722" 
d="M866 1323l-135 -141l-487 479l135 137z" />
    <glyph glyph-name="a" unicode="a" horiz-adv-x="1177" 
d="M393 -23q-170 0 -270 82t-100 217q0 57 14.5 104t38 80.5t63 60.5t78 43.5t96.5 31t104.5 22.5t114.5 17q149 19 185 29q90 24 109 89q2 6 3 13q12 67 -38 110.5t-154 43.5q-107 0 -183.5 -47.5t-103.5 -143.5h-241q48 189 194 289t346 100q218 0 331 -107.5t75 -297.5
l-86 -418q-11 -57 4 -82t65 -25h43l-39 -188h-61q-134 0 -186 70q-30 39 -33 80q-127 -173 -369 -173zM451 168q123 0 205.5 63.5t105.5 176.5l35 155q-25 -33 -73.5 -54t-87.5 -28t-112 -16q-53 -7 -83 -12t-68.5 -17t-58 -28t-34 -43.5t-14.5 -65.5q0 -128 185 -131z" />
    <glyph glyph-name="b" unicode="b" horiz-adv-x="1265" 
d="M633 -31q-140 0 -233 69t-117 185l-76 -223h-189l312 1536h243l-122 -598q73 83 174.5 131.5t216.5 48.5q166 0 266 -115t100 -323q0 -132 -39 -258t-109.5 -227.5t-182 -163.5t-244.5 -62zM598 174q82 0 153 42.5t117 111.5t72.5 153t26.5 168q0 127 -56.5 195.5
t-167.5 68.5q-86 0 -157.5 -39.5t-118.5 -105t-72.5 -148.5t-25.5 -171q0 -126 61.5 -200.5t167.5 -74.5z" />
    <glyph glyph-name="c" unicode="c" horiz-adv-x="1175" 
d="M512 -31q-214 0 -334.5 122t-120.5 333q0 140 48 266.5t133 221t211.5 150.5t273.5 56q212 0 319.5 -121t85.5 -331h-227q5 118 -48.5 181.5t-166.5 63.5q-115 0 -205.5 -65.5t-137 -169.5t-46.5 -223q0 -136 68 -206.5t180 -70.5q109 0 190.5 63.5t120.5 186.5h229
q-58 -223 -208 -340t-365 -117z" />
    <glyph glyph-name="d" unicode="d" horiz-adv-x="1239" 
d="M485 -31q-194 0 -310 119.5t-116 331.5q0 140 43 267t119 222.5t188 152t242 56.5q125 0 212.5 -54t127.5 -153l127 625h244l-311 -1536h-191l12 174q-141 -205 -387 -205zM545 174q88 0 161 41t118.5 108.5t70.5 151t25 172.5q0 126 -62 196t-178 70
q-111 0 -198.5 -65.5t-133 -169.5t-45.5 -223q0 -134 62.5 -207.5t179.5 -73.5z" />
    <glyph glyph-name="e" unicode="e" horiz-adv-x="1157" 
d="M514 -31q-210 0 -332.5 123.5t-122.5 339.5q0 106 27 206.5t81 187t128.5 152t176 103t216.5 37.5q224 0 336.5 -151t67.5 -420l-11 -53h-786q-14 -144 51.5 -232t196.5 -88q189 0 276 170h228q-69 -185 -209.5 -280t-323.5 -95zM336 664h543q3 122 -50 185.5t-159 63.5
q-114 0 -200.5 -68.5t-133.5 -180.5z" />
    <glyph glyph-name="f" unicode="f" horiz-adv-x="835" 
d="M377 0h-244l180 881h-190l43 204h188l27 136q34 166 128.5 240.5t281.5 74.5h237l-41 -205h-219q-57 0 -95 -32t-50 -95l-25 -119h315l-43 -204h-313z" />
    <glyph glyph-name="g" unicode="g" horiz-adv-x="1255" 
d="M430 -442q-143 0 -247.5 45t-153.5 132.5t-25 203.5h234q-14 -83 41.5 -134t181.5 -51q131 0 218 69.5t112 194.5l32 168q-128 -170 -350 -170q-186 0 -298 114.5t-112 318.5q0 134 42 255.5t115.5 213t181.5 146t233 54.5q135 0 223.5 -66t118.5 -186l76 226h184
l-209 -1074q-43 -222 -195.5 -341t-402.5 -119zM535 219q81 0 148.5 38.5t110.5 102t66 141.5t23 161q0 120 -57.5 185.5t-166.5 65.5q-103 0 -185 -62t-124.5 -160t-42.5 -210q0 -125 59.5 -193.5t168.5 -68.5z" />
    <glyph glyph-name="h" unicode="h" horiz-adv-x="1183" 
d="M262 0h-244l312 1536h243l-114 -569q69 70 162.5 110.5t193.5 40.5q176 0 252 -112t39 -297l-141 -709h-244l139 694q46 213 -151 213q-116 0 -202.5 -71.5t-111.5 -182.5z" />
    <glyph glyph-name="i" unicode="i" horiz-adv-x="489" 
d="M418 1231q-66 0 -112 46t-46 112t46 110.5t112 44.5t110.5 -44.5t44.5 -110.5t-44.5 -112t-110.5 -46zM256 0h-244l221 1085h244z" />
    <glyph glyph-name="j" unicode="j" horiz-adv-x="491" 
d="M418 1231q-66 0 -111 46t-45 112t45 110.5t111 44.5q67 0 111 -44.5t44 -110.5q0 -67 -44 -112.5t-111 -45.5zM-190 -410h-172l40 205h156q66 0 109.5 37t58.5 107l231 1146h244l-235 -1165q-34 -167 -139 -248.5t-293 -81.5z" />
    <glyph glyph-name="k" unicode="k" horiz-adv-x="1173" 
d="M262 0h-244l312 1536h243l-184 -911l541 460h309l-473 -391l305 -694h-260l-231 541l-252 -209z" />
    <glyph glyph-name="l" unicode="l" horiz-adv-x="497" 
d="M262 0h-244l312 1536h243z" />
    <glyph glyph-name="m" unicode="m" horiz-adv-x="1871" 
d="M256 0h-244l221 1085h193l-10 -157q67 86 171 138t218 52q119 0 194 -55.5t99 -155.5q67 96 176 153.5t229 57.5q175 0 251.5 -111.5t39.5 -297.5l-141 -709h-244l139 694q22 101 -11.5 157t-139.5 56q-112 0 -197 -66t-110 -169l-136 -672h-241l139 694q46 213 -154 213
q-115 0 -200 -70.5t-109 -179.5z" />
    <glyph glyph-name="n" unicode="n" horiz-adv-x="1177" 
d="M256 0h-244l221 1085h189l-8 -161q69 88 174.5 141t220.5 53q174 0 251 -112.5t40 -296.5l-142 -709h-243l139 694q46 213 -152 213q-116 0 -202.5 -70.5t-110.5 -179.5z" />
    <glyph glyph-name="o" unicode="o" horiz-adv-x="1220" 
d="M506 -31q-212 0 -330.5 120t-118.5 327q0 143 48 271t133.5 223.5t211 151.5t273.5 56q209 0 325.5 -119.5t116.5 -320.5q0 -194 -78.5 -354t-230.5 -257.5t-350 -97.5zM547 176q84 0 156 39.5t120.5 104.5t75.5 150t27 177q0 126 -65 195t-183 69q-114 0 -202.5 -66.5
t-133.5 -170t-45 -223.5q0 -136 68.5 -205.5t181.5 -69.5z" />
    <glyph glyph-name="p" unicode="p" horiz-adv-x="1263" 
d="M176 -410h-244l304 1495h190l-10 -190q70 100 183 161.5t241 61.5q166 0 266 -115t100 -323q0 -132 -39 -258t-109.5 -227.5t-182 -163.5t-244.5 -62q-125 0 -212.5 55t-123.5 150zM596 174q82 0 153 42.5t117 111.5t72.5 153t26.5 168q0 127 -56.5 195.5t-167.5 68.5
q-86 0 -157.5 -39.5t-118.5 -105t-72.5 -148.5t-25.5 -171q0 -126 61.5 -200.5t167.5 -74.5z" />
    <glyph glyph-name="q" unicode="q" horiz-adv-x="1286" 
d="M967 -410h-244l108 533q-135 -154 -346 -154q-194 0 -310 119.5t-116 331.5q0 140 43 267t119 222.5t188 152t242 56.5q138 0 229.5 -64.5t125.5 -181.5l73 213h191zM545 174q88 0 161 41t118.5 108.5t70.5 151t25 172.5q0 126 -62 196t-178 70q-111 0 -198.5 -65.5
t-133 -169.5t-45.5 -223q0 -134 62.5 -207.5t179.5 -73.5z" />
    <glyph glyph-name="r" unicode="r" horiz-adv-x="798" 
d="M256 0h-244l221 1085h189l-10 -190q143 203 428 203h34l-47 -238h-34q-171 0 -281 -81t-145 -230z" />
    <glyph glyph-name="s" unicode="s" horiz-adv-x="1005" 
d="M465 -31q-222 0 -340.5 99t-97.5 278h225q-7 -87 49 -132.5t158 -45.5q92 0 147.5 37t55.5 104q0 22 -7 40t-16.5 30t-29.5 24t-35 18.5t-44 18.5l-129 49q-50 19 -83.5 34.5t-71.5 41t-60.5 53.5t-37.5 69t-15 91q-1 153 120 246.5t308 93.5q189 0 297 -99t98 -280h-221
q1 91 -50.5 136t-139.5 45q-84 0 -132 -33.5t-48 -89.5q0 -22 8.5 -40.5t17.5 -29.5t31 -23t32.5 -16.5t38.5 -14.5q9 -3 13 -5l119 -47q71 -29 114.5 -52.5t84 -58t59 -79.5t18.5 -105q0 -162 -122 -259.5t-314 -97.5z" />
    <glyph glyph-name="t" unicode="t" horiz-adv-x="819" 
d="M635 0h-133q-182 0 -258.5 85t-42.5 247l110 549h-188l43 204h186l76 371h246l-76 -371h279l-43 -204h-277l-111 -537q-15 -80 9.5 -109.5t99.5 -29.5h121z" />
    <glyph glyph-name="u" unicode="u" horiz-adv-x="1171" 
d="M406 -31q-188 0 -279.5 115t-54.5 299l143 702h242l-140 -692q-20 -99 24 -156t146 -57q111 0 188 68t105 174l135 663h244l-221 -1085h-190l10 160q-57 -91 -148.5 -141t-203.5 -50z" />
    <glyph glyph-name="v" unicode="v" horiz-adv-x="1210" 
d="M621 0h-252l-232 1085h248l154 -802l479 802h276z" />
    <glyph glyph-name="w" unicode="w" horiz-adv-x="1615" 
d="M492 0h-254l-101 1085h242l57 -790l379 790h201l57 -763l367 763h260l-543 -1085h-250l-57 741z" />
    <glyph glyph-name="x" unicode="x" horiz-adv-x="1138" 
d="M219 0h-295l520 559l-266 526h246l176 -360l324 360h290l-505 -553l272 -532h-250l-178 379z" />
    <glyph glyph-name="y" unicode="y" horiz-adv-x="1196" 
d="M106 -410h-198l41 205h198q127 0 179 90l65 115h-45l-209 1085h246l147 -843l484 843h266l-731 -1271q-45 -78 -96.5 -124.5t-137 -73t-209.5 -26.5z" />
    <glyph glyph-name="z" unicode="z" horiz-adv-x="1021" 
d="M831 0h-862l47 221l699 651h-547l43 213h833l-45 -221l-700 -649h575z" />
    <glyph glyph-name="braceleft" unicode="{" horiz-adv-x="737" 
d="M537 -262h-158q-141 0 -210.5 78.5t-41.5 210.5l82 405q12 63 -25.5 98t-120.5 35l35 170q82 0 134.5 34t64.5 97l80 387q30 157 121.5 234.5t271.5 77.5h139l-37 -187h-133q-127 0 -151 -131l-82 -399q-33 -156 -195 -201q67 -21 97.5 -73t15.5 -130l-82 -397
q-22 -123 100 -123h133z" />
    <glyph glyph-name="bar" unicode="|" horiz-adv-x="569" 
d="M250 -236h-246l361 1772h245z" />
    <glyph glyph-name="braceright" unicode="}" horiz-adv-x="737" 
d="M33 -262h-160l37 186h135q126 0 148 123l81 397q17 79 68 132t127 73q-142 47 -113 199l82 399q13 68 -8.5 99.5t-91.5 31.5h-133l39 187h139q165 0 231.5 -79.5t36.5 -232.5l-80 -387q-12 -63 26 -97t120 -34l-33 -170q-83 0 -135 -35t-64 -98l-84 -405
q-29 -140 -116.5 -214.5t-251.5 -74.5z" />
    <glyph glyph-name="asciitilde" unicode="~" horiz-adv-x="1193" 
d="M858 383q-71 0 -141.5 32.5t-117 71t-100.5 71t-96 32.5q-54 0 -89.5 -45t-47.5 -133h-215q27 196 116.5 297.5t213.5 101.5q56 0 110 -21.5t96.5 -52.5t81.5 -61.5t79.5 -52t76.5 -21.5q101 0 119 170h219q-52 -389 -305 -389z" />
    <glyph glyph-name="exclamdown" unicode="&#xa1;" horiz-adv-x="546" 
d="M358 805q-66 0 -110.5 45.5t-44.5 112.5q0 66 44.5 110.5t110.5 44.5q67 0 112.5 -44.5t45.5 -110.5q0 -67 -45 -112.5t-113 -45.5zM190 -444h-243l237 1157h242z" />
    <glyph glyph-name="cent" unicode="&#xa2;" horiz-adv-x="1175" 
d="M555 -104h-164l53 256q-167 28 -259.5 144.5t-92.5 299.5q0 174 71 323.5t205 248t308 118.5l47 234h164l-49 -236q173 -23 259 -141t66 -305h-227q9 198 -141 235l-148 -717q85 18 148 79t96 163h229q-55 -207 -188.5 -322.5t-327.5 -130.5zM487 365l146 706
q-136 -34 -218.5 -161t-82.5 -285q0 -105 41 -170.5t114 -89.5z" />
    <glyph glyph-name="sterling" unicode="&#xa3;" horiz-adv-x="1333" 
d="M762 0h-782l45 223q163 0 252.5 58.5t89.5 177.5q0 58 -21 137h-246l39 184h150q-25 98 -25 185q0 224 154.5 361.5t406.5 137.5q222 0 338.5 -116.5t98.5 -358.5h-248q4 132 -50.5 192t-164.5 60q-132 0 -206.5 -73t-74.5 -199q0 -84 31 -189h395l-39 -184h-303
q12 -55 12 -109q0 -95 -63.5 -167.5t-159.5 -96.5h400q148 0 180 152l41 200h229l-41 -200q-39 -191 -145 -283t-293 -92z" />
    <glyph glyph-name="currency" unicode="&#xa4;" horiz-adv-x="1177" 
d="M309 270l-196 -164l-103 103l203 166q-37 67 -37 164q0 206 131 350l-131 166l113 88l129 -162q119 72 266 72q140 0 227 -66l187 156l102 -101l-199 -163q35 -72 35 -168q0 -98 -35.5 -187.5t-99.5 -156.5l133 -170l-110 -91l-138 173q-120 -68 -262 -68q-129 0 -215 59
zM563 414q113 0 185.5 78.5t72.5 185.5q0 82 -47 128t-127 46q-111 0 -183.5 -79t-72.5 -187q0 -82 45 -127t127 -45z" />
    <glyph glyph-name="yen" unicode="&#xa5;" horiz-adv-x="1376" 
d="M702 0h-247l41 201h-408l31 147h407l25 119h-408l29 145h408l-377 822h260l266 -592l504 592h305l-711 -822h418l-31 -145h-417l-25 -119h418l-29 -147h-418z" />
    <glyph glyph-name="brokenbar" unicode="&#xa6;" horiz-adv-x="571" 
d="M453 758h-246l158 778h245zM250 -236h-246l158 779h246z" />
    <glyph glyph-name="section" unicode="&#xa7;" horiz-adv-x="1204" 
d="M479 -209q-206 0 -319.5 97.5t-93.5 269.5h225q-6 -81 49 -124.5t156 -43.5q92 0 149 37.5t57 107.5q0 49 -30.5 74t-100.5 53l-129 49q-63 25 -105 46.5t-82.5 53.5t-60.5 75t-20 98q-1 110 74.5 187.5t197.5 123.5q-67 39 -104 92.5t-37 134.5q-1 155 123.5 248.5
t312.5 93.5q189 0 293.5 -95.5t95.5 -272.5h-221q1 85 -48 127.5t-136 42.5q-84 0 -136 -34.5t-52 -92.5q0 -26 10.5 -45.5t30.5 -33t39 -22.5t47 -19q9 -3 14 -5l119 -47q141 -58 207.5 -116t66.5 -155q0 -110 -82 -191.5t-209 -115.5q81 -43 121.5 -97.5t40.5 -139.5
q0 -166 -128 -263.5t-335 -97.5zM547 489l129 -51q76 34 119 89t43 118q0 31 -9 53t-32 39t-40.5 25.5t-54.5 23.5l-135 52q-79 -36 -122.5 -87t-43.5 -112q0 -34 9.5 -58.5t35.5 -42.5t38.5 -24t50.5 -20q8 -3 12 -5z" />
    <glyph glyph-name="dieresis" unicode="&#xa8;" horiz-adv-x="843" 
d="M373 1212q-62 0 -106 43.5t-44 106.5q0 61 44 104t106 43q61 0 104 -42.5t43 -104.5q0 -63 -42.5 -106.5t-104.5 -43.5zM807 1212q-63 0 -106.5 43.5t-43.5 106.5q0 62 43.5 104.5t106.5 42.5q61 0 104 -42.5t43 -104.5q0 -63 -42.5 -106.5t-104.5 -43.5z" />
    <glyph glyph-name="copyright" unicode="&#xa9;" horiz-adv-x="1757" 
d="M762 -104q-299 0 -476 171t-177 468q0 198 69.5 378.5t191.5 316t301.5 216t387.5 80.5q304 0 480.5 -172.5t176.5 -481.5q0 -154 -42 -298.5t-125 -267t-196.5 -214.5t-266 -144t-324.5 -52zM782 55q167 0 311.5 66t241.5 176t152 255t55 302q0 240 -128 376t-367 136
q-163 0 -307 -65.5t-244 -175.5t-157.5 -255.5t-57.5 -302.5q0 -241 129.5 -376.5t371.5 -135.5zM852 317q-140 0 -223.5 83t-83.5 229q0 126 56 235t161 176.5t237 67.5q147 0 223.5 -82t63.5 -229h-160q6 76 -34.5 120t-114.5 44q-78 0 -139.5 -47t-93 -117.5
t-31.5 -147.5q0 -89 45 -137.5t125 -48.5q73 0 128.5 42t82.5 124h159q-43 -150 -151 -231t-250 -81z" />
    <glyph glyph-name="ordfeminine" unicode="&#xaa;" horiz-adv-x="929" 
d="M418 623q-125 0 -200 60t-75 159q0 49 12.5 87.5t40 65t57 44t77.5 30t86.5 19.5t97.5 14q121 16 165.5 33t51.5 57q9 51 -30 79.5t-115 28.5q-72 0 -128.5 -30.5t-76.5 -98.5h-180q36 138 147 211.5t260 73.5q158 0 241 -80t54 -221l-55 -272q-9 -46 2.5 -68t50.5 -22
h29l-33 -154h-45q-91 0 -137 49q-22 29 -29 62q-88 -127 -268 -127zM457 770q87 -2 148.5 41t76.5 121l20 106q-15 -25 -51 -41t-60.5 -20.5t-82.5 -13.5q-104 -16 -130 -26q-54 -21 -54 -75q0 -42 35.5 -66t97.5 -26z" />
    <glyph glyph-name="guillemotleft" unicode="&#xab;" horiz-adv-x="1196" 
d="M555 168l-147 -133l-349 436l43 201l519 432l141 -133l-510 -424zM1022 168l-148 -133l-348 436l41 201l520 432l140 -133l-508 -424z" />
    <glyph glyph-name="logicalnot" unicode="&#xac;" horiz-adv-x="1183" 
d="M979 35h-225l92 457h-783l41 200h1008z" />
    <glyph glyph-name="registered" unicode="&#xae;" horiz-adv-x="1222" 
d="M608 420q-209 0 -336 120t-127 322q0 184 83 336t234.5 242t340.5 90q205 0 326.5 -120.5t121.5 -322.5q0 -140 -46.5 -263t-129.5 -212t-204 -140.5t-263 -51.5zM631 555q214 0 345.5 147.5t131.5 368.5q0 151 -85.5 236.5t-244.5 85.5q-106 0 -198 -40.5t-155.5 -109
t-99.5 -161.5t-36 -197q0 -155 91 -242.5t251 -87.5zM557 723h-125l105 506h276q69 0 110.5 -33.5t41.5 -89.5q0 -58 -39.5 -103t-100.5 -65q54 -11 60 -66l18 -149h-125l-12 127q-3 35 -45 35h-131zM639 1118l-27 -131h156q32 0 53 25.5t21 56.5q0 49 -49 49h-154z" />
    <glyph glyph-name="macron" unicode="&#xaf;" horiz-adv-x="856" 
d="M975 1270h-799l39 190h799z" />
    <glyph glyph-name="degree" unicode="&#xb0;" horiz-adv-x="747" 
d="M434 795q-134 1 -200.5 83.5t-55.5 206.5q13 141 117 243.5t254 101.5q131 0 197 -82.5t55 -208.5q-13 -142 -114 -243t-253 -101zM461 958q71 0 119 52t53 123q5 58 -24.5 95.5t-88.5 37.5q-72 0 -120.5 -51t-53.5 -121q-3 -59 27 -97.5t88 -38.5z" />
    <glyph glyph-name="plusminus" unicode="&#xb1;" horiz-adv-x="1253" 
d="M692 324h-221l61 299h-428l41 200h428l62 299h221l-61 -299h428l-41 -200h-428zM1063 39h-1079l43 201h1077z" />
    <glyph glyph-name="uni00B2" unicode="&#xb2;" horiz-adv-x="770" 
d="M752 844h-572l15 69q12 66 43.5 119.5t71.5 88t86 62.5t91 50t82.5 43t64 49t32.5 61q9 50 -19 81.5t-78 31.5q-55 0 -92.5 -33.5t-50.5 -95.5h-174q27 142 116 214.5t218 72.5q132 0 203.5 -81t50.5 -198q-10 -51 -39.5 -94t-67.5 -70.5t-84.5 -55t-88.5 -48.5
t-81.5 -50.5t-60.5 -60.5h364z" />
    <glyph glyph-name="uni00B3" unicode="&#xb3;" horiz-adv-x="763" 
d="M473 823q-146 0 -229 74.5t-68 210.5h172q-5 -62 30.5 -96.5t104.5 -34.5q62 0 102 30t40 89q0 40 -28 63t-77 23h-123l29 137h117q55 0 89 29t34 73q0 39 -27.5 61.5t-71.5 22.5q-57 0 -96 -30.5t-51 -85.5h-176q27 132 118.5 200t221.5 68q116 0 181.5 -54.5
t65.5 -144.5q0 -73 -49 -130t-129 -77q67 -19 105.5 -66t38.5 -112q0 -110 -89 -180t-235 -70z" />
    <glyph glyph-name="acute" unicode="&#xb4;" horiz-adv-x="749" 
d="M954 1632l-643 -450l-135 145l643 451z" />
    <glyph glyph-name="paragraph" unicode="&#xb6;" horiz-adv-x="1312" 
d="M629 -211h-219l149 729h-16q-182 0 -286.5 99.5t-104.5 263.5q0 152 75.5 279t209 200.5t294.5 73.5h602l-336 -1645h-219l295 1448h-147z" />
    <glyph glyph-name="periodcentered" unicode="&#xb7;" horiz-adv-x="507" 
d="M276 494q-67 0 -112 44.5t-45 110.5q0 68 45 113t112 45q68 0 113 -45.5t45 -112.5q0 -66 -45.5 -110.5t-112.5 -44.5z" />
    <glyph glyph-name="cedilla" unicode="&#xb8;" horiz-adv-x="354" 
d="M221 0l-203 -463l-192 37l201 459z" />
    <glyph glyph-name="uni00B9" unicode="&#xb9;" horiz-adv-x="575" 
d="M487 844h-182l115 561q-56 -80 -184 -80h-29l37 184h28q164 0 193 117l2 12h182z" />
    <glyph glyph-name="ordmasculine" unicode="&#xba;" horiz-adv-x="921" 
d="M483 621q-149 0 -236 86.5t-87 234.5q0 106 34.5 200t96.5 163.5t152.5 110t197.5 40.5q153 0 238.5 -86.5t85.5 -234.5q0 -139 -57 -255t-168.5 -187.5t-256.5 -71.5zM508 776q82 0 146.5 50.5t96 125.5t31.5 158q0 91 -44 140.5t-126 49.5q-83 0 -146 -48.5
t-93.5 -122.5t-30.5 -158q0 -93 45.5 -144t120.5 -51z" />
    <glyph glyph-name="guillemotright" unicode="&#xbb;" horiz-adv-x="1200" 
d="M649 471l-524 -436l-145 133l518 428l-297 375l145 133l344 -432zM1108 471l-524 -436l-144 133l518 428l-299 375l146 133l346 -432z" />
    <glyph glyph-name="onequarter" unicode="&#xbc;" horiz-adv-x="1642" 
d="M1591 1432l-1347 -1508l-185 90l1348 1506zM446 639h-182l115 563q-55 -80 -184 -80h-29l37 185h28q164 0 193 114l2 13h182zM1370 0h-182l31 152h-375l33 165l475 478h180l-102 -494h124l-30 -149h-123zM1305 571l-269 -270h213z" />
    <glyph glyph-name="onehalf" unicode="&#xbd;" horiz-adv-x="1777" 
d="M1591 1432l-1347 -1508l-185 90l1348 1506zM446 639h-182l115 563q-55 -80 -184 -80h-29l37 185h28q164 0 193 114l2 13h182zM1589 0h-571l12 70q13 67 44 120.5t71.5 88t86.5 62.5t90.5 50t82 43.5t64 49t32.5 61.5q9 50 -17.5 81t-76.5 31q-55 0 -93.5 -34.5
t-51.5 -96.5h-175q27 143 116.5 216t217.5 73q132 0 204 -81t50 -197q-11 -61 -49 -109.5t-89.5 -80.5t-103.5 -59t-102.5 -60t-75.5 -70h365z" />
    <glyph glyph-name="threequarters" unicode="&#xbe;" horiz-adv-x="1853" 
d="M1802 1432l-1349 -1508l-185 90l1350 1506zM420 621q-145 0 -228.5 73.5t-66.5 208.5h172q-6 -61 29 -95t104 -34q62 0 101.5 30t39.5 87q0 42 -27 65t-77 23h-121l27 135h116q55 0 89 30t34 75q0 38 -27 59.5t-71 21.5q-57 0 -96 -30t-49 -84h-176q27 131 118 199.5
t219 68.5q117 0 182.5 -54t65.5 -145q0 -73 -48.5 -129.5t-127.5 -76.5q66 -20 104.5 -68.5t38.5 -112.5q0 -108 -89.5 -177.5t-235.5 -69.5zM1579 0h-180l31 152h-377l34 165l476 478h178l-101 -494h123l-28 -149h-125zM1516 571l-271 -270h213z" />
    <glyph glyph-name="questiondown" unicode="&#xbf;" horiz-adv-x="1122" 
d="M633 1118q66 0 110.5 -44.5t44.5 -110.5q0 -67 -44.5 -112.5t-110.5 -45.5q-67 0 -112.5 45.5t-45.5 112.5q0 66 45.5 110.5t112.5 44.5zM481 705h238l-17 -80q-13 -67 -44 -123t-70.5 -94t-84.5 -70.5t-89.5 -61t-82 -58t-64.5 -68t-36 -84.5q-19 -95 37 -156.5
t160 -61.5q118 0 197 74.5t104 210.5h250q-40 -243 -192.5 -374.5t-370.5 -131.5q-224 0 -342.5 131t-81.5 328q12 64 43 118t71 92t85.5 71t90.5 62t83 57t65 63.5t35 75.5z" />
    <glyph glyph-name="Agrave" unicode="&#xc0;" horiz-adv-x="1492" 
d="M1108 1642l-135 -139l-486 477l134 140zM190 -6h-266l879 1436h244l296 -1436h-239l-72 354h-626zM874 1122l-335 -551h450z" />
    <glyph glyph-name="Aacute" unicode="&#xc1;" horiz-adv-x="1492" 
d="M1548 1954l-643 -451l-133 146l643 450zM190 -6h-266l879 1436h244l296 -1436h-239l-72 354h-626zM874 1122l-335 -551h450z" />
    <glyph glyph-name="Acircumflex" unicode="&#xc2;" horiz-adv-x="1492" 
d="M1026 1802l-375 -293l-133 140l440 336h158l326 -361l-162 -115zM190 -6h-266l879 1436h244l296 -1436h-239l-72 354h-626zM874 1122l-335 -551h450z" />
    <glyph glyph-name="Atilde" unicode="&#xc3;" horiz-adv-x="1492" 
d="M1178 1583q-51 0 -101 22.5t-83.5 49t-71 49t-66.5 22.5q-44 0 -68.5 -37t-29.5 -96h-189q10 145 81 230.5t169 85.5q47 0 95 -23t80.5 -51t71.5 -51t71 -23q79 0 82 131h184q-3 -151 -64.5 -230t-160.5 -79zM190 -6h-266l879 1436h244l296 -1436h-239l-72 354h-626z
M874 1122l-335 -551h450z" />
    <glyph glyph-name="Adieresis" unicode="&#xc4;" horiz-adv-x="1492" 
d="M762 1542q-63 0 -106.5 44t-43.5 106t43.5 104.5t106.5 42.5q62 0 104.5 -42.5t42.5 -104.5t-43 -106t-104 -44zM1194 1542q-62 0 -106 44t-44 106q0 61 44 104t106 43t104.5 -42.5t42.5 -104.5t-43 -106t-104 -44zM190 -6h-266l879 1436h244l296 -1436h-239l-72 354
h-626zM874 1122l-335 -551h450z" />
    <glyph glyph-name="Aring" unicode="&#xc5;" horiz-adv-x="1492" 
d="M981 1509q-101 0 -168.5 65t-67.5 161q0 97 67.5 161t168.5 64q103 0 171.5 -64t68.5 -161q0 -96 -69 -161t-171 -65zM981 1634q46 0 74 30t28 71q0 42 -28 71t-74 29t-73 -28.5t-27 -71.5q0 -42 27.5 -71.5t72.5 -29.5zM190 -6h-266l879 1436h244l296 -1436h-239
l-72 354h-626zM874 1122l-335 -551h450z" />
    <glyph glyph-name="AE" unicode="&#xc6;" horiz-adv-x="1996" 
d="M186 0h-260l832 1434h1321l-45 -222h-756l-74 -368h684l-45 -215h-684l-82 -408h772l-43 -221h-1020l72 354h-467zM889 1210l-371 -639h383l131 639h-143z" />
    <glyph glyph-name="Ccedilla" unicode="&#xc7;" horiz-adv-x="1538" 
d="M928 1243q-127 0 -235.5 -55t-181.5 -147t-114 -212.5t-41 -250.5q0 -187 95 -286t274 -99q161 0 287.5 92t195.5 268h248q-90 -265 -260.5 -411t-411.5 -169l-190 -436l-191 37l175 403q-219 31 -344 181t-125 393q0 185 61 351.5t169.5 291t269 197.5t349.5 73
q270 0 417.5 -150.5t140.5 -432.5h-246q0 362 -342 362z" />
    <glyph glyph-name="Egrave" unicode="&#xc8;" horiz-adv-x="1251" 
d="M1024 1642l-135 -139l-486 477l134 140zM1061 0h-1020l291 1434h1001l-45 -222h-756l-73 -368h684l-45 -215h-684l-82 -408h772z" />
    <glyph glyph-name="Eacute" unicode="&#xc9;" horiz-adv-x="1251" 
d="M1466 1954l-643 -451l-133 146l643 450zM1061 0h-1020l291 1434h1001l-45 -222h-756l-73 -368h684l-45 -215h-684l-82 -408h772z" />
    <glyph glyph-name="Ecircumflex" unicode="&#xca;" horiz-adv-x="1251" 
d="M944 1802l-375 -293l-133 140l441 336h157l326 -361l-162 -115zM1061 0h-1020l291 1434h1001l-45 -222h-756l-73 -368h684l-45 -215h-684l-82 -408h772z" />
    <glyph glyph-name="Edieresis" unicode="&#xcb;" horiz-adv-x="1251" 
d="M680 1542q-63 0 -106.5 44t-43.5 106t43.5 104.5t106.5 42.5q62 0 104.5 -42.5t42.5 -104.5t-43 -106t-104 -44zM1112 1542q-61 0 -105 44t-44 106q0 61 43.5 104t105.5 43t105 -43t43 -104q0 -62 -43.5 -106t-104.5 -44zM1061 0h-1020l291 1434h1001l-45 -222h-756
l-73 -368h684l-45 -215h-684l-82 -408h772z" />
    <glyph glyph-name="Igrave" unicode="&#xcc;" horiz-adv-x="546" 
d="M635 1642l-135 -139l-486 477l133 140zM287 0h-246l291 1434h246z" />
    <glyph glyph-name="Iacute" unicode="&#xcd;" horiz-adv-x="546" 
d="M1077 1954l-643 -451l-133 146l643 450zM287 0h-246l291 1434h246z" />
    <glyph glyph-name="Icircumflex" unicode="&#xce;" horiz-adv-x="546" 
d="M555 1802l-375 -293l-133 140l440 336h158l326 -361l-162 -115zM287 0h-246l291 1434h246z" />
    <glyph glyph-name="Idieresis" unicode="&#xcf;" horiz-adv-x="546" 
d="M291 1542q-63 0 -106.5 44t-43.5 106t43.5 104.5t106.5 42.5q61 0 104 -42.5t43 -104.5t-43 -106t-104 -44zM723 1542q-61 0 -105.5 44t-44.5 106q0 61 44 104t106 43q61 0 104 -42.5t43 -104.5t-43 -106t-104 -44zM287 0h-246l291 1434h246z" />
    <glyph glyph-name="Eth" unicode="&#xd0;" horiz-adv-x="1523" 
d="M645 0h-534l131 643h-234l37 176h231l125 615h517q264 0 417.5 -142.5t153.5 -406.5q0 -174 -58.5 -333t-164.5 -282t-267.5 -196.5t-353.5 -73.5zM487 643l-84 -422h293q97 0 184.5 36t152 98t112.5 143t72 174t24 188q0 168 -89.5 260t-260.5 92h-287l-80 -393h418
l-37 -176h-418z" />
    <glyph glyph-name="Ntilde" unicode="&#xd1;" horiz-adv-x="1523" 
d="M1196 1583q-51 0 -101 22.5t-83.5 49t-71 49t-66.5 22.5q-44 0 -68.5 -37t-29.5 -96h-188q10 145 81 230.5t169 85.5q39 0 77 -15t68 -37t58 -44t57.5 -37t56.5 -15q79 0 82 131h184q-3 -151 -64.5 -230t-160.5 -79zM287 0h-246l291 1434h256l497 -1094l224 1094h245
l-290 -1434h-258l-496 1094z" />
    <glyph glyph-name="Ograve" unicode="&#xd2;" horiz-adv-x="1570" 
d="M1133 1642l-136 -139l-485 477l133 140zM702 -31q-267 0 -429 158t-162 442q0 184 62.5 348.5t172.5 285t269 191t343 70.5q264 0 418 -161t154 -441q0 -180 -59 -342.5t-164.5 -284.5t-262.5 -194t-342 -72zM725 193q157 0 285.5 86t201 236t72.5 333q0 189 -94.5 292
t-261.5 103q-161 0 -293 -86t-206.5 -235.5t-74.5 -331.5q0 -190 97.5 -293.5t273.5 -103.5z" />
    <glyph glyph-name="Oacute" unicode="&#xd3;" horiz-adv-x="1570" 
d="M1575 1954l-643 -451l-133 146l643 450zM702 -31q-267 0 -429 158t-162 442q0 184 62.5 348.5t172.5 285t269 191t343 70.5q264 0 418 -161t154 -441q0 -180 -59 -342.5t-164.5 -284.5t-262.5 -194t-342 -72zM725 193q157 0 285.5 86t201 236t72.5 333q0 189 -94.5 292
t-261.5 103q-161 0 -293 -86t-206.5 -235.5t-74.5 -331.5q0 -190 97.5 -293.5t273.5 -103.5z" />
    <glyph glyph-name="Ocircumflex" unicode="&#xd4;" horiz-adv-x="1570" 
d="M1053 1802l-375 -293l-133 140l440 336h158l325 -361l-161 -115zM702 -31q-267 0 -429 158t-162 442q0 184 62.5 348.5t172.5 285t269 191t343 70.5q264 0 418 -161t154 -441q0 -180 -59 -342.5t-164.5 -284.5t-262.5 -194t-342 -72zM725 193q157 0 285.5 86t201 236
t72.5 333q0 189 -94.5 292t-261.5 103q-161 0 -293 -86t-206.5 -235.5t-74.5 -331.5q0 -190 97.5 -293.5t273.5 -103.5z" />
    <glyph glyph-name="Otilde" unicode="&#xd5;" horiz-adv-x="1570" 
d="M1202 1583q-51 0 -101 22.5t-83 49t-70.5 49t-66.5 22.5q-44 0 -69 -37t-30 -96h-188q10 145 81 230.5t169 85.5q39 0 77 -15t68 -37t58 -44t57.5 -37t56.5 -15q79 0 82 131h184q-3 -151 -64.5 -230t-160.5 -79zM702 -31q-267 0 -429 158t-162 442q0 184 62.5 348.5
t172.5 285t269 191t343 70.5q264 0 418 -161t154 -441q0 -180 -59 -342.5t-164.5 -284.5t-262.5 -194t-342 -72zM725 193q157 0 285.5 86t201 236t72.5 333q0 189 -94.5 292t-261.5 103q-161 0 -293 -86t-206.5 -235.5t-74.5 -331.5q0 -190 97.5 -293.5t273.5 -103.5z" />
    <glyph glyph-name="Odieresis" unicode="&#xd6;" horiz-adv-x="1570" 
d="M788 1542q-63 0 -106 44t-43 106t43 104.5t106 42.5q62 0 105 -43t43 -104q0 -62 -43.5 -106t-104.5 -44zM1221 1542q-61 0 -105.5 44t-44.5 106q0 61 44 104t106 43q61 0 104 -42.5t43 -104.5t-43 -106t-104 -44zM702 -31q-267 0 -429 158t-162 442q0 184 62.5 348.5
t172.5 285t269 191t343 70.5q264 0 418 -161t154 -441q0 -180 -59 -342.5t-164.5 -284.5t-262.5 -194t-342 -72zM725 193q157 0 285.5 86t201 236t72.5 333q0 189 -94.5 292t-261.5 103q-161 0 -293 -86t-206.5 -235.5t-74.5 -331.5q0 -190 97.5 -293.5t273.5 -103.5z" />
    <glyph glyph-name="multiply" unicode="&#xd7;" horiz-adv-x="1085" 
d="M524 451l-370 -308l-142 144l387 321l-256 320l152 137l260 -328l401 334l142 -143l-418 -346l240 -301l-152 -138z" />
    <glyph glyph-name="Oslash" unicode="&#xd8;" horiz-adv-x="1574" 
d="M1573 1554l110 -84l-245 -247q92 -147 92 -361q0 -180 -59 -342.5t-164.5 -284.5t-262.5 -194t-342 -72q-239 0 -389 123l-223 -225l-110 84l239 239q-108 151 -108 379q0 184 62.5 348.5t172.5 285t269 191t343 70.5q242 0 392 -135zM354 590q0 -125 45 -217l777 782
q-94 88 -248 88q-161 0 -293 -86t-206.5 -235.5t-74.5 -331.5zM1284 848q0 106 -31 188l-768 -772q92 -71 240 -71q157 0 285.5 86t201 236t72.5 333z" />
    <glyph glyph-name="Ugrave" unicode="&#xd9;" horiz-adv-x="1437" 
d="M1083 1642l-135 -139l-485 477l133 140zM606 -31q-166 0 -285 58.5t-173.5 175t-22.5 274.5l194 957h246l-192 -953q-56 -286 272 -286q71 0 132.5 15t116.5 47t93.5 89.5t54.5 136.5l193 951h246l-193 -959q-50 -245 -223.5 -375.5t-458.5 -130.5z" />
    <glyph glyph-name="Uacute" unicode="&#xda;" horiz-adv-x="1437" 
d="M1524 1954l-643 -451l-133 146l643 450zM606 -31q-166 0 -285 58.5t-173.5 175t-22.5 274.5l194 957h246l-192 -953q-56 -286 272 -286q71 0 132.5 15t116.5 47t93.5 89.5t54.5 136.5l193 951h246l-193 -959q-50 -245 -223.5 -375.5t-458.5 -130.5z" />
    <glyph glyph-name="Ucircumflex" unicode="&#xdb;" horiz-adv-x="1437" 
d="M1001 1802l-374 -293l-133 140l440 336h158l325 -361l-162 -115zM606 -31q-166 0 -285 58.5t-173.5 175t-22.5 274.5l194 957h246l-192 -953q-56 -286 272 -286q71 0 132.5 15t116.5 47t93.5 89.5t54.5 136.5l193 951h246l-193 -959q-50 -245 -223.5 -375.5
t-458.5 -130.5z" />
    <glyph glyph-name="Udieresis" unicode="&#xdc;" horiz-adv-x="1437" 
d="M737 1542q-63 0 -106 44t-43 106t43 104.5t106 42.5q62 0 105 -43t43 -104q0 -62 -43.5 -106t-104.5 -44zM1169 1542q-61 0 -105 44t-44 106q0 61 43.5 104t105.5 43t105 -43t43 -104q0 -62 -43.5 -106t-104.5 -44zM606 -31q-166 0 -285 58.5t-173.5 175t-22.5 274.5
l194 957h246l-192 -953q-56 -286 272 -286q71 0 132.5 15t116.5 47t93.5 89.5t54.5 136.5l193 951h246l-193 -959q-50 -245 -223.5 -375.5t-458.5 -130.5z" />
    <glyph glyph-name="Yacute" unicode="&#xdd;" horiz-adv-x="1376" 
d="M1470 1954l-643 -451l-133 146l643 450zM702 0h-247l125 612l-377 822h260l266 -592l504 592h305l-711 -822z" />
    <glyph glyph-name="Thorn" unicode="&#xde;" horiz-adv-x="1406" 
d="M287 0h-246l291 1434h246l-52 -250h473q170 0 273.5 -99.5t103.5 -273.5q0 -108 -38 -206t-107.5 -174t-176 -120.5t-233.5 -44.5h-481zM481 963l-96 -476h467q122 0 199 90t77 205q0 90 -47.5 135.5t-136.5 45.5h-463z" />
    <glyph glyph-name="germandbls" unicode="&#xdf;" horiz-adv-x="1206" 
d="M578 -31q-106 0 -213 35l41 211q80 -39 176 -39q126 0 203 70.5t77 181.5q0 94 -57.5 143.5t-157.5 49.5h-102l39 210h102q112 0 184 69t72 173q0 86 -53 135t-146 49q-108 0 -182.5 -61.5t-99.5 -187.5l-203 -1008h-242l207 1014q45 222 190.5 336t358.5 114
q186 0 296 -93.5t110 -244.5t-107 -257t-274 -130q142 -22 220.5 -105t78.5 -222q0 -196 -143 -319.5t-375 -123.5z" />
    <glyph glyph-name="agrave" unicode="&#xe0;" horiz-adv-x="1177" 
d="M834 1323l-136 -141l-487 479l135 137zM393 -23q-170 0 -270 82t-100 217q0 57 14.5 104t38 80.5t63 60.5t78 43.5t96.5 31t104.5 22.5t114.5 17q149 19 185 29q90 24 109 89q2 6 3 13q12 67 -38 110.5t-154 43.5q-107 0 -183.5 -47.5t-103.5 -143.5h-241q48 189 194 289
t346 100q218 0 331 -107.5t75 -297.5l-86 -418q-11 -57 4 -82t65 -25h43l-39 -188h-61q-134 0 -186 70q-30 39 -33 80q-127 -173 -369 -173zM451 168q123 0 205.5 63.5t105.5 176.5l35 155q-25 -33 -73.5 -54t-87.5 -28t-112 -16q-53 -7 -83 -12t-68.5 -17t-58 -28
t-34 -43.5t-14.5 -65.5q0 -128 185 -131z" />
    <glyph glyph-name="aacute" unicode="&#xe1;" horiz-adv-x="1177" 
d="M1274 1632l-643 -450l-135 145l643 451zM393 -23q-170 0 -270 82t-100 217q0 57 14.5 104t38 80.5t63 60.5t78 43.5t96.5 31t104.5 22.5t114.5 17q149 19 185 29q90 24 109 89q2 6 3 13q12 67 -38 110.5t-154 43.5q-107 0 -183.5 -47.5t-103.5 -143.5h-241
q48 189 194 289t346 100q218 0 331 -107.5t75 -297.5l-86 -418q-11 -57 4 -82t65 -25h43l-39 -188h-61q-134 0 -186 70q-30 39 -33 80q-127 -173 -369 -173zM451 168q123 0 205.5 63.5t105.5 176.5l35 155q-25 -33 -73.5 -54t-87.5 -28t-112 -16q-53 -7 -83 -12t-68.5 -17
t-58 -28t-34 -43.5t-14.5 -65.5q0 -128 185 -131z" />
    <glyph glyph-name="acircumflex" unicode="&#xe2;" horiz-adv-x="1177" 
d="M750 1483l-383 -301l-140 135l455 348h160l334 -373l-166 -110zM393 -23q-170 0 -270 82t-100 217q0 57 14.5 104t38 80.5t63 60.5t78 43.5t96.5 31t104.5 22.5t114.5 17q149 19 185 29q90 24 109 89q2 6 3 13q12 67 -38 110.5t-154 43.5q-107 0 -183.5 -47.5
t-103.5 -143.5h-241q48 189 194 289t346 100q218 0 331 -107.5t75 -297.5l-86 -418q-11 -57 4 -82t65 -25h43l-39 -188h-61q-134 0 -186 70q-30 39 -33 80q-127 -173 -369 -173zM451 168q123 0 205.5 63.5t105.5 176.5l35 155q-25 -33 -73.5 -54t-87.5 -28t-112 -16
q-53 -7 -83 -12t-68.5 -17t-58 -28t-34 -43.5t-14.5 -65.5q0 -128 185 -131z" />
    <glyph glyph-name="atilde" unicode="&#xe3;" horiz-adv-x="1177" 
d="M905 1276q-51 0 -101 22.5t-83 50t-70.5 50t-66.5 22.5q-44 0 -69 -38t-30 -97h-188q10 146 80.5 231t169.5 85q47 0 95 -23t80 -50t71 -50t71 -23q79 0 82 129h184q-3 -150 -64.5 -229.5t-160.5 -79.5zM393 -23q-170 0 -270 82t-100 217q0 57 14.5 104t38 80.5t63 60.5
t78 43.5t96.5 31t104.5 22.5t114.5 17q149 19 185 29q90 24 109 89q2 6 3 13q12 67 -38 110.5t-154 43.5q-107 0 -183.5 -47.5t-103.5 -143.5h-241q48 189 194 289t346 100q218 0 331 -107.5t75 -297.5l-86 -418q-11 -57 4 -82t65 -25h43l-39 -188h-61q-134 0 -186 70
q-30 39 -33 80q-127 -173 -369 -173zM451 168q123 0 205.5 63.5t105.5 176.5l35 155q-25 -33 -73.5 -54t-87.5 -28t-112 -16q-53 -7 -83 -12t-68.5 -17t-58 -28t-34 -43.5t-14.5 -65.5q0 -128 185 -131z" />
    <glyph glyph-name="adieresis" unicode="&#xe4;" horiz-adv-x="1177" 
d="M485 1212q-62 0 -105.5 43.5t-43.5 106.5q0 61 43.5 104t105.5 43t105 -43t43 -104q0 -63 -43 -106.5t-105 -43.5zM920 1212q-63 0 -106.5 43.5t-43.5 106.5q0 62 43.5 104.5t106.5 42.5q62 0 104.5 -42.5t42.5 -104.5q0 -63 -42.5 -106.5t-104.5 -43.5zM393 -23
q-170 0 -270 82t-100 217q0 57 14.5 104t38 80.5t63 60.5t78 43.5t96.5 31t104.5 22.5t114.5 17q149 19 185 29q90 24 109 89q2 6 3 13q12 67 -38 110.5t-154 43.5q-107 0 -183.5 -47.5t-103.5 -143.5h-241q48 189 194 289t346 100q218 0 331 -107.5t75 -297.5l-86 -418
q-11 -57 4 -82t65 -25h43l-39 -188h-61q-134 0 -186 70q-30 39 -33 80q-127 -173 -369 -173zM451 168q123 0 205.5 63.5t105.5 176.5l35 155q-25 -33 -73.5 -54t-87.5 -28t-112 -16q-53 -7 -83 -12t-68.5 -17t-58 -28t-34 -43.5t-14.5 -65.5q0 -128 185 -131z" />
    <glyph glyph-name="aring" unicode="&#xe5;" horiz-adv-x="1177" 
d="M709 1178q-101 0 -169.5 65t-68.5 160q0 97 68 161t170 64q101 0 169 -64t68 -161q0 -95 -68 -160t-169 -65zM709 1309q43 0 69.5 27.5t26.5 66.5q0 40 -26.5 68t-69.5 28q-44 0 -70.5 -28t-26.5 -68t26.5 -67t70.5 -27zM393 -23q-170 0 -270 82t-100 217q0 57 14.5 104
t38 80.5t63 60.5t78 43.5t96.5 31t104.5 22.5t114.5 17q149 19 185 29q90 24 109 89q2 6 3 13q12 67 -38 110.5t-154 43.5q-107 0 -183.5 -47.5t-103.5 -143.5h-241q48 189 194 289t346 100q218 0 331 -107.5t75 -297.5l-86 -418q-11 -57 4 -82t65 -25h43l-39 -188h-61
q-134 0 -186 70q-30 39 -33 80q-127 -173 -369 -173zM451 168q123 0 205.5 63.5t105.5 176.5l35 155q-25 -33 -73.5 -54t-87.5 -28t-112 -16q-53 -7 -83 -12t-68.5 -17t-58 -28t-34 -43.5t-14.5 -65.5q0 -128 185 -131z" />
    <glyph glyph-name="ae" unicode="&#xe6;" horiz-adv-x="1923" 
d="M1280 -31q-165 0 -277 77.5t-155 219.5q-60 -139 -173.5 -214t-277.5 -75q-173 0 -273.5 82t-100.5 217q0 57 14.5 104t38 81t62.5 61t78.5 44t96 31t105 22t114.5 16q150 17 194 30q87 27 102 96q1 3 1 5q12 67 -38 110.5t-154 43.5q-107 0 -183.5 -47.5t-103.5 -143.5
h-241q48 188 198 288.5t350 100.5q135 0 231 -45t140 -131q173 176 430 176q108 0 192 -37.5t138.5 -110.5t73.5 -179t-4 -244l-11 -53h-786q-14 -144 51.5 -232t196.5 -88q189 0 276 170h227q-69 -185 -209 -280t-323 -95zM1102 664h543q3 122 -50 185.5t-159 63.5
q-114 0 -200.5 -68.5t-133.5 -180.5zM451 168q127 0 206 68.5t105 181.5l35 145q-25 -33 -73.5 -54t-87.5 -28t-112 -16q-53 -7 -83 -12t-68.5 -17t-58 -28t-34 -43.5t-14.5 -65.5q0 -128 185 -131z" />
    <glyph glyph-name="ccedilla" unicode="&#xe7;" horiz-adv-x="1175" 
d="M1128 666h-227q5 118 -48.5 181.5t-166.5 63.5q-115 0 -205.5 -65.5t-137 -169.5t-46.5 -223q0 -136 68 -206.5t180 -70.5q109 0 190.5 63.5t120.5 186.5h229q-52 -196 -175.5 -311t-301.5 -140l-192 -438l-191 37l176 406q-164 31 -254 147.5t-90 296.5q0 140 48 266.5
t133 221t211.5 150.5t273.5 56q212 0 319.5 -121t85.5 -331z" />
    <glyph glyph-name="egrave" unicode="&#xe8;" horiz-adv-x="1157" 
d="M874 1323l-135 -141l-487 479l135 137zM514 -31q-210 0 -332.5 123.5t-122.5 339.5q0 106 27 206.5t81 187t128.5 152t176 103t216.5 37.5q224 0 336.5 -151t67.5 -420l-11 -53h-786q-14 -144 51.5 -232t196.5 -88q189 0 276 170h228q-69 -185 -209.5 -280t-323.5 -95z
M336 664h543q3 122 -50 185.5t-159 63.5q-114 0 -200.5 -68.5t-133.5 -180.5z" />
    <glyph glyph-name="eacute" unicode="&#xe9;" horiz-adv-x="1157" 
d="M1313 1632l-643 -450l-135 145l643 451zM514 -31q-210 0 -332.5 123.5t-122.5 339.5q0 106 27 206.5t81 187t128.5 152t176 103t216.5 37.5q224 0 336.5 -151t67.5 -420l-11 -53h-786q-14 -144 51.5 -232t196.5 -88q189 0 276 170h228q-69 -185 -209.5 -280t-323.5 -95z
M336 664h543q3 122 -50 185.5t-159 63.5q-114 0 -200.5 -68.5t-133.5 -180.5z" />
    <glyph glyph-name="ecircumflex" unicode="&#xea;" horiz-adv-x="1157" 
d="M788 1483l-382 -301l-140 135l455 348h160l333 -373l-165 -110zM514 -31q-210 0 -332.5 123.5t-122.5 339.5q0 106 27 206.5t81 187t128.5 152t176 103t216.5 37.5q224 0 336.5 -151t67.5 -420l-11 -53h-786q-14 -144 51.5 -232t196.5 -88q189 0 276 170h228
q-69 -185 -209.5 -280t-323.5 -95zM336 664h543q3 122 -50 185.5t-159 63.5q-114 0 -200.5 -68.5t-133.5 -180.5z" />
    <glyph glyph-name="edieresis" unicode="&#xeb;" horiz-adv-x="1157" 
d="M524 1212q-62 0 -105.5 43.5t-43.5 106.5q0 61 43.5 104t105.5 43t105 -43t43 -104q0 -63 -43 -106.5t-105 -43.5zM958 1212q-63 0 -106 43.5t-43 106.5q0 62 43 104.5t106 42.5q62 0 105 -43t43 -104q0 -63 -43 -106.5t-105 -43.5zM514 -31q-210 0 -332.5 123.5
t-122.5 339.5q0 106 27 206.5t81 187t128.5 152t176 103t216.5 37.5q224 0 336.5 -151t67.5 -420l-11 -53h-786q-14 -144 51.5 -232t196.5 -88q189 0 276 170h228q-69 -185 -209.5 -280t-323.5 -95zM336 664h543q3 122 -50 185.5t-159 63.5q-114 0 -200.5 -68.5
t-133.5 -180.5z" />
    <glyph glyph-name="igrave" unicode="&#xec;" horiz-adv-x="509" 
d="M555 1323l-135 -141l-488 479l136 137zM264 0h-241l223 1085h241z" />
    <glyph glyph-name="iacute" unicode="&#xed;" horiz-adv-x="509" 
d="M995 1632l-643 -450l-135 145l643 451zM264 0h-241l223 1085h241z" />
    <glyph glyph-name="icircumflex" unicode="&#xee;" horiz-adv-x="509" 
d="M471 1483l-383 -301l-141 135l456 348h160l334 -373l-166 -110zM264 0h-241l223 1085h241z" />
    <glyph glyph-name="idieresis" unicode="&#xef;" horiz-adv-x="509" 
d="M207 1212q-62 0 -106 43.5t-44 106.5q0 61 44 104t106 43q61 0 104 -42.5t43 -104.5q0 -63 -42.5 -106.5t-104.5 -43.5zM641 1212q-63 0 -106 43.5t-43 106.5q0 62 43 104.5t106 42.5q61 0 104 -42.5t43 -104.5q0 -63 -42.5 -106.5t-104.5 -43.5zM264 0h-241l223 1085
h241z" />
    <glyph glyph-name="eth" unicode="&#xf0;" horiz-adv-x="1183" 
d="M483 -29q-187 0 -308.5 118t-121.5 319q0 164 67 300.5t195.5 220t292.5 83.5q115 0 197 -48.5t117 -136.5q10 225 -136 357l-401 -156l-70 162l275 106q-90 35 -207 56l78 200q242 -52 393 -155l311 119l70 -158l-238 -92q140 -171 140 -445q0 -127 -24.5 -248
t-77.5 -230.5t-128.5 -192t-184.5 -131t-239 -48.5zM514 176q99 0 177 60t117.5 151.5t39.5 192.5q0 108 -57.5 169.5t-159.5 61.5q-150 0 -243 -114t-93 -275q0 -114 59.5 -180t159.5 -66z" />
    <glyph glyph-name="ntilde" unicode="&#xf1;" horiz-adv-x="1177" 
d="M985 1276q-51 0 -101 22.5t-83 50t-70.5 50t-66.5 22.5q-44 0 -69 -38t-30 -97h-188q10 146 80.5 231t169.5 85q47 0 95 -23t80 -50t71 -50t71 -23q79 0 82 129h184q-3 -150 -64.5 -229.5t-160.5 -79.5zM256 0h-244l221 1085h189l-8 -161q69 88 174.5 141t220.5 53
q174 0 251 -112.5t40 -296.5l-142 -709h-243l139 694q46 213 -152 213q-116 0 -202.5 -70.5t-110.5 -179.5z" />
    <glyph glyph-name="ograve" unicode="&#xf2;" horiz-adv-x="1220" 
d="M907 1323l-135 -141l-487 479l135 137zM506 -31q-212 0 -330.5 120t-118.5 327q0 143 48 271t133.5 223.5t211 151.5t273.5 56q209 0 325.5 -119.5t116.5 -320.5q0 -194 -78.5 -354t-230.5 -257.5t-350 -97.5zM547 176q84 0 156 39.5t120.5 104.5t75.5 150t27 177
q0 126 -65 195t-183 69q-114 0 -202.5 -66.5t-133.5 -170t-45 -223.5q0 -136 68.5 -205.5t181.5 -69.5z" />
    <glyph glyph-name="oacute" unicode="&#xf3;" horiz-adv-x="1220" 
d="M1348 1632l-643 -450l-136 145l643 451zM506 -31q-212 0 -330.5 120t-118.5 327q0 143 48 271t133.5 223.5t211 151.5t273.5 56q209 0 325.5 -119.5t116.5 -320.5q0 -194 -78.5 -354t-230.5 -257.5t-350 -97.5zM547 176q84 0 156 39.5t120.5 104.5t75.5 150t27 177
q0 126 -65 195t-183 69q-114 0 -202.5 -66.5t-133.5 -170t-45 -223.5q0 -136 68.5 -205.5t181.5 -69.5z" />
    <glyph glyph-name="ocircumflex" unicode="&#xf4;" horiz-adv-x="1220" 
d="M823 1483l-383 -301l-139 135l455 348h159l334 -373l-166 -110zM506 -31q-212 0 -330.5 120t-118.5 327q0 143 48 271t133.5 223.5t211 151.5t273.5 56q209 0 325.5 -119.5t116.5 -320.5q0 -194 -78.5 -354t-230.5 -257.5t-350 -97.5zM547 176q84 0 156 39.5t120.5 104.5
t75.5 150t27 177q0 126 -65 195t-183 69q-114 0 -202.5 -66.5t-133.5 -170t-45 -223.5q0 -136 68.5 -205.5t181.5 -69.5z" />
    <glyph glyph-name="otilde" unicode="&#xf5;" horiz-adv-x="1220" 
d="M979 1276q-51 0 -101 22.5t-83.5 50t-71 50t-66.5 22.5q-43 0 -68 -38t-30 -97h-188q10 146 80.5 231t169.5 85q47 0 95 -23t80 -50t71 -50t71 -23q79 0 82 129h184q-3 -150 -64.5 -229.5t-160.5 -79.5zM506 -31q-212 0 -330.5 120t-118.5 327q0 143 48 271t133.5 223.5
t211 151.5t273.5 56q209 0 325.5 -119.5t116.5 -320.5q0 -194 -78.5 -354t-230.5 -257.5t-350 -97.5zM547 176q84 0 156 39.5t120.5 104.5t75.5 150t27 177q0 126 -65 195t-183 69q-114 0 -202.5 -66.5t-133.5 -170t-45 -223.5q0 -136 68.5 -205.5t181.5 -69.5z" />
    <glyph glyph-name="odieresis" unicode="&#xf6;" horiz-adv-x="1220" 
d="M559 1212q-62 0 -105.5 43.5t-43.5 106.5q0 61 43.5 104t105.5 43t105 -43t43 -104q0 -63 -43 -106.5t-105 -43.5zM993 1212q-63 0 -106 43.5t-43 106.5q0 62 43 104.5t106 42.5q62 0 105 -43t43 -104q0 -63 -43 -106.5t-105 -43.5zM506 -31q-212 0 -330.5 120
t-118.5 327q0 143 48 271t133.5 223.5t211 151.5t273.5 56q209 0 325.5 -119.5t116.5 -320.5q0 -194 -78.5 -354t-230.5 -257.5t-350 -97.5zM547 176q84 0 156 39.5t120.5 104.5t75.5 150t27 177q0 126 -65 195t-183 69q-114 0 -202.5 -66.5t-133.5 -170t-45 -223.5
q0 -136 68.5 -205.5t181.5 -69.5z" />
    <glyph glyph-name="divide" unicode="&#xf7;" horiz-adv-x="1191" 
d="M692 872q-67 0 -112 45t-45 113q0 66 45 110t112 44q68 0 114 -44t46 -110q0 -67 -46 -112.5t-114 -45.5zM1112 528h-1040l41 199h1040zM532 74q-68 0 -112.5 45.5t-44.5 113.5q0 65 44.5 109.5t112.5 44.5q67 0 112.5 -44.5t45.5 -109.5q0 -68 -45.5 -113.5
t-112.5 -45.5z" />
    <glyph glyph-name="oslash" unicode="&#xf8;" horiz-adv-x="1220" 
d="M1149 1161l113 -71l-160 -160q63 -108 63 -252q0 -194 -78.5 -354t-230.5 -257.5t-350 -97.5q-164 0 -279 76l-139 -141l-108 71l157 160q-80 112 -80 281q0 143 48 271t133.5 223.5t211 151.5t273.5 56q179 0 293 -90zM297 451q0 -74 22 -132l529 537q-64 55 -170 55
q-114 0 -202.5 -66.5t-133.5 -170t-45 -223.5zM926 647q0 39 -11 92l-516 -522q62 -41 148 -41q84 0 156 39.5t120.5 104.5t75.5 150t27 177z" />
    <glyph glyph-name="ugrave" unicode="&#xf9;" horiz-adv-x="1171" 
d="M868 1323l-135 -141l-487 479l135 137zM406 -31q-188 0 -279.5 115t-54.5 299l143 702h242l-140 -692q-20 -99 24 -156t146 -57q111 0 188 68t105 174l135 663h244l-221 -1085h-190l10 160q-57 -91 -148.5 -141t-203.5 -50z" />
    <glyph glyph-name="uacute" unicode="&#xfa;" horiz-adv-x="1171" 
d="M1307 1632l-643 -450l-136 145l643 451zM406 -31q-188 0 -279.5 115t-54.5 299l143 702h242l-140 -692q-20 -99 24 -156t146 -57q111 0 188 68t105 174l135 663h244l-221 -1085h-190l10 160q-57 -91 -148.5 -141t-203.5 -50z" />
    <glyph glyph-name="ucircumflex" unicode="&#xfb;" horiz-adv-x="1171" 
d="M782 1483l-383 -301l-139 135l455 348h159l334 -373l-166 -110zM406 -31q-188 0 -279.5 115t-54.5 299l143 702h242l-140 -692q-20 -99 24 -156t146 -57q111 0 188 68t105 174l135 663h244l-221 -1085h-190l10 160q-57 -91 -148.5 -141t-203.5 -50z" />
    <glyph glyph-name="udieresis" unicode="&#xfc;" horiz-adv-x="1171" 
d="M518 1212q-62 0 -105.5 43.5t-43.5 106.5q0 61 43.5 104t105.5 43t105 -43t43 -104q0 -63 -43 -106.5t-105 -43.5zM952 1212q-63 0 -106 43.5t-43 106.5q0 62 43 104.5t106 42.5q62 0 105 -43t43 -104q0 -63 -43 -106.5t-105 -43.5zM406 -31q-188 0 -279.5 115t-54.5 299
l143 702h242l-140 -692q-20 -99 24 -156t146 -57q111 0 188 68t105 174l135 663h244l-221 -1085h-190l10 160q-57 -91 -148.5 -141t-203.5 -50z" />
    <glyph glyph-name="yacute" unicode="&#xfd;" horiz-adv-x="1196" 
d="M1321 1632l-643 -450l-135 145l643 451zM106 -410h-198l41 205h198q127 0 179 90l65 115h-45l-209 1085h246l147 -843l484 843h266l-731 -1271q-45 -78 -96.5 -124.5t-137 -73t-209.5 -26.5z" />
    <glyph glyph-name="thorn" unicode="&#xfe;" horiz-adv-x="1263" 
d="M174 -410h-244l400 1946h241l-120 -598q71 82 173 131t216 49q166 0 266 -115t100 -323q0 -132 -39 -258t-109.5 -227.5t-182 -163.5t-244.5 -62q-125 0 -213.5 55.5t-122.5 151.5zM596 174q82 0 153 42.5t117 111.5t72.5 153t26.5 168q0 127 -56.5 195.5t-167.5 68.5
q-86 0 -157.5 -39.5t-118.5 -105t-72.5 -148.5t-25.5 -171q0 -126 61.5 -200.5t167.5 -74.5z" />
    <glyph glyph-name="ydieresis" unicode="&#xff;" horiz-adv-x="1196" 
d="M532 1212q-62 0 -105.5 43.5t-43.5 106.5q0 61 43.5 104t105.5 43t105 -43t43 -104q0 -63 -43 -106.5t-105 -43.5zM967 1212q-63 0 -106.5 43.5t-43.5 106.5q0 62 43.5 104.5t106.5 42.5q61 0 104 -42.5t43 -104.5q0 -63 -42.5 -106.5t-104.5 -43.5zM106 -410h-198
l41 205h198q127 0 179 90l65 115h-45l-209 1085h246l147 -843l484 843h266l-731 -1271q-45 -78 -96.5 -124.5t-137 -73t-209.5 -26.5z" />
    <glyph glyph-name="Amacron" unicode="&#x100;" horiz-adv-x="1492" 
d="M1360 1612h-797l39 190h797zM190 -6h-266l879 1436h244l296 -1436h-239l-72 354h-626zM874 1122l-335 -551h450z" />
    <glyph glyph-name="amacron" unicode="&#x101;" horiz-adv-x="1177" 
d="M1081 1270h-798l39 190h798zM393 -23q-170 0 -270 82t-100 217q0 57 14.5 104t38 80.5t63 60.5t78 43.5t96.5 31t104.5 22.5t114.5 17q149 19 185 29q90 24 109 89q2 6 3 13q12 67 -38 110.5t-154 43.5q-107 0 -183.5 -47.5t-103.5 -143.5h-241q48 189 194 289t346 100
q218 0 331 -107.5t75 -297.5l-86 -418q-11 -57 4 -82t65 -25h43l-39 -188h-61q-134 0 -186 70q-30 39 -33 80q-127 -173 -369 -173zM451 168q123 0 205.5 63.5t105.5 176.5l35 155q-25 -33 -73.5 -54t-87.5 -28t-112 -16q-53 -7 -83 -12t-68.5 -17t-58 -28t-34 -43.5
t-14.5 -65.5q0 -128 185 -131z" />
    <glyph glyph-name="Abreve" unicode="&#x102;" horiz-adv-x="1492" 
d="M950 1567q-155 0 -237 88t-56 235l2 21h201l-4 -21q-10 -70 22.5 -107.5t100.5 -37.5q67 0 115.5 37.5t58.5 105.5l2 23h201l-4 -23q-25 -154 -128.5 -237.5t-273.5 -83.5zM190 -6h-266l879 1436h244l296 -1436h-239l-72 354h-626zM874 1122l-335 -551h450z" />
    <glyph glyph-name="abreve" unicode="&#x103;" horiz-adv-x="1177" 
d="M684 1239q-154 0 -236.5 88.5t-56.5 235.5l2 20h201l-4 -20q-10 -70 22.5 -108t100.5 -38t116 37.5t58 106.5l2 22h201l-5 -22q-25 -154 -127.5 -238t-273.5 -84zM393 -23q-170 0 -270 82t-100 217q0 57 14.5 104t38 80.5t63 60.5t78 43.5t96.5 31t104.5 22.5t114.5 17
q149 19 185 29q90 24 109 89q2 6 3 13q12 67 -38 110.5t-154 43.5q-107 0 -183.5 -47.5t-103.5 -143.5h-241q48 189 194 289t346 100q218 0 331 -107.5t75 -297.5l-86 -418q-11 -57 4 -82t65 -25h43l-39 -188h-61q-134 0 -186 70q-30 39 -33 80q-127 -173 -369 -173z
M451 168q123 0 205.5 63.5t105.5 176.5l35 155q-25 -33 -73.5 -54t-87.5 -28t-112 -16q-53 -7 -83 -12t-68.5 -17t-58 -28t-34 -43.5t-14.5 -65.5q0 -128 185 -131z" />
    <glyph glyph-name="Aogonek" unicode="&#x104;" horiz-adv-x="1492" 
d="M1128 -195q0 -55 68 -55q38 0 94 23l-6 -193q-70 -22 -141 -22q-102 0 -158.5 43.5t-56.5 122.5q0 78 52.5 147.5t137.5 122.5h-14l-72 354h-626l-216 -354h-266l879 1436h244l296 -1436h-34q-76 -41 -128.5 -91t-52.5 -98zM874 1122l-335 -551h450z" />
    <glyph glyph-name="aogonek" unicode="&#x105;" horiz-adv-x="1177" 
d="M1081 188l-39 -188q-79 -41 -135.5 -93.5t-56.5 -101.5q0 -55 68 -55q38 0 94 23l-6 -193q-70 -22 -142 -22q-102 0 -158.5 43.5t-56.5 122.5q0 86 64 161t164 129q-55 19 -82 56q-30 39 -33 80q-127 -173 -369 -173q-170 0 -270 82t-100 217q0 57 14.5 104t38 80.5
t63 60.5t78 43.5t96.5 31t104.5 22.5t114.5 17q149 19 185 29q90 24 109 89q2 6 3 13q12 67 -38 110.5t-154 43.5q-107 0 -183.5 -47.5t-103.5 -143.5h-241q48 189 194 289t346 100q218 0 331 -107.5t75 -297.5l-86 -418q-11 -57 4 -82t65 -25h43zM762 408l35 155
q-25 -33 -73.5 -54t-87.5 -28t-112 -16q-53 -7 -83 -12t-68.5 -17t-58 -28t-34 -43.5t-14.5 -65.5q0 -128 185 -131q123 0 205.5 63.5t105.5 176.5z" />
    <glyph glyph-name="Cacute" unicode="&#x106;" horiz-adv-x="1538" 
d="M1581 1954l-643 -451l-133 146l643 450zM692 -31q-268 0 -425.5 154t-157.5 428q0 185 61 351.5t169.5 291t269 197.5t349.5 73q270 0 417.5 -150.5t140.5 -432.5h-246q0 362 -342 362q-127 0 -235.5 -55t-181.5 -147t-114 -212.5t-41 -250.5q0 -187 95 -286t274 -99
q161 0 287.5 92t195.5 268h248q-99 -291 -293 -437.5t-471 -146.5z" />
    <glyph glyph-name="cacute" unicode="&#x107;" horiz-adv-x="1175" 
d="M1343 1632l-643 -450l-135 145l643 451zM512 -31q-214 0 -334.5 122t-120.5 333q0 140 48 266.5t133 221t211.5 150.5t273.5 56q212 0 319.5 -121t85.5 -331h-227q5 118 -48.5 181.5t-166.5 63.5q-115 0 -205.5 -65.5t-137 -169.5t-46.5 -223q0 -136 68 -206.5t180 -70.5
q109 0 190.5 63.5t120.5 186.5h229q-58 -223 -208 -340t-365 -117z" />
    <glyph glyph-name="Cdotaccent" unicode="&#x10a;" horiz-adv-x="1538" 
d="M1010 1542q-64 0 -107 43.5t-43 106.5t43 105t107 42t106.5 -42t42.5 -105t-42.5 -106.5t-106.5 -43.5zM692 -31q-268 0 -425.5 154t-157.5 428q0 185 61 351.5t169.5 291t269 197.5t349.5 73q270 0 417.5 -150.5t140.5 -432.5h-246q0 362 -342 362q-127 0 -235.5 -55
t-181.5 -147t-114 -212.5t-41 -250.5q0 -187 95 -286t274 -99q161 0 287.5 92t195.5 268h248q-99 -291 -293 -437.5t-471 -146.5z" />
    <glyph glyph-name="cdotaccent" unicode="&#x10b;" horiz-adv-x="1175" 
d="M770 1212q-63 0 -106 43t-43 107q0 62 43 104.5t106 42.5q64 0 107 -42.5t43 -104.5q0 -64 -43 -107t-107 -43zM512 -31q-214 0 -334.5 122t-120.5 333q0 140 48 266.5t133 221t211.5 150.5t273.5 56q212 0 319.5 -121t85.5 -331h-227q5 118 -48.5 181.5t-166.5 63.5
q-115 0 -205.5 -65.5t-137 -169.5t-46.5 -223q0 -136 68 -206.5t180 -70.5q109 0 190.5 63.5t120.5 186.5h229q-58 -223 -208 -340t-365 -117z" />
    <glyph glyph-name="Ccaron" unicode="&#x10c;" horiz-adv-x="1538" 
d="M1063 1550h-158l-327 361l161 114l254 -294l375 294l131 -143zM692 -31q-268 0 -425.5 154t-157.5 428q0 185 61 351.5t169.5 291t269 197.5t349.5 73q270 0 417.5 -150.5t140.5 -432.5h-246q0 362 -342 362q-127 0 -235.5 -55t-181.5 -147t-114 -212.5t-41 -250.5
q0 -187 95 -286t274 -99q161 0 287.5 92t195.5 268h248q-99 -291 -293 -437.5t-471 -146.5z" />
    <glyph glyph-name="ccaron" unicode="&#x10d;" horiz-adv-x="1175" 
d="M823 1225h-159l-336 372l164 109l262 -301l385 301l135 -137zM512 -31q-214 0 -334.5 122t-120.5 333q0 140 48 266.5t133 221t211.5 150.5t273.5 56q212 0 319.5 -121t85.5 -331h-227q5 118 -48.5 181.5t-166.5 63.5q-115 0 -205.5 -65.5t-137 -169.5t-46.5 -223
q0 -136 68 -206.5t180 -70.5q109 0 190.5 63.5t120.5 186.5h229q-58 -223 -208 -340t-365 -117z" />
    <glyph glyph-name="Dcaron" unicode="&#x10e;" horiz-adv-x="1454" 
d="M942 1550h-158l-327 361l161 114l254 -294l375 294l131 -143zM575 0h-534l291 1434h516q263 0 417 -142.5t154 -406.5q0 -174 -59 -333t-165 -282t-267.5 -196.5t-352.5 -73.5zM532 1212l-200 -991h295q120 0 224 55t173 145.5t108 205t39 233.5q0 168 -89.5 260
t-262.5 92h-287z" />
    <glyph glyph-name="dcaron" unicode="&#x10f;" horiz-adv-x="1521" 
d="M485 -31q-194 0 -310 119.5t-116 331.5q0 140 43 267t119 222.5t188 152t242 56.5q125 0 212.5 -54t127.5 -153l127 625h244l-311 -1536h-191l12 174q-141 -205 -387 -205zM1579 868h-201l135 668h201zM545 174q88 0 161 41t118.5 108.5t70.5 151t25 172.5q0 126 -62 196
t-178 70q-111 0 -198.5 -65.5t-133 -169.5t-45.5 -223q0 -134 62.5 -207.5t179.5 -73.5z" />
    <glyph glyph-name="Dcroat" unicode="&#x110;" horiz-adv-x="1523" 
d="M645 0h-534l131 643h-234l37 176h231l125 615h517q264 0 417.5 -142.5t153.5 -406.5q0 -174 -58.5 -333t-164.5 -282t-267.5 -196.5t-353.5 -73.5zM487 643l-84 -422h293q97 0 184.5 36t152 98t112.5 143t72 174t24 188q0 168 -89.5 260t-260.5 92h-287l-80 -393h418
l-37 -176h-418z" />
    <glyph glyph-name="dcroat" unicode="&#x111;" horiz-adv-x="1339" 
d="M485 -31q-194 0 -310 119.5t-116 331.5q0 140 43 267t119 222.5t188 152t242 56.5q125 0 212.5 -54t127.5 -153l68 334h-469l37 176h467l24 115h244l-25 -115h197l-37 -176h-194l-252 -1245h-191l12 174q-141 -205 -387 -205zM545 174q88 0 161 41t118.5 108.5t70.5 151
t25 172.5q0 126 -62 196t-178 70q-111 0 -198.5 -65.5t-133 -169.5t-45.5 -223q0 -134 62.5 -207.5t179.5 -73.5z" />
    <glyph glyph-name="Emacron" unicode="&#x112;" horiz-adv-x="1251" 
d="M1278 1612h-797l39 190h797zM1061 0h-1020l291 1434h1001l-45 -222h-756l-73 -368h684l-45 -215h-684l-82 -408h772z" />
    <glyph glyph-name="emacron" unicode="&#x113;" horiz-adv-x="1157" 
d="M1120 1270h-798l38 190h799zM514 -31q-210 0 -332.5 123.5t-122.5 339.5q0 106 27 206.5t81 187t128.5 152t176 103t216.5 37.5q224 0 336.5 -151t67.5 -420l-11 -53h-786q-14 -144 51.5 -232t196.5 -88q189 0 276 170h228q-69 -185 -209.5 -280t-323.5 -95zM336 664h543
q3 122 -50 185.5t-159 63.5q-114 0 -200.5 -68.5t-133.5 -180.5z" />
    <glyph glyph-name="Edotaccent" unicode="&#x116;" horiz-adv-x="1251" 
d="M895 1542q-64 0 -107 43.5t-43 106.5t43 105t107 42t106.5 -42t42.5 -105t-42.5 -106.5t-106.5 -43.5zM1061 0h-1020l291 1434h1001l-45 -222h-756l-73 -368h684l-45 -215h-684l-82 -408h772z" />
    <glyph glyph-name="edotaccent" unicode="&#x117;" horiz-adv-x="1157" 
d="M741 1212q-63 0 -106 43t-43 107q0 62 43 104.5t106 42.5q64 0 107 -42.5t43 -104.5q0 -64 -42.5 -107t-107.5 -43zM514 -31q-210 0 -332.5 123.5t-122.5 339.5q0 106 27 206.5t81 187t128.5 152t176 103t216.5 37.5q224 0 336.5 -151t67.5 -420l-11 -53h-786
q-14 -144 51.5 -232t196.5 -88q189 0 276 170h228q-69 -185 -209.5 -280t-323.5 -95zM336 664h543q3 122 -50 185.5t-159 63.5q-114 0 -200.5 -68.5t-133.5 -180.5z" />
    <glyph glyph-name="Eogonek" unicode="&#x118;" horiz-adv-x="1251" 
d="M1333 1434l-45 -222h-756l-73 -368h684l-45 -215h-684l-82 -408h772l-43 -221h-37q-79 -41 -136 -93.5t-57 -101.5q0 -55 68 -55q38 0 94 23l-6 -193q-70 -22 -141 -22q-102 0 -158.5 43.5t-56.5 122.5q0 80 55 151.5t145 124.5h-790l291 1434h1001z" />
    <glyph glyph-name="eogonek" unicode="&#x119;" horiz-adv-x="1157" 
d="M688 1118q224 0 336.5 -151t67.5 -420l-11 -53h-786q-14 -144 51.5 -232t196.5 -88q189 0 276 170h228q-92 -248 -314 -336q-62 -38 -102.5 -81.5t-40.5 -84.5q0 -55 67 -55q39 0 95 23l-7 -193q-73 -23 -141 -23q-102 0 -158.5 43.5t-56.5 122.5q0 115 109 209
q-204 6 -321.5 129t-117.5 334q0 106 27 206.5t81 187t128.5 152t176 103t216.5 37.5zM336 664h543q3 122 -50 185.5t-159 63.5q-114 0 -200.5 -68.5t-133.5 -180.5z" />
    <glyph glyph-name="Ecaron" unicode="&#x11a;" horiz-adv-x="1251" 
d="M948 1550h-157l-328 361l162 114l254 -294l374 294l131 -143zM1061 0h-1020l291 1434h1001l-45 -222h-756l-73 -368h684l-45 -215h-684l-82 -408h772z" />
    <glyph glyph-name="ecaron" unicode="&#x11b;" horiz-adv-x="1157" 
d="M793 1225h-160l-336 372l164 109l262 -301l385 301l135 -137zM514 -31q-210 0 -332.5 123.5t-122.5 339.5q0 106 27 206.5t81 187t128.5 152t176 103t216.5 37.5q224 0 336.5 -151t67.5 -420l-11 -53h-786q-14 -144 51.5 -232t196.5 -88q189 0 276 170h228
q-69 -185 -209.5 -280t-323.5 -95zM336 664h543q3 122 -50 185.5t-159 63.5q-114 0 -200.5 -68.5t-133.5 -180.5z" />
    <glyph glyph-name="Gbreve" unicode="&#x11e;" horiz-adv-x="1587" 
d="M979 1567q-155 0 -237 88t-56 235l2 21h201l-4 -21q-10 -70 22.5 -107.5t100.5 -37.5q67 0 115.5 37.5t58.5 105.5l2 23h200l-4 -23q-25 -154 -128 -237.5t-273 -83.5zM668 -31q-252 0 -405.5 155t-153.5 427q0 186 59.5 352t166 290.5t265.5 197.5t348 73
q278 0 427.5 -150t140.5 -433h-246q-5 180 -88 271t-252 91q-128 0 -236.5 -55t-181 -147t-113.5 -212t-41 -251q0 -187 95 -286t272 -99q155 0 268.5 94t143.5 256h-432l43 207h487q140 0 199.5 -68t31.5 -199l-98 -483h-215l88 438h-2q-60 -227 -208.5 -348t-362.5 -121z
" />
    <glyph glyph-name="gbreve" unicode="&#x11f;" horiz-adv-x="1255" 
d="M733 1239q-154 0 -236.5 88.5t-56.5 235.5l2 20h201l-4 -20q-10 -70 22.5 -108t100.5 -38t116 37.5t58 106.5l2 22h201l-4 -22q-25 -154 -128 -238t-274 -84zM430 -442q-143 0 -247.5 45t-153.5 132.5t-25 203.5h234q-14 -83 41.5 -134t181.5 -51q131 0 218 69.5
t112 194.5l32 168q-128 -170 -350 -170q-186 0 -298 114.5t-112 318.5q0 134 42 255.5t115.5 213t181.5 146t233 54.5q135 0 223.5 -66t118.5 -186l76 226h184l-209 -1074q-43 -222 -195.5 -341t-402.5 -119zM535 219q81 0 148.5 38.5t110.5 102t66 141.5t23 161
q0 120 -57.5 185.5t-166.5 65.5q-103 0 -185 -62t-124.5 -160t-42.5 -210q0 -125 59.5 -193.5t168.5 -68.5z" />
    <glyph glyph-name="Gdotaccent" unicode="&#x120;" horiz-adv-x="1587" 
d="M1008 1542q-64 0 -107 43.5t-43 106.5t43 105t107 42t106.5 -42t42.5 -105t-42.5 -106.5t-106.5 -43.5zM668 -31q-252 0 -405.5 155t-153.5 427q0 186 59.5 352t166 290.5t265.5 197.5t348 73q278 0 427.5 -150t140.5 -433h-246q-5 180 -88 271t-252 91
q-128 0 -236.5 -55t-181 -147t-113.5 -212t-41 -251q0 -187 95 -286t272 -99q155 0 268.5 94t143.5 256h-432l43 207h487q140 0 199.5 -68t31.5 -199l-98 -483h-215l88 438h-2q-60 -227 -208.5 -348t-362.5 -121z" />
    <glyph glyph-name="gdotaccent" unicode="&#x121;" horiz-adv-x="1255" 
d="M750 1212q-63 0 -106.5 43t-43.5 107q0 62 43.5 104.5t106.5 42.5q64 0 106.5 -42.5t42.5 -104.5q0 -65 -42.5 -107.5t-106.5 -42.5zM430 -442q-143 0 -247.5 45t-153.5 132.5t-25 203.5h234q-14 -83 41.5 -134t181.5 -51q131 0 218 69.5t112 194.5l32 168
q-128 -170 -350 -170q-186 0 -298 114.5t-112 318.5q0 134 42 255.5t115.5 213t181.5 146t233 54.5q135 0 223.5 -66t118.5 -186l76 226h184l-209 -1074q-43 -222 -195.5 -341t-402.5 -119zM535 219q81 0 148.5 38.5t110.5 102t66 141.5t23 161q0 120 -57.5 185.5
t-166.5 65.5q-103 0 -185 -62t-124.5 -160t-42.5 -210q0 -125 59.5 -193.5t168.5 -68.5z" />
    <glyph glyph-name="uni0122" unicode="&#x122;" horiz-adv-x="1587" 
d="M668 -31q-252 0 -405.5 155t-153.5 427q0 186 59.5 352t166 290.5t265.5 197.5t348 73q278 0 427.5 -150t140.5 -433h-246q-5 180 -88 271t-252 91q-128 0 -236.5 -55t-181 -147t-113.5 -212t-41 -251q0 -187 95 -286t272 -99q155 0 268.5 94t143.5 256h-432l43 207h487
q140 0 199.5 -68t31.5 -199l-98 -483h-215l88 438h-2q-60 -227 -208.5 -348t-362.5 -121zM819 -121l-373 -696l-190 57l365 699z" />
    <glyph glyph-name="uni0123" unicode="&#x123;" horiz-adv-x="1255" 
d="M594 1206l373 697l190 -58l-362 -698zM430 -442q-143 0 -247.5 45t-153.5 132.5t-25 203.5h234q-14 -83 41.5 -134t181.5 -51q131 0 218 69.5t112 194.5l32 168q-128 -170 -350 -170q-186 0 -298 114.5t-112 318.5q0 134 42 255.5t115.5 213t181.5 146t233 54.5
q135 0 223.5 -66t118.5 -186l76 226h184l-209 -1074q-43 -222 -195.5 -341t-402.5 -119zM535 219q81 0 148.5 38.5t110.5 102t66 141.5t23 161q0 120 -57.5 185.5t-166.5 65.5q-103 0 -185 -62t-124.5 -160t-42.5 -210q0 -125 59.5 -193.5t168.5 -68.5z" />
    <glyph glyph-name="Hbar" unicode="&#x126;" horiz-adv-x="1638" 
d="M319 0h-247l217 1073h-226l37 176h226l36 185h248l-37 -185h779l37 185h247l-37 -185h228l-37 -176h-227l-217 -1073h-248l127 623h-781zM537 1073l-48 -229h781l45 229h-778z" />
    <glyph glyph-name="hbar" unicode="&#x127;" horiz-adv-x="1261" 
d="M340 0h-244l252 1245h-219l37 176h219l23 115h243l-22 -115h438l-37 -176h-436l-57 -278q70 70 164 110.5t194 40.5q174 0 251 -112.5t40 -296.5l-144 -709h-243l141 694q43 213 -152 213q-117 0 -203.5 -71.5t-111.5 -182.5z" />
    <glyph glyph-name="Imacron" unicode="&#x12a;" horiz-adv-x="546" 
d="M889 1612h-797l39 190h797zM287 0h-246l291 1434h246z" />
    <glyph glyph-name="imacron" unicode="&#x12b;" horiz-adv-x="509" 
d="M803 1270h-799l39 190h799zM264 0h-241l223 1085h241z" />
    <glyph glyph-name="Iogonek" unicode="&#x12e;" horiz-adv-x="546" 
d="M41 0l291 1434h246l-291 -1434h-31q-79 -41 -136 -93.5t-57 -101.5q0 -55 68 -55q38 0 94 23l-6 -193q-70 -22 -141 -22q-102 0 -158.5 43.5t-56.5 122.5q0 81 55 152t145 124h-22z" />
    <glyph glyph-name="iogonek" unicode="&#x12f;" horiz-adv-x="489" 
d="M418 1544q66 0 110.5 -44.5t44.5 -110.5t-44.5 -112t-110.5 -46t-112 46t-46 112t46 110.5t112 44.5zM41 0h-29l221 1085h244l-221 -1085h-23q-79 -41 -135.5 -93.5t-56.5 -101.5q0 -55 68 -55q38 0 94 23l-6 -193q-70 -22 -142 -22q-102 0 -158.5 43.5t-56.5 122.5
q0 81 55 152t146 124z" />
    <glyph glyph-name="Idotaccent" unicode="&#x130;" horiz-adv-x="546" 
d="M508 1542q-64 0 -107 43.5t-43 106.5t43 105t107 42t106.5 -42t42.5 -105t-42.5 -106.5t-106.5 -43.5zM287 0h-246l291 1434h246z" />
    <glyph glyph-name="dotlessi" unicode="&#x131;" horiz-adv-x="509" 
d="M264 0h-241l223 1085h241z" />
    <glyph glyph-name="uni0136" unicode="&#x136;" horiz-adv-x="1427" 
d="M287 0h-246l291 1434h246l-138 -678l762 678h338l-682 -588l432 -846h-276l-342 686l-297 -256zM748 -121l-373 -696l-191 57l365 699z" />
    <glyph glyph-name="uni0137" unicode="&#x137;" horiz-adv-x="1173" 
d="M262 0h-244l312 1536h243l-184 -911l541 460h309l-473 -391l305 -694h-260l-231 541l-252 -209zM635 -121l-373 -696l-190 57l364 699z" />
    <glyph glyph-name="Lacute" unicode="&#x139;" horiz-adv-x="1196" 
d="M1077 1954l-643 -451l-133 146l643 450zM1018 0h-977l291 1434h246l-246 -1213h731z" />
    <glyph glyph-name="lacute" unicode="&#x13a;" horiz-adv-x="497" 
d="M1081 2083l-643 -451l-135 146l643 450zM262 0h-244l312 1536h243z" />
    <glyph glyph-name="uni013B" unicode="&#x13b;" horiz-adv-x="1196" 
d="M1018 0h-977l291 1434h246l-246 -1213h731zM653 -121l-372 -696l-191 57l365 699z" />
    <glyph glyph-name="uni013C" unicode="&#x13c;" horiz-adv-x="497" 
d="M262 0h-244l312 1536h243zM236 -121l-373 -696l-191 57l365 699z" />
    <glyph glyph-name="Lcaron" unicode="&#x13d;" horiz-adv-x="1196" 
d="M864 868h-198l135 668h198zM1018 0h-977l291 1434h246l-246 -1213h731z" />
    <glyph glyph-name="lcaron" unicode="&#x13e;" horiz-adv-x="722" 
d="M262 0h-244l312 1536h243zM797 868h-201l135 668h201z" />
    <glyph glyph-name="Lslash" unicode="&#x141;" horiz-adv-x="1327" 
d="M1149 0h-977l127 629l-217 -119l-80 147l340 187l121 590h246l-88 -439l249 135l80 -149l-372 -203l-115 -557h731z" />
    <glyph glyph-name="lslash" unicode="&#x142;" horiz-adv-x="837" 
d="M442 0h-243l131 645l-250 -135l-80 147l373 203l137 676h244l-107 -526l221 120l82 -149l-348 -188z" />
    <glyph glyph-name="Nacute" unicode="&#x143;" horiz-adv-x="1523" 
d="M1567 1954l-643 -451l-133 146l643 450zM287 0h-246l291 1434h256l497 -1094l224 1094h245l-290 -1434h-258l-496 1094z" />
    <glyph glyph-name="nacute" unicode="&#x144;" horiz-adv-x="1177" 
d="M1354 1632l-643 -450l-136 145l644 451zM256 0h-244l221 1085h189l-8 -161q69 88 174.5 141t220.5 53q174 0 251 -112.5t40 -296.5l-142 -709h-243l139 694q46 213 -152 213q-116 0 -202.5 -70.5t-110.5 -179.5z" />
    <glyph glyph-name="uni0145" unicode="&#x145;" horiz-adv-x="1523" 
d="M287 0h-246l291 1434h256l497 -1094l224 1094h245l-290 -1434h-258l-496 1094zM752 -121l-373 -696l-191 57l365 699z" />
    <glyph glyph-name="uni0146" unicode="&#x146;" horiz-adv-x="1177" 
d="M256 0h-244l221 1085h189l-8 -161q69 88 174.5 141t220.5 53q174 0 251 -112.5t40 -296.5l-142 -709h-243l139 694q46 213 -152 213q-116 0 -202.5 -70.5t-110.5 -179.5zM598 -121l-373 -696l-190 57l364 699z" />
    <glyph glyph-name="Ncaron" unicode="&#x147;" horiz-adv-x="1523" 
d="M1049 1550h-158l-328 361l162 114l254 -294l375 294l131 -143zM287 0h-246l291 1434h256l497 -1094l224 1094h245l-290 -1434h-258l-496 1094z" />
    <glyph glyph-name="ncaron" unicode="&#x148;" horiz-adv-x="1177" 
d="M834 1225h-160l-336 372l164 109l262 -301l385 301l135 -137zM256 0h-244l221 1085h189l-8 -161q69 88 174.5 141t220.5 53q174 0 251 -112.5t40 -296.5l-142 -709h-243l139 694q46 213 -152 213q-116 0 -202.5 -70.5t-110.5 -179.5z" />
    <glyph glyph-name="Eng" unicode="&#x14a;" horiz-adv-x="1523" 
d="M817 -410h-170l41 201h156q132 0 160 143l14 66h-12l-496 1094l-223 -1094h-246l291 1434h256l497 -1094l224 1094h245l-307 -1514q-32 -161 -142.5 -245.5t-287.5 -84.5z" />
    <glyph glyph-name="eng" unicode="&#x14b;" horiz-adv-x="1175" 
d="M510 -410h-170l41 201h156q132 0 163 143l154 760q46 213 -152 213q-114 0 -200 -71t-113 -179l-133 -657h-244l221 1085h189l-8 -161q69 88 174.5 141t220.5 53q176 0 252 -112t39 -297l-160 -789q-32 -161 -142.5 -245.5t-287.5 -84.5z" />
    <glyph glyph-name="Omacron" unicode="&#x14c;" horiz-adv-x="1570" 
d="M1386 1612h-796l39 190h796zM702 -31q-267 0 -429 158t-162 442q0 184 62.5 348.5t172.5 285t269 191t343 70.5q264 0 418 -161t154 -441q0 -180 -59 -342.5t-164.5 -284.5t-262.5 -194t-342 -72zM725 193q157 0 285.5 86t201 236t72.5 333q0 189 -94.5 292t-261.5 103
q-161 0 -293 -86t-206.5 -235.5t-74.5 -331.5q0 -190 97.5 -293.5t273.5 -103.5z" />
    <glyph glyph-name="omacron" unicode="&#x14d;" horiz-adv-x="1220" 
d="M1155 1270h-799l39 190h799zM506 -31q-212 0 -330.5 120t-118.5 327q0 143 48 271t133.5 223.5t211 151.5t273.5 56q209 0 325.5 -119.5t116.5 -320.5q0 -194 -78.5 -354t-230.5 -257.5t-350 -97.5zM547 176q84 0 156 39.5t120.5 104.5t75.5 150t27 177q0 126 -65 195
t-183 69q-114 0 -202.5 -66.5t-133.5 -170t-45 -223.5q0 -136 68.5 -205.5t181.5 -69.5z" />
    <glyph glyph-name="Ohungarumlaut" unicode="&#x150;" horiz-adv-x="1570" 
d="M1397 2062l-523 -524l-167 104l528 521zM1724 2009l-520 -526l-166 104l527 524zM702 -31q-267 0 -429 158t-162 442q0 184 62.5 348.5t172.5 285t269 191t343 70.5q264 0 418 -161t154 -441q0 -180 -59 -342.5t-164.5 -284.5t-262.5 -194t-342 -72zM725 193
q157 0 285.5 86t201 236t72.5 333q0 189 -94.5 292t-261.5 103q-161 0 -293 -86t-206.5 -235.5t-74.5 -331.5q0 -190 97.5 -293.5t273.5 -103.5z" />
    <glyph glyph-name="ohungarumlaut" unicode="&#x151;" horiz-adv-x="1220" 
d="M1167 1737l-520 -523l-166 107l527 518zM1495 1683l-518 -524l-164 107l524 522zM506 -31q-212 0 -330.5 120t-118.5 327q0 143 48 271t133.5 223.5t211 151.5t273.5 56q209 0 325.5 -119.5t116.5 -320.5q0 -194 -78.5 -354t-230.5 -257.5t-350 -97.5zM547 176
q84 0 156 39.5t120.5 104.5t75.5 150t27 177q0 126 -65 195t-183 69q-114 0 -202.5 -66.5t-133.5 -170t-45 -223.5q0 -136 68.5 -205.5t181.5 -69.5z" />
    <glyph glyph-name="OE" unicode="&#x152;" horiz-adv-x="2347" 
d="M686 -31q-255 0 -415 159.5t-160 444.5q0 244 106.5 447.5t299.5 323.5t431 120q309 0 438 -231l41 201h1002l-45 -222h-756l-74 -368h684l-45 -215h-684l-82 -408h773l-43 -221h-1020l30 154q-202 -185 -481 -185zM727 193q122 0 227.5 53t177.5 143.5t113 212.5t41 258
q0 184 -94 283.5t-262 99.5q-163 0 -295 -89.5t-204.5 -238.5t-72.5 -323q0 -191 99 -295t270 -104z" />
    <glyph glyph-name="oe" unicode="&#x153;" horiz-adv-x="2062" 
d="M506 -31q-211 0 -330 120t-119 327q0 143 48 271t133.5 223.5t211 151.5t273.5 56q145 0 246.5 -59.5t152.5 -167.5q82 107 203 167t272 60q221 0 333.5 -151t66.5 -420l-10 -53h-787q-12 -145 53 -232.5t197 -87.5q190 0 274 170h230q-70 -185 -211 -280t-324 -95
q-146 0 -251 62t-156 178q-90 -113 -218.5 -176.5t-287.5 -63.5zM1241 664h545q3 122 -50.5 185.5t-160.5 63.5q-114 0 -200.5 -68.5t-133.5 -180.5zM545 176q112 0 201 68t134.5 175t45.5 228q0 126 -65 195t-183 69q-114 0 -202.5 -66.5t-133.5 -170t-45 -223.5
q0 -135 68.5 -205t179.5 -70z" />
    <glyph glyph-name="Racute" unicode="&#x154;" horiz-adv-x="1402" 
d="M1456 1954l-643 -451l-133 146l643 450zM287 0h-246l291 1434h696q164 0 267.5 -88.5t103.5 -249.5q0 -163 -110 -282.5t-279 -160.5q138 -31 159 -174l76 -479h-246l-65 438q-8 46 -40 74.5t-79 28.5h-418zM532 1212l-92 -454h443q118 0 194 83t76 197q0 86 -47 130
t-135 44h-439z" />
    <glyph glyph-name="racute" unicode="&#x155;" horiz-adv-x="798" 
d="M1204 1632l-643 -450l-135 145l643 451zM256 0h-244l221 1085h189l-10 -190q143 203 428 203h34l-47 -238h-34q-171 0 -281 -81t-145 -230z" />
    <glyph glyph-name="uni0156" unicode="&#x156;" horiz-adv-x="1402" 
d="M287 0h-246l291 1434h696q164 0 267.5 -88.5t103.5 -249.5q0 -163 -110 -282.5t-279 -160.5q138 -31 159 -174l76 -479h-246l-65 438q-8 46 -40 74.5t-79 28.5h-418zM532 1212l-92 -454h443q118 0 194 83t76 197q0 86 -47 130t-135 44h-439zM756 -121l-373 -696l-190 57
l364 699z" />
    <glyph glyph-name="uni0157" unicode="&#x157;" horiz-adv-x="798" 
d="M256 0h-244l221 1085h189l-10 -190q143 203 428 203h34l-47 -238h-34q-171 0 -281 -81t-145 -230zM223 -121l-373 -696l-190 57l365 699z" />
    <glyph glyph-name="Rcaron" unicode="&#x158;" horiz-adv-x="1402" 
d="M938 1550h-158l-327 361l161 114l254 -294l375 294l131 -143zM287 0h-246l291 1434h696q164 0 267.5 -88.5t103.5 -249.5q0 -163 -110 -282.5t-279 -160.5q138 -31 159 -174l76 -479h-246l-65 438q-8 46 -40 74.5t-79 28.5h-418zM532 1212l-92 -454h443q118 0 194 83
t76 197q0 86 -47 130t-135 44h-439z" />
    <glyph glyph-name="rcaron" unicode="&#x159;" horiz-adv-x="798" 
d="M682 1225h-160l-336 372l164 109l262 -301l385 301l136 -137zM256 0h-244l221 1085h189l-10 -190q143 203 428 203h34l-47 -238h-34q-171 0 -281 -81t-145 -230z" />
    <glyph glyph-name="Sacute" unicode="&#x15a;" horiz-adv-x="1306" 
d="M1417 1954l-643 -451l-133 146l643 450zM616 -31q-276 0 -428.5 127t-119.5 346h245q-13 -125 77.5 -189.5t254.5 -64.5q145 0 229 59.5t84 162.5q0 69 -45.5 110.5t-136.5 73.5l-211 78q-129 46 -180 76q-164 95 -164 284q0 132 72 231t194 150t275 51q117 0 214 -31.5
t167 -91t104 -154t21 -212.5h-242q9 132 -69 201t-220 69q-120 0 -197 -50.5t-77 -139.5q0 -31 12 -56t27 -41t49.5 -33.5t56.5 -26t72 -26.5l194 -73q58 -21 97.5 -38.5t88 -49t77.5 -66.5t49 -88.5t20 -118.5q0 -217 -162.5 -343t-427.5 -126z" />
    <glyph glyph-name="sacute" unicode="&#x15b;" horiz-adv-x="1005" 
d="M1210 1632l-643 -450l-135 145l643 451zM465 -31q-222 0 -340.5 99t-97.5 278h225q-7 -87 49 -132.5t158 -45.5q92 0 147.5 37t55.5 104q0 22 -7 40t-16.5 30t-29.5 24t-35 18.5t-44 18.5l-129 49q-50 19 -83.5 34.5t-71.5 41t-60.5 53.5t-37.5 69t-15 91
q-1 153 120 246.5t308 93.5q189 0 297 -99t98 -280h-221q1 91 -50.5 136t-139.5 45q-84 0 -132 -33.5t-48 -89.5q0 -22 8.5 -40.5t17.5 -29.5t31 -23t32.5 -16.5t38.5 -14.5q9 -3 13 -5l119 -47q71 -29 114.5 -52.5t84 -58t59 -79.5t18.5 -105q0 -162 -122 -259.5
t-314 -97.5z" />
    <glyph glyph-name="Scedilla" unicode="&#x15e;" horiz-adv-x="1306" 
d="M1268 975h-242q9 132 -69 201t-220 69q-120 0 -197 -50.5t-77 -139.5q0 -31 12 -56t27 -41t49.5 -33.5t56.5 -26t72 -26.5l194 -73q58 -21 97.5 -38.5t88 -49t77.5 -66.5t49 -88.5t20 -118.5q0 -201 -141.5 -325t-378.5 -142l-190 -434l-191 37l174 403
q-215 31 -327.5 153t-83.5 312h245q-13 -125 77.5 -189.5t254.5 -64.5q145 0 229 59.5t84 162.5q0 69 -45.5 110.5t-136.5 73.5l-211 78q-129 46 -180 76q-164 95 -164 284q0 132 72 231t194 150t275 51q117 0 214 -31.5t167 -91t104 -154t21 -212.5z" />
    <glyph glyph-name="scedilla" unicode="&#x15f;" horiz-adv-x="1005" 
d="M956 739h-221q1 91 -50.5 136t-139.5 45q-84 0 -132 -33.5t-48 -89.5q0 -22 8.5 -40.5t17.5 -29.5t31 -23t32.5 -16.5t38.5 -14.5q9 -3 13 -5l119 -47q71 -29 114.5 -52.5t84 -58t59 -79.5t18.5 -105q0 -148 -102.5 -242.5t-270.5 -112.5l-190 -434l-191 37l177 408
q-157 30 -236 123.5t-61 240.5h225q-7 -87 49 -132.5t158 -45.5q92 0 147.5 37t55.5 104q0 22 -7 40t-16.5 30t-29.5 24t-35 18.5t-44 18.5l-129 49q-50 19 -83.5 34.5t-71.5 41t-60.5 53.5t-37.5 69t-15 91q-1 153 120 246.5t308 93.5q189 0 297 -99t98 -280z" />
    <glyph glyph-name="Scaron" unicode="&#x160;" horiz-adv-x="1306" 
d="M899 1550h-158l-327 361l161 114l254 -294l375 294l131 -143zM616 -31q-276 0 -428.5 127t-119.5 346h245q-13 -125 77.5 -189.5t254.5 -64.5q145 0 229 59.5t84 162.5q0 69 -45.5 110.5t-136.5 73.5l-211 78q-129 46 -180 76q-164 95 -164 284q0 132 72 231t194 150
t275 51q117 0 214 -31.5t167 -91t104 -154t21 -212.5h-242q9 132 -69 201t-220 69q-120 0 -197 -50.5t-77 -139.5q0 -31 12 -56t27 -41t49.5 -33.5t56.5 -26t72 -26.5l194 -73q58 -21 97.5 -38.5t88 -49t77.5 -66.5t49 -88.5t20 -118.5q0 -217 -162.5 -343t-427.5 -126z" />
    <glyph glyph-name="scaron" unicode="&#x161;" horiz-adv-x="1005" 
d="M688 1225h-160l-335 372l163 109l262 -301l386 301l135 -137zM465 -31q-222 0 -340.5 99t-97.5 278h225q-7 -87 49 -132.5t158 -45.5q92 0 147.5 37t55.5 104q0 22 -7 40t-16.5 30t-29.5 24t-35 18.5t-44 18.5l-129 49q-50 19 -83.5 34.5t-71.5 41t-60.5 53.5t-37.5 69
t-15 91q-1 153 120 246.5t308 93.5q189 0 297 -99t98 -280h-221q1 91 -50.5 136t-139.5 45q-84 0 -132 -33.5t-48 -89.5q0 -22 8.5 -40.5t17.5 -29.5t31 -23t32.5 -16.5t38.5 -14.5q9 -3 13 -5l119 -47q71 -29 114.5 -52.5t84 -58t59 -79.5t18.5 -105q0 -162 -122 -259.5
t-314 -97.5z" />
    <glyph glyph-name="uni0162" unicode="&#x162;" horiz-adv-x="1323" 
d="M199 1212l43 222h1202l-45 -222h-477l-246 -1212h-17l-202 -463l-191 37l185 426h-23l246 1212h-475z" />
    <glyph glyph-name="uni0163" unicode="&#x163;" horiz-adv-x="819" 
d="M834 881h-277l-111 -537q-15 -80 9.5 -109.5t99.5 -29.5h121l-41 -205h-105l-202 -463l-191 37l197 453q-183 68 -133 305l110 549h-188l43 204h186l76 371h246l-76 -371h279z" />
    <glyph glyph-name="Tcaron" unicode="&#x164;" horiz-adv-x="1323" 
d="M948 1550h-157l-328 361l162 114l254 -294l374 294l131 -143zM676 0h-248l246 1212h-475l43 222h1202l-45 -222h-477z" />
    <glyph glyph-name="tcaron" unicode="&#x165;" horiz-adv-x="829" 
d="M877 1167h-191l102 502h191zM635 0h-133q-182 0 -258.5 85t-42.5 247l110 549h-188l43 204h186l76 371h246l-76 -371h279l-43 -204h-277l-111 -537q-15 -80 9.5 -109.5t99.5 -29.5h121z" />
    <glyph glyph-name="Tbar" unicode="&#x166;" horiz-adv-x="1323" 
d="M676 0h-248l137 678h-381l37 174h381l72 360h-475l43 222h1202l-45 -222h-477l-74 -360h389l-37 -174h-387z" />
    <glyph glyph-name="tbar" unicode="&#x167;" horiz-adv-x="819" 
d="M635 0h-133q-182 0 -258.5 85t-42.5 247l35 172h-189l35 174h188l41 203h-188l43 204h186l76 371h246l-76 -371h279l-43 -204h-277l-41 -203h279l-37 -174h-279l-33 -160q-15 -80 9.5 -109.5t99.5 -29.5h121z" />
    <glyph glyph-name="Umacron" unicode="&#x16a;" horiz-adv-x="1437" 
d="M1335 1612h-796l39 190h796zM606 -31q-166 0 -285 58.5t-173.5 175t-22.5 274.5l194 957h246l-192 -953q-56 -286 272 -286q71 0 132.5 15t116.5 47t93.5 89.5t54.5 136.5l193 951h246l-193 -959q-50 -245 -223.5 -375.5t-458.5 -130.5z" />
    <glyph glyph-name="umacron" unicode="&#x16b;" horiz-adv-x="1171" 
d="M1114 1270h-799l39 190h799zM406 -31q-188 0 -279.5 115t-54.5 299l143 702h242l-140 -692q-20 -99 24 -156t146 -57q111 0 188 68t105 174l135 663h244l-221 -1085h-190l10 160q-57 -91 -148.5 -141t-203.5 -50z" />
    <glyph glyph-name="Ubreve" unicode="&#x16c;" horiz-adv-x="1437" 
d="M926 1567q-155 0 -237 88t-56 235l2 21h201l-5 -21q-10 -70 22.5 -107.5t100.5 -37.5q67 0 115.5 37.5t58.5 105.5l2 23h201l-4 -23q-25 -154 -128 -237.5t-273 -83.5zM606 -31q-166 0 -285 58.5t-173.5 175t-22.5 274.5l194 957h246l-192 -953q-56 -286 272 -286
q71 0 132.5 15t116.5 47t93.5 89.5t54.5 136.5l193 951h246l-193 -959q-50 -245 -223.5 -375.5t-458.5 -130.5z" />
    <glyph glyph-name="ubreve" unicode="&#x16d;" horiz-adv-x="1171" 
d="M717 1239q-154 0 -236.5 88.5t-56.5 235.5l2 20h201l-4 -20q-10 -70 22 -108t100 -38t116.5 38t58.5 106l2 22h200l-4 -22q-25 -154 -127.5 -238t-273.5 -84zM406 -31q-188 0 -279.5 115t-54.5 299l143 702h242l-140 -692q-20 -99 24 -156t146 -57q111 0 188 68t105 174
l135 663h244l-221 -1085h-190l10 160q-57 -91 -148.5 -141t-203.5 -50z" />
    <glyph glyph-name="Uring" unicode="&#x16e;" horiz-adv-x="1437" 
d="M956 1509q-101 0 -168 65t-67 161q0 97 67 161t168 64q103 0 171.5 -64t68.5 -161q0 -96 -69 -161t-171 -65zM956 1634q46 0 74.5 30t28.5 71q0 42 -28.5 71t-74.5 29t-73 -28.5t-27 -71.5q0 -42 27.5 -71.5t72.5 -29.5zM606 -31q-166 0 -285 58.5t-173.5 175
t-22.5 274.5l194 957h246l-192 -953q-56 -286 272 -286q71 0 132.5 15t116.5 47t93.5 89.5t54.5 136.5l193 951h246l-193 -959q-50 -245 -223.5 -375.5t-458.5 -130.5z" />
    <glyph glyph-name="uring" unicode="&#x16f;" horiz-adv-x="1171" 
d="M743 1178q-101 0 -169 65t-68 160q0 97 68 161t169 64q102 0 170 -64t68 -161q0 -95 -68.5 -160t-169.5 -65zM743 1309q43 0 70 27.5t27 66.5q0 40 -27 68t-70 28q-44 0 -70 -28t-26 -68t26 -67t70 -27zM406 -31q-188 0 -279.5 115t-54.5 299l143 702h242l-140 -692
q-20 -99 24 -156t146 -57q111 0 188 68t105 174l135 663h244l-221 -1085h-190l10 160q-57 -91 -148.5 -141t-203.5 -50z" />
    <glyph glyph-name="Uhungarumlaut" unicode="&#x170;" horiz-adv-x="1437" 
d="M1348 2062l-523 -524l-168 104l529 521zM1675 2009l-520 -526l-166 104l527 524zM606 -31q-166 0 -285 58.5t-173.5 175t-22.5 274.5l194 957h246l-192 -953q-56 -286 272 -286q71 0 132.5 15t116.5 47t93.5 89.5t54.5 136.5l193 951h246l-193 -959
q-50 -245 -223.5 -375.5t-458.5 -130.5z" />
    <glyph glyph-name="uhungarumlaut" unicode="&#x171;" horiz-adv-x="1171" 
d="M1126 1737l-520 -523l-166 107l527 518zM1454 1683l-518 -524l-164 107l524 522zM406 -31q-188 0 -279.5 115t-54.5 299l143 702h242l-140 -692q-20 -99 24 -156t146 -57q111 0 188 68t105 174l135 663h244l-221 -1085h-190l10 160q-57 -91 -148.5 -141t-203.5 -50z" />
    <glyph glyph-name="Uogonek" unicode="&#x172;" horiz-adv-x="1437" 
d="M1042 483l193 951h246l-193 -959q-65 -317 -332 -438q-176 -100 -176 -187q0 -55 68 -55q38 0 94 23l-6 -193q-70 -22 -141 -22q-102 0 -158.5 43.5t-56.5 122.5q0 105 100 202q-23 -2 -74 -2q-166 0 -285 58.5t-173.5 175t-22.5 274.5l194 957h246l-192 -953
q-56 -286 272 -286q71 0 132.5 15t116.5 47t93.5 89.5t54.5 136.5z" />
    <glyph glyph-name="uogonek" unicode="&#x173;" horiz-adv-x="1171" 
d="M1159 1085l-221 -1085q-79 -41 -136 -93.5t-57 -101.5q0 -55 68 -55q38 0 94 23l-6 -193q-70 -22 -141 -22q-102 0 -158.5 43.5t-56.5 122.5q0 80 56 151.5t147 124.5l10 160q-57 -91 -148.5 -141t-203.5 -50q-188 0 -279.5 115t-54.5 299l143 702h242l-140 -692
q-20 -99 24 -156t146 -57q111 0 188 68t105 174l135 663h244z" />
    <glyph glyph-name="Wcircumflex" unicode="&#x174;" horiz-adv-x="1980" 
d="M1268 1802l-375 -293l-133 140l440 336h158l325 -361l-161 -115zM592 0h-268l-115 1434h246l80 -1084l516 1084h229l76 -1072l516 1072h264l-696 -1434h-266l-74 1075z" />
    <glyph glyph-name="wcircumflex" unicode="&#x175;" horiz-adv-x="1615" 
d="M1022 1483l-383 -301l-139 135l454 348h160l334 -373l-166 -110zM492 0h-254l-101 1085h242l57 -790l379 790h201l57 -763l367 763h260l-543 -1085h-250l-57 741z" />
    <glyph glyph-name="Ycircumflex" unicode="&#x176;" horiz-adv-x="1376" 
d="M948 1802l-375 -293l-133 140l441 336h157l326 -361l-162 -115zM702 0h-247l125 612l-377 822h260l266 -592l504 592h305l-711 -822z" />
    <glyph glyph-name="ycircumflex" unicode="&#x177;" horiz-adv-x="1196" 
d="M797 1483l-383 -301l-140 135l455 348h160l334 -373l-166 -110zM106 -410h-198l41 205h198q127 0 179 90l65 115h-45l-209 1085h246l147 -843l484 843h266l-731 -1271q-45 -78 -96.5 -124.5t-137 -73t-209.5 -26.5z" />
    <glyph glyph-name="Ydieresis" unicode="&#x178;" horiz-adv-x="1376" 
d="M684 1542q-63 0 -106 44t-43 106t43 104.5t106 42.5q62 0 104.5 -42.5t42.5 -104.5t-43 -106t-104 -44zM1116 1542q-61 0 -105 44t-44 106q0 61 43.5 104t105.5 43t105 -43t43 -104q0 -62 -43.5 -106t-104.5 -44zM702 0h-247l125 612l-377 822h260l266 -592l504 592h305
l-711 -822z" />
    <glyph glyph-name="Zacute" unicode="&#x179;" horiz-adv-x="1247" 
d="M1427 1954l-643 -451l-133 146l643 450zM1055 0h-1084l47 227l959 985h-721l47 222h1024l-47 -228l-956 -985h776z" />
    <glyph glyph-name="zacute" unicode="&#x17a;" horiz-adv-x="1021" 
d="M1251 1632l-643 -450l-135 145l643 451zM831 0h-862l47 221l699 651h-547l43 213h833l-45 -221l-700 -649h575z" />
    <glyph glyph-name="Zdotaccent" unicode="&#x17b;" horiz-adv-x="1247" 
d="M856 1542q-64 0 -106.5 43.5t-42.5 106.5t42.5 105t106.5 42t107 -42t43 -105t-43 -106.5t-107 -43.5zM1055 0h-1084l47 227l959 985h-721l47 222h1024l-47 -228l-956 -985h776z" />
    <glyph glyph-name="zdotaccent" unicode="&#x17c;" horiz-adv-x="1021" 
d="M678 1212q-63 0 -106.5 43t-43.5 107q0 62 43.5 104.5t106.5 42.5q64 0 106.5 -42.5t42.5 -104.5q0 -65 -42.5 -107.5t-106.5 -42.5zM831 0h-862l47 221l699 651h-547l43 213h833l-45 -221l-700 -649h575z" />
    <glyph glyph-name="Zcaron" unicode="&#x17d;" horiz-adv-x="1247" 
d="M909 1550h-157l-328 361l162 114l254 -294l374 294l132 -143zM1055 0h-1084l47 227l959 985h-721l47 222h1024l-47 -228l-956 -985h776z" />
    <glyph glyph-name="zcaron" unicode="&#x17e;" horiz-adv-x="1021" 
d="M729 1225h-160l-336 372l164 109l262 -301l385 301l136 -137zM831 0h-862l47 221l699 651h-547l43 213h833l-45 -221l-700 -649h575z" />
    <glyph glyph-name="uni01CD" unicode="&#x1cd;" horiz-adv-x="1492" 
d="M1030 1550h-158l-327 361l162 114l254 -294l374 294l131 -143zM190 -6h-266l879 1436h244l296 -1436h-239l-72 354h-626zM874 1122l-335 -551h450z" />
    <glyph glyph-name="uni01CE" unicode="&#x1ce;" horiz-adv-x="1177" 
d="M754 1225h-160l-336 372l164 109l262 -301l385 301l135 -137zM393 -23q-170 0 -270 82t-100 217q0 57 14.5 104t38 80.5t63 60.5t78 43.5t96.5 31t104.5 22.5t114.5 17q149 19 185 29q90 24 109 89q2 6 3 13q12 67 -38 110.5t-154 43.5q-107 0 -183.5 -47.5
t-103.5 -143.5h-241q48 189 194 289t346 100q218 0 331 -107.5t75 -297.5l-86 -418q-11 -57 4 -82t65 -25h43l-39 -188h-61q-134 0 -186 70q-30 39 -33 80q-127 -173 -369 -173zM451 168q123 0 205.5 63.5t105.5 176.5l35 155q-25 -33 -73.5 -54t-87.5 -28t-112 -16
q-53 -7 -83 -12t-68.5 -17t-58 -28t-34 -43.5t-14.5 -65.5q0 -128 185 -131z" />
    <glyph glyph-name="uni01CF" unicode="&#x1cf;" horiz-adv-x="546" 
d="M559 1550h-158l-327 361l162 114l253 -294l375 294l131 -143zM287 0h-246l291 1434h246z" />
    <glyph glyph-name="uni01D0" unicode="&#x1d0;" horiz-adv-x="509" 
d="M475 1225h-160l-338 372l166 109l263 -301l385 301l135 -137zM264 0h-241l223 1085h241z" />
    <glyph glyph-name="uni01D1" unicode="&#x1d1;" horiz-adv-x="1570" 
d="M1057 1550h-158l-328 361l162 114l254 -294l375 294l131 -143zM702 -31q-267 0 -429 158t-162 442q0 184 62.5 348.5t172.5 285t269 191t343 70.5q264 0 418 -161t154 -441q0 -180 -59 -342.5t-164.5 -284.5t-262.5 -194t-342 -72zM725 193q157 0 285.5 86t201 236
t72.5 333q0 189 -94.5 292t-261.5 103q-161 0 -293 -86t-206.5 -235.5t-74.5 -331.5q0 -190 97.5 -293.5t273.5 -103.5z" />
    <glyph glyph-name="uni01D2" unicode="&#x1d2;" horiz-adv-x="1220" 
d="M827 1225h-159l-336 372l164 109l262 -301l385 301l135 -137zM506 -31q-212 0 -330.5 120t-118.5 327q0 143 48 271t133.5 223.5t211 151.5t273.5 56q209 0 325.5 -119.5t116.5 -320.5q0 -194 -78.5 -354t-230.5 -257.5t-350 -97.5zM547 176q84 0 156 39.5t120.5 104.5
t75.5 150t27 177q0 126 -65 195t-183 69q-114 0 -202.5 -66.5t-133.5 -170t-45 -223.5q0 -136 68.5 -205.5t181.5 -69.5z" />
    <glyph glyph-name="uni01D3" unicode="&#x1d3;" horiz-adv-x="1437" 
d="M1006 1550h-158l-328 361l162 114l254 -294l375 294l131 -143zM606 -31q-166 0 -285 58.5t-173.5 175t-22.5 274.5l194 957h246l-192 -953q-56 -286 272 -286q71 0 132.5 15t116.5 47t93.5 89.5t54.5 136.5l193 951h246l-193 -959q-50 -245 -223.5 -375.5t-458.5 -130.5z
" />
    <glyph glyph-name="uni01D4" unicode="&#x1d4;" horiz-adv-x="1171" 
d="M786 1225h-159l-336 372l164 109l262 -301l385 301l135 -137zM406 -31q-188 0 -279.5 115t-54.5 299l143 702h242l-140 -692q-20 -99 24 -156t146 -57q111 0 188 68t105 174l135 663h244l-221 -1085h-190l10 160q-57 -91 -148.5 -141t-203.5 -50z" />
    <glyph glyph-name="uni01D5" unicode="&#x1d5;" horiz-adv-x="1437" 
d="M1415 1999h-797l39 190h797zM737 1542q-63 0 -106 44t-43 106t43 104.5t106 42.5q62 0 105 -43t43 -104q0 -62 -43.5 -106t-104.5 -44zM1169 1542q-61 0 -105 44t-44 106q0 61 43.5 104t105.5 43t105 -43t43 -104q0 -62 -43.5 -106t-104.5 -44zM606 -31q-166 0 -285 58.5
t-173.5 175t-22.5 274.5l194 957h246l-192 -953q-56 -286 272 -286q71 0 132.5 15t116.5 47t93.5 89.5t54.5 136.5l193 951h246l-193 -959q-50 -245 -223.5 -375.5t-458.5 -130.5z" />
    <glyph glyph-name="uni01D6" unicode="&#x1d6;" horiz-adv-x="1171" 
d="M1196 1663h-799l39 190h799zM518 1212q-62 0 -105.5 43.5t-43.5 106.5q0 61 43.5 104t105.5 43t105 -43t43 -104q0 -63 -43 -106.5t-105 -43.5zM952 1212q-63 0 -106 43.5t-43 106.5q0 62 43 104.5t106 42.5q62 0 105 -43t43 -104q0 -63 -43 -106.5t-105 -43.5zM406 -31
q-188 0 -279.5 115t-54.5 299l143 702h242l-140 -692q-20 -99 24 -156t146 -57q111 0 188 68t105 174l135 663h244l-221 -1085h-190l10 160q-57 -91 -148.5 -141t-203.5 -50z" />
    <glyph glyph-name="uni01D7" unicode="&#x1d7;" horiz-adv-x="1437" 
d="M1604 2341l-643 -451l-134 146l643 450zM737 1542q-63 0 -106 44t-43 106t43 104.5t106 42.5q62 0 105 -43t43 -104q0 -62 -43.5 -106t-104.5 -44zM1169 1542q-61 0 -105 44t-44 106q0 61 43.5 104t105.5 43t105 -43t43 -104q0 -62 -43.5 -106t-104.5 -44zM606 -31
q-166 0 -285 58.5t-173.5 175t-22.5 274.5l194 957h246l-192 -953q-56 -286 272 -286q71 0 132.5 15t116.5 47t93.5 89.5t54.5 136.5l193 951h246l-193 -959q-50 -245 -223.5 -375.5t-458.5 -130.5z" />
    <glyph glyph-name="uni01D8" unicode="&#x1d8;" horiz-adv-x="1171" 
d="M1389 2025l-644 -450l-135 145l643 451zM518 1212q-62 0 -105.5 43.5t-43.5 106.5q0 61 43.5 104t105.5 43t105 -43t43 -104q0 -63 -43 -106.5t-105 -43.5zM952 1212q-63 0 -106 43.5t-43 106.5q0 62 43 104.5t106 42.5q62 0 105 -43t43 -104q0 -63 -43 -106.5
t-105 -43.5zM406 -31q-188 0 -279.5 115t-54.5 299l143 702h242l-140 -692q-20 -99 24 -156t146 -57q111 0 188 68t105 174l135 663h244l-221 -1085h-190l10 160q-57 -91 -148.5 -141t-203.5 -50z" />
    <glyph glyph-name="uni01D9" unicode="&#x1d9;" horiz-adv-x="1437" 
d="M1085 1937h-157l-328 361l162 115l254 -295l375 295l131 -144zM737 1542q-63 0 -106 44t-43 106t43 104.5t106 42.5q62 0 105 -43t43 -104q0 -62 -43.5 -106t-104.5 -44zM1169 1542q-61 0 -105 44t-44 106q0 61 43.5 104t105.5 43t105 -43t43 -104q0 -62 -43.5 -106
t-104.5 -44zM606 -31q-166 0 -285 58.5t-173.5 175t-22.5 274.5l194 957h246l-192 -953q-56 -286 272 -286q71 0 132.5 15t116.5 47t93.5 89.5t54.5 136.5l193 951h246l-193 -959q-50 -245 -223.5 -375.5t-458.5 -130.5z" />
    <glyph glyph-name="uni01DA" unicode="&#x1da;" horiz-adv-x="1171" 
d="M868 1618h-159l-336 373l164 108l262 -301l385 301l135 -137zM518 1212q-62 0 -105.5 43.5t-43.5 106.5q0 61 43.5 104t105.5 43t105 -43t43 -104q0 -63 -43 -106.5t-105 -43.5zM952 1212q-63 0 -106 43.5t-43 106.5q0 62 43 104.5t106 42.5q62 0 105 -43t43 -104
q0 -63 -43 -106.5t-105 -43.5zM406 -31q-188 0 -279.5 115t-54.5 299l143 702h242l-140 -692q-20 -99 24 -156t146 -57q111 0 188 68t105 174l135 663h244l-221 -1085h-190l10 160q-57 -91 -148.5 -141t-203.5 -50z" />
    <glyph glyph-name="uni01DB" unicode="&#x1db;" horiz-adv-x="1437" 
d="M1161 2030l-135 -140l-485 477l133 140zM737 1542q-63 0 -106 44t-43 106t43 104.5t106 42.5q62 0 105 -43t43 -104q0 -62 -43.5 -106t-104.5 -44zM1169 1542q-61 0 -105 44t-44 106q0 61 43.5 104t105.5 43t105 -43t43 -104q0 -62 -43.5 -106t-104.5 -44zM606 -31
q-166 0 -285 58.5t-173.5 175t-22.5 274.5l194 957h246l-192 -953q-56 -286 272 -286q71 0 132.5 15t116.5 47t93.5 89.5t54.5 136.5l193 951h246l-193 -959q-50 -245 -223.5 -375.5t-458.5 -130.5z" />
    <glyph glyph-name="uni01DC" unicode="&#x1dc;" horiz-adv-x="1171" 
d="M948 1716l-135 -141l-487 479l135 137zM518 1212q-62 0 -105.5 43.5t-43.5 106.5q0 61 43.5 104t105.5 43t105 -43t43 -104q0 -63 -43 -106.5t-105 -43.5zM952 1212q-63 0 -106 43.5t-43 106.5q0 62 43 104.5t106 42.5q62 0 105 -43t43 -104q0 -63 -43 -106.5t-105 -43.5
zM406 -31q-188 0 -279.5 115t-54.5 299l143 702h242l-140 -692q-20 -99 24 -156t146 -57q111 0 188 68t105 174l135 663h244l-221 -1085h-190l10 160q-57 -91 -148.5 -141t-203.5 -50z" />
    <glyph glyph-name="uni0218" unicode="&#x218;" horiz-adv-x="1306" 
d="M616 -31q-276 0 -428.5 127t-119.5 346h245q-13 -125 77.5 -189.5t254.5 -64.5q145 0 229 59.5t84 162.5q0 69 -45.5 110.5t-136.5 73.5l-211 78q-129 46 -180 76q-164 95 -164 284q0 132 72 231t194 150t275 51q117 0 214 -31.5t167 -91t104 -154t21 -212.5h-242
q9 132 -69 201t-220 69q-120 0 -197 -50.5t-77 -139.5q0 -31 12 -56t27 -41t49.5 -33.5t56.5 -26t72 -26.5l194 -73q58 -21 97.5 -38.5t88 -49t77.5 -66.5t49 -88.5t20 -118.5q0 -217 -162.5 -343t-427.5 -126zM692 -121l-373 -696l-190 57l365 699z" />
    <glyph glyph-name="uni0219" unicode="&#x219;" horiz-adv-x="1005" 
d="M465 -31q-222 0 -340.5 99t-97.5 278h225q-7 -87 49 -132.5t158 -45.5q92 0 147.5 37t55.5 104q0 22 -7 40t-16.5 30t-29.5 24t-35 18.5t-44 18.5l-129 49q-50 19 -83.5 34.5t-71.5 41t-60.5 53.5t-37.5 69t-15 91q-1 153 120 246.5t308 93.5q189 0 297 -99t98 -280h-221
q1 91 -50.5 136t-139.5 45q-84 0 -132 -33.5t-48 -89.5q0 -22 8.5 -40.5t17.5 -29.5t31 -23t32.5 -16.5t38.5 -14.5q9 -3 13 -5l119 -47q71 -29 114.5 -52.5t84 -58t59 -79.5t18.5 -105q0 -162 -122 -259.5t-314 -97.5zM535 -121l-373 -696l-191 57l365 699z" />
    <glyph glyph-name="uni021A" unicode="&#x21a;" horiz-adv-x="1323" 
d="M676 0h-248l246 1212h-475l43 222h1202l-45 -222h-477zM653 -121l-372 -696l-191 57l365 699z" />
    <glyph glyph-name="uni021B" unicode="&#x21b;" horiz-adv-x="819" 
d="M635 0h-133q-182 0 -258.5 85t-42.5 247l110 549h-188l43 204h186l76 371h246l-76 -371h279l-43 -204h-277l-111 -537q-15 -80 9.5 -109.5t99.5 -29.5h121zM524 -121l-372 -696l-191 57l365 699z" />
    <glyph glyph-name="circumflex" unicode="&#x2c6;" horiz-adv-x="995" 
d="M700 1483l-383 -301l-139 135l455 348h160l333 -373l-165 -110z" />
    <glyph glyph-name="caron" unicode="&#x2c7;" horiz-adv-x="993" 
d="M731 1225h-160l-335 372l163 109l263 -301l385 301l135 -137z" />
    <glyph glyph-name="breve" unicode="&#x2d8;" horiz-adv-x="825" 
d="M565 1239q-154 0 -236.5 88.5t-56.5 235.5l2 20h201l-4 -20q-10 -70 22.5 -108t100.5 -38t116 37.5t58 106.5l2 22h201l-4 -22q-25 -154 -128 -238t-274 -84z" />
    <glyph glyph-name="dotaccent" unicode="&#x2d9;" horiz-adv-x="409" 
d="M371 1212q-63 0 -106.5 43t-43.5 107q0 62 43.5 104.5t106.5 42.5q64 0 106.5 -42.5t42.5 -104.5q0 -65 -42.5 -107.5t-106.5 -42.5z" />
    <glyph glyph-name="ring" unicode="&#x2da;" horiz-adv-x="571" 
d="M461 1178q-101 0 -169.5 65t-68.5 160q0 97 68 161t170 64q101 0 169 -64t68 -161q0 -95 -68 -160t-169 -65zM461 1309q43 0 69.5 27.5t26.5 66.5q0 40 -26.5 68t-69.5 28q-44 0 -70 -28t-26 -68t26 -67t70 -27z" />
    <glyph glyph-name="tilde" unicode="&#x2dc;" horiz-adv-x="913" 
d="M827 1276q-51 0 -101 22.5t-83 50t-70.5 50t-66.5 22.5q-43 0 -68 -38t-30 -97h-189q10 146 80.5 231t169.5 85q47 0 95 -23t80 -50t71 -50t71 -23q79 0 82 129h185q-3 -150 -65 -229.5t-161 -79.5z" />
    <glyph glyph-name="hungarumlaut" unicode="&#x2dd;" horiz-adv-x="989" 
d="M868 1737l-520 -523l-166 107l527 518zM1196 1683l-518 -524l-164 107l524 522z" />
    <glyph glyph-name="gravecomb" unicode="&#x300;" 
d="M143 1323l-135 -141l-487 479l135 137z" />
    <glyph glyph-name="acutecomb" unicode="&#x301;" 
d="M207 1632l-645 -450l-135 145l645 451z" />
    <glyph glyph-name="uni0302" unicode="&#x302;" 
d="M-295 1483l-383 -301l-139 135l455 348h159l336 -373l-168 -110z" />
    <glyph glyph-name="tildecomb" unicode="&#x303;" 
d="M-86 1276q-51 0 -101 22.5t-83.5 50t-71 50t-66.5 22.5q-43 0 -68 -38t-30 -97h-188q10 146 80.5 231t169.5 85q47 0 95 -23t80 -50t71 -50t71 -23q79 0 82 129h184q-3 -150 -64.5 -229.5t-160.5 -79.5z" />
    <glyph glyph-name="uni0304" unicode="&#x304;" 
d="M121 1270h-801l39 190h801z" />
    <glyph glyph-name="uni0306" unicode="&#x306;" 
d="M-260 1239q-154 0 -236.5 88.5t-56.5 235.5l2 20h201l-4 -20q-10 -70 22.5 -108t100.5 -38t116 37.5t58 106.5l2 22h202l-4 -22q-25 -154 -128.5 -238t-274.5 -84z" />
    <glyph glyph-name="uni0307" unicode="&#x307;" 
d="M-39 1212q-63 0 -106 43t-43 107q0 62 43 104.5t106 42.5q65 0 108.5 -42.5t43.5 -104.5q0 -65 -43 -107.5t-109 -42.5z" />
    <glyph glyph-name="uni0308" unicode="&#x308;" 
d="M-471 1212q-62 0 -106 43.5t-44 106.5q0 61 44 104t106 43q61 0 104 -42.5t43 -104.5q0 -63 -42.5 -106.5t-104.5 -43.5zM-37 1212q-63 0 -106 43.5t-43 106.5q0 62 43 104.5t106 42.5q62 0 105 -43t43 -104q0 -63 -43 -106.5t-105 -43.5z" />
    <glyph glyph-name="uni030A" unicode="&#x30a;" 
d="M-111 1178q-101 0 -169 65t-68 160q0 97 68 161t169 64q102 0 170 -64t68 -161q0 -95 -68.5 -160t-169.5 -65zM-111 1309q43 0 70 27.5t27 66.5q0 40 -27 68t-70 28q-44 0 -70 -28t-26 -68t26 -67t70 -27z" />
    <glyph glyph-name="uni030B" unicode="&#x30b;" 
d="M-121 1737l-520 -523l-166 107l526 518zM209 1683l-520 -524l-164 107l526 522z" />
    <glyph glyph-name="uni030C" unicode="&#x30c;" 
d="M-262 1225h-160l-336 372l164 109l262 -301l385 301l135 -137z" />
    <glyph glyph-name="uni0326" unicode="&#x326;" 
d="M-160 -121l-372 -696l-191 57l365 699z" />
    <glyph glyph-name="uni0327" unicode="&#x327;" 
d="M-133 0l-203 -463l-192 37l200 459z" />
    <glyph glyph-name="uni0328" unicode="&#x328;" 
d="M-393 -442q-102 0 -158.5 43.5t-56.5 122.5q0 94 75.5 176t188.5 133h8l-6 -33h127q-79 -41 -136 -93.5t-57 -101.5q0 -55 68 -55q38 0 94 23l-6 -193q-70 -22 -141 -22z" />
    <glyph glyph-name="Wgrave" unicode="&#x1e80;" horiz-adv-x="1980" 
d="M1348 1642l-136 -139l-485 477l133 140zM592 0h-268l-115 1434h246l80 -1084l516 1084h229l76 -1072l516 1072h264l-696 -1434h-266l-74 1075z" />
    <glyph glyph-name="wgrave" unicode="&#x1e81;" horiz-adv-x="1615" 
d="M1106 1323l-135 -141l-488 479l135 137zM492 0h-254l-101 1085h242l57 -790l379 790h201l57 -763l367 763h260l-543 -1085h-250l-57 741z" />
    <glyph glyph-name="Wacute" unicode="&#x1e82;" horiz-adv-x="1980" 
d="M1790 1954l-643 -451l-133 146l643 450zM592 0h-268l-115 1434h246l80 -1084l516 1084h229l76 -1072l516 1072h264l-696 -1434h-266l-74 1075z" />
    <glyph glyph-name="wacute" unicode="&#x1e83;" horiz-adv-x="1615" 
d="M1546 1632l-643 -450l-135 145l643 451zM492 0h-254l-101 1085h242l57 -790l379 790h201l57 -763l367 763h260l-543 -1085h-250l-57 741z" />
    <glyph glyph-name="Wdieresis" unicode="&#x1e84;" horiz-adv-x="1980" 
d="M1004 1542q-63 0 -106.5 44t-43.5 106t43.5 104.5t106.5 42.5q62 0 104.5 -42.5t42.5 -104.5t-43 -106t-104 -44zM1436 1542q-62 0 -106 44t-44 106q0 61 44 104t106 43t104.5 -42.5t42.5 -104.5t-43 -106t-104 -44zM592 0h-268l-115 1434h246l80 -1084l516 1084h229
l76 -1072l516 1072h264l-696 -1434h-266l-74 1075z" />
    <glyph glyph-name="wdieresis" unicode="&#x1e85;" horiz-adv-x="1615" 
d="M758 1212q-62 0 -106 43.5t-44 106.5q0 61 44 104t106 43t104.5 -42.5t42.5 -104.5q0 -63 -42.5 -106.5t-104.5 -43.5zM1192 1212q-63 0 -106.5 43.5t-43.5 106.5q0 62 43.5 104.5t106.5 42.5q62 0 104.5 -42.5t42.5 -104.5q0 -63 -42.5 -106.5t-104.5 -43.5zM492 0h-254
l-101 1085h242l57 -790l379 790h201l57 -763l367 763h260l-543 -1085h-250l-57 741z" />
    <glyph glyph-name="uni1E9E" unicode="&#x1e9e;" horiz-adv-x="1423" 
d="M762 -31q-171 0 -326 58l43 217q145 -66 279 -66q144 0 224.5 71t80.5 195q0 123 -94.5 195.5t-257.5 77.5l30 168l324 329h-393q-140 0 -166 -129l-221 -1085h-246l225 1114q36 178 135.5 249t294.5 71h707l-39 -215l-375 -388q148 -38 232 -138.5t84 -252.5
q0 -212 -148 -341.5t-393 -129.5z" />
    <glyph glyph-name="Ygrave" unicode="&#x1ef2;" horiz-adv-x="1376" 
d="M1030 1642l-135 -139l-485 477l133 140zM702 0h-247l125 612l-377 822h260l266 -592l504 592h305l-711 -822z" />
    <glyph glyph-name="ygrave" unicode="&#x1ef3;" horiz-adv-x="1196" 
d="M883 1323l-135 -141l-488 479l135 137zM106 -410h-198l41 205h198q127 0 179 90l65 115h-45l-209 1085h246l147 -843l484 843h266l-731 -1271q-45 -78 -96.5 -124.5t-137 -73t-209.5 -26.5z" />
    <glyph glyph-name="endash" unicode="&#x2013;" horiz-adv-x="1107" 
d="M1028 528h-956l41 199h956z" />
    <glyph glyph-name="emdash" unicode="&#x2014;" horiz-adv-x="1814" 
d="M1737 528h-1665l41 199h1665z" />
    <glyph glyph-name="quoteleft" unicode="&#x2018;" horiz-adv-x="524" 
d="M150 885l376 708l191 -57l-369 -711z" />
    <glyph glyph-name="quoteright" unicode="&#x2019;" horiz-adv-x="524" 
d="M717 1538l-377 -711l-190 58l368 712z" />
    <glyph glyph-name="quotesinglbase" unicode="&#x201a;" horiz-adv-x="522" 
d="M397 303l-377 -711l-192 58l371 712z" />
    <glyph glyph-name="quotedblleft" unicode="&#x201c;" horiz-adv-x="911" 
d="M150 885l376 710l191 -57l-369 -713zM537 885l376 710l191 -57l-369 -713z" />
    <glyph glyph-name="quotedblright" unicode="&#x201d;" horiz-adv-x="911" 
d="M717 1538l-377 -711l-190 58l368 712zM1104 1538l-377 -711l-190 58l368 712z" />
    <glyph glyph-name="quotedblbase" unicode="&#x201e;" horiz-adv-x="909" 
d="M397 303l-377 -711l-192 58l371 712zM784 303l-376 -711l-193 58l371 712z" />
    <glyph glyph-name="dagger" unicode="&#x2020;" horiz-adv-x="1101" 
d="M657 496h-235l127 616h-356l38 197h359l45 227h235l-45 -227h357l-39 -197h-359z" />
    <glyph glyph-name="daggerdbl" unicode="&#x2021;" horiz-adv-x="1130" 
d="M668 496h-236l49 229h-356l39 195h358l43 192h-358l41 197h358l47 227h236l-47 -227h356l-39 -197h-358l-43 -192h358l-41 -195h-358z" />
    <glyph glyph-name="bullet" unicode="&#x2022;" horiz-adv-x="679" 
d="M362 410q-103 0 -172 69t-69 170q0 103 69 172.5t172 69.5t172.5 -69.5t69.5 -172.5q0 -101 -69.5 -170t-172.5 -69z" />
    <glyph glyph-name="ellipsis" unicode="&#x2026;" horiz-adv-x="1378" 
d="M154 -27q-68 0 -113 45.5t-45 112.5q0 66 45.5 111t112.5 45t112 -45t45 -111q0 -68 -45 -113t-112 -45zM604 -27q-66 0 -110.5 45.5t-44.5 112.5q0 66 44.5 111t110.5 45q67 0 112.5 -45t45.5 -111q0 -67 -45 -112.5t-113 -45.5zM1057 -27q-67 0 -112.5 45.5
t-45.5 112.5q0 66 45.5 111t112.5 45t112 -45t45 -111q0 -68 -45 -113t-112 -45z" />
    <glyph glyph-name="perthousand" unicode="&#x2030;" horiz-adv-x="2596" 
d="M1767 1436l-1339 -1495l-178 86l1335 1493zM442 702q-126 0 -201 78.5t-75 216.5q0 89 28 172.5t79 149.5t129.5 105.5t172.5 39.5q124 0 197.5 -78.5t73.5 -218.5q0 -88 -28.5 -171t-79.5 -148.5t-128 -105.5t-168 -40zM467 868q64 0 112.5 44.5t70.5 106.5t22 128
q0 73 -32 113t-91 40q-62 0 -110.5 -42.5t-71.5 -104.5t-23 -129q0 -75 32 -115.5t91 -40.5zM1419 -31q-126 0 -201 79.5t-75 217.5q0 119 47 223.5t142 173t220 68.5q122 0 196.5 -78.5t74.5 -218.5q0 -87 -29 -170t-79.5 -149t-128 -106t-167.5 -40zM2099 -31
q-126 0 -201 79.5t-75 217.5q0 88 28 171t79 148.5t129.5 105.5t172.5 40q124 0 197.5 -78.5t73.5 -218.5q0 -87 -28.5 -170t-79 -149t-128 -106t-168.5 -40zM1444 135q64 0 112 45t69.5 107.5t21.5 128.5q0 72 -32 111.5t-89 39.5q-62 0 -111 -42.5t-72.5 -104.5
t-23.5 -129q0 -73 33 -114.5t92 -41.5zM2124 135q64 0 112.5 45t70.5 107.5t22 128.5q0 72 -32 111.5t-91 39.5q-62 0 -110.5 -42.5t-71.5 -104.5t-23 -129q0 -74 32.5 -115t90.5 -41z" />
    <glyph glyph-name="guilsinglleft" unicode="&#x2039;" horiz-adv-x="731" 
d="M555 168l-147 -133l-349 436l43 201l519 432l141 -133l-510 -424z" />
    <glyph glyph-name="guilsinglright" unicode="&#x203a;" horiz-adv-x="739" 
d="M649 471l-524 -436l-145 133l518 428l-297 375l145 133l344 -432z" />
    <glyph glyph-name="fraction" unicode="&#x2044;" horiz-adv-x="1359" 
d="M1483 1432l-1348 -1508l-186 90l1349 1506z" />
    <glyph glyph-name="uni2070" unicode="&#x2070;" horiz-adv-x="819" 
d="M487 823q-127 0 -198.5 79t-71.5 233q0 95 28 187t78.5 167.5t129.5 121.5t174 46q122 0 190 -79t68 -232q0 -75 -15 -148.5t-47.5 -141t-78.5 -119.5t-112.5 -83t-144.5 -31zM506 981q50 0 90.5 36t63.5 92t35 115.5t12 114.5q0 160 -105 160q-65 0 -114 -60.5t-70 -139
t-21 -154.5q0 -164 109 -164z" />
    <glyph glyph-name="uni2074" unicode="&#x2074;" horiz-adv-x="786" 
d="M684 844h-180l31 149h-377l35 166l475 479h178l-101 -495h123l-28 -150h-125zM621 1413l-271 -270h213z" />
    <glyph glyph-name="uni2075" unicode="&#x2075;" horiz-adv-x="770" 
d="M467 823q-132 0 -205 71.5t-63 197.5h178q-2 -52 27.5 -82.5t82.5 -30.5q67 0 107.5 45.5t40.5 110.5q0 46 -24 72t-72 26q-56 0 -107 -39h-190l147 444h451l-31 -157h-311l-56 -166q74 51 162 51q94 0 148.5 -57t54.5 -160q0 -139 -93 -232.5t-247 -93.5z" />
    <glyph glyph-name="uni2076" unicode="&#x2076;" horiz-adv-x="813" 
d="M518 823q-139 0 -219 84.5t-80 239.5q0 75 18 148t55 138.5t88.5 115.5t123.5 79t155 29q127 0 196 -69.5t58 -186.5h-176q5 47 -21.5 73.5t-78.5 26.5q-80 0 -148 -64t-96 -190q38 55 98.5 88t131.5 33q107 0 167 -62.5t60 -160.5q0 -132 -91 -227t-241 -95zM535 977
q66 0 106.5 44t40.5 109q0 52 -28 79.5t-76 27.5q-69 0 -110.5 -47.5t-41.5 -106.5q0 -46 27.5 -76t81.5 -30z" />
    <glyph glyph-name="uni2077" unicode="&#x2077;" horiz-adv-x="704" 
d="M387 844h-225l500 637h-426l32 157h617l-37 -188z" />
    <glyph glyph-name="uni2078" unicode="&#x2078;" horiz-adv-x="782" 
d="M465 823q-134 0 -211.5 55t-77.5 150q0 86 58.5 147.5t158.5 86.5q-110 55 -110 165q0 101 84.5 165.5t216.5 64.5q120 0 189 -55t69 -146q0 -69 -43.5 -121.5t-120.5 -77.5q66 -25 101.5 -71t35.5 -109q0 -111 -95 -182.5t-255 -71.5zM553 1323q59 0 94 28.5t35 73.5
q0 39 -28.5 61.5t-80.5 22.5q-58 0 -94.5 -27.5t-36.5 -70.5q0 -39 29 -63.5t82 -24.5zM477 977q74 0 120 35t46 90q0 45 -33.5 70.5t-91.5 25.5q-70 0 -120 -36.5t-50 -92.5q0 -43 34 -67.5t95 -24.5z" />
    <glyph glyph-name="uni2079" unicode="&#x2079;" horiz-adv-x="770" 
d="M436 823q-126 0 -195.5 66t-60.5 184h168q-3 -96 105 -96q80 0 135.5 61t75.5 179q-66 -101 -199 -101q-105 0 -164 62t-59 163q0 128 89 222t232 94q130 0 200.5 -81.5t70.5 -234.5q0 -75 -12.5 -146t-43 -139.5t-75 -119.5t-113.5 -82t-154 -31zM512 1253q67 0 106 47
t39 107q0 44 -24 72t-72 28q-64 0 -106.5 -43t-42.5 -108q0 -49 26.5 -76t73.5 -27z" />
    <glyph glyph-name="uni2080" unicode="&#x2080;" horiz-adv-x="819" 
d="M274 -223q-127 0 -198.5 78.5t-71.5 232.5q0 95 28 187t78.5 167.5t129.5 121.5t174 46q122 0 190 -79t68 -232q0 -75 -15 -148t-47.5 -141t-78.5 -119.5t-112.5 -82.5t-144.5 -31zM293 -66q50 0 90.5 36.5t63.5 92.5t35 115.5t12 114.5q0 160 -105 160q-65 0 -114 -61
t-70 -139.5t-21 -154.5q0 -164 109 -164z" />
    <glyph glyph-name="uni2081" unicode="&#x2081;" horiz-adv-x="575" 
d="M274 -205h-182l115 563q-56 -79 -184 -79h-31l39 184h28q164 0 193 117l2 12h182z" />
    <glyph glyph-name="uni2082" unicode="&#x2082;" horiz-adv-x="770" 
d="M539 -205h-572l13 70q15 77 55 137.5t89 95t104.5 65.5t102 53t81 54t41.5 70q9 50 -19 81.5t-78 31.5q-55 0 -92.5 -33.5t-50.5 -95.5h-174q27 142 116 214t218 72q132 0 203.5 -80.5t50.5 -197.5q-10 -51 -39.5 -94t-67.5 -70.5t-84.5 -55t-88.5 -48.5t-81.5 -50.5
t-60.5 -60.5h364z" />
    <glyph glyph-name="uni2083" unicode="&#x2083;" horiz-adv-x="763" 
d="M260 -223q-147 0 -230.5 74t-66.5 210h172q-4 -63 31 -97t104 -34q62 0 102 30t40 89q0 40 -28 63t-77 23h-123l29 137h117q54 0 88.5 29.5t34.5 73.5q0 39 -27.5 61.5t-71.5 22.5q-57 0 -96 -31t-51 -86h-176q27 132 118.5 200t221.5 68q116 0 181.5 -54t65.5 -144
q0 -73 -49 -130t-129 -77q67 -19 105.5 -66t38.5 -112q0 -110 -89 -180t-235 -70z" />
    <glyph glyph-name="uni2084" unicode="&#x2084;" horiz-adv-x="786" 
d="M471 -205h-180l31 152h-377l32 166l478 479h178l-101 -496h123l-28 -149h-125zM408 367l-271 -271h213z" />
    <glyph glyph-name="uni2085" unicode="&#x2085;" horiz-adv-x="770" 
d="M254 -223q-132 0 -205.5 71t-64.5 197h180q-2 -52 27.5 -83.5t82.5 -31.5q67 0 107.5 46t40.5 112q0 46 -24 72t-72 26q-56 0 -107 -39h-190l147 445h451l-31 -158h-311l-56 -166q74 51 162 51q94 0 148.5 -57t54.5 -160q0 -139 -93 -232t-247 -93z" />
    <glyph glyph-name="uni2086" unicode="&#x2086;" horiz-adv-x="813" 
d="M305 -223q-139 0 -219 83.5t-80 239.5q0 75 18 148t55 138.5t88.5 115.5t123.5 79t155 29q127 0 196 -69.5t58 -186.5h-176q5 48 -21.5 74.5t-78.5 26.5q-80 0 -148 -64t-96 -190q38 55 98.5 88t131.5 33q107 0 167 -62.5t60 -161.5q0 -133 -91 -227t-241 -94zM322 -70
q66 0 106.5 44.5t40.5 109.5q0 51 -28 78.5t-76 27.5q-69 0 -110.5 -47t-41.5 -106q0 -46 27.5 -76.5t81.5 -30.5z" />
    <glyph glyph-name="uni2087" unicode="&#x2087;" horiz-adv-x="704" 
d="M174 -205h-227l502 639h-426l32 158h617l-37 -189z" />
    <glyph glyph-name="uni2088" unicode="&#x2088;" horiz-adv-x="782" 
d="M252 -223q-134 0 -212.5 54t-78.5 149q0 87 59 148.5t160 86.5q-110 55 -110 166q0 101 84.5 165t216.5 64q120 0 189 -55t69 -145q0 -69 -43.5 -121.5t-120.5 -77.5q66 -25 101.5 -71t35.5 -109q0 -111 -95 -182.5t-255 -71.5zM340 276q59 0 94 29t35 74
q0 39 -28.5 61.5t-80.5 22.5q-58 0 -94.5 -27.5t-36.5 -70.5q0 -39 29 -64t82 -25zM264 -72q74 0 120 35t46 92q0 45 -34 71t-91 26q-70 0 -120 -36.5t-50 -92.5q0 -45 34 -70t95 -25z" />
    <glyph glyph-name="uni2089" unicode="&#x2089;" horiz-adv-x="770" 
d="M223 -223q-126 0 -195.5 66t-60.5 184h168q-3 -97 105 -97q80 0 135.5 61t75.5 179q-65 -100 -199 -100q-105 0 -164 62t-59 163q0 82 38 153t112.5 116.5t170.5 45.5q130 0 200.5 -81t70.5 -234q0 -75 -12.5 -146t-43 -139.5t-75 -119.5t-113.5 -82t-154 -31zM299 207
q67 0 106 47t39 106q0 44 -24 72.5t-72 28.5q-64 0 -106.5 -43.5t-42.5 -108.5q0 -49 26 -75.5t74 -26.5z" />
    <glyph glyph-name="Euro" unicode="&#x20ac;" horiz-adv-x="1703" 
d="M1096 1243q-167 0 -295.5 -89t-200.5 -239h596l-29 -147h-620q-16 -64 -19 -119h615l-31 -145h-584q19 -152 112 -231.5t251 -79.5q162 0 287.5 92t195.5 268h250q-202 -584 -766 -584q-256 0 -412.5 141t-169.5 394h-253l30 145h226q6 60 18 119h-219l28 147h234
q94 248 300.5 398.5t485.5 150.5q269 0 416.5 -150.5t138.5 -432.5h-245q0 362 -340 362z" />
    <glyph glyph-name="uni2116" unicode="&#x2116;" horiz-adv-x="2172" 
d="M1860 801q-114 0 -182 69t-68 191q0 166 105.5 284.5t269.5 118.5q116 0 182.5 -67.5t66.5 -190.5q0 -107 -45.5 -199t-132 -149t-196.5 -57zM287 0h-246l291 1434h256l497 -1094l224 1094h245l-290 -1434h-258l-496 1094zM1890 969q75 0 124.5 62.5t49.5 144.5
q0 57 -28.5 88.5t-79.5 31.5q-79 0 -127.5 -62t-48.5 -140q0 -58 28.5 -91.5t81.5 -33.5zM2013 451h-473l41 198h473z" />
    <glyph glyph-name="trademark" unicode="&#x2122;" horiz-adv-x="1443" 
d="M432 741h-137l113 566h-211l24 127h561l-24 -127h-213zM825 741h-139l139 693h150l100 -539l316 539h147l-139 -693h-137l81 406l-237 -406h-127l-74 400z" />
    <glyph glyph-name="estimated" unicode="&#x212e;" horiz-adv-x="1570" 
d="M733 -31q-286 0 -459.5 164.5t-173.5 439.5q0 174 68 337.5t183.5 285t277 195t338.5 73.5q292 0 448 -188t115 -508l-8 -63h-1119l-96 -508q74 -79 185.5 -121.5t246.5 -42.5q219 0 395.5 107.5t270.5 312.5h72q-92 -230 -293.5 -357t-450.5 -127zM506 1247l-90 -479
h833l90 487q-136 146 -376 146q-251 0 -457 -154z" />
    <glyph glyph-name="arrowleft" unicode="&#x2190;" horiz-adv-x="1941" 
d="M772 84l-172 -143l-508 641l47 223l768 639l168 -144l-598 -495h1442l-47 -223h-1497z" />
    <glyph glyph-name="arrowup" unicode="&#x2191;" horiz-adv-x="1638" 
d="M799 -143h-236l262 1288l-549 -457l-151 152l768 637h235l508 -637l-155 -156l-410 514z" />
    <glyph glyph-name="arrowright" unicode="&#x2192;" horiz-adv-x="1939" 
d="M1864 582l-768 -641l-168 143l598 498h-1442l45 223h1499l-397 495l170 144l508 -639z" />
    <glyph glyph-name="arrowdown" unicode="&#x2193;" horiz-adv-x="1638" 
d="M817 -43h-233l-510 637l157 151l408 -509l272 1341h234l-260 -1284l551 457l149 -156z" />
    <glyph glyph-name="arrowboth" unicode="&#x2194;" horiz-adv-x="2187" 
d="M772 84l-170 -143l-508 641l43 223l768 639l170 -144l-600 -495h1399l-397 495l170 144l507 -639l-45 -223l-768 -641l-167 143l600 498h-1399z" />
    <glyph glyph-name="uni2196" unicode="&#x2196;" horiz-adv-x="1648" 
d="M1503 137l-168 -157l-852 1069l-147 -719h-230l193 948l168 160h979l-45 -224h-756z" />
    <glyph glyph-name="uni2197" unicode="&#x2197;" horiz-adv-x="1703" 
d="M1427 1040l-1286 -1071l-161 166l1298 1077h-700l45 224h923l158 -166l-193 -942h-229z" />
    <glyph glyph-name="uni2198" unicode="&#x2198;" horiz-adv-x="1648" 
d="M1253 -2h-979l45 223h756l-858 1077l168 158l852 -1067l147 717h230l-193 -948z" />
    <glyph glyph-name="uni2199" unicode="&#x2199;" horiz-adv-x="1712" 
d="M1151 -2h-913l-168 160l192 948h230l-146 -719l1288 1069l170 -158l-1298 -1077h690z" />
    <glyph glyph-name="uni21B0" unicode="&#x21b0;" horiz-adv-x="1892" 
d="M1636 0h-229l158 768h-1155l254 -317l-156 -152l-373 469l45 223l580 486l151 -152l-401 -334h1329z" />
    <glyph glyph-name="uni21B1" unicode="&#x21b1;" horiz-adv-x="1890" 
d="M264 0h-229l201 991h1382l-264 334l155 152l385 -486l-47 -223l-565 -469l-149 152l383 317h-1096z" />
    <glyph glyph-name="uni21B2" unicode="&#x21b2;" horiz-adv-x="1890" 
d="M596 125l-154 -152l-374 469l47 224l579 485l152 -152l-402 -333h1098l156 768h229l-201 -992h-1382z" />
    <glyph glyph-name="uni21B3" unicode="&#x21b3;" horiz-adv-x="1892" 
d="M1782 442l-565 -469l-150 152l383 317h-1325l203 992h227l-156 -768h1153l-264 333l156 152l385 -485z" />
    <glyph glyph-name="partialdiff" unicode="&#x2202;" horiz-adv-x="1208" 
d="M477 -31q-85 0 -155.5 24t-119 65.5t-82.5 98t-49.5 120.5t-15.5 133q0 89 23.5 175t71.5 163.5t114.5 136t159 93t199.5 34.5q104 0 186.5 -39.5t130.5 -104.5q15 210 -83 340t-322 185l96 221q272 -84 406 -259t134 -454q0 -138 -27.5 -271t-84.5 -253t-138 -210.5
t-195.5 -144t-248.5 -53.5zM512 186q138 0 252 136t145 360q-94 123 -254 123q-107 0 -189.5 -55t-123.5 -141.5t-41 -186.5q0 -111 56 -173.5t155 -62.5z" />
    <glyph glyph-name="emptyset" unicode="&#x2205;" horiz-adv-x="1458" 
d="M1409 1434l123 -80l-209 -207q90 -134 90 -332q0 -151 -52 -288.5t-145.5 -243.5t-235.5 -169t-310 -63q-201 0 -346 99l-211 -211l-127 81l233 232q-98 137 -98 334q0 155 56.5 296.5t154.5 247t239.5 168t302.5 62.5q214 0 353 -109zM344 621q0 -118 49 -197l660 657
q-82 54 -203 54q-104 0 -198.5 -42.5t-161.5 -112.5t-106.5 -164t-39.5 -195zM1190 786q0 110 -41 187l-651 -651q84 -46 196 -46q146 0 261.5 72.5t175 188t59.5 249.5z" />
    <glyph glyph-name="product" unicode="&#x220f;" horiz-adv-x="1499" 
d="M522 0h-246l246 1212h-248l45 222h1223l-43 -222h-250l-245 -1212h-246l246 1212h-236z" />
    <glyph glyph-name="summation" unicode="&#x2211;" horiz-adv-x="1212" 
d="M1014 0h-1037l48 231l550 531l-352 442l47 230h1035l-45 -228h-746l303 -377l-41 -196l-420 -406h703z" />
    <glyph glyph-name="minus" unicode="&#x2212;" horiz-adv-x="1107" 
d="M1030 528h-958l41 199h958z" />
    <glyph glyph-name="radical" unicode="&#x221a;" horiz-adv-x="1382" 
d="M799 0h-277l-125 856h-299l45 229h465l99 -755l649 1253l248 -47z" />
    <glyph glyph-name="integral" unicode="&#x222b;" horiz-adv-x="1222" 
d="M98 -301h-213l47 229h213q105 0 136 92l415 1102q62 163 161.5 237.5t277.5 74.5h213l-48 -230h-210q-48 0 -82.5 -24t-49.5 -68l-415 -1100q-60 -160 -164 -236.5t-281 -76.5z" />
    <glyph glyph-name="approxequal" unicode="&#x2248;" horiz-adv-x="1193" 
d="M897 580q-58 0 -114 21t-99.5 51.5t-84 61t-81 51.5t-76.5 21q-54 0 -89.5 -45t-47.5 -133h-215q27 196 117.5 298t214.5 102q55 0 109 -21.5t96 -52t81 -61.5t79.5 -52.5t76.5 -21.5q104 0 119 170h221q-55 -389 -307 -389zM801 98q-71 0 -141.5 32.5t-117 71t-100.5 71
t-96 32.5q-54 0 -89.5 -45t-47.5 -133h-217q28 197 118 298t214 101q56 0 110 -21.5t96.5 -52t81.5 -61.5t79.5 -52.5t76.5 -21.5q101 0 119 170h219q-52 -389 -305 -389z" />
    <glyph glyph-name="notequal" unicode="&#x2260;" horiz-adv-x="1191" 
d="M399 276l-184 -221l-96 72l125 149h-211l43 201h336l206 246h-493l41 203h620l164 194l94 -67l-106 -127h244l-41 -203h-369l-207 -246h527l-43 -201h-650z" />
    <glyph glyph-name="lessequal" unicode="&#x2264;" horiz-adv-x="1269" 
d="M1100 498l-56 -197l-919 330l45 225l1055 330l28 -201l-809 -252zM1038 39h-1034l41 201h1034z" />
    <glyph glyph-name="greaterequal" unicode="&#x2265;" horiz-adv-x="1273" 
d="M1186 631l-1055 -330l-33 199l813 254l-657 235l57 197l920 -330zM1065 39h-1034l41 201h1034z" />
    <glyph glyph-name="uni23CE" unicode="&#x23ce;" horiz-adv-x="1886" 
d="M592 125l-154 -152l-375 469l48 224l579 485l152 -152l-402 -333h1098l113 559h-754l41 209h985l-201 -992h-1382z" />
    <glyph glyph-name="uni2460" unicode="&#x2460;" horiz-adv-x="1755" 
d="M762 -98q-299 0 -476 171t-177 468q0 198 69.5 378.5t191.5 316t301.5 216t387.5 80.5q304 0 480.5 -172t176.5 -481q0 -193 -67.5 -369.5t-188 -311.5t-302.5 -215.5t-396 -80.5zM782 61q167 0 311.5 66t241.5 176t152 255t55 302q0 240 -128 376t-367 136
q-163 0 -307 -65.5t-244 -175.5t-157.5 -255.5t-57.5 -302.5q0 -241 129.5 -376.5t371.5 -135.5zM971 319h-183l115 564q-55 -80 -184 -80h-29l37 184h29q163 0 192 115l2 12h183z" />
    <glyph glyph-name="uni2461" unicode="&#x2461;" horiz-adv-x="1755" 
d="M762 -98q-299 0 -476 171t-177 468q0 198 69.5 378.5t191.5 316t301.5 216t387.5 80.5q304 0 480.5 -172t176.5 -481q0 -193 -67.5 -369.5t-188 -311.5t-302.5 -215.5t-396 -80.5zM782 61q167 0 311.5 66t241.5 176t152 255t55 302q0 240 -128 376t-367 136
q-163 0 -307 -65.5t-244 -175.5t-157.5 -255.5t-57.5 -302.5q0 -241 129.5 -376.5t371.5 -135.5zM1135 319h-572l12 70q13 67 44.5 120.5t71.5 88t86 62.5t91 50t82.5 43.5t64 49t32.5 61.5q9 50 -18 81.5t-77 31.5q-55 0 -93.5 -34.5t-51.5 -96.5h-174q27 143 116.5 216
t217.5 73q132 0 204 -81.5t50 -197.5q-11 -61 -49 -109.5t-89.5 -80.5t-103.5 -59t-102.5 -60t-75.5 -70h364z" />
    <glyph glyph-name="uni2462" unicode="&#x2462;" horiz-adv-x="1755" 
d="M762 -98q-299 0 -476 171t-177 468q0 198 69.5 378.5t191.5 316t301.5 216t387.5 80.5q304 0 480.5 -172t176.5 -481q0 -193 -67.5 -369.5t-188 -311.5t-302.5 -215.5t-396 -80.5zM782 61q167 0 311.5 66t241.5 176t152 255t55 302q0 240 -128 376t-367 136
q-163 0 -307 -65.5t-244 -175.5t-157.5 -255.5t-57.5 -302.5q0 -241 129.5 -376.5t371.5 -135.5zM868 301q-145 0 -228.5 74t-66.5 209h172q-6 -61 29.5 -95t104.5 -34q62 0 101.5 29.5t39.5 86.5q0 42 -27 65t-78 23h-120l26 136h117q55 0 89 29.5t34 74.5q0 38 -27.5 60
t-70.5 22q-57 0 -96.5 -30.5t-49.5 -84.5h-176q27 131 118.5 200t219.5 69q117 0 182.5 -54t65.5 -145q0 -73 -48.5 -130t-127.5 -77q66 -20 104.5 -68t38.5 -112q0 -108 -90 -178t-236 -70z" />
    <glyph glyph-name="uni2463" unicode="&#x2463;" horiz-adv-x="1755" 
d="M762 -98q-299 0 -476 171t-177 468q0 198 69.5 378.5t191.5 316t301.5 216t387.5 80.5q304 0 480.5 -172t176.5 -481q0 -193 -67.5 -369.5t-188 -311.5t-302.5 -215.5t-396 -80.5zM782 61q167 0 311.5 66t241.5 176t152 255t55 302q0 240 -128 376t-367 136
q-163 0 -307 -65.5t-244 -175.5t-157.5 -255.5t-57.5 -302.5q0 -241 129.5 -376.5t371.5 -135.5zM1030 319h-182l31 152h-375l33 166l475 477h180l-102 -493h124l-30 -150h-123zM965 891l-269 -270h213z" />
    <glyph glyph-name="uni2464" unicode="&#x2464;" horiz-adv-x="1755" 
d="M762 -98q-299 0 -476 171t-177 468q0 198 69.5 378.5t191.5 316t301.5 216t387.5 80.5q304 0 480.5 -172t176.5 -481q0 -193 -67.5 -369.5t-188 -311.5t-302.5 -215.5t-396 -80.5zM782 61q167 0 311.5 66t241.5 176t152 255t55 302q0 240 -128 376t-367 136
q-163 0 -307 -65.5t-244 -175.5t-157.5 -255.5t-57.5 -302.5q0 -241 129.5 -376.5t371.5 -135.5zM864 301q-132 0 -205.5 71t-64.5 197h178q-2 -52 28 -83t83 -31q67 0 107 45t40 112q0 45 -24 71t-72 26q-59 0 -107 -39h-190l147 444h453l-33 -156h-309l-55 -165
q68 49 159 49q94 0 149.5 -57t55.5 -160q0 -138 -93 -231t-247 -93z" />
    <glyph glyph-name="uni2465" unicode="&#x2465;" horiz-adv-x="1755" 
d="M762 -98q-299 0 -476 171t-177 468q0 198 69.5 378.5t191.5 316t301.5 216t387.5 80.5q304 0 480.5 -172t176.5 -481q0 -193 -67.5 -369.5t-188 -311.5t-302.5 -215.5t-396 -80.5zM782 61q167 0 311.5 66t241.5 176t152 255t55 302q0 240 -128 376t-367 136
q-163 0 -307 -65.5t-244 -175.5t-157.5 -255.5t-57.5 -302.5q0 -241 129.5 -376.5t371.5 -135.5zM872 301q-139 0 -219 84t-80 238q0 95 29.5 185.5t83.5 164t139.5 118t188.5 44.5q127 0 196 -69.5t58 -186.5h-176q5 46 -22 72t-79 26q-80 0 -147.5 -64t-95.5 -190
q38 55 98.5 88t130.5 33q107 0 167 -61.5t60 -161.5q0 -132 -91 -226t-241 -94zM889 455q66 0 106.5 44t40.5 109q0 52 -28 79.5t-76 27.5q-69 0 -110.5 -48.5t-41.5 -107.5q0 -45 27.5 -74.5t81.5 -29.5z" />
    <glyph glyph-name="uni2466" unicode="&#x2466;" horiz-adv-x="1755" 
d="M762 -98q-299 0 -476 171t-177 468q0 198 69.5 378.5t191.5 316t301.5 216t387.5 80.5q304 0 480.5 -172t176.5 -481q0 -193 -67.5 -369.5t-188 -311.5t-302.5 -215.5t-396 -80.5zM782 61q167 0 311.5 66t241.5 176t152 255t55 302q0 240 -128 376t-367 136
q-163 0 -307 -65.5t-244 -175.5t-157.5 -255.5t-57.5 -302.5q0 -241 129.5 -376.5t371.5 -135.5zM821 319h-225l500 639h-426l32 156h617l-37 -188z" />
    <glyph glyph-name="uni2467" unicode="&#x2467;" horiz-adv-x="1757" 
d="M764 -98q-299 0 -477 171t-178 468q0 158 43.5 306.5t127.5 272t198.5 216t264.5 144.5t318 52q304 0 479.5 -172t175.5 -481q0 -193 -67.5 -369.5t-188 -311.5t-301.5 -215.5t-395 -80.5zM784 61q167 0 311.5 66t241.5 176t152 255t55 302q0 240 -128.5 376t-368.5 136
q-130 0 -249.5 -42.5t-212 -118t-161 -175t-105 -219t-36.5 -244.5q0 -241 129 -376.5t372 -135.5zM864 301q-134 0 -212.5 54t-78.5 149q0 87 58.5 147.5t159.5 87.5q-51 26 -81 68t-30 96q0 102 85 167t216 65q120 0 190 -55.5t70 -147.5q0 -68 -44 -120t-120 -79
q65 -23 101 -70t36 -108q0 -111 -95.5 -182.5t-254.5 -71.5zM952 801q59 0 94 27.5t35 72.5q0 39 -29 62.5t-79 23.5q-59 0 -96 -28.5t-37 -71.5q0 -39 29 -62.5t83 -23.5zM874 453q74 0 121 35t47 92q0 44 -34 70t-93 26q-70 0 -120 -36.5t-50 -92.5q0 -44 34 -69t95 -25z
" />
    <glyph glyph-name="uni2468" unicode="&#x2468;" horiz-adv-x="1755" 
d="M762 -98q-299 0 -476 171t-177 468q0 198 69.5 378.5t191.5 316t301.5 216t387.5 80.5q304 0 480.5 -172t176.5 -481q0 -193 -67.5 -369.5t-188 -311.5t-302.5 -215.5t-396 -80.5zM782 61q167 0 311.5 66t241.5 176t152 255t55 302q0 240 -128 376t-367 136
q-163 0 -307 -65.5t-244 -175.5t-157.5 -255.5t-57.5 -302.5q0 -241 129.5 -376.5t371.5 -135.5zM846 301q-126 0 -195.5 66t-60.5 184h168q-3 -96 104 -96q80 0 135.5 60t75.5 177q-64 -98 -199 -98q-105 0 -164 62t-59 161q0 128 89.5 223t232.5 95q129 0 199.5 -82.5
t70.5 -235.5q0 -75 -12.5 -146t-42.5 -139t-74.5 -118.5t-113.5 -81.5t-154 -31zM922 731q67 0 106 47t39 105q0 46 -23.5 74t-72.5 28q-64 0 -107 -44t-43 -107q0 -50 26.5 -76.5t74.5 -26.5z" />
    <glyph glyph-name="uni24EA" unicode="&#x24ea;" horiz-adv-x="1755" 
d="M762 -98q-299 0 -476 171t-177 468q0 198 69.5 378.5t191.5 316t301.5 216t387.5 80.5q304 0 480.5 -172t176.5 -481q0 -193 -67.5 -369.5t-188 -311.5t-302.5 -215.5t-396 -80.5zM782 61q167 0 311.5 66t241.5 176t152 255t55 302q0 240 -128 376t-367 136
q-163 0 -307 -65.5t-244 -175.5t-157.5 -255.5t-57.5 -302.5q0 -241 129.5 -376.5t371.5 -135.5zM848 301q-126 0 -197 78.5t-71 230.5q0 96 27.5 188.5t78 168t129.5 122t174 46.5q122 0 190 -80.5t68 -233.5q0 -75 -15 -148t-48 -140.5t-79 -119t-112.5 -82t-144.5 -30.5z
M866 459q51 0 91.5 36t63 91.5t34.5 114.5t12 114q0 162 -104 162q-64 0 -112.5 -60.5t-69.5 -139.5t-21 -156q0 -162 106 -162z" />
    <glyph glyph-name="uni24FF" unicode="&#x24ff;" horiz-adv-x="1755" 
d="M762 -98q214 0 396 80.5t302.5 215.5t188 311.5t67.5 369.5q0 309 -176.5 481t-480.5 172q-208 0 -387.5 -80.5t-301.5 -216t-191.5 -316t-69.5 -378.5q0 -297 177 -468t476 -171zM848 301q-126 0 -197 78.5t-71 230.5q0 96 27.5 188.5t78 168t129.5 122t174 46.5
q122 0 190 -80.5t68 -233.5q0 -75 -15 -148t-48 -140.5t-79 -119t-112.5 -82t-144.5 -30.5zM866 459q51 0 91.5 36t63 91.5t34.5 114.5t12 114q0 162 -104 162q-64 0 -112.5 -60.5t-69.5 -139.5t-21 -156q0 -162 106 -162z" />
    <glyph glyph-name="lozenge" unicode="&#x25ca;" horiz-adv-x="1185" 
d="M590 0h-217l-273 717l564 717h217l274 -717zM354 690l162 -436l387 491l-166 435z" />
    <glyph glyph-name="uni2600" unicode="&#x2600;" horiz-adv-x="1757" 
d="M1038 1128h-80l78 383h80zM1399 1436l-217 -353l-68 31l217 352zM868 1110l-71 -27l-74 351l72 28zM1610 1253l-326 -270l-45 57l324 269zM709 1032l-58 -51l-213 270l56 52zM1714 987l-383 -145l-14 73l381 146zM588 903l-39 -63l-324 147l37 64zM854 412
q-116 0 -185 68t-69 179q0 71 28.5 138t77.5 118.5t119.5 83t149.5 31.5q117 0 186.5 -68t69.5 -178q0 -151 -108.5 -261.5t-268.5 -110.5zM502 684h-385l14 72h385zM1698 684h-381l14 72h381zM514 528l-381 -145l-16 74l383 147zM1599 446l-36 -65l-324 145l39 66zM590 406
l-324 -271l-47 58l324 270zM1384 182l-57 -49l-215 270l57 48zM717 330l-217 -355l-70 33l217 352zM1100 6l-72 -31l-74 355l72 26zM791 -70h-80l80 383h79z" />
    <glyph glyph-name="sun" unicode="&#x263c;" horiz-adv-x="1757" 
d="M1038 1128h-80l78 383h80zM1399 1436l-217 -353l-68 31l217 352zM868 1110l-71 -27l-74 351l72 28zM1610 1253l-326 -270l-45 57l324 269zM709 1032l-58 -51l-213 270l56 52zM1714 987l-383 -145l-14 73l381 146zM588 903l-39 -63l-324 147l37 64zM854 412
q-116 0 -185 68t-69 179q0 71 28.5 138t77.5 118.5t119.5 83t149.5 31.5q117 0 186.5 -68t69.5 -178q0 -151 -108.5 -261.5t-268.5 -110.5zM883 567q83 0 137.5 57t54.5 134q0 54 -33.5 86.5t-93.5 32.5q-81 0 -135.5 -57t-54.5 -132q0 -55 33.5 -88t91.5 -33zM502 684h-385
l14 72h385zM1698 684h-381l14 72h381zM514 528l-381 -145l-16 74l383 147zM1599 446l-36 -65l-324 145l39 66zM590 406l-324 -271l-47 58l324 270zM1384 182l-57 -49l-215 270l57 48zM717 330l-217 -355l-70 33l217 352zM1100 6l-72 -31l-74 355l72 26zM791 -70h-80l80 383
h79z" />
    <glyph glyph-name="uni2776" unicode="&#x2776;" horiz-adv-x="1755" 
d="M762 -98q214 0 396 80.5t302.5 215.5t188 311.5t67.5 369.5q0 309 -176.5 481t-480.5 172q-208 0 -387.5 -80.5t-301.5 -216t-191.5 -316t-69.5 -378.5q0 -297 177 -468t476 -171zM971 319h-183l115 564q-55 -80 -184 -80h-29l37 184h29q163 0 192 115l2 12h183z" />
    <glyph glyph-name="uni2777" unicode="&#x2777;" horiz-adv-x="1755" 
d="M762 -98q214 0 396 80.5t302.5 215.5t188 311.5t67.5 369.5q0 309 -176.5 481t-480.5 172q-208 0 -387.5 -80.5t-301.5 -216t-191.5 -316t-69.5 -378.5q0 -297 177 -468t476 -171zM1135 319h-572l12 70q13 67 44.5 120.5t71.5 88t86 62.5t91 50t82.5 43.5t64 49
t32.5 61.5q9 50 -18 81.5t-77 31.5q-55 0 -93.5 -34.5t-51.5 -96.5h-174q27 143 116.5 216t217.5 73q132 0 204 -81.5t50 -197.5q-11 -61 -49 -109.5t-89.5 -80.5t-103.5 -59t-102.5 -60t-75.5 -70h364z" />
    <glyph glyph-name="uni2778" unicode="&#x2778;" horiz-adv-x="1755" 
d="M762 -98q214 0 396 80.5t302.5 215.5t188 311.5t67.5 369.5q0 309 -176.5 481t-480.5 172q-208 0 -387.5 -80.5t-301.5 -216t-191.5 -316t-69.5 -378.5q0 -297 177 -468t476 -171zM868 301q-145 0 -228.5 74t-66.5 209h172q-6 -61 29.5 -95t104.5 -34q62 0 101.5 29.5
t39.5 86.5q0 42 -27 65t-78 23h-120l26 136h117q55 0 89 29.5t34 74.5q0 38 -27.5 60t-70.5 22q-57 0 -96.5 -30.5t-49.5 -84.5h-176q27 131 118.5 200t219.5 69q117 0 182.5 -54t65.5 -145q0 -73 -48.5 -130t-127.5 -77q66 -20 104.5 -68t38.5 -112q0 -108 -90 -178
t-236 -70z" />
    <glyph glyph-name="uni2779" unicode="&#x2779;" horiz-adv-x="1755" 
d="M762 -98q214 0 396 80.5t302.5 215.5t188 311.5t67.5 369.5q0 309 -176.5 481t-480.5 172q-208 0 -387.5 -80.5t-301.5 -216t-191.5 -316t-69.5 -378.5q0 -297 177 -468t476 -171zM1030 319h-182l31 152h-375l33 166l475 477h180l-102 -493h124l-30 -150h-123zM965 891
l-269 -270h213z" />
    <glyph glyph-name="uni277A" unicode="&#x277a;" horiz-adv-x="1755" 
d="M762 -98q214 0 396 80.5t302.5 215.5t188 311.5t67.5 369.5q0 309 -176.5 481t-480.5 172q-208 0 -387.5 -80.5t-301.5 -216t-191.5 -316t-69.5 -378.5q0 -297 177 -468t476 -171zM864 301q-132 0 -205.5 71t-64.5 197h178q-2 -52 28 -83t83 -31q67 0 107 45t40 112
q0 45 -24 71t-72 26q-59 0 -107 -39h-190l147 444h453l-33 -156h-309l-55 -165q68 49 159 49q94 0 149.5 -57t55.5 -160q0 -138 -93 -231t-247 -93z" />
    <glyph glyph-name="uni277B" unicode="&#x277b;" horiz-adv-x="1755" 
d="M762 -98q214 0 396 80.5t302.5 215.5t188 311.5t67.5 369.5q0 309 -176.5 481t-480.5 172q-208 0 -387.5 -80.5t-301.5 -216t-191.5 -316t-69.5 -378.5q0 -297 177 -468t476 -171zM872 301q-139 0 -219 84t-80 238q0 95 29.5 185.5t83.5 164t139.5 118t188.5 44.5
q127 0 196 -69.5t58 -186.5h-176q5 46 -22 72t-79 26q-80 0 -147.5 -64t-95.5 -190q38 55 98.5 88t130.5 33q107 0 167 -61.5t60 -161.5q0 -132 -91 -226t-241 -94zM889 455q66 0 106.5 44t40.5 109q0 52 -28 79.5t-76 27.5q-69 0 -110.5 -48.5t-41.5 -107.5
q0 -45 27.5 -74.5t81.5 -29.5z" />
    <glyph glyph-name="uni277C" unicode="&#x277c;" horiz-adv-x="1755" 
d="M762 -98q214 0 396 80.5t302.5 215.5t188 311.5t67.5 369.5q0 309 -176.5 481t-480.5 172q-208 0 -387.5 -80.5t-301.5 -216t-191.5 -316t-69.5 -378.5q0 -297 177 -468t476 -171zM821 319h-225l500 639h-426l32 156h617l-37 -188z" />
    <glyph glyph-name="uni277D" unicode="&#x277d;" horiz-adv-x="1755" 
d="M762 -98q214 0 396 80.5t302.5 215.5t188 311.5t67.5 369.5q0 309 -176.5 481t-480.5 172q-208 0 -387.5 -80.5t-301.5 -216t-191.5 -316t-69.5 -378.5q0 -297 177 -468t476 -171zM864 301q-134 0 -212.5 54t-78.5 149q0 87 58.5 147.5t159.5 87.5q-51 26 -81 68t-30 96
q0 102 85 167t216 65q120 0 190 -55.5t70 -147.5q0 -68 -44 -120t-120 -79q65 -23 101 -70t36 -108q0 -111 -95.5 -182.5t-254.5 -71.5zM952 801q59 0 94 27.5t35 72.5q0 39 -29 62.5t-79 23.5q-59 0 -96 -28.5t-37 -71.5q0 -39 29 -62.5t83 -23.5zM874 453q74 0 121 35
t47 92q0 44 -34 70t-93 26q-70 0 -120 -36.5t-50 -92.5q0 -44 34 -69t95 -25z" />
    <glyph glyph-name="uni277E" unicode="&#x277e;" horiz-adv-x="1755" 
d="M762 -98q214 0 396 80.5t302.5 215.5t188 311.5t67.5 369.5q0 309 -176.5 481t-480.5 172q-208 0 -387.5 -80.5t-301.5 -216t-191.5 -316t-69.5 -378.5q0 -297 177 -468t476 -171zM852 305q-126 0 -195.5 66t-60.5 184h166q-3 -96 106 -96q79 0 135 60t74 177
q-61 -98 -198 -98q-105 0 -163.5 62t-58.5 161q-2 128 87.5 223t234.5 95q128 0 198 -82.5t70 -235.5q0 -75 -12.5 -146t-42.5 -139t-74 -118.5t-112.5 -81.5t-153.5 -31zM928 735q67 0 106 47t39 105q0 45 -24.5 73.5t-73.5 28.5q-64 0 -106 -43.5t-42 -107.5
q0 -50 26.5 -76.5t74.5 -26.5z" />
    <glyph glyph-name="uni3010" unicode="&#x3010;" horiz-adv-x="749" 
d="M512 -186h-485l374 1841h486l-4 -25q-187 -192 -311.5 -426.5t-172.5 -478.5q-47 -229 -17 -462.5t136 -424.5z" />
    <glyph glyph-name="uni3011" unicode="&#x3011;" horiz-adv-x="749" 
d="M799 1655l-375 -1841h-485l6 24q184 191 307.5 422t171.5 465q52 240 22.5 476.5t-137.5 428.5l4 25h486z" />
    <glyph glyph-name="uni301C" unicode="&#x301c;" horiz-adv-x="2447" 
d="M1774 412q-116 0 -229.5 28t-207 68t-185.5 80t-200.5 68t-216.5 28q-142 0 -287 -50.5t-253 -135.5l-95 174q134 103 307.5 162t342.5 59q130 0 252.5 -28t218 -67.5t185.5 -79t190 -67.5t196 -28q142 0 256 53.5t236 183.5l124 -145q-145 -161 -298.5 -232t-335.5 -71z
" />
    <glyph glyph-name="fi" unicode="&#xfb01;" horiz-adv-x="1232" 
d="M1159 1231q-66 0 -110.5 46t-44.5 112t44.5 110.5t110.5 44.5q67 0 111.5 -44.5t44.5 -110.5q0 -67 -44.5 -112.5t-111.5 -45.5zM377 0h-244l180 881h-190l43 204h188l29 136q62 315 410 315h143l-43 -205h-125q-120 0 -147 -127l-23 -119h623l-222 -1085h-241l178 881
h-381z" />
    <glyph glyph-name="fl" unicode="&#xfb02;" horiz-adv-x="1259" 
d="M377 0h-244l180 881h-190l43 204h188l27 136q34 166 128.5 240.5t281.5 74.5h544l-311 -1536h-244l271 1331h-283q-57 0 -95 -32t-50 -95l-25 -119h315l-43 -204h-313z" />
    <glyph glyph-name="u1F311" unicode="&#x1f311;" horiz-adv-x="1290" 
d="M573 127q-213 0 -347 128.5t-134 344.5q0 139 55 268.5t149 225.5t226.5 153.5t278.5 57.5q218 0 343.5 -125t125.5 -342q0 -112 -32.5 -218.5t-95 -195t-146.5 -155.5t-193.5 -104.5t-229.5 -37.5z" />
    <glyph glyph-name="u1F312" unicode="&#x1f312;" horiz-adv-x="1290" 
d="M573 127q-213 0 -347 128.5t-134 344.5q0 187 92.5 348.5t256.5 259t360 97.5q218 0 343.5 -125t125.5 -342q0 -141 -51.5 -270t-141 -227t-221.5 -156t-283 -58zM989 1036l-131 -641q102 65 161.5 174t59.5 238q0 145 -90 229z" />
    <glyph glyph-name="u1F313" unicode="&#x1f313;" horiz-adv-x="1290" 
d="M573 127q-213 0 -347 128.5t-134 344.5q0 187 92.5 348.5t256.5 259t360 97.5q218 0 343.5 -125t125.5 -342q0 -141 -51.5 -270t-141 -227t-221.5 -156t-283 -58zM766 1114l-160 -795q199 0 336 143.5t137 344.5q0 142 -83 224.5t-230 82.5z" />
    <glyph glyph-name="u1F314" unicode="&#x1f314;" horiz-adv-x="1290" 
d="M573 127q-213 0 -347 128.5t-134 344.5q0 187 92.5 348.5t256.5 259t360 97.5q218 0 343.5 -125t125.5 -342q0 -141 -51.5 -270t-141 -227t-221.5 -156t-283 -58zM604 319q132 0 241.5 66t171.5 178t62 244q0 142 -83 224.5t-230 82.5q-111 0 -213 -51l-141 -692
q80 -52 192 -52z" />
    <glyph glyph-name="u1F315" unicode="&#x1f315;" horiz-adv-x="1290" 
d="M573 127q-213 0 -347 128.5t-134 344.5q0 187 92.5 348.5t256.5 259t360 97.5q218 0 343.5 -125t125.5 -342q0 -141 -51.5 -270t-141 -227t-221.5 -156t-283 -58zM604 319q132 0 241.5 66t171.5 178t62 244q0 142 -83 224.5t-230 82.5q-126 0 -236.5 -64t-176.5 -175
t-66 -240q0 -147 85 -231.5t232 -84.5z" />
    <glyph glyph-name="u1F316" unicode="&#x1f316;" horiz-adv-x="1290" 
d="M573 127q-213 0 -347 128.5t-134 344.5q0 187 92.5 348.5t256.5 259t360 97.5q218 0 343.5 -125t125.5 -342q0 -141 -51.5 -270t-141 -227t-221.5 -156t-283 -58zM604 319q111 0 205 48l141 700q-74 47 -184 47q-126 0 -236.5 -64t-176.5 -175t-66 -240q0 -147 85 -231.5
t232 -84.5z" />
    <glyph glyph-name="u1F317" unicode="&#x1f317;" horiz-adv-x="1290" 
d="M573 127q-213 0 -347 128.5t-134 344.5q0 187 92.5 348.5t256.5 259t360 97.5q218 0 343.5 -125t125.5 -342q0 -141 -51.5 -270t-141 -227t-221.5 -156t-283 -58zM600 319l164 795q-126 0 -236 -64t-175.5 -175t-65.5 -240q0 -146 84 -230t229 -86z" />
    <glyph glyph-name="u1F318" unicode="&#x1f318;" horiz-adv-x="1290" 
d="M573 127q-213 0 -347 128.5t-134 344.5q0 187 92.5 348.5t256.5 259t360 97.5q218 0 343.5 -125t125.5 -342q0 -141 -51.5 -270t-141 -227t-221.5 -156t-283 -58zM365 414l122 608q-92 -66 -146 -168t-54 -219q0 -140 78 -221z" />
    <glyph glyph-name="a.ss02" horiz-adv-x="1280" 
d="M481 -31q-190 0 -306 120t-116 331q0 140 43 267t119 222.5t188 152t242 56.5q136 0 227.5 -63t127.5 -178l67 208h195l-221 -1085h-240l27 131q-133 -162 -353 -162zM545 174q88 0 161 41t118.5 108.5t70.5 151t25 172.5q0 126 -62 196t-178 70q-111 0 -198.5 -65.5
t-133 -169.5t-45.5 -223q0 -134 62.5 -207.5t179.5 -73.5z" />
    <glyph glyph-name="aacute.ss02" horiz-adv-x="1280" 
d="M1360 1632l-643 -450l-135 145l643 451zM481 -31q-190 0 -306 120t-116 331q0 140 43 267t119 222.5t188 152t242 56.5q136 0 227.5 -63t127.5 -178l67 208h195l-221 -1085h-240l27 131q-133 -162 -353 -162zM545 174q88 0 161 41t118.5 108.5t70.5 151t25 172.5
q0 126 -62 196t-178 70q-111 0 -198.5 -65.5t-133 -169.5t-45.5 -223q0 -134 62.5 -207.5t179.5 -73.5z" />
    <glyph glyph-name="abreve.ss02" horiz-adv-x="1280" 
d="M770 1239q-154 0 -236.5 88.5t-56.5 235.5l2 20h201l-4 -20q-10 -70 22.5 -108t100.5 -38t116 37.5t58 106.5l2 22h201l-5 -22q-25 -154 -127.5 -238t-273.5 -84zM481 -31q-190 0 -306 120t-116 331q0 140 43 267t119 222.5t188 152t242 56.5q136 0 227.5 -63t127.5 -178
l67 208h195l-221 -1085h-240l27 131q-133 -162 -353 -162zM545 174q88 0 161 41t118.5 108.5t70.5 151t25 172.5q0 126 -62 196t-178 70q-111 0 -198.5 -65.5t-133 -169.5t-45.5 -223q0 -134 62.5 -207.5t179.5 -73.5z" />
    <glyph glyph-name="acircumflex.ss02" horiz-adv-x="1280" 
d="M836 1483l-383 -301l-140 135l455 348h160l334 -373l-166 -110zM481 -31q-190 0 -306 120t-116 331q0 140 43 267t119 222.5t188 152t242 56.5q136 0 227.5 -63t127.5 -178l67 208h195l-221 -1085h-240l27 131q-133 -162 -353 -162zM545 174q88 0 161 41t118.5 108.5
t70.5 151t25 172.5q0 126 -62 196t-178 70q-111 0 -198.5 -65.5t-133 -169.5t-45.5 -223q0 -134 62.5 -207.5t179.5 -73.5z" />
    <glyph glyph-name="adieresis.ss02" horiz-adv-x="1280" 
d="M571 1212q-62 0 -105.5 43.5t-43.5 106.5q0 61 43.5 104t105.5 43t105 -43t43 -104q0 -63 -43 -106.5t-105 -43.5zM1006 1212q-63 0 -106.5 43.5t-43.5 106.5q0 62 43.5 104.5t106.5 42.5q62 0 104.5 -42.5t42.5 -104.5q0 -63 -42.5 -106.5t-104.5 -43.5zM481 -31
q-190 0 -306 120t-116 331q0 140 43 267t119 222.5t188 152t242 56.5q136 0 227.5 -63t127.5 -178l67 208h195l-221 -1085h-240l27 131q-133 -162 -353 -162zM545 174q88 0 161 41t118.5 108.5t70.5 151t25 172.5q0 126 -62 196t-178 70q-111 0 -198.5 -65.5t-133 -169.5
t-45.5 -223q0 -134 62.5 -207.5t179.5 -73.5z" />
    <glyph glyph-name="agrave.ss02" horiz-adv-x="1280" 
d="M922 1323l-136 -141l-487 479l135 137zM481 -31q-190 0 -306 120t-116 331q0 140 43 267t119 222.5t188 152t242 56.5q136 0 227.5 -63t127.5 -178l67 208h195l-221 -1085h-240l27 131q-133 -162 -353 -162zM545 174q88 0 161 41t118.5 108.5t70.5 151t25 172.5
q0 126 -62 196t-178 70q-111 0 -198.5 -65.5t-133 -169.5t-45.5 -223q0 -134 62.5 -207.5t179.5 -73.5z" />
    <glyph glyph-name="amacron.ss02" horiz-adv-x="1280" 
d="M1167 1270h-798l39 190h798zM481 -31q-190 0 -306 120t-116 331q0 140 43 267t119 222.5t188 152t242 56.5q136 0 227.5 -63t127.5 -178l67 208h195l-221 -1085h-240l27 131q-133 -162 -353 -162zM545 174q88 0 161 41t118.5 108.5t70.5 151t25 172.5q0 126 -62 196
t-178 70q-111 0 -198.5 -65.5t-133 -169.5t-45.5 -223q0 -134 62.5 -207.5t179.5 -73.5z" />
    <glyph glyph-name="aogonek.ss02" horiz-adv-x="1280" 
d="M1006 877l67 208h195l-221 -1085h-27q-79 -41 -136 -93.5t-57 -101.5q0 -55 68 -55q38 0 94 23l-6 -193q-70 -22 -141 -22q-102 0 -158.5 43.5t-56.5 122.5q0 80 55 151.5t145 124.5h-20l27 131q-133 -162 -353 -162q-190 0 -306 120t-116 331q0 140 43 267t119 222.5
t188 152t242 56.5q136 0 227.5 -63t127.5 -178zM545 174q88 0 161 41t118.5 108.5t70.5 151t25 172.5q0 126 -62 196t-178 70q-111 0 -198.5 -65.5t-133 -169.5t-45.5 -223q0 -134 62.5 -207.5t179.5 -73.5z" />
    <glyph glyph-name="aring.ss02" horiz-adv-x="1280" 
d="M797 1178q-101 0 -169.5 65t-68.5 160q0 97 68 161t170 64q101 0 169 -64t68 -161q0 -95 -68 -160t-169 -65zM797 1309q43 0 69.5 27.5t26.5 66.5q0 40 -26.5 68t-69.5 28q-44 0 -70.5 -28t-26.5 -68t26.5 -67t70.5 -27zM481 -31q-190 0 -306 120t-116 331q0 140 43 267
t119 222.5t188 152t242 56.5q136 0 227.5 -63t127.5 -178l67 208h195l-221 -1085h-240l27 131q-133 -162 -353 -162zM545 174q88 0 161 41t118.5 108.5t70.5 151t25 172.5q0 126 -62 196t-178 70q-111 0 -198.5 -65.5t-133 -169.5t-45.5 -223q0 -134 62.5 -207.5
t179.5 -73.5z" />
    <glyph glyph-name="atilde.ss02" horiz-adv-x="1280" 
d="M991 1276q-51 0 -101 22.5t-83 50t-70.5 50t-66.5 22.5q-44 0 -69 -38t-30 -97h-188q10 146 80.5 231t169.5 85q47 0 95 -23t80 -50t71 -50t71 -23q79 0 82 129h185q-3 -150 -65 -229.5t-161 -79.5zM481 -31q-190 0 -306 120t-116 331q0 140 43 267t119 222.5t188 152
t242 56.5q136 0 227.5 -63t127.5 -178l67 208h195l-221 -1085h-240l27 131q-133 -162 -353 -162zM545 174q88 0 161 41t118.5 108.5t70.5 151t25 172.5q0 126 -62 196t-178 70q-111 0 -198.5 -65.5t-133 -169.5t-45.5 -223q0 -134 62.5 -207.5t179.5 -73.5z" />
    <glyph glyph-name="g.ss03" horiz-adv-x="1097" 
d="M377 -442q-232 0 -349.5 76.5t-117.5 201.5q0 92 56.5 158t154.5 94q-55 55 -55 127q0 83 57 141.5t151 87.5q-110 81 -110 244q0 188 129.5 309t345.5 121q94 0 176 -33h381l-37 -180h-221q39 -65 39 -151q0 -57 -16 -110.5t-52 -103.5t-88 -87t-130 -59.5t-173 -22.5
q-56 0 -106 12q-64 -6 -103 -33.5t-39 -66.5q0 -70 97 -70h251q145 0 227.5 -72.5t82.5 -193.5q0 -176 -143.5 -282.5t-407.5 -106.5zM543 553q114 0 175.5 65.5t61.5 157.5q0 72 -41 117t-123 45q-105 0 -173 -63.5t-68 -159.5q0 -75 45 -118.5t123 -43.5zM395 -254
q139 0 231.5 45t92.5 133q0 42 -32.5 70t-104.5 29h-285q-84 0 -130 -38.5t-46 -97.5q0 -141 274 -141z" />
    <glyph glyph-name="gbreve.ss03" horiz-adv-x="1097" 
d="M694 1239q-154 0 -236.5 88.5t-56.5 235.5l2 20h201l-4 -20q-10 -70 22.5 -108t100.5 -38t116 37.5t58 106.5l2 22h201l-4 -22q-25 -154 -128 -238t-274 -84zM377 -442q-232 0 -349.5 76.5t-117.5 201.5q0 92 56.5 158t154.5 94q-55 55 -55 127q0 83 57 141.5t151 87.5
q-110 81 -110 244q0 188 129.5 309t345.5 121q94 0 176 -33h381l-37 -180h-221q39 -65 39 -151q0 -57 -16 -110.5t-52 -103.5t-88 -87t-130 -59.5t-173 -22.5q-56 0 -106 12q-64 -6 -103 -33.5t-39 -66.5q0 -70 97 -70h251q145 0 227.5 -72.5t82.5 -193.5
q0 -176 -143.5 -282.5t-407.5 -106.5zM543 553q114 0 175.5 65.5t61.5 157.5q0 72 -41 117t-123 45q-105 0 -173 -63.5t-68 -159.5q0 -75 45 -118.5t123 -43.5zM395 -254q139 0 231.5 45t92.5 133q0 42 -32.5 70t-104.5 29h-285q-84 0 -130 -38.5t-46 -97.5q0 -141 274 -141
z" />
    <glyph glyph-name="uni0123.ss03" horiz-adv-x="1097" 
d="M555 1206l373 697l190 -58l-362 -698zM377 -442q-232 0 -349.5 76.5t-117.5 201.5q0 92 56.5 158t154.5 94q-55 55 -55 127q0 83 57 141.5t151 87.5q-110 81 -110 244q0 188 129.5 309t345.5 121q94 0 176 -33h381l-37 -180h-221q39 -65 39 -151q0 -57 -16 -110.5
t-52 -103.5t-88 -87t-130 -59.5t-173 -22.5q-56 0 -106 12q-64 -6 -103 -33.5t-39 -66.5q0 -70 97 -70h251q145 0 227.5 -72.5t82.5 -193.5q0 -176 -143.5 -282.5t-407.5 -106.5zM543 553q114 0 175.5 65.5t61.5 157.5q0 72 -41 117t-123 45q-105 0 -173 -63.5t-68 -159.5
q0 -75 45 -118.5t123 -43.5zM395 -254q139 0 231.5 45t92.5 133q0 42 -32.5 70t-104.5 29h-285q-84 0 -130 -38.5t-46 -97.5q0 -141 274 -141z" />
    <glyph glyph-name="gdotaccent.ss03" horiz-adv-x="1097" 
d="M711 1212q-63 0 -106.5 43t-43.5 107q0 62 43.5 104.5t106.5 42.5q64 0 106.5 -42.5t42.5 -104.5q0 -65 -42.5 -107.5t-106.5 -42.5zM377 -442q-232 0 -349.5 76.5t-117.5 201.5q0 92 56.5 158t154.5 94q-55 55 -55 127q0 83 57 141.5t151 87.5q-110 81 -110 244
q0 188 129.5 309t345.5 121q94 0 176 -33h381l-37 -180h-221q39 -65 39 -151q0 -57 -16 -110.5t-52 -103.5t-88 -87t-130 -59.5t-173 -22.5q-56 0 -106 12q-64 -6 -103 -33.5t-39 -66.5q0 -70 97 -70h251q145 0 227.5 -72.5t82.5 -193.5q0 -176 -143.5 -282.5t-407.5 -106.5
zM543 553q114 0 175.5 65.5t61.5 157.5q0 72 -41 117t-123 45q-105 0 -173 -63.5t-68 -159.5q0 -75 45 -118.5t123 -43.5zM395 -254q139 0 231.5 45t92.5 133q0 42 -32.5 70t-104.5 29h-285q-84 0 -130 -38.5t-46 -97.5q0 -141 274 -141z" />
    <glyph glyph-name="i.loclTRK" horiz-adv-x="509" 
d="M424 1212q-63 0 -106.5 43t-43.5 107q0 62 43.5 104.5t106.5 42.5q64 0 106.5 -42.5t42.5 -104.5q0 -65 -42.5 -107.5t-106.5 -42.5zM264 0h-241l223 1085h241z" />
    <glyph glyph-name="r.ss04" horiz-adv-x="849" 
d="M254 0h-242l221 1085h193l-16 -235l387 268l137 -164l-563 -379z" />
    <glyph glyph-name="racute.ss04" horiz-adv-x="849" 
d="M1229 1632l-643 -450l-135 145l643 451zM254 0h-242l221 1085h193l-16 -235l387 268l137 -164l-563 -379z" />
    <glyph glyph-name="rcaron.ss04" horiz-adv-x="849" 
d="M707 1225h-160l-336 372l164 109l262 -301l385 301l135 -137zM254 0h-242l221 1085h193l-16 -235l387 268l137 -164l-563 -379z" />
    <glyph glyph-name="uni0157.ss04" horiz-adv-x="849" 
d="M254 0h-242l221 1085h193l-16 -235l387 268l137 -164l-563 -379zM223 -121l-373 -696l-190 57l365 699z" />
    <glyph glyph-name="y.ss05" horiz-adv-x="1243" 
d="M541 233l508 852h268l-914 -1531l-235 53l233 393h-45l-209 1085h246z" />
    <glyph glyph-name="yacute.ss05" horiz-adv-x="1243" 
d="M1196 1778l135 -146l-643 -450l-135 145zM393 1085l148 -852l508 852h268l-914 -1531l-235 53l233 393h-45l-209 1085h246z" />
    <glyph glyph-name="ycircumflex.ss05" horiz-adv-x="1243" 
d="M1067 1182l-260 301l-383 -301l-139 135l454 348h160l334 -373zM541 233l508 852h268l-914 -1531l-235 53l233 393h-45l-209 1085h246z" />
    <glyph glyph-name="ydieresis.ss05" horiz-adv-x="1243" 
d="M543 1212q-62 0 -106 43.5t-44 106.5q0 61 44 104t106 43q61 0 104 -42.5t43 -104.5q0 -63 -42.5 -106.5t-104.5 -43.5zM977 1212q-63 0 -106.5 43.5t-43.5 106.5q0 62 43.5 104.5t106.5 42.5q61 0 104 -42.5t43 -104.5q0 -63 -42.5 -106.5t-104.5 -43.5zM541 233
l508 852h268l-914 -1531l-235 53l233 393h-45l-209 1085h246z" />
    <glyph glyph-name="ygrave.ss05" horiz-adv-x="1243" 
d="M406 1798l487 -475l-135 -141l-488 479zM541 233l508 852h268l-914 -1531l-235 53l233 393h-45l-209 1085h246z" />
    <glyph glyph-name="f_f_i" horiz-adv-x="1886" 
d="M1815 1231q-66 0 -112 46t-46 112t46 110.5t112 44.5t110.5 -44.5t44.5 -110.5t-44.5 -112t-110.5 -46zM377 0h-244l180 881h-190l43 204h188l27 136q34 166 128.5 240.5t281.5 74.5h237l-41 -205h-219q-57 0 -95 -32t-50 -95l-25 -119h410l28 136q62 315 410 315h143
l-43 -205h-125q-120 0 -147 -127l-23 -119h625l-221 -1085h-242l178 881h-383l-178 -881h-244l181 881h-410z" />
    <glyph glyph-name="f_i" horiz-adv-x="1232" 
d="M1159 1231q-66 0 -110.5 46t-44.5 112t44.5 110.5t110.5 44.5q67 0 111.5 -44.5t44.5 -110.5q0 -67 -44.5 -112.5t-111.5 -45.5zM377 0h-244l180 881h-190l43 204h188l29 136q62 315 410 315h143l-43 -205h-125q-120 0 -147 -127l-23 -119h623l-222 -1085h-241l178 881
h-381z" />
    <glyph glyph-name="f_l" horiz-adv-x="1259" 
d="M377 0h-244l180 881h-190l43 204h188l27 136q34 166 128.5 240.5t281.5 74.5h544l-311 -1536h-244l271 1331h-283q-57 0 -95 -32t-50 -95l-25 -119h315l-43 -204h-313z" />
    <glyph glyph-name="w_w_w" horiz-adv-x="4370" 
d="M492 0h-254l-101 1085h242l57 -790l379 790h201l57 -763l367 763h315l57 -790l379 790h203l55 -763l369 763h315l58 -790l379 790h200l58 -763l366 763h260l-542 -1085h-250l-58 741l-358 -741h-254l-72 774l-387 -774h-249l-58 741l-356 -741h-254l-72 774l-387 -774
h-250l-57 741z" />
    <glyph glyph-name="zero.squared" horiz-adv-x="1822" 
d="M1550 -39h-1511l305 1512h1511zM485 1317l-243 -1198h1169l244 1198h-1170zM885 301q-127 0 -199 78.5t-72 230.5q0 96 28 188.5t78.5 168t129.5 122t174 46.5q122 0 190 -80.5t68 -233.5q0 -94 -25 -184.5t-72 -166.5t-125 -122.5t-175 -46.5zM903 459q50 0 90.5 36
t63.5 91.5t35 114.5t12 114q0 162 -105 162q-65 0 -113.5 -60.5t-69.5 -139.5t-21 -156q0 -162 108 -162z" />
    <glyph glyph-name="one.squared" horiz-adv-x="1822" 
d="M1550 -39h-1511l305 1512h1511zM483 1317l-243 -1198h1171l244 1198h-1172zM1016 319h-182l114 564q-57 -80 -184 -80h-31l37 184h31q163 0 190 115l4 12h183z" />
    <glyph glyph-name="two.squared" horiz-adv-x="1822" 
d="M1550 -39h-1511l305 1512h1511zM483 1317l-243 -1198h1171l244 1198h-1172zM1169 319h-571l12 70q13 67 44 120.5t71.5 88t86.5 62.5t90.5 50t82 43.5t64 49t32.5 61.5q9 51 -17.5 82t-76.5 31q-55 0 -93.5 -34.5t-51.5 -96.5h-174q27 143 116 216t217 73
q132 0 204 -81.5t50 -197.5q-11 -61 -49 -109.5t-89 -80.5t-103.5 -59t-102.5 -60t-75 -70h364z" />
    <glyph glyph-name="three.squared" horiz-adv-x="1822" 
d="M1550 -39h-1511l305 1512h1511zM483 1317l-243 -1198h1171l244 1198h-1172zM915 301q-145 0 -228 74t-66 209h172q-6 -61 29 -95t104 -34q62 0 101.5 29.5t39.5 86.5q0 42 -27 65t-77 23h-121l26 136h117q55 0 89 29.5t34 74.5q0 38 -27.5 60t-70.5 22q-57 0 -96.5 -30.5
t-49.5 -84.5h-176q27 131 118.5 200t219.5 69q117 0 182.5 -54t65.5 -145q0 -73 -48.5 -130t-127.5 -77q66 -20 104.5 -68t38.5 -112q0 -108 -90 -178t-236 -70z" />
    <glyph glyph-name="four.squared" horiz-adv-x="1822" 
d="M1550 -39h-1511l305 1512h1511zM483 1317l-243 -1198h1171l244 1198h-1172zM1090 319h-181l31 152h-377l35 166l475 477h178l-100 -493h123l-29 -150h-125zM1026 891l-270 -270h213z" />
    <glyph glyph-name="five.squared" horiz-adv-x="1822" 
d="M1550 -39h-1511l305 1512h1511zM483 1317l-243 -1198h1171l244 1198h-1172zM893 301q-132 0 -205.5 71t-64.5 197h178q-2 -52 27.5 -83t82.5 -31q67 0 107.5 45t40.5 112q0 45 -24 71t-72 26q-59 0 -107 -39h-190l147 444h453l-33 -156h-309l-56 -165q68 49 160 49
q94 0 149.5 -57t55.5 -160q0 -138 -93 -231t-247 -93z" />
    <glyph glyph-name="six.squared" horiz-adv-x="1822" 
d="M1550 -39h-1511l305 1512h1511zM483 1317l-243 -1198h1171l244 1198h-1172zM909 313q-140 0 -219.5 84.5t-79.5 239.5q0 95 29 185t83 163t139 117.5t188 44.5q128 0 197 -69.5t57 -186.5h-177q5 47 -21 73.5t-77 26.5q-81 0 -149 -64t-97 -190q39 56 99.5 88.5
t130.5 32.5q109 0 168 -62t59 -161q0 -132 -91 -227t-239 -95zM924 467q66 0 106.5 44.5t40.5 109.5q0 52 -27 79t-75 27q-69 0 -110.5 -47.5t-41.5 -106.5q0 -46 26.5 -76t80.5 -30z" />
    <glyph glyph-name="seven.squared" horiz-adv-x="1822" 
d="M1550 -39h-1511l305 1512h1511zM483 1317l-243 -1198h1171l244 1198h-1172zM838 319h-228l502 639h-426l31 156h618l-39 -188z" />
    <glyph glyph-name="eight.squared" horiz-adv-x="1822" 
d="M1550 -39h-1511l305 1512h1511zM483 1317l-243 -1198h1171l244 1198h-1172zM903 301q-134 0 -212.5 54t-78.5 149q0 87 58 147.5t159 87.5q-110 55 -110 164q0 102 85 167t216 65q120 0 190 -55.5t70 -147.5q0 -68 -44 -120t-120 -79q65 -23 101 -70t36 -108
q0 -111 -95.5 -182.5t-254.5 -71.5zM991 801q59 0 94 27.5t35 72.5q0 39 -29 62.5t-79 23.5q-59 0 -96 -28.5t-37 -71.5q0 -39 29 -62.5t83 -23.5zM913 453q74 0 121 35t47 92q0 44 -34 70t-93 26q-70 0 -120 -36.5t-50 -92.5q0 -44 34 -69t95 -25z" />
    <glyph glyph-name="nine.squared" horiz-adv-x="1822" 
d="M1550 -39h-1511l305 1512h1511zM483 1317l-243 -1198h1171l244 1198h-1172zM866 301q-126 0 -195.5 66t-60.5 184h166q-3 -96 107 -96q79 0 135 60t74 177q-61 -98 -199 -98q-105 0 -163 61.5t-58 161.5q-1 82 36.5 154t112.5 118t172 46q128 0 198.5 -82.5t70.5 -235.5
q0 -75 -12.5 -146t-42.5 -139t-74.5 -118.5t-113 -81.5t-153.5 -31zM942 731q67 0 106 47t39 105q0 45 -24.5 73.5t-73.5 28.5q-64 0 -105.5 -43.5t-41.5 -107.5q0 -50 26 -76.5t74 -26.5z" />
    <glyph glyph-name="zero.blacksquared" horiz-adv-x="1822" 
d="M344 1473l-305 -1512h1511l305 1512h-1511zM885 301q-127 0 -199 78.5t-72 230.5q0 96 28 188.5t78.5 168t129.5 122t174 46.5q122 0 190 -80.5t68 -233.5q0 -94 -25 -184.5t-72 -166.5t-125 -122.5t-175 -46.5zM903 459q50 0 90.5 36t63.5 91.5t35 114.5t12 114
q0 162 -105 162q-65 0 -113.5 -60.5t-69.5 -139.5t-21 -156q0 -162 108 -162z" />
    <glyph glyph-name="one.blacksquared" horiz-adv-x="1822" 
d="M344 1473l-305 -1512h1511l305 1512h-1511zM1016 319h-182l114 564q-57 -80 -184 -80h-31l37 184h31q163 0 190 115l4 12h183z" />
    <glyph glyph-name="two.blacksquared" horiz-adv-x="1822" 
d="M344 1473l-305 -1512h1511l305 1512h-1511zM1169 319h-571l12 70q13 67 44 120.5t71.5 88t86.5 62.5t90.5 50t82 43.5t64 49t32.5 61.5q9 51 -17.5 82t-76.5 31q-55 0 -93.5 -34.5t-51.5 -96.5h-174q27 143 116 216t217 73q132 0 204 -81.5t50 -197.5q-11 -61 -49 -109.5
t-89 -80.5t-103.5 -59t-102.5 -60t-75 -70h364z" />
    <glyph glyph-name="three.blacksquared" horiz-adv-x="1822" 
d="M344 1473l-305 -1512h1511l305 1512h-1511zM915 301q-145 0 -228 74t-66 209h172q-6 -61 29 -95t104 -34q62 0 101.5 29.5t39.5 86.5q0 42 -27 65t-77 23h-121l26 136h117q55 0 89 29.5t34 74.5q0 38 -27.5 60t-70.5 22q-57 0 -96.5 -30.5t-49.5 -84.5h-176
q27 131 118.5 200t219.5 69q117 0 182.5 -54t65.5 -145q0 -73 -48.5 -130t-127.5 -77q66 -20 104.5 -68t38.5 -112q0 -108 -90 -178t-236 -70z" />
    <glyph glyph-name="four.blacksquared" horiz-adv-x="1822" 
d="M344 1473l-305 -1512h1511l305 1512h-1511zM1090 319h-181l31 152h-377l35 166l475 477h178l-100 -493h123l-29 -150h-125zM1026 891l-270 -270h213z" />
    <glyph glyph-name="five.blacksquared" horiz-adv-x="1822" 
d="M344 1473l-305 -1512h1511l305 1512h-1511zM893 301q-132 0 -205.5 71t-64.5 197h178q-2 -52 27.5 -83t82.5 -31q67 0 107.5 45t40.5 112q0 45 -24 71t-72 26q-59 0 -107 -39h-190l147 444h453l-33 -156h-309l-56 -165q68 49 160 49q94 0 149.5 -57t55.5 -160
q0 -138 -93 -231t-247 -93z" />
    <glyph glyph-name="six.blacksquared" horiz-adv-x="1822" 
d="M344 1473l-305 -1512h1511l305 1512h-1511zM909 313q-140 0 -219.5 84.5t-79.5 239.5q0 95 29 185t83 163t139 117.5t188 44.5q128 0 197 -69.5t57 -186.5h-177q5 47 -21 73.5t-77 26.5q-81 0 -149 -64t-97 -190q39 56 99.5 88.5t130.5 32.5q109 0 168 -62t59 -161
q0 -132 -91 -227t-239 -95zM924 467q66 0 106.5 44.5t40.5 109.5q0 52 -27 79t-75 27q-69 0 -110.5 -47.5t-41.5 -106.5q0 -46 26.5 -76t80.5 -30z" />
    <glyph glyph-name="seven.blacksquared" horiz-adv-x="1822" 
d="M344 1473l-305 -1512h1511l305 1512h-1511zM838 319h-228l502 639h-426l31 156h618l-39 -188z" />
    <glyph glyph-name="eight.blacksquared" horiz-adv-x="1822" 
d="M344 1473l-305 -1512h1511l305 1512h-1511zM903 301q-134 0 -212.5 54t-78.5 149q0 87 58 147.5t159 87.5q-110 55 -110 164q0 102 85 167t216 65q120 0 190 -55.5t70 -147.5q0 -68 -44 -120t-120 -79q65 -23 101 -70t36 -108q0 -111 -95.5 -182.5t-254.5 -71.5zM991 801
q59 0 94 27.5t35 72.5q0 39 -29 62.5t-79 23.5q-59 0 -96 -28.5t-37 -71.5q0 -39 29 -62.5t83 -23.5zM913 453q74 0 121 35t47 92q0 44 -34 70t-93 26q-70 0 -120 -36.5t-50 -92.5q0 -44 34 -69t95 -25z" />
    <glyph glyph-name="nine.blacksquared" horiz-adv-x="1822" 
d="M344 1473l-305 -1512h1511l305 1512h-1511zM866 301q-126 0 -195.5 66t-60.5 184h166q-3 -96 107 -96q79 0 135 60t74 177q-61 -98 -199 -98q-105 0 -163 61.5t-58 161.5q-1 82 36.5 154t112.5 118t172 46q128 0 198.5 -82.5t70.5 -235.5q0 -75 -12.5 -146t-42.5 -139
t-74.5 -118.5t-113 -81.5t-153.5 -31zM942 731q67 0 106 47t39 105q0 45 -24.5 73.5t-73.5 28.5q-64 0 -105.5 -43.5t-41.5 -107.5q0 -50 26 -76.5t74 -26.5z" />
    <glyph glyph-name="copyright.ss06" horiz-adv-x="1757" 
d="M758 -98q-295 0 -472 171.5t-177 467.5q0 158 45 306.5t130 272t200.5 216t264.5 144.5t314 52q302 0 477.5 -172t175.5 -481q0 -193 -68.5 -369.5t-190.5 -311.5t-304 -215.5t-395 -80.5zM852 317q142 0 250 81t151 231h-159q-25 -82 -80.5 -124t-128.5 -42
q-82 0 -126 48.5t-44 137.5q0 120 74 216t188 96q75 0 115.5 -43.5t35.5 -120.5h158q13 147 -63 229t-222 82q-132 0 -237 -67.5t-161 -176.5t-56 -235q0 -146 83.5 -229t221.5 -83z" />
    <glyph glyph-name="registered.ss07" horiz-adv-x="1222" 
d="M608 420q-209 0 -336 120t-127 322q0 184 83 336t234.5 242t340.5 90q205 0 326.5 -120.5t121.5 -322.5q0 -140 -46.5 -263t-129.5 -212t-204 -140.5t-263 -51.5zM537 1229l-105 -506h125l33 162h131q42 0 45 -35l12 -127h125l-18 149q-6 55 -60 66q61 20 100.5 65
t39.5 103q0 56 -41.5 89.5t-110.5 33.5h-276zM768 987h-156l27 131h154q49 0 49 -49q0 -31 -21 -56.5t-53 -25.5z" />
    <glyph glyph-name="circled" horiz-adv-x="1755" 
d="M762 -98q-299 0 -476 171t-177 468q0 198 69.5 378.5t191.5 316t301.5 216t387.5 80.5q304 0 480.5 -172t176.5 -481q0 -193 -67.5 -369.5t-188 -311.5t-302.5 -215.5t-396 -80.5zM782 61q167 0 311.5 66t241.5 176t152 255t55 302q0 240 -128 376t-367 136
q-163 0 -307 -65.5t-244 -175.5t-157.5 -255.5t-57.5 -302.5q0 -241 129.5 -376.5t371.5 -135.5z" />
    <glyph glyph-name="blackcircled" horiz-adv-x="1755" 
d="M758 -98q-296 0 -472.5 171t-176.5 468q0 158 45 306.5t130 272t200.5 216t264.5 144.5t314 52q301 0 477 -172t176 -481q0 -193 -68.5 -369.5t-190.5 -311.5t-304 -215.5t-395 -80.5z" />
    <glyph glyph-name="squared" horiz-adv-x="1822" 
d="M1550 -39h-1511l305 1512h1511zM483 1317l-243 -1198h1171l244 1198h-1172z" />
    <glyph glyph-name="blacksquared" horiz-adv-x="1822" 
d="M1550 -39h-1511l305 1512h1511z" />
    <glyph glyph-name="uni0308.case" 
d="M-475 1194q-63 0 -106.5 43.5t-43.5 105.5t43.5 105t106.5 43q61 0 104 -43t43 -105t-43 -105.5t-104 -43.5zM-43 1194q-62 0 -106 44t-44 105t44 104.5t106 43.5q63 0 106 -43t43 -105t-43 -105.5t-106 -43.5z" />
    <glyph glyph-name="uni0307.case" 
d="M-41 1194q-64 0 -106.5 43t-42.5 106t42.5 105.5t106.5 42.5t107 -42.5t43 -105.5t-43 -106t-107 -43z" />
    <glyph glyph-name="gravecomb.case" 
d="M137 1294l-135 -139l-487 477l133 140z" />
    <glyph glyph-name="acutecomb.case" 
d="M201 1606l-645 -451l-134 145l646 451z" />
    <glyph glyph-name="uni030B.case" 
d="M-125 1714l-522 -524l-168 104l528 521zM205 1661l-522 -526l-166 104l528 524z" />
    <glyph glyph-name="uni0302.case" 
d="M-287 1454l-375 -293l-133 139l441 336h157l326 -360l-162 -115z" />
    <glyph glyph-name="uni030C.case" 
d="M-256 1202h-158l-327 361l161 114l254 -295l377 295l131 -143z" />
    <glyph glyph-name="uni0306.case" 
d="M-264 1219q-155 0 -237 88t-56 235l2 21h201l-4 -21q-10 -70 22 -107.5t100 -37.5q67 0 116 37.5t59 105.5l2 23h202l-4 -23q-25 -153 -129 -237t-274 -84z" />
    <glyph glyph-name="uni030A.case" 
d="M-123 1161q-101 0 -168 64.5t-67 160.5q0 97 67 161.5t168 64.5q103 0 171.5 -64.5t68.5 -161.5q0 -96 -69 -160.5t-171 -64.5zM-123 1286q46 0 74.5 29.5t28.5 70.5q0 42 -28.5 71.5t-74.5 29.5t-73 -29t-27 -72q0 -42 27 -71t73 -29z" />
    <glyph glyph-name="tildecomb.case" 
d="M-92 1235q-51 0 -101 22.5t-83.5 49t-71 49t-66.5 22.5q-44 0 -68.5 -37t-29.5 -96h-188q10 145 80.5 230.5t168.5 85.5q47 0 95 -23t80.5 -51t71.5 -51t71 -23q79 0 82 131h184q-3 -151 -64.5 -230t-160.5 -79z" />
    <glyph glyph-name="uni0304.case" 
d="M119 1264h-799l39 190h799z" />
    <glyph glyph-name="exclam.ss01" horiz-adv-x="460" 
d="M215 348h-55l241 1188h56zM135 -4q-32 0 -53 20.5t-21 51.5q0 32 21 52.5t53 20.5q31 0 51.5 -20.5t20.5 -52.5q0 -31 -20.5 -51.5t-51.5 -20.5z" />
    <glyph glyph-name="exclamdown.ss01" horiz-adv-x="460" 
d="M330 956q-32 0 -53 20.5t-21 51.5q0 32 21 53t53 21q31 0 51 -21t20 -53q0 -31 -20 -51.5t-51 -20.5zM57 -438h-55l242 1188h55z" />
    <glyph glyph-name="question.ss01" horiz-adv-x="1056" 
d="M539 311h-54l17 82q13 65 44.5 121t72 98t87.5 81.5t94 78.5t87.5 80.5t71 96.5t42.5 118q28 148 -48.5 240t-235.5 92q-173 0 -294 -104t-167 -285h-55q45 200 185 319t337 119q184 0 274 -107.5t60 -275.5q-12 -66 -43 -124t-72 -101.5t-88 -83.5t-94.5 -79
t-88.5 -79.5t-72.5 -93.5t-43.5 -113zM471 -4q-32 0 -53 20.5t-21 51.5q0 32 21 52.5t53 20.5q31 0 51.5 -20.5t20.5 -52.5q0 -31 -20.5 -51.5t-51.5 -20.5z" />
    <glyph glyph-name="questiondown.ss01" horiz-adv-x="1058" 
d="M592 1118q32 0 53 -20t21 -51q0 -32 -21 -53t-53 -21q-31 0 -51.5 21t-20.5 53q0 31 20.5 51t51.5 20zM524 803h54l-17 -82q-13 -65 -44.5 -121t-72 -98t-88 -81.5t-94 -78.5t-87 -80.5t-71.5 -96.5t-43 -118q-28 -149 49 -241.5t236 -92.5q173 0 294 104.5t167 286.5h55
q-45 -201 -185 -320.5t-337 -119.5q-184 0 -274 108t-60 277q12 66 43 124t72 101.5t88 83.5t94.5 79t88.5 79.5t72.5 93.5t43.5 113z" />
    <glyph glyph-name="asterisk.ss01" horiz-adv-x="1007" 
d="M539 592h-50l82 399l-415 -215l-19 39l420 217l-332 219l31 33l330 -219l84 410h49l-82 -406l418 219l14 -41l-420 -219l332 -217l-31 -31l-329 215z" />
    <glyph glyph-name="numbersign.ss01" horiz-adv-x="1583" 
d="M492 434l-199 -457l-53 13l192 444h-385l10 49h398l213 492h-381l10 49h393l193 444l53 -12l-188 -432h399l192 444l54 -12l-189 -432h408l-10 -49h-418l-215 -492h403l-10 -49h-414l-198 -457l-54 13l193 444h-397zM727 975l-215 -492h399l213 492h-397z" />
    <glyph glyph-name="slash.ss01" horiz-adv-x="454" 
d="M649 1501l-706 -1616l-58 13l707 1615z" />
    <glyph glyph-name="backslash.ss01" horiz-adv-x="436" 
d="M305 -102l-55 -13l-47 1616l55 12z" />
    <glyph glyph-name="parenleft.ss01" horiz-adv-x="530" 
d="M319 -279l-47 -26q-74 130 -114.5 295.5t-40.5 337.5q0 329 146 653t386 569l47 -26q-239 -244 -380.5 -559t-141.5 -641q0 -166 37.5 -323.5t107.5 -279.5z" />
    <glyph glyph-name="parenright.ss01" horiz-adv-x="524" 
d="M-86 -307l-45 28q232 238 373 563.5t141 645.5q0 330 -150 596l50 24q157 -273 157 -622q0 -339 -145 -667.5t-381 -567.5z" />
    <glyph glyph-name="braceleft.ss01" horiz-adv-x="753" 
d="M518 -262h-131q-120 0 -171 64.5t-26 185.5l95 465q35 174 -133 174l10 53q171 0 209 192l90 443q51 250 299 250h131l-10 -49h-131q-101 0 -157 -50t-77 -151l-90 -443q-19 -93 -72.5 -150t-136.5 -69q157 -31 123 -200l-94 -465q-41 -201 151 -201h131z" />
    <glyph glyph-name="braceright.ss01" horiz-adv-x="753" 
d="M41 -262h-131l10 49h131q193 0 234 201l94 465q34 169 205 200q-78 12 -109 69t-12 150l90 443q21 100 -15 150.5t-137 50.5h-131l11 49h131q247 0 196 -250l-90 -443q-38 -192 131 -192l-10 -53q-170 0 -205 -174l-94 -465q-26 -122 -102.5 -186t-196.5 -64z" />
    <glyph glyph-name="bracketleft.ss01" horiz-adv-x="702" 
d="M455 -262h-426l372 1827h426l-10 -47h-371l-352 -1733h371z" />
    <glyph glyph-name="bracketright.ss01" horiz-adv-x="704" 
d="M719 1565l-371 -1827h-426l8 47h371l354 1733h-370l8 47h426z" />
    <glyph glyph-name="hyphen.ss01" horiz-adv-x="933" 
d="M838 616h-711l8 50h711z" />
    <glyph glyph-name="endash.ss01" horiz-adv-x="1097" 
d="M1001 616h-874l8 50h875z" />
    <glyph glyph-name="emdash.ss01" horiz-adv-x="1804" 
d="M1708 616h-1581l8 50h1581z" />
    <glyph glyph-name="underscore.ss01" horiz-adv-x="1097" 
d="M864 -63h-874l8 49h874z" />
    <glyph glyph-name="uni301C.ss01" horiz-adv-x="2224" 
d="M1599 481q-76 0 -146.5 18t-127 46.5t-111.5 63.5t-109.5 70t-111 63.5t-127 46.5t-145.5 18q-275 0 -561 -209l-25 45q294 217 596 217q88 0 170.5 -24t143 -60t129 -78.5t129 -78.5t141.5 -60t168 -24q277 0 502 237l34 -37q-239 -254 -549 -254z" />
    <glyph glyph-name="quotesinglbase.ss01" horiz-adv-x="342" 
d="M211 332l-217 -686l-49 14l213 686z" />
    <glyph glyph-name="quotedblbase.ss01" horiz-adv-x="589" 
d="M211 332l-217 -686l-49 14l213 686zM459 332l-217 -686l-49 14l213 686z" />
    <glyph glyph-name="quotedblleft.ss01" horiz-adv-x="589" 
d="M455 1530l-213 -686l-54 14l218 686zM702 1530l-213 -686l-53 14l217 686z" />
    <glyph glyph-name="quotedblright.ss01" horiz-adv-x="589" 
d="M455 1530l-217 -686l-50 14l213 686zM702 1530l-217 -686l-49 14l213 686z" />
    <glyph glyph-name="quoteleft.ss01" horiz-adv-x="342" 
d="M455 1530l-213 -686l-54 14l218 686z" />
    <glyph glyph-name="quoteright.ss01" horiz-adv-x="342" 
d="M455 1530l-217 -686l-50 14l213 686z" />
    <glyph glyph-name="quotedbl.ss01" horiz-adv-x="550" 
d="M240 856h-54l140 680h53zM492 856h-54l140 680h53z" />
    <glyph glyph-name="quotesingle.ss01" horiz-adv-x="299" 
d="M240 856h-54l140 680h53z" />
    <glyph glyph-name="guillemotleft.ss01" horiz-adv-x="1009" 
d="M508 133l-45 -35l-354 445l12 57l534 444l37 -38l-534 -439zM829 133l-45 -35l-354 445l12 57l535 444l37 -38l-535 -439z" />
    <glyph glyph-name="guillemotright.ss01" horiz-adv-x="1007" 
d="M578 543l-535 -445l-33 41l531 441l-346 426l41 38l352 -444zM899 543l-534 -445l-33 41l530 441l-346 426l41 38l352 -444z" />
    <glyph glyph-name="guilsinglleft.ss01" horiz-adv-x="690" 
d="M508 133l-45 -35l-354 445l12 57l534 444l37 -38l-534 -439z" />
    <glyph glyph-name="guilsinglright.ss01" horiz-adv-x="686" 
d="M578 543l-535 -445l-33 41l531 441l-346 426l41 38l352 -444z" />
    <glyph glyph-name="cent.ss01" horiz-adv-x="1171" 
d="M487 -104h-57l53 256q-168 14 -263 125.5t-95 295.5q0 136 42.5 262.5t118 223t187 157t240.5 66.5l49 238h57l-49 -238q183 -11 279 -128t77 -314h-57q12 174 -70 276t-239 111l-209 -1022q164 3 290 102t181 289h59q-57 -213 -201.5 -328t-340.5 -118zM494 207
l208 1020q-92 -5 -174.5 -42.5t-144.5 -99t-107 -141t-68.5 -171.5t-23.5 -187q0 -166 82 -265.5t228 -113.5z" />
    <glyph glyph-name="currency.ss01" horiz-adv-x="1112" 
d="M954 713q0 -96 -35.5 -182t-99.5 -150l133 -168l-43 -39l-135 168q-118 -90 -266 -90q-154 0 -238 94l-207 -172l-38 39l213 178q-39 70 -39 162q0 96 38.5 183.5t106.5 152.5l-143 178l43 39l143 -180q118 88 264 88q140 0 223 -86l213 178l39 -39l-219 -182
q47 -71 47 -172zM256 563q0 -115 71 -185.5t187 -70.5q161 0 272 116.5t111 278.5q0 116 -69.5 186t-186.5 70q-157 0 -271 -116.5t-114 -278.5z" />
    <glyph glyph-name="dollar.ss01" horiz-adv-x="1277" 
d="M899 1694l-51 -248q183 -17 278 -127.5t86 -294.5h-57q3 162 -79 258t-238 111l-133 -656l139 -49q74 -26 119.5 -48t86 -55.5t58.5 -80.5t18 -111q0 -193 -156.5 -300t-410.5 -107h-8l-53 -262h-56l54 264q-221 14 -326.5 125.5t-79.5 314.5h57q-25 -181 67 -278
t294 -109l133 659l-119 41q-72 25 -118.5 47t-86.5 55t-58.5 79t-18.5 108q0 181 152 299.5t392 118.5h11l49 246h55zM547 791l106 -37l129 641h-4q-206 0 -342.5 -100.5t-136.5 -258.5q0 -52 15.5 -90.5t51 -66.5t76 -47t105.5 -41zM825 637l-133 45l-131 -643h8
q225 0 361.5 93t136.5 255q0 101 -57.5 153.5t-184.5 96.5z" />
    <glyph glyph-name="Euro.ss01" horiz-adv-x="1646" 
d="M1108 1448q246 0 377.5 -149t122.5 -416h-58q3 244 -112.5 377t-339.5 133q-238 0 -418.5 -141.5t-265.5 -370.5h714l-10 -50h-721q-31 -95 -41 -219h717l-10 -49h-709v-16q0 -235 128.5 -370.5t351.5 -135.5q220 0 390 128t263 382h59q-93 -280 -282 -422.5t-441 -142.5
q-246 0 -387 147t-141 404v26h-232l11 49h223q8 104 41 219h-219l10 50h223q90 254 291.5 410.5t464.5 156.5z" />
    <glyph glyph-name="sterling.ss01" horiz-adv-x="1218" 
d="M717 0h-760l10 49q151 0 249.5 75.5t123.5 207.5q6 33 6.5 68t-1.5 62.5t-9.5 66t-13.5 61t-17 65.5h-203l13 56h178q-43 184 -14 340q37 191 175.5 294t329.5 103q197 0 291 -114.5t82 -321.5h-55q8 184 -71 284.5t-255 100.5q-166 0 -286.5 -89.5t-153.5 -256.5
q-28 -146 16 -340h529l-13 -56h-501q14 -56 20 -83.5t13.5 -74t6 -87t-9.5 -82.5q-21 -106 -93.5 -180.5t-190.5 -98.5h612q120 0 183 56.5t87 179.5l35 188h60l-37 -188q-30 -151 -106.5 -218t-229.5 -67z" />
    <glyph glyph-name="yen.ss01" horiz-adv-x="1286" 
d="M561 0h-53l70 340h-447l10 49h447l39 195h-445l11 49h444l-385 801h65l353 -742l655 742h74l-709 -801h447l-11 -49h-446l-39 -195h446l-10 -49h-446z" />
    <glyph glyph-name="plus.ss01" horiz-adv-x="1138" 
d="M530 215h-55l80 397h-430l10 50h430l86 419h56l-86 -419h432l-11 -50h-432z" />
    <glyph glyph-name="minus.ss01" horiz-adv-x="1079" 
d="M983 612h-856l8 50h856z" />
    <glyph glyph-name="multiply.ss01" horiz-adv-x="1026" 
d="M522 559l-450 -375l-39 37l456 379l-292 369l39 37l294 -371l447 371l37 -37l-451 -375l297 -373l-41 -37z" />
    <glyph glyph-name="divide.ss01" horiz-adv-x="1161" 
d="M678 942q-32 0 -53 20.5t-21 51.5q0 32 21 52.5t53 20.5q31 0 51.5 -20.5t20.5 -52.5q0 -31 -20.5 -51.5t-51.5 -20.5zM1065 612h-938l8 50h938zM528 209q-32 0 -52.5 20.5t-20.5 51.5q0 32 20.5 52.5t52.5 20.5q31 0 51.5 -20.5t20.5 -52.5q0 -31 -20.5 -51.5
t-51.5 -20.5z" />
    <glyph glyph-name="equal.ss01" horiz-adv-x="1136" 
d="M1075 793h-913l10 49h913zM987 356h-913l10 50h913z" />
    <glyph glyph-name="notequal.ss01" horiz-adv-x="1136" 
d="M401 356l-215 -256l-39 29l191 227h-264l10 50h295l323 387h-540l10 49h571l209 250l39 -29l-184 -221h278l-10 -49h-309l-324 -387h555l-10 -50h-586z" />
    <glyph glyph-name="greater.ss01" horiz-adv-x="1196" 
d="M1090 543l-1010 -475l-21 47l985 463l-796 462l37 41l817 -475z" />
    <glyph glyph-name="less.ss01" horiz-adv-x="1198" 
d="M963 106l-41 -38l-816 475l13 63l1011 475l21 -47l-987 -465z" />
    <glyph glyph-name="greaterequal.ss01" horiz-adv-x="1292" 
d="M1186 682l-1059 -330l-6 49l1001 312l-874 311l24 45l924 -330zM1071 123h-1022l10 49h1022z" />
    <glyph glyph-name="lessequal.ss01" horiz-adv-x="1294" 
d="M1114 397l-24 -45l-926 330l14 57l1057 330l6 -49l-1001 -311zM1073 123h-1022l10 49h1022z" />
    <glyph glyph-name="plusminus.ss01" horiz-adv-x="1196" 
d="M580 315h-56l74 367h-459l11 49h458l72 350h55l-71 -350h460l-10 -49h-461zM999 123h-974l10 49h975z" />
    <glyph glyph-name="approxequal.ss01" horiz-adv-x="1165" 
d="M850 612q-51 0 -98 21.5t-80.5 53t-68.5 69t-63 69t-63.5 53t-70.5 21.5q-82 0 -138.5 -65.5t-79.5 -186.5h-55q27 147 100.5 225t176.5 78q44 0 84 -21t68.5 -53t62 -69t64.5 -69t75 -53t94 -21q79 0 136.5 64t80.5 181h53q-26 -141 -99.5 -219t-178.5 -78zM754 143
q-51 0 -98 21.5t-81 53t-69 69t-63 69t-63.5 53t-70.5 21.5q-82 0 -138 -65t-79 -187h-55q27 147 100 225t176 78q52 0 97.5 -29.5t81.5 -71.5t73 -84t87.5 -71.5t109.5 -29.5q79 0 136.5 64t80.5 181h53q-26 -141 -99.5 -219t-178.5 -78z" />
    <glyph glyph-name="asciitilde.ss01" horiz-adv-x="1163" 
d="M811 426q-51 0 -98 21.5t-80.5 53t-68.5 69t-63 69t-63.5 53t-70.5 21.5q-82 0 -138 -65t-79 -187h-56q27 147 100.5 225t176.5 78q44 0 84 -21.5t68.5 -53t62 -69t64.5 -69t75 -53t94 -21.5q79 0 136.5 64.5t80.5 181.5h54q-26 -140 -100 -218.5t-179 -78.5z" />
    <glyph glyph-name="logicalnot.ss01" horiz-adv-x="1159" 
d="M913 35h-53l113 557h-852l10 49h905z" />
    <glyph glyph-name="asciicircum.ss01" horiz-adv-x="884" 
d="M231 885h-63l430 549h47l211 -549h-55l-187 489z" />
    <glyph glyph-name="emptyset.ss01" horiz-adv-x="1431" 
d="M274 197l-217 -220l-43 31l224 225q-113 135 -113 338q0 153 59.5 295t159.5 245.5t239 165.5t291 62q205 0 340 -116l209 211l43 -31l-215 -217q123 -139 123 -348q0 -153 -59.5 -295t-159.5 -245.5t-239 -165.5t-291 -62q-214 0 -351 127zM281 279l890 901
q-123 104 -309 104q-138 0 -265 -57.5t-218 -153t-145 -224.5t-54 -267q0 -178 101 -303zM637 125q138 0 264.5 57.5t217.5 153t145.5 224.5t54.5 267q0 193 -111 316l-891 -903q121 -115 320 -115z" />
    <glyph glyph-name="integral.ss01" horiz-adv-x="1042" 
d="M-18 -301h-142l10 53h142q84 0 157 58.5t113 164.5l451 1182q108 277 352 277h145l-10 -54h-145q-88 0 -161 -58t-114 -165l-450 -1182q-53 -135 -141.5 -205.5t-206.5 -70.5z" />
    <glyph glyph-name="summation.ss01" horiz-adv-x="1206" 
d="M961 0h-934l10 49l715 668l-445 667l10 50h934l-10 -50h-864l416 -626l-21 -99l-653 -610h852z" />
    <glyph glyph-name="radical.ss01" horiz-adv-x="1347" 
d="M698 0h-65l-150 1036h-315l10 49h354l146 -1003l747 1427l58 -14z" />
    <glyph glyph-name="partialdiff.ss01" horiz-adv-x="1175" 
d="M449 -14q-164 0 -258.5 102t-94.5 277q0 129 42.5 246.5t117.5 205t184 139.5t234 52q120 0 212 -50t148 -143q12 283 -89.5 440.5t-356.5 241.5l18 49q242 -72 364 -229.5t122 -433.5q0 -127 -26.5 -254.5t-81 -243t-129.5 -204.5t-180.5 -142t-225.5 -53zM459 41
q117 0 219 61t172.5 161.5t116 224t61.5 255.5q-47 99 -139.5 155t-218.5 56q-150 0 -269.5 -80.5t-183 -211.5t-63.5 -285q0 -157 81.5 -246.5t223.5 -89.5z" />
    <glyph glyph-name="product.ss01" horiz-adv-x="1400" 
d="M373 0h-58l281 1384h-283l11 50h1118l-10 -50h-283l-281 -1384h-57l281 1384h-439z" />
    <glyph glyph-name="percent.ss01" horiz-adv-x="1720" 
d="M1573 1481l-1284 -1549l-53 23l1284 1548zM432 711q-108 0 -171.5 78t-63.5 206q0 184 106.5 318.5t265.5 134.5q113 0 175.5 -73.5t62.5 -205.5q0 -79 -25 -158.5t-71 -147t-119 -110t-160 -42.5zM440 760q73 0 134 39t98.5 100.5t57.5 130t20 133.5q0 112 -50 174
t-141 62q-85 0 -155.5 -56t-110 -146.5t-39.5 -192.5q0 -111 49 -177.5t137 -66.5zM1219 -23q-108 0 -172 78.5t-64 206.5q0 184 107 318.5t266 134.5q112 0 174.5 -73.5t62.5 -205.5q0 -62 -15.5 -126t-47 -124t-75 -106.5t-105 -74.5t-131.5 -28zM1227 27q73 0 134 39
t98 100.5t57 130t20 133.5q0 113 -49.5 174.5t-140.5 61.5q-85 0 -156 -56t-110.5 -147t-39.5 -193q0 -111 49.5 -177t137.5 -66z" />
    <glyph glyph-name="perthousand.ss01" horiz-adv-x="2381" 
d="M1573 1481l-1284 -1549l-53 23l1284 1548zM432 711q-108 0 -171.5 78t-63.5 206q0 184 106.5 318.5t265.5 134.5q113 0 175.5 -73.5t62.5 -205.5q0 -79 -25 -158.5t-71 -147t-119 -110t-160 -42.5zM440 760q73 0 134 39t98.5 100.5t57.5 130t20 133.5q0 112 -50 174
t-141 62q-85 0 -155.5 -56t-110 -146.5t-39.5 -192.5q0 -111 49 -177.5t137 -66.5zM1219 -23q-108 0 -172 78.5t-64 206.5q0 184 107 318.5t266 134.5q112 0 174.5 -73.5t62.5 -205.5q0 -62 -15.5 -126t-47 -124t-75 -106.5t-105 -74.5t-131.5 -28zM1880 -23
q-108 0 -171.5 78t-63.5 207q0 184 106.5 318.5t265.5 134.5q113 0 175.5 -73.5t62.5 -205.5q0 -79 -25 -158.5t-71 -147.5t-119 -110.5t-160 -42.5zM1227 27q73 0 134 39t98 100.5t57 130t20 133.5q0 113 -49.5 174.5t-140.5 61.5q-85 0 -156 -56t-110.5 -147t-39.5 -193
q0 -111 49.5 -177t137.5 -66zM1888 27q73 0 134 39t98.5 100.5t57.5 130t20 133.5q0 112 -50 174t-141 62q-85 0 -155.5 -56t-110 -147t-39.5 -193q0 -111 49 -177t137 -66z" />
    <glyph glyph-name="arrowup.ss01" horiz-adv-x="1558" 
d="M666 -143h-54l316 1540l-719 -598l-35 41l770 637h55l508 -637l-39 -37l-485 608z" />
    <glyph glyph-name="uni2197.ss01" horiz-adv-x="1660" 
d="M1554 1290l-1503 -1247l-31 49l1506 1247h-957l13 50h1003l31 -48l-199 -987h-53z" />
    <glyph glyph-name="arrowright.ss01" horiz-adv-x="1947" 
d="M1851 670l-770 -639l-41 35l727 604h-1617l8 49h1636l-485 604l43 35l508 -639z" />
    <glyph glyph-name="uni2198.ss01" horiz-adv-x="1650" 
d="M1309 45h-1004l8 49h957l-996 1247l41 41l994 -1245l192 942h53l-202 -995z" />
    <glyph glyph-name="arrowdown.ss01" horiz-adv-x="1556" 
d="M686 -43h-53l-510 637l39 39l485 -610l314 1554h53l-312 -1538l719 596l33 -41z" />
    <glyph glyph-name="uni2199.ss01" horiz-adv-x="1669" 
d="M1143 45h-987l-43 39l200 995h54l-193 -944l1503 1247l41 -41l-1503 -1247h940z" />
    <glyph glyph-name="arrowleft.ss01" horiz-adv-x="1951" 
d="M702 61l-43 -30l-509 639l12 49l768 639l37 -39l-727 -600h1624l-13 -49h-1632z" />
    <glyph glyph-name="uni2196.ss01" horiz-adv-x="1650" 
d="M1446 92l-41 -41l-993 1245l-193 -942h-53l203 996l43 39h1003l-8 -50h-956z" />
    <glyph glyph-name="arrowboth.ss01" horiz-adv-x="2156" 
d="M702 61l-43 -30l-509 639l12 49l768 639l37 -39l-727 -600h1763l-485 604l43 35l507 -639l-8 -49l-770 -639l-41 35l727 604h-1757z" />
    <glyph glyph-name="uni21B0.ss01" horiz-adv-x="1951" 
d="M1595 0h-55l174 858h-1470l356 -444l-41 -35l-383 479l10 49l578 479l41 -34l-537 -445h1512z" />
    <glyph glyph-name="uni21B1.ss01" horiz-adv-x="1953" 
d="M190 0h-55l184 907h1526l-354 445l41 34l381 -479l-8 -49l-580 -479l-41 35l537 444h-1456z" />
    <glyph glyph-name="uni21B2.ss01" horiz-adv-x="1951" 
d="M532 82l-40 -35l-383 479l10 49l577 480l41 -35l-536 -445h1456l174 859h55l-184 -908h-1526z" />
    <glyph glyph-name="uni21B3.ss01" horiz-adv-x="1953" 
d="M1837 526l-580 -479l-40 35l536 444h-1509l184 908h55l-174 -859h1469l-355 445l41 35l381 -480z" />
    <glyph glyph-name="lozenge.ss01" horiz-adv-x="1050" 
d="M438 0h-49l-272 717l563 717h49l275 -717zM180 711l244 -641l516 657l-244 637z" />
    <glyph glyph-name="at.ss01" horiz-adv-x="1794" 
d="M795 -201q-149 0 -270.5 38.5t-210 113t-137 191.5t-48.5 266q0 189 72.5 366t198.5 311.5t308.5 215.5t389.5 81q280 0 440 -146.5t160 -404.5q0 -162 -54.5 -310.5t-152.5 -242.5t-213 -94q-88 0 -125.5 60t-3.5 176h-8q-142 -236 -365 -236q-116 0 -183 69t-67 202
q0 101 38.5 204t102.5 185t156.5 134t192.5 52q109 0 170.5 -60.5t64.5 -168.5l74 213h45l-174 -594q-26 -94 -2.5 -140.5t90.5 -46.5q96 0 180 90t131 225t47 271q0 241 -146.5 375.5t-405.5 134.5q-188 0 -358 -77t-288.5 -204t-188 -293.5t-69.5 -342.5
q0 -274 165 -416.5t460 -142.5q222 0 422 90l-12 -64q-196 -80 -426 -80zM782 238q133 0 241.5 100t164.5 274q50 166 1 265.5t-179 99.5q-116 0 -216 -79.5t-155 -198t-55 -240.5q0 -111 52.5 -166t145.5 -55z" />
    <glyph glyph-name="ampersand.ss01" horiz-adv-x="1378" 
d="M512 -14q-220 0 -336.5 111.5t-85.5 297.5q11 68 41 128t68.5 103.5t95 84t107 68.5t118.5 59q-57 98 -83.5 163.5t-26.5 133.5q0 136 101.5 223.5t250.5 87.5q137 0 211.5 -76.5t50.5 -202.5q-6 -31 -18 -59t-33 -53t-40 -45.5t-52.5 -42.5t-56 -36.5t-65 -36t-66 -32.5
t-71.5 -33q-17 -8 -26 -12q148 -239 391 -551q176 201 238 527h57q-69 -356 -262 -570q23 -30 49.5 -64t60.5 -76t54 -67l-45 -32l-156 198q-202 -196 -471 -196zM569 860q177 80 233 114q142 85 166 191q0 3 1 6q19 98 -38 161t-171 63q-123 0 -208 -71t-85 -183
q0 -109 102 -281zM514 41q249 0 436 184q-235 303 -403 570q-82 -39 -139.5 -73.5t-117.5 -84t-96.5 -113t-48.5 -139.5q-25 -159 76 -251.5t293 -92.5z" />
    <glyph glyph-name="paragraph.ss01" horiz-adv-x="1138" 
d="M510 -211h-55l170 832h-74q-167 0 -267 83t-100 242q0 131 67 243t186.5 178.5t264.5 66.5h455l-336 -1645h-55l326 1595h-256z" />
    <glyph glyph-name="section.ss01" horiz-adv-x="1167" 
d="M457 -180q-181 0 -274.5 85t-73.5 249h51q-12 -140 64.5 -210.5t244.5 -70.5q159 0 259.5 69.5t100.5 178.5q0 63 -39.5 105t-111.5 77l-203 96q-123 58 -158 82q-96 65 -96 162q0 106 80.5 185t206.5 120q-83 42 -126.5 89.5t-43.5 125.5q0 123 108 204t277 81
q163 0 253 -83t81 -247h-58q4 147 -70.5 212t-211.5 65q-139 0 -231.5 -63.5t-92.5 -162.5q0 -19 4 -36t8 -30.5t15.5 -27.5t18 -22.5t24.5 -21t26 -18t30.5 -17t30.5 -15.5t34.5 -16t33.5 -15l197 -92q42 -20 69 -36.5t54.5 -42t41 -60t13.5 -78.5q0 -109 -86.5 -180
t-226.5 -103l29 -14q86 -40 131 -90t45 -131q0 -134 -119.5 -218.5t-308.5 -84.5zM504 442l143 -69q130 37 210.5 103.5t80.5 162.5q0 59 -39.5 99.5t-110.5 74.5l-194 94l-53 25q-116 -40 -190.5 -111.5t-74.5 -165.5q0 -38 14.5 -68t47.5 -54.5t61 -39.5t79 -39
q17 -8 26 -12z" />
    <glyph glyph-name="copyright.ss01" horiz-adv-x="1875" 
d="M817 -82q-286 0 -457.5 167.5t-171.5 451.5q0 201 72 381.5t196 312t299 208.5t373 77q286 0 457.5 -167.5t171.5 -451.5q0 -202 -72 -383t-196 -312t-299 -207.5t-373 -76.5zM827 -27q184 0 347.5 73.5t278 197.5t181 290t66.5 347q0 263 -156.5 421t-425.5 158
q-184 0 -347.5 -73.5t-277.5 -197t-180.5 -289.5t-66.5 -347q0 -263 156 -421.5t425 -158.5zM918 332q-127 0 -206 80.5t-79 222.5q0 91 30.5 175.5t84.5 149.5t134.5 103.5t174.5 38.5q129 0 199.5 -79t64.5 -220h-55q1 116 -56.5 180t-162.5 64q-106 0 -189 -59
t-125.5 -151t-42.5 -198q0 -116 64.5 -183t175.5 -67q106 0 187 63t120 183h57q-42 -146 -143 -224.5t-233 -78.5z" />
    <glyph glyph-name="registered.ss01" horiz-adv-x="1101" 
d="M549 516q-165 0 -265 98t-100 263q0 154 70.5 283.5t196.5 205.5t278 76q165 0 265 -98.5t100 -264.5q0 -154 -68 -282t-193.5 -204.5t-283.5 -76.5zM559 565q140 0 252 70.5t171.5 185.5t59.5 250q0 146 -86 234t-237 88q-137 0 -248.5 -70t-173 -185.5t-61.5 -250.5
q0 -146 86 -234t237 -88zM463 733h-47l98 484h231q51 0 82 -29t31 -80t-33 -92t-84 -55q34 -5 41 -43l25 -185h-47l-21 168q-1 17 -10 26t-22 9h-203zM553 1176l-41 -199h190q45 0 76 38t31 87q0 35 -17.5 54.5t-48.5 19.5h-190z" />
    <glyph glyph-name="trademark.ss01" horiz-adv-x="1402" 
d="M395 741h-55l129 641h-254l10 52h561l-10 -52h-252zM766 741h-55l139 693h55l139 -633l400 633h55l-139 -693h-55l112 564l-352 -564h-57l-127 568z" />
    <glyph glyph-name="degree.ss01" horiz-adv-x="722" 
d="M426 850q-100 0 -159.5 59t-59.5 160q0 134 93.5 231t231.5 97q101 0 161.5 -60t60.5 -161q0 -133 -94 -229.5t-234 -96.5zM434 901q112 0 188 79.5t76 190.5q0 80 -47.5 127.5t-128.5 47.5q-110 0 -185 -80t-75 -189q0 -82 46.5 -129t125.5 -47z" />
    <glyph glyph-name="bar.ss01" horiz-adv-x="481" 
d="M113 -236h-60l361 1772h59z" />
    <glyph glyph-name="brokenbar.ss01" horiz-adv-x="483" 
d="M315 758h-59l158 778h59zM113 -236h-60l158 779h59z" />
    <glyph glyph-name="dagger.ss01" horiz-adv-x="1056" 
d="M545 496h-56l140 682h-412l10 49h412l63 309h56l-64 -309h414l-10 -49h-414z" />
    <glyph glyph-name="daggerdbl.ss01" horiz-adv-x="1056" 
d="M545 496h-56l66 319h-412l11 49h411l64 314h-412l10 49h412l63 309h56l-64 -309h414l-10 -49h-414l-63 -314h413l-10 -49h-414z" />
    <glyph glyph-name="uni2116.ss01" horiz-adv-x="2138" 
d="M1819 807q-106 0 -171 68t-65 178q0 105 45 195t127 144t184 54q109 0 172.5 -65.5t63.5 -180.5q0 -103 -41.5 -191.5t-124.5 -145t-190 -56.5zM137 0h-55l291 1434h82l686 -1375l278 1375h56l-291 -1434h-74l-690 1391zM1827 856q86 0 154.5 49.5t104.5 126t36 162.5
q0 94 -50 148.5t-139 54.5q-127 0 -212 -99t-85 -237q0 -95 51 -150t140 -55zM2003 616h-444l8 50h444z" />
    <glyph glyph-name="uni23CE.ss01" horiz-adv-x="1953" 
d="M532 82l-40 -35l-383 479l10 49l577 480l41 -35l-536 -445h1458l164 809h-770l8 50h827l-184 -908h-1528z" />
    </font>
</defs>
</svg>
