<?xml version="1.0" standalone="no"?>
<!DOCTYPE svg PUBLIC "-//W3C//DTD SVG 1.1//EN" "http://www.w3.org/Graphics/SVG/1.1/DTD/svg11.dtd" >
<svg xmlns="http://www.w3.org/2000/svg" xmlns:xlink="http://www.w3.org/1999/xlink" version="1.1">
<metadata>
Created by FontForge 20201107 at Thu Dec 18 20:05:28 2025
 By 
Copyright (c) 2022 by PangramPangramFoundry. All rights reserved.
</metadata>
<defs>
<font id="PPMori-ExtralightItalic" horiz-adv-x="0" >
  <font-face 
    font-family="PP Mori ExtraLight"
    font-weight="100"
    font-style="italic"
    font-stretch="normal"
    units-per-em="2048"
    panose-1="0 0 2 0 0 0 0 0 0 0"
    ascent="1638"
    descent="-410"
    x-height="1085"
    cap-height="1434"
    bbox="-766 -776 4135 2466"
    underline-thickness="102"
    underline-position="-204"
    slope="-11.5"
    unicode-range="U+000D-1F318"
  />
<missing-glyph horiz-adv-x="1191" 
d="M969 0h-965l291 1434h965zM373 1384l268 -618l522 618h-790zM330 1343l-252 -1247l524 623zM662 717l272 -625l254 1247zM623 670l-525 -621h793z" />
    <glyph glyph-name="f_f" unicode="ff" horiz-adv-x="1386" 
d="M248 0h-90l204 1006h-221l17 79h221l31 152q31 154 107 226.5t235 72.5h227l-16 -80h-228q-100 0 -156 -52t-79 -167l-31 -152h510l31 152q31 154 107 226.5t235 72.5h227l-16 -80h-228q-100 0 -156 -52t-79 -167l-31 -152h391l-16 -79h-391l-205 -1006h-90l205 1006
h-510z" />
    <glyph glyph-name="f_t" unicode="ft" horiz-adv-x="1384" 
d="M248 0h-90l204 1006h-221l17 79h221l31 152q31 154 107 226.5t235 72.5h227l-16 -80h-228q-100 0 -156 -52t-79 -167l-31 -152h539l75 371h91l-76 -371h321l-16 -79h-322l-143 -707q-23 -114 11.5 -166.5t135.5 -52.5h111l-16 -80h-111q-137 0 -194 75.5t-27 223.5
l143 707h-538z" />
    <glyph glyph-name="t_f" unicode="tf" horiz-adv-x="1355" 
d="M549 0h-111q-137 0 -194 75.5t-27 223.5l143 707h-219l17 79h219l76 371h90l-76 -371h481l31 152q31 154 107 226.5t235 72.5h227l-16 -80h-227q-100 0 -156.5 -52t-79.5 -167l-31 -152h392l-17 -79h-391l-205 -1006h-90l205 1006h-481l-144 -707q-23 -114 12 -166.5
t136 -52.5h110z" />
    <glyph glyph-name="t_t" unicode="tt" horiz-adv-x="1316" 
d="M549 0h-111q-137 0 -194 75.5t-27 223.5l143 707h-219l17 79h219l76 371h90l-76 -371h473l76 371h90l-76 -371h322l-17 -79h-321l-144 -707q-23 -114 12 -166.5t136 -52.5h110l-16 -80h-111q-137 0 -194 75.5t-27 223.5l144 707h-473l-144 -707q-23 -114 12 -166.5
t136 -52.5h110z" />
    <glyph glyph-name=".notdef" horiz-adv-x="1191" 
d="M969 0h-965l291 1434h965zM373 1384l268 -618l522 618h-790zM330 1343l-252 -1247l524 623zM662 717l272 -625l254 1247zM623 670l-525 -621h793z" />
    <glyph glyph-name=".null" horiz-adv-x="1228" 
 />
    <glyph glyph-name="nonmarkingreturn" horiz-adv-x="682" 
 />
    <glyph glyph-name="CR" unicode="&#xd;" horiz-adv-x="1228" 
 />
    <glyph glyph-name="space" unicode=" " horiz-adv-x="454" 
 />
    <glyph glyph-name="exclam" unicode="!" horiz-adv-x="473" 
d="M229 311h-90l250 1225h90zM143 -14q-41 0 -69.5 27.5t-28.5 68.5t28.5 69.5t69.5 28.5t69 -28.5t28 -69.5t-28 -68.5t-69 -27.5z" />
    <glyph glyph-name="quotedbl" unicode="&#x22;" horiz-adv-x="677" 
d="M303 856h-84l139 680h84zM586 856h-84l139 680h84z" />
    <glyph glyph-name="numbersign" unicode="#" horiz-adv-x="1531" 
d="M471 420l-192 -443l-76 23l184 420h-321l12 69h340l203 467h-428l12 70h446l189 430l75 -22l-178 -408h400l188 430l76 -22l-178 -408h317l-12 -70h-336l-205 -467h428l-12 -69h-447l-192 -443l-76 23l184 420h-401zM707 956l-205 -467h401l203 467h-399z" />
    <glyph glyph-name="dollar" unicode="$" horiz-adv-x="1288" 
d="M1194 1006h-90q26 301 -264 350l-115 -572l123 -45q51 -19 86 -35t76.5 -44t66.5 -60t42.5 -80.5t17.5 -107.5q0 -199 -134.5 -311.5t-359.5 -114.5q-55 0 -82 2l-53 -264h-74l55 272q-201 32 -303 143t-71 285h90q-24 -140 57.5 -229.5t243.5 -114.5l131 641l-70 24
q-102 38 -143 63q-152 89 -152 259q0 174 129 277.5t326 103.5q39 0 57 -2l52 248h73l-51 -256q180 -28 268 -138.5t68 -293.5zM618 823l37 -14l113 555h-47q-158 -2 -256 -80t-98 -211q0 -32 8 -60t17.5 -48t30.5 -39.5t34.5 -30.5t41.5 -24.5t40 -18.5t42.5 -16t36.5 -13z
M809 657l-102 37l-127 -622q20 -2 67 -2q179 2 286 92.5t107 243.5q0 46 -13 82.5t-31.5 61t-52 45.5t-61.5 33.5t-73 28.5z" />
    <glyph glyph-name="percent" unicode="%" horiz-adv-x="1892" 
d="M1708 1454l-1317 -1468l-82 37l1317 1468zM444 711q-120 0 -181.5 81t-61.5 203q0 80 25.5 159t71.5 145.5t120 107.5t162 41q118 0 179.5 -82t61.5 -209q0 -78 -25.5 -156t-71.5 -143t-119.5 -106t-160.5 -41zM455 788q85 0 151 57t98.5 140t32.5 172q0 90 -44 151.5
t-128 61.5q-63 0 -117 -33.5t-89 -86.5t-54.5 -117t-19.5 -127q0 -95 42.5 -156.5t127.5 -61.5zM1384 -14q-120 0 -181.5 81t-61.5 203q0 80 25.5 159t71.5 145.5t120 107.5t162 41q118 0 179.5 -82t61.5 -209q0 -78 -25.5 -156t-71.5 -143t-119.5 -106t-160.5 -41zM1395 63
q85 0 151 57t98.5 140t32.5 172q0 90 -44 151.5t-128 61.5q-63 0 -117 -33.5t-89 -86.5t-54.5 -117t-19.5 -127q0 -95 42.5 -156.5t127.5 -61.5z" />
    <glyph glyph-name="ampersand" unicode="&#x26;" horiz-adv-x="1415" 
d="M514 -14q-223 0 -339 120.5t-81 313.5q14 74 53.5 139t101 118t128.5 94.5t155 84.5q-53 81 -80.5 148.5t-27.5 138.5q0 138 98 221.5t246 83.5q137 0 212.5 -76.5t51.5 -208.5q-9 -47 -35 -89.5t-57.5 -73.5t-83.5 -64.5t-93.5 -55.5t-105.5 -53l351 -493
q128 183 184 479l88 -2q-67 -347 -223 -549l168 -237l-76 -50l-152 218q-198 -207 -483 -207zM610 891q151 68 211 111q105 74 123 167q18 91 -35 145t-147 54q-109 0 -180.5 -61t-71.5 -162q0 -111 100 -254zM522 70q254 0 428 192l-368 531q-66 -32 -109.5 -56t-98 -60
t-88.5 -71t-62 -83t-38 -101q-32 -164 61 -258t275 -94z" />
    <glyph glyph-name="quotesingle" unicode="'" horiz-adv-x="395" 
d="M303 856h-84l139 680h84z" />
    <glyph glyph-name="parenleft" unicode="(" horiz-adv-x="606" 
d="M365 -219l-76 -29q-56 117 -89.5 265.5t-33.5 301.5q0 329 132.5 652t346.5 559l76 -35q-210 -225 -339.5 -539t-129.5 -630q0 -311 113 -545z" />
    <glyph glyph-name="parenright" unicode=")" horiz-adv-x="589" 
d="M2 -248l-68 47q207 217 322 518.5t115 630.5q0 302 -95 563l84 19q97 -264 97 -580q0 -341 -119.5 -655.5t-335.5 -542.5z" />
    <glyph glyph-name="asterisk" unicode="*" horiz-adv-x="993" 
d="M545 610h-70l78 381l-381 -198l-22 61l387 201l-301 200l40 52l302 -199l77 385h70l-78 -381l381 199l23 -62l-385 -200l301 -199l-41 -51l-301 198z" />
    <glyph glyph-name="plus" unicode="+" horiz-adv-x="1134" 
d="M541 213h-86l80 393h-414l16 82h414l80 391h86l-80 -391h418l-17 -82h-417z" />
    <glyph glyph-name="comma" unicode="," horiz-adv-x="522" 
d="M352 317l-354 -671l-86 26l346 674z" />
    <glyph glyph-name="hyphen" unicode="-" horiz-adv-x="1050" 
d="M954 606h-833l16 82h834z" />
    <glyph glyph-name="period" unicode="." horiz-adv-x="460" 
d="M137 -14q-41 0 -69.5 27.5t-28.5 68.5t28.5 69.5t69.5 28.5t68.5 -28.5t27.5 -69.5t-27.5 -68.5t-68.5 -27.5z" />
    <glyph glyph-name="slash" unicode="/" horiz-adv-x="714" 
d="M897 1579l-913 -1800l-84 26l913 1797z" />
    <glyph glyph-name="zero" unicode="0" horiz-adv-x="1267" 
d="M528 -14q-188 0 -288.5 127.5t-100.5 369.5q0 138 28.5 275.5t86 261.5t136.5 219.5t188 152t233 56.5q186 0 285.5 -128.5t99.5 -377.5q0 -137 -27.5 -272.5t-84 -259t-135 -218t-187.5 -150.5t-234 -56zM539 72q88 0 167 37.5t139.5 102t109.5 150t80.5 183t48 198.5
t16.5 199q0 205 -76 312.5t-227 107.5q-104 0 -195.5 -53t-157 -141.5t-113.5 -201.5t-71.5 -234.5t-23.5 -239.5q0 -205 76 -312.5t227 -107.5z" />
    <glyph glyph-name="one" unicode="1" horiz-adv-x="727" 
d="M426 0h-92l246 1204q-124 -164 -367 -164h-41l21 99h40q163 0 262.5 70t127.5 204l4 21h90z" />
    <glyph glyph-name="two" unicode="2" horiz-adv-x="1150" 
d="M727 1448q85 0 153.5 -21t113 -58.5t73.5 -88t34 -109t-5 -122.5q-14 -72 -52 -135t-91.5 -111.5t-118.5 -93t-135.5 -83.5t-141 -78.5t-136 -83t-119 -91.5t-92 -110t-52.5 -132l-8 -45h802l-16 -86h-901l26 125q18 83 59 155.5t96.5 126.5t122 102t137 88.5t141 79
t135 79t116.5 84t88 99.5t48 120q25 132 -51 217.5t-232 85.5q-164 0 -274.5 -99t-145.5 -278h-96q40 219 176.5 341t345.5 122z" />
    <glyph glyph-name="three" unicode="3" horiz-adv-x="1161" 
d="M518 -12q-230 0 -350.5 125t-91.5 344h90q-23 -180 71 -279.5t289 -99.5q186 0 301 97.5t115 254.5q0 128 -80.5 200t-222.5 72h-182l14 82h184q161 0 264 92.5t103 231.5q0 116 -77.5 184t-211.5 68q-148 0 -265 -91.5t-167 -279.5h-94q58 226 203.5 341.5t334.5 115.5
q170 0 269.5 -90t99.5 -238q0 -140 -90.5 -240.5t-241.5 -134.5q115 -28 182.5 -110t67.5 -199q0 -197 -143 -321.5t-371 -124.5z" />
    <glyph glyph-name="four" unicode="4" horiz-adv-x="1243" 
d="M815 0h-92l82 403h-737l16 82l928 949h94l-193 -945h258l-16 -86h-258zM985 1290l-782 -801h618z" />
    <glyph glyph-name="five" unicode="5" horiz-adv-x="1181" 
d="M510 -14q-211 0 -326.5 121.5t-93.5 320.5h88q-16 -156 70.5 -256t261.5 -100q207 0 334 132t127 339q0 152 -82.5 230.5t-210.5 78.5q-221 0 -383 -152l-98 2l213 732h743l-16 -86h-662l-164 -560q84 75 187.5 112.5t197.5 37.5q165 0 267 -98.5t102 -292.5
q0 -245 -154 -403t-401 -158z" />
    <glyph glyph-name="six" unicode="6" horiz-adv-x="1243" 
d="M580 -14q-214 0 -324.5 136.5t-110.5 377.5q0 146 29 284t87.5 258.5t140.5 211t195.5 142.5t244.5 52q192 0 296 -114.5t87 -321.5h-86q10 169 -68 259.5t-233 90.5q-228 0 -378.5 -168t-207.5 -463q-15 -76 -23 -178q66 172 209 273.5t320 101.5q169 0 265.5 -102.5
t96.5 -278.5q0 -153 -69 -281.5t-193.5 -204t-277.5 -75.5zM584 70q195 0 319.5 135t124.5 336q0 149 -85 229t-216 80q-102 0 -191 -43.5t-146 -111.5t-89.5 -149.5t-32.5 -160.5q0 -139 79 -227t237 -88z" />
    <glyph glyph-name="seven" unicode="7" horiz-adv-x="1091" 
d="M227 0h-112l964 1348h-841l16 86h950l-16 -86z" />
    <glyph glyph-name="eight" unicode="8" horiz-adv-x="1239" 
d="M522 -14q-200 0 -321 90.5t-121 251.5q0 154 104.5 268.5t272.5 161.5q-85 41 -134 114t-49 170q0 121 67 215t177 142.5t242 48.5q187 0 292 -93.5t105 -246.5q0 -129 -72.5 -222t-205.5 -136q102 -39 158.5 -119t56.5 -191q0 -201 -159.5 -327.5t-412.5 -126.5z
M684 786q175 0 278 87t103 227q0 120 -82 191t-231 71q-167 0 -276 -87t-109 -222q0 -120 85.5 -193.5t231.5 -73.5zM530 76q204 0 334.5 102.5t130.5 263.5q0 126 -91.5 199.5t-252.5 73.5q-122 0 -229.5 -46.5t-175.5 -133.5t-68 -195q0 -127 95 -195.5t257 -68.5z" />
    <glyph glyph-name="nine" unicode="9" horiz-adv-x="1224" 
d="M483 -14q-196 0 -302 112t-89 324h90q-18 -350 318 -350q200 0 340 159.5t194 448.5q15 84 21 166q-62 -161 -190 -250.5t-285 -89.5q-181 0 -283 103t-102 280q0 115 40 217.5t110.5 178t172.5 119.5t219 44q199 0 304.5 -129t105.5 -383q0 -141 -23.5 -274.5t-76 -257
t-128.5 -216t-188.5 -147.5t-247.5 -55zM584 588q105 0 192 42t141.5 110t84.5 150t30 165q0 133 -76.5 221t-222.5 88q-189 0 -317.5 -136.5t-128.5 -326.5q0 -151 79.5 -232t217.5 -81z" />
    <glyph glyph-name="colon" unicode=":" horiz-adv-x="464" 
d="M326 907q-41 0 -70 28t-29 69t29 69.5t70 28.5t68.5 -28.5t27.5 -69.5t-27.5 -69t-68.5 -28zM141 -14q-41 0 -69.5 27.5t-28.5 68.5t28.5 69.5t69.5 28.5t69 -28.5t28 -69.5t-28 -68.5t-69 -27.5z" />
    <glyph glyph-name="semicolon" unicode=";" horiz-adv-x="591" 
d="M410 907q-41 0 -70 28t-29 69t29 69.5t70 28.5t68.5 -28.5t27.5 -69.5t-27.5 -69t-68.5 -28zM385 317l-354 -671l-86 26l346 674z" />
    <glyph glyph-name="less" unicode="&#x3c;" horiz-adv-x="1163" 
d="M975 121l-51 -68l-818 475l17 80l1010 475l28 -77l-944 -443z" />
    <glyph glyph-name="equal" unicode="=" horiz-adv-x="1142" 
d="M1075 770h-913l16 80h914zM989 350h-913l16 80h914z" />
    <glyph glyph-name="greater" unicode="&#x3e;" horiz-adv-x="1159" 
d="M1049 528l-1010 -475l-27 78l942 444l-759 441l53 67l817 -475z" />
    <glyph glyph-name="question" unicode="?" horiz-adv-x="1083" 
d="M561 311h-88l12 64q16 81 49.5 149.5t75.5 115.5t89.5 88t94.5 77.5t86.5 73t69 84.5t39.5 104q24 127 -54 211t-237 84q-160 0 -268.5 -91.5t-146.5 -285.5h-97q22 120 71 210.5t118.5 144.5t152 81t177.5 27q106 0 187 -32.5t125 -86.5t60.5 -123t1.5 -145
q-12 -63 -43 -117t-71.5 -93.5t-87.5 -77t-94.5 -76.5t-89 -82.5t-74 -105t-46.5 -134.5zM489 -14q-41 0 -69.5 27.5t-28.5 68.5t28.5 69.5t69.5 28.5t69 -28.5t28 -69.5t-28 -68.5t-69 -27.5z" />
    <glyph glyph-name="at" unicode="@" horiz-adv-x="1773" 
d="M827 -184q-155 0 -281 38.5t-218.5 113.5t-142.5 192.5t-50 269.5q0 187 70 360t192 304t301 209.5t385 78.5q284 0 442 -151t158 -422q0 -156 -49 -297.5t-144.5 -234.5t-215.5 -93q-89 0 -136 54.5t-22 150.5q-66 -97 -159.5 -151t-194.5 -54q-124 0 -191 77.5
t-67 203.5q0 106 37 208t100.5 181t156.5 127.5t197 48.5t167 -50.5t77 -143.5l78 178h51l-172 -594q-50 -166 78 -166q96 0 173.5 84t117 208t39.5 255q0 237 -139.5 370.5t-389.5 133.5q-145 0 -278.5 -47t-237 -129.5t-180.5 -190.5t-117.5 -236t-40.5 -260
q0 -270 161 -409t452 -139q231 0 428 96l-17 -88q-79 -39 -189 -62.5t-229 -23.5zM782 260q127 0 234.5 96t152.5 256q45 153 -6 247.5t-176 94.5q-110 0 -203 -70t-143.5 -179.5t-50.5 -227.5q0 -99 47.5 -158t144.5 -59z" />
    <glyph glyph-name="A" unicode="A" horiz-adv-x="1433" 
d="M70 0h-103l881 1434h96l301 -1434h-96l-98 473h-691zM877 1315l-467 -762h624z" />
    <glyph glyph-name="B" unicode="B" horiz-adv-x="1363" 
d="M745 0h-663l291 1434h631q137 0 224 -72.5t87 -216.5q0 -136 -93.5 -248t-236.5 -149q106 -25 165.5 -103.5t59.5 -200.5q0 -88 -31 -167t-88 -141.5t-147 -99t-199 -36.5zM446 1352l-116 -570h538q148 0 250.5 108t102.5 249q0 99 -61.5 156t-166.5 57h-547zM315 705
l-127 -623h570q107 0 189.5 52t124.5 137t42 186q0 110 -63.5 179t-188.5 69h-547z" />
    <glyph glyph-name="C" unicode="C" horiz-adv-x="1527" 
d="M686 -14q-247 0 -394 147.5t-147 403.5q0 146 37 282.5t109 250t170 198.5t227 132.5t273 47.5q251 0 383.5 -143.5t123.5 -419.5h-92q0 237 -104 357t-328 120q-155 0 -288.5 -67t-223 -179.5t-140 -259t-50.5 -305.5q0 -236 123 -357.5t331 -121.5q213 0 371 117.5
t242 359.5h96q-95 -289 -280 -426t-439 -137z" />
    <glyph glyph-name="D" unicode="D" horiz-adv-x="1445" 
d="M588 0h-506l291 1434h489q240 0 376 -135t136 -379q0 -141 -33 -275t-99.5 -251t-159 -205t-220 -138.5t-274.5 -50.5zM446 1352l-258 -1270h398q154 0 286 69.5t219.5 185.5t137 265.5t49.5 310.5q0 207 -112.5 323t-313.5 116h-406z" />
    <glyph glyph-name="E" unicode="E" horiz-adv-x="1245" 
d="M1026 0h-944l291 1434h925l-16 -82h-836l-112 -553h753l-16 -80h-754l-129 -637h854z" />
    <glyph glyph-name="F" unicode="F" horiz-adv-x="1218" 
d="M174 0h-92l291 1434h923l-16 -82h-831l-115 -566h776l-16 -81h-777z" />
    <glyph glyph-name="G" unicode="G" horiz-adv-x="1558" 
d="M686 -14q-248 0 -394.5 147.5t-146.5 403.5q0 146 37 282.5t109 250t170 198.5t227 132.5t273 47.5q251 0 383.5 -143.5t123.5 -419.5h-92q0 477 -432 477q-125 0 -236.5 -43.5t-195.5 -120.5t-145.5 -178.5t-93 -222.5t-31.5 -248q0 -235 123 -356t331 -121
q224 0 378.5 144.5t205.5 399.5h-541l17 82h520q168 0 137 -159l-110 -539h-84l110 539h-2q-64 -261 -233.5 -407t-407.5 -146z" />
    <glyph glyph-name="H" unicode="H" horiz-adv-x="1554" 
d="M174 0h-92l291 1434h92l-129 -641h987l129 641h92l-291 -1434h-92l144 711h-988z" />
    <glyph glyph-name="I" unicode="I" horiz-adv-x="475" 
d="M174 0h-92l291 1434h92z" />
    <glyph glyph-name="J" unicode="J" horiz-adv-x="1140" 
d="M428 -14q-191 0 -288 101.5t-60 289.5l41 203h90l-41 -201q-31 -156 41.5 -233.5t230.5 -77.5q154 0 260 82.5t140 252.5l209 1031h92l-209 -1033q-42 -208 -172 -311.5t-334 -103.5z" />
    <glyph glyph-name="K" unicode="K" horiz-adv-x="1368" 
d="M172 0h-90l291 1434h90l-178 -881l1009 881h131l-673 -582l448 -852h-104l-414 793l-424 -365z" />
    <glyph glyph-name="L" unicode="L" horiz-adv-x="1175" 
d="M967 0h-885l291 1434h92l-272 -1348h790z" />
    <glyph glyph-name="M" unicode="M" horiz-adv-x="1769" 
d="M174 0h-92l291 1434h129l291 -1330l829 1330h137l-291 -1434h-92l266 1313l-821 -1313h-92l-289 1313z" />
    <glyph glyph-name="N" unicode="N" horiz-adv-x="1497" 
d="M172 0h-90l291 1434h106l651 -1315l267 1315h90l-291 -1434h-106l-652 1317z" />
    <glyph glyph-name="O" unicode="O" horiz-adv-x="1546" 
d="M674 -14q-246 0 -386.5 146.5t-140.5 406.5q0 255 104.5 463.5t288.5 327t410 118.5q245 0 381.5 -149.5t136.5 -417.5q0 -133 -31.5 -260.5t-97 -242.5t-158 -202.5t-223.5 -138.5t-284 -51zM684 72q130 0 242.5 46t193.5 124.5t139 181.5t86.5 219t28.5 236
q0 230 -114 356.5t-328 126.5q-141 0 -268 -62t-220 -169t-147.5 -258.5t-54.5 -321.5q0 -227 115 -353t327 -126z" />
    <glyph glyph-name="P" unicode="P" horiz-adv-x="1363" 
d="M174 0h-92l291 1434h653q151 0 244.5 -89t93.5 -258q0 -95 -31 -182t-91 -157t-159 -112t-223 -42h-565zM449 1352l-138 -676h568q97 0 174 36t122.5 96t69 130.5t23.5 146.5q0 127 -70 197t-186 70h-563z" />
    <glyph glyph-name="Q" unicode="Q" horiz-adv-x="1574" 
d="M1294 -219l-80 -39l-180 330q-159 -86 -360 -86q-246 0 -386.5 146.5t-140.5 406.5q0 255 104.5 463.5t288.5 327t410 118.5q245 0 381.5 -149.5t136.5 -417.5q0 -149 -39 -290t-121 -266t-198 -206zM684 72q167 0 307 75l-211 385l80 41l207 -376q147 111 227 295
t80 387q0 230 -114 356.5t-328 126.5q-141 0 -268 -62t-220 -169t-147.5 -258.5t-54.5 -321.5q0 -227 115 -353t327 -126z" />
    <glyph glyph-name="R" unicode="R" horiz-adv-x="1378" 
d="M174 0h-92l291 1434h620q161 0 254.5 -83t93.5 -233q0 -156 -102.5 -276.5t-263.5 -157.5q103 -37 125 -174l80 -510h-95l-75 485q-11 71 -49 113.5t-103 42.5h-555zM449 1352l-127 -629h540q164 0 274.5 114t110.5 273q0 112 -71 177t-191 65h-536z" />
    <glyph glyph-name="S" unicode="S" horiz-adv-x="1288" 
d="M643 -14q-175 -1 -302.5 49t-189 151t-36.5 238h90q-29 -169 93 -262.5t349 -91.5q179 2 286 92.5t107 243.5q0 46 -13 82.5t-31.5 61t-52 45.5t-61.5 33.5t-73 28.5l-242 88q-102 38 -143 63q-152 89 -152 259q0 174 129 277.5t326 103.5q245 0 367.5 -114t99.5 -328
h-90q17 184 -83 272t-300 86q-158 -2 -256 -80t-98 -211q0 -32 8 -60t17.5 -48t30.5 -39.5t34.5 -30.5t41.5 -24.5t40 -18.5t42.5 -16t36.5 -13l230 -84q51 -19 86 -35t76.5 -44t66.5 -60t42.5 -80.5t17.5 -107.5q0 -199 -134.5 -311.5t-359.5 -114.5z" />
    <glyph glyph-name="T" unicode="T" horiz-adv-x="1288" 
d="M584 0h-95l275 1350h-516l16 84h1122l-16 -84h-512z" />
    <glyph glyph-name="U" unicode="U" horiz-adv-x="1406" 
d="M592 -14q-108 0 -196 30t-149 87t-84.5 147t-0.5 203l198 981h93l-199 -977q-38 -184 58.5 -283.5t295.5 -99.5q198 0 335.5 98t176.5 287l197 975h92l-199 -981q-46 -232 -209 -349.5t-409 -117.5z" />
    <glyph glyph-name="V" unicode="V" horiz-adv-x="1292" 
d="M598 0h-104l-267 1434h99l237 -1319l760 1319h107z" />
    <glyph glyph-name="W" unicode="W" horiz-adv-x="1869" 
d="M449 0h-107l-115 1434h97l98 -1303l645 1303h96l117 -1301l625 1301h102l-696 -1434h-101l-118 1300z" />
    <glyph glyph-name="X" unicode="X" horiz-adv-x="1357" 
d="M90 0h-127l699 739l-375 695h106l338 -631l592 631h127l-672 -713l396 -721h-107l-358 659z" />
    <glyph glyph-name="Y" unicode="Y" horiz-adv-x="1265" 
d="M567 0h-92l129 633l-381 801h101l338 -711l624 711h121l-711 -801z" />
    <glyph glyph-name="Z" unicode="Z" horiz-adv-x="1261" 
d="M1028 0h-1016l17 82l1134 1266h-839l16 86h958l-16 -82l-1135 -1266h897z" />
    <glyph glyph-name="bracketleft" unicode="[" horiz-adv-x="753" 
d="M522 -262h-471l373 1827h471l-14 -70h-385l-344 -1688h385z" />
    <glyph glyph-name="backslash" unicode="\" horiz-adv-x="698" 
d="M500 -195l-80 -26l-180 1800l79 23z" />
    <glyph glyph-name="bracketright" unicode="]" horiz-adv-x="755" 
d="M748 1565l-371 -1827h-471l14 69h385l342 1688h-385l14 70h472z" />
    <glyph glyph-name="asciicircum" unicode="^" horiz-adv-x="956" 
d="M274 885h-98l430 549h103l211 -549h-89l-180 483z" />
    <glyph glyph-name="underscore" unicode="_" horiz-adv-x="1091" 
d="M854 -96h-874l16 82h874z" />
    <glyph glyph-name="grave" unicode="`" horiz-adv-x="753" 
d="M842 1298l-60 -61l-481 459l59 61z" />
    <glyph glyph-name="a" unicode="a" horiz-adv-x="1136" 
d="M401 -10q-153 0 -246.5 76.5t-93.5 207.5q0 60 15.5 108.5t47 82t69.5 58t92 41t105 26.5t118 18q31 4 78.5 9t74 8t64 8.5t58.5 11.5t46 15.5t39 21t25.5 28.5t15.5 38q24 117 -52.5 194.5t-231.5 77.5q-131 0 -235 -63.5t-140 -196.5h-90q41 170 172 256t305 86
q189 0 289.5 -105t64.5 -284l-102 -504q-13 -65 3 -97t79 -32h43l-17 -80h-41q-78 0 -117.5 38t-39.5 107q0 36 8 72q-136 -227 -406 -227zM416 72q355 0 442 420l29 137q-11 -15 -28 -27.5t-41 -21t-44.5 -14.5t-54.5 -11t-55.5 -7.5t-62.5 -6.5t-60 -6q-74 -8 -123 -16.5
t-104.5 -27t-88 -44t-54 -68.5t-21.5 -100q0 -94 72.5 -150.5t193.5 -56.5z" />
    <glyph glyph-name="b" unicode="b" horiz-adv-x="1226" 
d="M561 -14q-149 0 -244 79t-120 218l-72 -283h-70l312 1536h90l-140 -692q78 121 200 189.5t261 68.5q169 0 265 -109.5t96 -310.5q0 -128 -41 -252t-113 -223t-183 -160t-241 -61zM563 70q85 0 161.5 34.5t133.5 94t99 137t63.5 165.5t21.5 177q0 161 -74.5 250.5
t-219.5 89.5q-112 0 -207 -50t-158.5 -133.5t-99 -191.5t-35.5 -223q0 -162 84 -256t231 -94z" />
    <glyph glyph-name="c" unicode="c" horiz-adv-x="1148" 
d="M485 -14q-186 0 -290.5 116t-104.5 308q0 136 42.5 261t119 221t191.5 153t251 57q183 0 282.5 -111.5t92.5 -320.5h-88q0 348 -303 348q-111 0 -205.5 -50.5t-157.5 -134t-98 -190.5t-35 -221q0 -173 89 -262.5t235 -89.5q148 0 259 89.5t169 262.5h90
q-62 -212 -203.5 -324t-335.5 -112z" />
    <glyph glyph-name="d" unicode="d" horiz-adv-x="1191" 
d="M487 -14q-182 0 -289.5 113t-107.5 313q0 136 42 260.5t117.5 220t188 152.5t244.5 57q144 0 234 -77t112 -216l148 727h90l-312 -1536h-69l37 250q-69 -127 -181 -195.5t-254 -68.5zM504 70q112 0 205 52.5t151.5 139t90.5 193.5t32 221q0 159 -81.5 250.5t-225.5 91.5
q-105 0 -198 -50t-156 -132.5t-99.5 -190t-36.5 -221.5q0 -169 82 -261.5t236 -92.5z" />
    <glyph glyph-name="e" unicode="e" horiz-adv-x="1126" 
d="M485 -14q-185 0 -291 110.5t-106 302.5q0 135 41 261t115 224.5t187.5 158t248.5 59.5q198 0 295.5 -137t54.5 -387l-2 -13h-831q-24 -105 -14.5 -195.5t44 -157t104.5 -104.5t167 -38q146 0 244.5 72t150.5 198h92q-65 -179 -195 -266.5t-305 -87.5zM217 643h727
q8 80 -3.5 146t-43 118t-91 81.5t-142.5 29.5q-158 0 -275.5 -105t-171.5 -270z" />
    <glyph glyph-name="f" unicode="f" horiz-adv-x="786" 
d="M248 0h-90l204 1006h-221l17 79h221l31 152q31 154 107 226.5t235 72.5h227l-16 -80h-228q-100 0 -156 -52t-79 -167l-31 -152h391l-16 -79h-391z" />
    <glyph glyph-name="g" unicode="g" horiz-adv-x="1210" 
d="M406 -426q-179 0 -284.5 94t-72.5 266h88q-25 -137 55 -206.5t230 -69.5q174 0 291 87t151 267l47 252q-68 -115 -180 -176t-248 -61q-182 0 -285.5 106t-103.5 301q0 130 40 249.5t112.5 213t183.5 149.5t244 56q139 0 231 -73t119 -198l61 254h72l-203 -1075
q-81 -436 -548 -436zM504 109q140 0 249.5 81.5t165.5 209t56 274.5q0 159 -82.5 251.5t-224.5 92.5q-110 0 -202.5 -48.5t-152.5 -129t-93.5 -181.5t-33.5 -208q0 -166 81.5 -254t236.5 -88z" />
    <glyph glyph-name="h" unicode="h" horiz-adv-x="1132" 
d="M145 0h-90l312 1536h90l-133 -657q72 103 183.5 163t235.5 60q171 0 247 -110t38 -298l-141 -694h-90l139 688q32 157 -21.5 243.5t-197.5 86.5q-158 0 -282 -103.5t-159 -271.5z" />
    <glyph glyph-name="i" unicode="i" horiz-adv-x="380" 
d="M369 1319q-40 0 -67 27t-26 67q0 39 27.5 65.5t67.5 26.5t66.5 -26.5t25.5 -65.5q-2 -40 -28.5 -67t-65.5 -27zM125 0h-90l221 1085h90z" />
    <glyph glyph-name="j" unicode="j" horiz-adv-x="385" 
d="M371 1319q-40 0 -66.5 27t-25.5 67q0 40 27 66t67 26t66.5 -26.5t25.5 -65.5q-2 -40 -28.5 -67t-65.5 -27zM-264 -410h-103l17 80h102q94 0 167.5 57.5t94.5 159.5l244 1198h90l-244 -1198q-29 -145 -123 -221t-245 -76z" />
    <glyph glyph-name="k" unicode="k" horiz-adv-x="1091" 
d="M145 0h-90l312 1536h90l-224 -1102l766 651h127l-477 -399l309 -686h-100l-278 629l-371 -312z" />
    <glyph glyph-name="l" unicode="l" horiz-adv-x="419" 
d="M145 0h-90l312 1536h90z" />
    <glyph glyph-name="m" unicode="m" horiz-adv-x="1798" 
d="M127 0h-90l221 1085h70l-35 -227q71 110 184.5 177t233.5 67q125 0 197.5 -70.5t78.5 -195.5q70 120 187 193t243 73q156 0 229.5 -105t39.5 -284l-134 -713h-90l133 707q27 143 -25 227t-181 84q-150 0 -271 -105t-153 -270l-121 -643h-88l133 707q27 143 -25.5 227
t-181.5 84q-148 0 -267 -104t-157 -269z" />
    <glyph glyph-name="n" unicode="n" horiz-adv-x="1114" 
d="M127 0h-90l221 1085h70l-33 -223q71 111 186 175.5t244 64.5q171 0 247 -110t38 -298l-142 -694h-90l140 688q32 157 -22 243.5t-198 86.5q-158 0 -281.5 -102.5t-158.5 -270.5z" />
    <glyph glyph-name="o" unicode="o" horiz-adv-x="1181" 
d="M485 -14q-186 0 -290.5 116t-104.5 308q0 136 42.5 261t119 221t191.5 153t251 57q181 0 289.5 -107t108.5 -313q0 -135 -42 -260t-118 -222t-192.5 -155.5t-254.5 -58.5zM506 70q110 0 204 51.5t156.5 136.5t97.5 194.5t35 225.5q0 162 -84 251t-237 89
q-111 0 -205.5 -50.5t-157.5 -134t-98 -190.5t-35 -221q0 -173 89 -262.5t235 -89.5z" />
    <glyph glyph-name="p" unicode="p" horiz-adv-x="1214" 
d="M49 -410h-90l303 1495h70l-37 -256q80 128 204.5 200.5t266.5 72.5q169 0 264.5 -109.5t95.5 -310.5q0 -128 -40.5 -252t-113 -223t-183 -160t-240.5 -61q-146 0 -240.5 75t-120.5 209zM551 70q85 0 161.5 34.5t133.5 94t99 137t63.5 165.5t21.5 177q0 160 -76 250
t-219 90q-148 0 -264 -86t-175.5 -221.5t-59.5 -290.5q0 -162 84 -256t231 -94z" />
    <glyph glyph-name="q" unicode="q" horiz-adv-x="1218" 
d="M872 -410h-90l131 646q-69 -121 -179 -185.5t-247 -64.5q-182 0 -289.5 113t-107.5 313q0 136 42 260.5t117.5 220t188 152.5t244.5 57q147 0 238 -81t110 -228l76 292h70zM504 70q112 0 205 52.5t151.5 139t90.5 193.5t32 221q0 159 -81.5 250.5t-225.5 91.5
q-105 0 -198 -50t-156 -132.5t-99.5 -190t-36.5 -221.5q0 -169 82 -261.5t236 -92.5z" />
    <glyph glyph-name="r" unicode="r" horiz-adv-x="700" 
d="M127 0h-90l221 1085h70l-37 -243q147 248 436 248h18l-20 -101h-18q-167 0 -289 -98t-166 -270z" />
    <glyph glyph-name="s" unicode="s" horiz-adv-x="978" 
d="M446 -14q-191 0 -296.5 90.5t-81.5 255.5h86q-17 -131 63.5 -197.5t233.5 -66.5q141 0 223 56t82 165q0 75 -42.5 116t-133.5 80l-162 70q-5 2 -16 7q-33 14 -50.5 22.5t-48 26t-47.5 35.5t-36 44t-27.5 59.5t-8.5 73.5q0 124 96.5 201.5t251.5 77.5q176 0 277.5 -86.5
t95.5 -257.5h-86q0 136 -77 199t-214 63q-117 0 -187.5 -51.5t-70.5 -139.5q0 -43 13.5 -75.5t44 -56.5t56.5 -37.5t73 -32.5l157 -66q56 -23 90.5 -42.5t69.5 -50t51.5 -73t16.5 -98.5q0 -148 -107 -229.5t-289 -81.5z" />
    <glyph glyph-name="t" unicode="t" horiz-adv-x="753" 
d="M549 0h-111q-137 0 -194 75.5t-27 223.5l143 707h-219l17 79h219l76 371h90l-76 -371h321l-16 -79h-321l-144 -707q-23 -114 12 -166.5t136 -52.5h110z" />
    <glyph glyph-name="u" unicode="u" horiz-adv-x="1116" 
d="M408 -14q-171 0 -257.5 104.5t-50.5 284.5l146 710h90l-146 -712q-28 -140 35.5 -221.5t206.5 -81.5q155 0 271 99t155 269l131 647h90l-221 -1085h-70l33 219q-66 -111 -171.5 -172t-241.5 -61z" />
    <glyph glyph-name="v" unicode="v" horiz-adv-x="1091" 
d="M483 0h-96l-231 1085h94l203 -970l596 970h108z" />
    <glyph glyph-name="w" unicode="w" horiz-adv-x="1472" 
d="M358 0h-102l-100 1085h90l86 -972l469 972h92l70 -964l477 964h98l-543 -1085h-100l-70 969z" />
    <glyph glyph-name="x" unicode="x" horiz-adv-x="1050" 
d="M70 0h-117l526 557l-274 528h100l240 -469l428 469h114l-499 -540l289 -545h-101l-254 485z" />
    <glyph glyph-name="y" unicode="y" horiz-adv-x="1067" 
d="M72 -410h-185l17 80h178q73 0 124 36.5t97 115.5l103 178h-41l-209 1085h92l194 -1019l586 1019h105l-760 -1321q-49 -88 -119 -131t-182 -43z" />
    <glyph glyph-name="z" unicode="z" horiz-adv-x="1013" 
d="M797 0h-801l16 80l867 924h-660l17 81h774l-17 -79l-866 -924h686z" />
    <glyph glyph-name="braceleft" unicode="{" horiz-adv-x="739" 
d="M508 -262h-148q-131 0 -181.5 75.5t-22.5 213.5l82 403q17 81 -20.5 129.5t-115.5 48.5l19 90q78 0 135 53.5t76 143.5l78 379q31 148 103.5 219.5t213.5 71.5h154l-15 -70h-149q-176 0 -221 -221l-78 -379q-22 -103 -87.5 -170t-152.5 -74q85 -8 125 -67.5t21 -153.5
l-82 -403q-23 -110 7 -165t124 -55h149z" />
    <glyph glyph-name="bar" unicode="|" horiz-adv-x="516" 
d="M147 -236h-94l361 1772h94z" />
    <glyph glyph-name="braceright" unicode="}" horiz-adv-x="741" 
d="M59 -262h-153l14 69h150q174 0 219 220l82 403q20 95 84 157.5t151 69.5q-84 7 -121.5 73.5t-17.5 164.5l76 379q16 75 13.5 124t-37 73t-107.5 24h-150l14 70h154q136 0 182.5 -73t16.5 -218l-76 -379q-19 -89 17 -143t114 -54l-18 -90q-78 0 -135 -48t-74 -130
l-82 -403q-30 -146 -99.5 -217.5t-216.5 -71.5z" />
    <glyph glyph-name="asciitilde" unicode="~" horiz-adv-x="1169" 
d="M819 426q-50 0 -96 19t-80 48t-69.5 62t-65 62t-67.5 48t-76 19q-68 0 -116.5 -57t-70.5 -164h-80q27 145 99.5 223t169.5 78q41 0 78.5 -14t67.5 -37t59 -50.5t57.5 -55t57 -50.5t63 -37t71.5 -14q74 0 122 56t69 159h78q-22 -144 -96 -219.5t-175 -75.5z" />
    <glyph glyph-name="exclamdown" unicode="&#xa1;" horiz-adv-x="473" 
d="M332 907q-41 0 -70 28t-29 69t29 69.5t70 28.5t68.5 -28.5t27.5 -69.5t-27.5 -69t-68.5 -28zM78 -449h-90l248 1225h90z" />
    <glyph glyph-name="cent" unicode="&#xa2;" horiz-adv-x="1148" 
d="M498 -104h-76l53 264q-165 13 -257.5 127t-92.5 295q0 106 25.5 206.5t75.5 186.5t119 151.5t161 104.5t196 43l52 246h75l-51 -248q161 -15 247 -125.5t79 -304.5h-88q0 320 -254 346l-193 -946q138 9 241.5 98.5t158.5 253.5h90q-59 -203 -192 -315t-316 -121zM494 244
l192 946q-139 -8 -248 -95.5t-165 -219.5t-56 -281q0 -159 75 -247.5t202 -102.5z" />
    <glyph glyph-name="sterling" unicode="&#xa3;" horiz-adv-x="1243" 
d="M723 0h-721l18 86q145 0 245 109t100 262q0 83 -31 188h-201l17 82h161q-41 156 -41 240q0 215 140.5 348t369.5 133q197 0 295.5 -107.5t77.5 -328.5h-88q13 185 -61 267.5t-226 82.5q-186 0 -299.5 -107.5t-113.5 -277.5q0 -90 45 -250h456l-16 -82h-418
q27 -114 27 -180q0 -126 -69 -233.5t-175 -145.5h524q82 0 146 40.5t80 125.5l43 221h94l-45 -221q-27 -129 -114 -190.5t-220 -61.5z" />
    <glyph glyph-name="currency" unicode="&#xa4;" horiz-adv-x="1148" 
d="M299 350l-213 -178l-49 49l223 189q-29 66 -29 143q0 188 123 317l-143 179l59 47l140 -176q111 81 254 81q144 0 221 -86l213 179l51 -52l-225 -186q30 -64 30 -156q0 -184 -112 -305l135 -170l-59 -47l-132 166q-109 -82 -260 -82q-148 0 -227 88zM539 338
q149 0 240 105.5t91 250.5q0 110 -57.5 171t-163.5 61q-148 0 -241 -107t-93 -258q0 -103 59.5 -163t164.5 -60z" />
    <glyph glyph-name="yen" unicode="&#xa5;" horiz-adv-x="1265" 
d="M567 0h-92l62 297h-418l14 70h416l41 196h-418l14 70h418l-381 801h101l338 -711l624 711h121l-711 -801h422l-14 -70h-422l-41 -196h424l-14 -70h-422z" />
    <glyph glyph-name="brokenbar" unicode="&#xa6;" horiz-adv-x="518" 
d="M350 758h-94l158 778h94zM147 -236h-94l158 779h94z" />
    <glyph glyph-name="section" unicode="&#xa7;" horiz-adv-x="1183" 
d="M465 -178q-182 0 -279.5 87t-74.5 249h86q-13 -127 57.5 -190.5t218.5 -63.5q145 0 236.5 59t91.5 168q0 74 -41.5 112.5t-134.5 78.5l-162 69q-9 4 -37.5 16t-41 17.5t-38 19t-38 24.5t-30.5 29.5t-27 37.5t-15.5 45.5t-6.5 56.5q0 99 77.5 172t209.5 119q-37 16 -63 32
t-52.5 41.5t-40.5 62t-14 83.5q0 135 108 218t277 83q105 0 180.5 -34t118.5 -110.5t37 -189.5h-86q0 252 -254 252q-130 0 -212.5 -57.5t-82.5 -155.5q0 -30 10 -55t21.5 -40t39 -31.5t44 -23.5t54.5 -23q11 -5 17 -7l158 -66q46 -19 73.5 -32.5t60.5 -35.5t51 -46
t30.5 -59t12.5 -79q0 -99 -67.5 -178t-180.5 -125q64 -35 97.5 -84t33.5 -127q0 -149 -116.5 -234t-305.5 -85zM502 463l205 -86q96 44 153.5 112t57.5 152q0 32 -9 57.5t-22.5 43t-39 35t-47 28t-59.5 26.5l-170 74q-256 -98 -256 -262q0 -37 12.5 -65t38.5 -47t51.5 -31.5
t66.5 -29.5q12 -4 18 -7z" />
    <glyph glyph-name="dieresis" unicode="&#xa8;" horiz-adv-x="786" 
d="M360 1294q-41 0 -67.5 27.5t-26.5 69.5q0 40 26.5 67t67.5 27q40 0 67.5 -27t27.5 -67q0 -41 -27.5 -69t-67.5 -28zM770 1294q-41 0 -67.5 27.5t-26.5 69.5q0 40 26.5 67t67.5 27q40 0 67 -27t27 -67q0 -41 -27 -69t-67 -28z" />
    <glyph glyph-name="copyright" unicode="&#xa9;" horiz-adv-x="1771" 
d="M780 -59q-287 0 -457.5 166t-170.5 456q0 188 68 360.5t186.5 300.5t291 204.5t369.5 76.5q292 0 458.5 -165.5t166.5 -460.5q0 -125 -29 -244t-83 -222.5t-135 -190.5t-180.5 -149.5t-223.5 -97t-261 -34.5zM784 25q142 0 271 44t228 123.5t172 184.5t111 232.5
t38 262.5q0 254 -142.5 401.5t-402.5 147.5q-173 0 -327 -70t-261 -186.5t-169 -270.5t-62 -319q0 -255 143.5 -402.5t400.5 -147.5zM877 338q-130 0 -209.5 81.5t-79.5 223.5q0 121 52.5 227t151 172t220.5 66q134 0 204 -79t60 -220h-80q5 106 -45.5 164.5t-149.5 58.5
q-92 0 -168 -56t-117.5 -143t-41.5 -182q0 -110 57 -172.5t156 -62.5q91 0 164.5 58t109.5 167h82q-39 -145 -139 -224t-227 -79z" />
    <glyph glyph-name="ordfeminine" unicode="&#xaa;" horiz-adv-x="909" 
d="M420 645q-114 0 -182 55.5t-68 151.5q0 52 17.5 91.5t45.5 64t72 42.5t86.5 26.5t100.5 15.5q22 3 64.5 7.5t61 7t49 8t45 12t32 16.5t26 24t12.5 33q16 78 -35 127t-163 49q-101 0 -171.5 -46.5t-95.5 -129.5h-77q31 117 124.5 182.5t229.5 65.5q145 0 214.5 -77
t43.5 -210l-66 -327q-11 -56 2 -83.5t64 -27.5h27l-15 -70h-26q-83 0 -115 52q-19 28 -16 86q-100 -146 -287 -146zM430 717q129 0 205.5 69t107.5 213l19 88q-13 -14 -31 -24t-48.5 -16.5t-47.5 -9t-61.5 -7t-57.5 -6.5q-52 -5 -88 -11.5t-72.5 -18.5t-58.5 -29.5
t-35.5 -45.5t-13.5 -65q0 -60 48.5 -98.5t133.5 -38.5z" />
    <glyph glyph-name="guillemotleft" unicode="&#xab;" horiz-adv-x="1114" 
d="M522 141l-67 -59l-351 440l21 99l534 444l64 -64l-537 -442zM920 141l-68 -59l-350 440l20 99l535 444l63 -64l-536 -442z" />
    <glyph glyph-name="logicalnot" unicode="&#xac;" horiz-adv-x="1157" 
d="M911 35h-84l107 526h-821l16 80h905z" />
    <glyph glyph-name="registered" unicode="&#xae;" horiz-adv-x="1241" 
d="M612 438q-195 0 -313.5 113.5t-118.5 308.5q0 180 80.5 328t226 234.5t326.5 86.5q193 0 307.5 -114t114.5 -314q0 -176 -76.5 -322t-220 -233.5t-326.5 -87.5zM623 512q156 0 278.5 79.5t186 208t63.5 279.5q0 162 -93.5 259.5t-258.5 97.5q-151 0 -275 -78.5t-192 -208
t-68 -279.5q0 -165 95.5 -261.5t263.5 -96.5zM545 713h-78l102 504h250q60 0 93.5 -30.5t33.5 -84.5q0 -52 -33.5 -93.5t-87.5 -58.5q51 -12 54 -55l18 -182h-74l-16 168q-1 15 -13 23.5t-30 8.5h-178zM633 1145l-33 -162h176q38 0 65 30t27 70q0 28 -15 45t-46 17h-174z
" />
    <glyph glyph-name="macron" unicode="&#xaf;" horiz-adv-x="831" 
d="M924 1350h-688l16 80h688z" />
    <glyph glyph-name="degree" unicode="&#xb0;" horiz-adv-x="751" 
d="M455 836q-114 0 -183 66t-69 179q0 139 97 234.5t241 95.5q116 0 179.5 -66.5t63.5 -179.5q0 -139 -92.5 -234t-236.5 -95zM467 905q105 0 171.5 72.5t66.5 177.5q0 86 -47.5 136t-129.5 50q-101 0 -173 -73t-72 -178q0 -84 48.5 -134.5t135.5 -50.5z" />
    <glyph glyph-name="plusminus" unicode="&#xb1;" horiz-adv-x="1206" 
d="M600 315h-84l70 342h-447l17 80h446l70 342h84l-70 -342h444l-16 -80h-444zM999 100h-974l16 80h975z" />
    <glyph glyph-name="uni00B2" unicode="&#xb2;" horiz-adv-x="763" 
d="M725 860h-522l14 70q16 79 71 140t122.5 99.5t134.5 73.5t117.5 79.5t60.5 98.5q14 75 -24 119.5t-121 44.5q-89 0 -145 -48t-71 -136h-73q20 121 97 188.5t196 67.5q116 0 177 -67t38 -179q-10 -48 -39.5 -88.5t-70.5 -70.5t-89 -57t-96.5 -54.5t-90.5 -57.5t-74 -70.5
t-44 -88.5h444z" />
    <glyph glyph-name="uni00B3" unicode="&#xb3;" horiz-adv-x="741" 
d="M463 844q-132 0 -201.5 70t-52.5 194h76q-18 -195 184 -195q86 0 144.5 48.5t58.5 130.5q0 60 -38 95.5t-104 35.5h-110l16 77h103q76 0 128 44.5t52 115.5q0 58 -38 92.5t-106 34.5q-71 0 -127 -41.5t-83 -132.5h-80q33 119 113 181.5t184 62.5q96 0 154.5 -50
t58.5 -132q0 -77 -49 -134t-132 -77q62 -15 99 -61t37 -111q0 -109 -80 -178.5t-207 -69.5z" />
    <glyph glyph-name="acute" unicode="&#xb4;" horiz-adv-x="729" 
d="M891 1657l-612 -420l-60 63l612 420z" />
    <glyph glyph-name="paragraph" unicode="&#xb6;" horiz-adv-x="1222" 
d="M543 -211h-80l170 832h-90q-173 0 -263 92.5t-90 236.5q0 92 34.5 178.5t97 155t159.5 109.5t213 41h500l-336 -1645h-80l324 1583h-236z" />
    <glyph glyph-name="periodcentered" unicode="&#xb7;" horiz-adv-x="509" 
d="M272 524q-41 0 -69.5 28t-28.5 69t28.5 69.5t69.5 28.5t69 -28.5t28 -69.5t-28 -69t-69 -28z" />
    <glyph glyph-name="cedilla" unicode="&#xb8;" horiz-adv-x="296" 
d="M121 0l-158 -403l-86 16l158 403z" />
    <glyph glyph-name="uni00B9" unicode="&#xb9;" horiz-adv-x="544" 
d="M418 860h-80l127 625q-54 -78 -174 -78h-43l16 82h43q77 0 126.5 36.5t62.5 104.5l2 10h80z" />
    <glyph glyph-name="ordmasculine" unicode="&#xba;" horiz-adv-x="897" 
d="M473 637q-137 0 -214 84.5t-77 224.5q0 132 53 245.5t157 185t237 71.5t212 -77.5t79 -227.5q0 -132 -52 -246t-156 -187t-239 -73zM492 709q77 0 143.5 36.5t110.5 96.5t69 137.5t25 159.5q0 114 -60.5 175.5t-169.5 61.5q-103 0 -184.5 -61t-122.5 -156t-41 -203
q0 -124 62 -185.5t168 -61.5z" />
    <glyph glyph-name="guillemotright" unicode="&#xbb;" horiz-adv-x="1114" 
d="M602 522l-530 -440l-60 63l531 437l-344 424l69 59l355 -444zM1001 522l-530 -440l-59 63l530 437l-344 424l70 59l354 -444z" />
    <glyph glyph-name="onequarter" unicode="&#xbc;" horiz-adv-x="1550" 
d="M1491 1454l-1350 -1505l-82 37l1350 1505zM375 653h-80l127 625q-54 -78 -174 -78h-43l16 82h43q77 0 126.5 36.5t62.5 104.5l2 11h80zM1235 0h-80l41 197h-389l16 79l490 504h82l-105 -514h146l-15 -69h-145zM1288 659l-381 -393h303z" />
    <glyph glyph-name="onehalf" unicode="&#xbd;" horiz-adv-x="1695" 
d="M1491 1454l-1350 -1505l-82 37l1350 1505zM375 653h-80l127 625q-54 -78 -174 -78h-43l16 82h43q77 0 126.5 36.5t62.5 104.5l2 11h80zM1479 -12h-523l15 69q14 67 55.5 121.5t93.5 88.5t112 68t110.5 61.5t88 67t46.5 85.5q14 75 -24.5 119.5t-121.5 44.5
q-89 0 -144.5 -48.5t-70.5 -136.5h-74q20 121 97 188.5t196 67.5q116 0 177 -66.5t38 -178.5q-13 -65 -64 -117.5t-117 -89.5t-132.5 -74t-120 -89.5t-69.5 -117.5h444z" />
    <glyph glyph-name="threequarters" unicode="&#xbe;" horiz-adv-x="1767" 
d="M1708 1454l-1350 -1505l-82 37l1350 1505zM422 637q-132 0 -201.5 70t-52.5 194h76q-18 -194 184 -194q87 0 145 48t58 130q0 60 -38 95.5t-104 35.5h-110l16 78h103q77 0 128.5 44t51.5 115q0 58 -37.5 92.5t-105.5 34.5q-71 0 -127.5 -41.5t-83.5 -132.5h-80
q33 119 113 181.5t184 62.5q96 0 154.5 -50t58.5 -132q0 -77 -49 -134t-132 -77q62 -15 99 -61t37 -111q0 -109 -80 -178.5t-207 -69.5zM1452 0h-80l41 197h-389l16 79l490 504h82l-105 -514h146l-15 -69h-145zM1505 659l-381 -393h303z" />
    <glyph glyph-name="questiondown" unicode="&#xbf;" horiz-adv-x="1083" 
d="M594 1102q41 0 69.5 -27.5t28.5 -68.5t-28.5 -70t-69.5 -29t-68.5 28.5t-27.5 70.5q0 41 27.5 68.5t68.5 27.5zM522 776h88l-12 -63q-16 -81 -49.5 -149.5t-75.5 -115.5t-89.5 -88.5t-94.5 -78t-86.5 -73t-69 -84.5t-39.5 -104q-24 -127 54 -210.5t237 -83.5
q161 0 269.5 91t146.5 285h96q-22 -120 -71 -210t-118.5 -144.5t-151.5 -81t-177 -26.5q-106 0 -187 32.5t-125.5 86.5t-61 123t-1.5 145q12 63 43 117t71.5 93.5t87.5 77t94.5 76.5t89 82.5t74 105t46.5 134.5z" />
    <glyph glyph-name="Agrave" unicode="&#xc0;" horiz-adv-x="1433" 
d="M1024 1608l-59 -62l-482 459l60 61zM70 0h-103l881 1434h96l301 -1434h-96l-98 473h-691zM877 1315l-467 -762h624z" />
    <glyph glyph-name="Aacute" unicode="&#xc1;" horiz-adv-x="1433" 
d="M1487 1964l-613 -420l-59 64l612 420zM70 0h-103l881 1434h96l301 -1434h-96l-98 473h-691zM877 1315l-467 -762h624z" />
    <glyph glyph-name="Acircumflex" unicode="&#xc2;" horiz-adv-x="1433" 
d="M995 1884l-403 -317l-60 55l429 334h79l293 -334l-59 -55zM70 0h-103l881 1434h96l301 -1434h-96l-98 473h-691zM877 1315l-467 -762h624z" />
    <glyph glyph-name="Atilde" unicode="&#xc3;" horiz-adv-x="1433" 
d="M1124 1620q-43 1 -82 18.5t-68.5 42.5t-57 49.5t-57.5 42t-60 17.5q-51 0 -86.5 -43.5t-44.5 -118.5h-84q13 110 71 175t142 65q40 0 77 -17.5t65.5 -42.5t56.5 -50t61 -42.5t67 -17.5q102 0 127 151h82q-12 -110 -65.5 -170t-143.5 -59zM70 0h-103l881 1434h96
l301 -1434h-96l-98 473h-691zM877 1315l-467 -762h624z" />
    <glyph glyph-name="Adieresis" unicode="&#xc4;" horiz-adv-x="1433" 
d="M745 1602q-41 0 -67.5 27.5t-26.5 68.5q0 40 26.5 67t67.5 27q40 0 67.5 -27t27.5 -67q0 -41 -27.5 -68.5t-67.5 -27.5zM1155 1602q-41 0 -67.5 27.5t-26.5 68.5q0 40 26.5 67t67.5 27q40 0 67 -27t27 -67q0 -41 -27 -68.5t-67 -27.5zM70 0h-103l881 1434h96l301 -1434
h-96l-98 473h-691zM877 1315l-467 -762h624z" />
    <glyph glyph-name="Aring" unicode="&#xc5;" horiz-adv-x="1433" 
d="M944 1556q-72 0 -121 46.5t-49 115.5t49 115.5t121 46.5t120 -46.5t48 -115.5t-48 -115.5t-120 -46.5zM944 1626q38 0 64 26t26 66t-26 66t-64 26q-40 0 -66 -26t-26 -66t26 -66t66 -26zM70 0h-103l881 1434h96l301 -1434h-96l-98 473h-691zM877 1315l-467 -762h624z" />
    <glyph glyph-name="AE" unicode="&#xc6;" horiz-adv-x="1929" 
d="M70 0h-103l832 1434h1183l-16 -82h-836l-112 -553h754l-17 -80h-754l-129 -637h854l-16 -82h-944l96 473h-518zM852 1352l-463 -799h490l161 799h-188z" />
    <glyph glyph-name="Ccedilla" unicode="&#xc7;" horiz-adv-x="1527" 
d="M944 1362q-155 0 -288.5 -67t-223 -179.5t-140 -259t-50.5 -305.5q0 -236 123 -357.5t331 -121.5q213 0 371 117.5t242 359.5h96q-91 -276 -264.5 -413t-411.5 -148l-151 -391l-86 16l145 375q-225 14 -358.5 160t-133.5 389q0 146 37 282.5t109 250t170 198.5t227 132.5
t273 47.5q251 0 383.5 -143.5t123.5 -419.5h-92q0 237 -104 357t-328 120z" />
    <glyph glyph-name="Egrave" unicode="&#xc8;" horiz-adv-x="1245" 
d="M958 1608l-59 -62l-481 459l59 61zM1026 0h-944l291 1434h925l-16 -82h-836l-112 -553h753l-16 -80h-754l-129 -637h854z" />
    <glyph glyph-name="Eacute" unicode="&#xc9;" horiz-adv-x="1245" 
d="M1421 1964l-612 -420l-59 64l612 420zM1026 0h-944l291 1434h925l-16 -82h-836l-112 -553h753l-16 -80h-754l-129 -637h854z" />
    <glyph glyph-name="Ecircumflex" unicode="&#xca;" horiz-adv-x="1245" 
d="M930 1884l-404 -317l-59 55l428 334h80l293 -334l-60 -55zM1026 0h-944l291 1434h925l-16 -82h-836l-112 -553h753l-16 -80h-754l-129 -637h854z" />
    <glyph glyph-name="Edieresis" unicode="&#xcb;" horiz-adv-x="1245" 
d="M680 1602q-41 0 -67.5 27.5t-26.5 68.5q0 40 26.5 67t67.5 27q40 0 67 -27t27 -67q0 -41 -27 -68.5t-67 -27.5zM1090 1602q-41 0 -68 27.5t-27 68.5q0 40 27 67t68 27q40 0 67 -27t27 -67q0 -41 -27 -68.5t-67 -27.5zM1026 0h-944l291 1434h925l-16 -82h-836l-112 -553
h753l-16 -80h-754l-129 -637h854z" />
    <glyph glyph-name="Igrave" unicode="&#xcc;" horiz-adv-x="475" 
d="M547 1608l-60 -62l-481 459l60 61zM174 0h-92l291 1434h92z" />
    <glyph glyph-name="Iacute" unicode="&#xcd;" horiz-adv-x="475" 
d="M1010 1964l-613 -420l-59 64l612 420zM174 0h-92l291 1434h92z" />
    <glyph glyph-name="Icircumflex" unicode="&#xce;" horiz-adv-x="475" 
d="M518 1884l-403 -317l-60 55l428 334h80l293 -334l-59 -55zM174 0h-92l291 1434h92z" />
    <glyph glyph-name="Idieresis" unicode="&#xcf;" horiz-adv-x="475" 
d="M268 1602q-41 0 -67.5 27.5t-26.5 68.5q0 40 26.5 67t67.5 27q40 0 67 -27t27 -67q0 -41 -27 -68.5t-67 -27.5zM678 1602q-41 0 -67.5 27.5t-26.5 68.5q0 40 26.5 67t67.5 27q40 0 67 -27t27 -67q0 -41 -27 -68.5t-67 -27.5zM174 0h-92l291 1434h92z" />
    <glyph glyph-name="Eth" unicode="&#xd0;" horiz-adv-x="1486" 
d="M629 0h-506l139 684h-221l16 80h222l135 670h489q240 0 376 -135t136 -379q0 -141 -33 -275t-99.5 -251t-159 -205t-220 -138.5t-274.5 -50.5zM352 684l-123 -602h398q154 0 286 69.5t219.5 185.5t137 265.5t49.5 310.5q0 207 -112.5 323t-313.5 116h-406l-118 -588h526
l-16 -80h-527z" />
    <glyph glyph-name="Ntilde" unicode="&#xd1;" horiz-adv-x="1497" 
d="M1157 1620q-43 1 -82 18.5t-68.5 42.5t-57 49.5t-58 42t-60.5 17.5q-51 0 -86.5 -43.5t-44.5 -118.5h-84q13 110 71 175t142 65q40 0 77 -17.5t66 -42.5t56.5 -50t61 -42.5t67.5 -17.5q102 0 127 151h82q-12 -110 -65.5 -170t-143.5 -59zM172 0h-90l291 1434h106
l651 -1315l267 1315h90l-291 -1434h-106l-652 1317z" />
    <glyph glyph-name="Ograve" unicode="&#xd2;" horiz-adv-x="1546" 
d="M1075 1608l-59 -62l-481 459l59 61zM674 -14q-246 0 -386.5 146.5t-140.5 406.5q0 255 104.5 463.5t288.5 327t410 118.5q245 0 381.5 -149.5t136.5 -417.5q0 -133 -31.5 -260.5t-97 -242.5t-158 -202.5t-223.5 -138.5t-284 -51zM684 72q130 0 242.5 46t193.5 124.5
t139 181.5t86.5 219t28.5 236q0 230 -114 356.5t-328 126.5q-141 0 -268 -62t-220 -169t-147.5 -258.5t-54.5 -321.5q0 -227 115 -353t327 -126z" />
    <glyph glyph-name="Oacute" unicode="&#xd3;" horiz-adv-x="1546" 
d="M1538 1964l-612 -420l-60 64l613 420zM674 -14q-246 0 -386.5 146.5t-140.5 406.5q0 255 104.5 463.5t288.5 327t410 118.5q245 0 381.5 -149.5t136.5 -417.5q0 -133 -31.5 -260.5t-97 -242.5t-158 -202.5t-223.5 -138.5t-284 -51zM684 72q130 0 242.5 46t193.5 124.5
t139 181.5t86.5 219t28.5 236q0 230 -114 356.5t-328 126.5q-141 0 -268 -62t-220 -169t-147.5 -258.5t-54.5 -321.5q0 -227 115 -353t327 -126z" />
    <glyph glyph-name="Ocircumflex" unicode="&#xd4;" horiz-adv-x="1546" 
d="M1047 1884l-404 -317l-59 55l428 334h80l292 -334l-59 -55zM674 -14q-246 0 -386.5 146.5t-140.5 406.5q0 255 104.5 463.5t288.5 327t410 118.5q245 0 381.5 -149.5t136.5 -417.5q0 -133 -31.5 -260.5t-97 -242.5t-158 -202.5t-223.5 -138.5t-284 -51zM684 72
q130 0 242.5 46t193.5 124.5t139 181.5t86.5 219t28.5 236q0 230 -114 356.5t-328 126.5q-141 0 -268 -62t-220 -169t-147.5 -258.5t-54.5 -321.5q0 -227 115 -353t327 -126z" />
    <glyph glyph-name="Otilde" unicode="&#xd5;" horiz-adv-x="1546" 
d="M1176 1620q-43 1 -82 18.5t-68.5 42.5t-57 49.5t-58 42t-60.5 17.5q-51 0 -86.5 -43.5t-44.5 -118.5h-84q13 110 71 175t142 65q40 0 77 -17.5t66 -42.5t56.5 -50t61 -42.5t67.5 -17.5q102 0 127 151h81q-12 -110 -65.5 -170t-142.5 -59zM674 -14q-246 0 -386.5 146.5
t-140.5 406.5q0 255 104.5 463.5t288.5 327t410 118.5q245 0 381.5 -149.5t136.5 -417.5q0 -133 -31.5 -260.5t-97 -242.5t-158 -202.5t-223.5 -138.5t-284 -51zM684 72q130 0 242.5 46t193.5 124.5t139 181.5t86.5 219t28.5 236q0 230 -114 356.5t-328 126.5
q-141 0 -268 -62t-220 -169t-147.5 -258.5t-54.5 -321.5q0 -227 115 -353t327 -126z" />
    <glyph glyph-name="Odieresis" unicode="&#xd6;" horiz-adv-x="1546" 
d="M797 1602q-41 0 -68 27.5t-27 68.5q0 40 27 67t68 27q40 0 67 -27t27 -67q0 -41 -27 -68.5t-67 -27.5zM1206 1602q-41 0 -67.5 27.5t-26.5 68.5q0 40 26.5 67t67.5 27q40 0 67 -27t27 -67q0 -41 -27 -68.5t-67 -27.5zM674 -14q-246 0 -386.5 146.5t-140.5 406.5
q0 255 104.5 463.5t288.5 327t410 118.5q245 0 381.5 -149.5t136.5 -417.5q0 -133 -31.5 -260.5t-97 -242.5t-158 -202.5t-223.5 -138.5t-284 -51zM684 72q130 0 242.5 46t193.5 124.5t139 181.5t86.5 219t28.5 236q0 230 -114 356.5t-328 126.5q-141 0 -268 -62t-220 -169
t-147.5 -258.5t-54.5 -321.5q0 -227 115 -353t327 -126z" />
    <glyph glyph-name="multiply" unicode="&#xd7;" horiz-adv-x="1040" 
d="M518 530l-434 -362l-53 55l440 367l-289 362l64 58l291 -367l438 365l53 -56l-442 -368l284 -359l-63 -57z" />
    <glyph glyph-name="Oslash" unicode="&#xd8;" horiz-adv-x="1548" 
d="M1571 1540l63 -51l-254 -256q88 -139 88 -352q0 -133 -31.5 -260.5t-97 -242.5t-158 -202.5t-223.5 -138.5t-284 -51q-246 0 -385 145l-240 -242l-65 52l254 256q-91 136 -91 342q0 255 104.5 463.5t288.5 327t410 118.5q246 0 381 -150zM242 551q0 -170 65 -285l957 965
q-113 131 -332 131q-141 0 -268 -62t-220 -169t-147.5 -258.5t-54.5 -321.5zM1374 879q0 173 -63 284l-955 -964q115 -127 328 -127q130 0 242.5 46t193.5 124.5t139 181.5t86.5 219t28.5 236z" />
    <glyph glyph-name="Ugrave" unicode="&#xd9;" horiz-adv-x="1406" 
d="M1012 1608l-60 -62l-481 459l59 61zM592 -14q-108 0 -196 30t-149 87t-84.5 147t-0.5 203l198 981h93l-199 -977q-38 -184 58.5 -283.5t295.5 -99.5q198 0 335.5 98t176.5 287l197 975h92l-199 -981q-46 -232 -209 -349.5t-409 -117.5z" />
    <glyph glyph-name="Uacute" unicode="&#xda;" horiz-adv-x="1406" 
d="M1475 1964l-613 -420l-59 64l612 420zM592 -14q-108 0 -196 30t-149 87t-84.5 147t-0.5 203l198 981h93l-199 -977q-38 -184 58.5 -283.5t295.5 -99.5q198 0 335.5 98t176.5 287l197 975h92l-199 -981q-46 -232 -209 -349.5t-409 -117.5z" />
    <glyph glyph-name="Ucircumflex" unicode="&#xdb;" horiz-adv-x="1406" 
d="M983 1884l-403 -317l-60 55l428 334h80l293 -334l-59 -55zM592 -14q-108 0 -196 30t-149 87t-84.5 147t-0.5 203l198 981h93l-199 -977q-38 -184 58.5 -283.5t295.5 -99.5q198 0 335.5 98t176.5 287l197 975h92l-199 -981q-46 -232 -209 -349.5t-409 -117.5z" />
    <glyph glyph-name="Udieresis" unicode="&#xdc;" horiz-adv-x="1406" 
d="M733 1602q-41 0 -67.5 27.5t-26.5 68.5q0 40 26.5 67t67.5 27q40 0 67 -27t27 -67q0 -41 -27 -68.5t-67 -27.5zM1143 1602q-41 0 -67.5 27.5t-26.5 68.5q0 40 26.5 67t67.5 27q40 0 67 -27t27 -67q0 -41 -27 -68.5t-67 -27.5zM592 -14q-108 0 -196 30t-149 87t-84.5 147
t-0.5 203l198 981h93l-199 -977q-38 -184 58.5 -283.5t295.5 -99.5q198 0 335.5 98t176.5 287l197 975h92l-199 -981q-46 -232 -209 -349.5t-409 -117.5z" />
    <glyph glyph-name="Yacute" unicode="&#xdd;" horiz-adv-x="1265" 
d="M1395 1964l-613 -420l-59 64l612 420zM567 0h-92l129 633l-381 801h101l338 -711l624 711h121l-711 -801z" />
    <glyph glyph-name="Thorn" unicode="&#xde;" horiz-adv-x="1370" 
d="M172 0h-90l291 1434h90l-62 -304h570q151 0 244.5 -88.5t93.5 -257.5q0 -95 -31 -182t-91 -157t-159 -112t-223 -42h-574zM385 1049l-137 -676h575q97 0 174 36t122.5 96t69 130.5t23.5 146.5q0 127 -70 197t-186 70h-571z" />
    <glyph glyph-name="germandbls" unicode="&#xdf;" horiz-adv-x="1179" 
d="M557 -14q-103 0 -209 32l17 84q101 -34 198 -34q172 -2 281.5 101t109.5 267q0 131 -75.5 201t-214.5 70h-111l16 77h109q155 0 255.5 97.5t100.5 238.5q0 114 -76.5 178t-212.5 64q-154 0 -256.5 -82t-136.5 -248l-211 -1032h-86l211 1042q40 202 168 304t318 102
q177 0 273.5 -85t96.5 -230q0 -142 -90 -248.5t-241 -141.5q120 -27 186.5 -107.5t66.5 -209.5q0 -195 -136.5 -318.5t-350.5 -121.5z" />
    <glyph glyph-name="agrave" unicode="&#xe0;" horiz-adv-x="1136" 
d="M774 1298l-59 -61l-482 459l60 61zM401 -10q-153 0 -246.5 76.5t-93.5 207.5q0 60 15.5 108.5t47 82t69.5 58t92 41t105 26.5t118 18q31 4 78.5 9t74 8t64 8.5t58.5 11.5t46 15.5t39 21t25.5 28.5t15.5 38q24 117 -52.5 194.5t-231.5 77.5q-131 0 -235 -63.5t-140 -196.5
h-90q41 170 172 256t305 86q189 0 289.5 -105t64.5 -284l-102 -504q-13 -65 3 -97t79 -32h43l-17 -80h-41q-78 0 -117.5 38t-39.5 107q0 36 8 72q-136 -227 -406 -227zM416 72q355 0 442 420l29 137q-11 -15 -28 -27.5t-41 -21t-44.5 -14.5t-54.5 -11t-55.5 -7.5t-62.5 -6.5
t-60 -6q-74 -8 -123 -16.5t-104.5 -27t-88 -44t-54 -68.5t-21.5 -100q0 -94 72.5 -150.5t193.5 -56.5z" />
    <glyph glyph-name="aacute" unicode="&#xe1;" horiz-adv-x="1136" 
d="M1237 1657l-612 -420l-60 63l613 420zM401 -10q-153 0 -246.5 76.5t-93.5 207.5q0 60 15.5 108.5t47 82t69.5 58t92 41t105 26.5t118 18q31 4 78.5 9t74 8t64 8.5t58.5 11.5t46 15.5t39 21t25.5 28.5t15.5 38q24 117 -52.5 194.5t-231.5 77.5q-131 0 -235 -63.5
t-140 -196.5h-90q41 170 172 256t305 86q189 0 289.5 -105t64.5 -284l-102 -504q-13 -65 3 -97t79 -32h43l-17 -80h-41q-78 0 -117.5 38t-39.5 107q0 36 8 72q-136 -227 -406 -227zM416 72q355 0 442 420l29 137q-11 -15 -28 -27.5t-41 -21t-44.5 -14.5t-54.5 -11
t-55.5 -7.5t-62.5 -6.5t-60 -6q-74 -8 -123 -16.5t-104.5 -27t-88 -44t-54 -68.5t-21.5 -100q0 -94 72.5 -150.5t193.5 -56.5z" />
    <glyph glyph-name="acircumflex" unicode="&#xe2;" horiz-adv-x="1136" 
d="M750 1577l-431 -338l-59 55l455 355h80l317 -365l-68 -45zM401 -10q-153 0 -246.5 76.5t-93.5 207.5q0 60 15.5 108.5t47 82t69.5 58t92 41t105 26.5t118 18q31 4 78.5 9t74 8t64 8.5t58.5 11.5t46 15.5t39 21t25.5 28.5t15.5 38q24 117 -52.5 194.5t-231.5 77.5
q-131 0 -235 -63.5t-140 -196.5h-90q41 170 172 256t305 86q189 0 289.5 -105t64.5 -284l-102 -504q-13 -65 3 -97t79 -32h43l-17 -80h-41q-78 0 -117.5 38t-39.5 107q0 36 8 72q-136 -227 -406 -227zM416 72q355 0 442 420l29 137q-11 -15 -28 -27.5t-41 -21t-44.5 -14.5
t-54.5 -11t-55.5 -7.5t-62.5 -6.5t-60 -6q-74 -8 -123 -16.5t-104.5 -27t-88 -44t-54 -68.5t-21.5 -100q0 -94 72.5 -150.5t193.5 -56.5z" />
    <glyph glyph-name="atilde" unicode="&#xe3;" horiz-adv-x="1136" 
d="M879 1333q-43 1 -82 18.5t-68.5 42.5t-57 49.5t-58 42t-60.5 17.5q-51 0 -86.5 -43.5t-44.5 -118.5h-84q13 110 71 175t142 65q40 0 77 -17.5t66 -42.5t56.5 -50t61 -42.5t67.5 -17.5q105 0 127 152h81q-12 -111 -65.5 -171t-142.5 -59zM401 -10q-153 0 -246.5 76.5
t-93.5 207.5q0 60 15.5 108.5t47 82t69.5 58t92 41t105 26.5t118 18q31 4 78.5 9t74 8t64 8.5t58.5 11.5t46 15.5t39 21t25.5 28.5t15.5 38q24 117 -52.5 194.5t-231.5 77.5q-131 0 -235 -63.5t-140 -196.5h-90q41 170 172 256t305 86q189 0 289.5 -105t64.5 -284l-102 -504
q-13 -65 3 -97t79 -32h43l-17 -80h-41q-78 0 -117.5 38t-39.5 107q0 36 8 72q-136 -227 -406 -227zM416 72q355 0 442 420l29 137q-11 -15 -28 -27.5t-41 -21t-44.5 -14.5t-54.5 -11t-55.5 -7.5t-62.5 -6.5t-60 -6q-74 -8 -123 -16.5t-104.5 -27t-88 -44t-54 -68.5
t-21.5 -100q0 -94 72.5 -150.5t193.5 -56.5z" />
    <glyph glyph-name="adieresis" unicode="&#xe4;" horiz-adv-x="1136" 
d="M496 1294q-41 0 -68 28t-27 69q0 40 27 67t68 27q40 0 67 -27t27 -67q0 -41 -27 -69t-67 -28zM905 1294q-41 0 -67.5 27.5t-26.5 69.5q0 40 26.5 67t67.5 27q40 0 67 -27t27 -67q0 -41 -27 -69t-67 -28zM401 -10q-153 0 -246.5 76.5t-93.5 207.5q0 60 15.5 108.5t47 82
t69.5 58t92 41t105 26.5t118 18q31 4 78.5 9t74 8t64 8.5t58.5 11.5t46 15.5t39 21t25.5 28.5t15.5 38q24 117 -52.5 194.5t-231.5 77.5q-131 0 -235 -63.5t-140 -196.5h-90q41 170 172 256t305 86q189 0 289.5 -105t64.5 -284l-102 -504q-13 -65 3 -97t79 -32h43l-17 -80
h-41q-78 0 -117.5 38t-39.5 107q0 36 8 72q-136 -227 -406 -227zM416 72q355 0 442 420l29 137q-11 -15 -28 -27.5t-41 -21t-44.5 -14.5t-54.5 -11t-55.5 -7.5t-62.5 -6.5t-60 -6q-74 -8 -123 -16.5t-104.5 -27t-88 -44t-54 -68.5t-21.5 -100q0 -94 72.5 -150.5t193.5 -56.5
z" />
    <glyph glyph-name="aring" unicode="&#xe5;" horiz-adv-x="1136" 
d="M700 1229q-72 0 -121 46.5t-49 115.5t49 115t121 46t120 -46t48 -115t-48 -115.5t-120 -46.5zM700 1298q38 0 64.5 26.5t26.5 66.5q0 39 -26.5 65.5t-64.5 26.5q-40 0 -66 -26t-26 -66t26 -66.5t66 -26.5zM401 -10q-153 0 -246.5 76.5t-93.5 207.5q0 60 15.5 108.5t47 82
t69.5 58t92 41t105 26.5t118 18q31 4 78.5 9t74 8t64 8.5t58.5 11.5t46 15.5t39 21t25.5 28.5t15.5 38q24 117 -52.5 194.5t-231.5 77.5q-131 0 -235 -63.5t-140 -196.5h-90q41 170 172 256t305 86q189 0 289.5 -105t64.5 -284l-102 -504q-13 -65 3 -97t79 -32h43l-17 -80
h-41q-78 0 -117.5 38t-39.5 107q0 36 8 72q-136 -227 -406 -227zM416 72q355 0 442 420l29 137q-11 -15 -28 -27.5t-41 -21t-44.5 -14.5t-54.5 -11t-55.5 -7.5t-62.5 -6.5t-60 -6q-74 -8 -123 -16.5t-104.5 -27t-88 -44t-54 -68.5t-21.5 -100q0 -94 72.5 -150.5t193.5 -56.5
z" />
    <glyph glyph-name="ae" unicode="&#xe6;" horiz-adv-x="1898" 
d="M1257 -14q-163 0 -266 87t-125 242q-130 -325 -458 -325q-157 0 -252 76.5t-95 207.5q0 60 15.5 108.5t47 82t69.5 58t92 41t105 26.5t118 18q31 4 78.5 9t74 8t64 8.5t58.5 11.5t46 15.5t39 21t25.5 28.5t15.5 38q24 117 -52.5 194.5t-231.5 77.5q-131 0 -235 -63.5
t-140 -196.5h-90q41 170 172 256t305 86q146 0 242 -65t116 -181q78 114 195 180t262 66q198 0 295.5 -137t54.5 -387l-2 -13h-831q-24 -105 -14.5 -195.5t44 -157t104.5 -104.5t167 -38q146 0 244.5 72t150.5 198h92q-65 -179 -195 -266.5t-305 -87.5zM989 643h727
q8 80 -3.5 146t-43 118t-91 81.5t-142.5 29.5q-158 0 -275.5 -105t-171.5 -270zM416 72q355 0 442 420l29 137q-11 -15 -28 -27.5t-41 -21t-44.5 -14.5t-54.5 -11t-55.5 -7.5t-62.5 -6.5t-60 -6q-74 -8 -123 -16.5t-104.5 -27t-88 -44t-54 -68.5t-21.5 -100
q0 -94 72.5 -150.5t193.5 -56.5z" />
    <glyph glyph-name="ccedilla" unicode="&#xe7;" horiz-adv-x="1148" 
d="M678 1018q-111 0 -205.5 -50.5t-157.5 -134t-98 -190.5t-35 -221q0 -173 89 -262.5t235 -89.5q148 0 259 89.5t169 262.5h90q-58 -198 -186 -309t-303 -125l-154 -391l-86 16l145 375q-165 13 -257.5 127t-92.5 295q0 136 42.5 261t119 221t191.5 153t251 57
q183 0 282.5 -111.5t92.5 -320.5h-88q0 348 -303 348z" />
    <glyph glyph-name="egrave" unicode="&#xe8;" horiz-adv-x="1126" 
d="M809 1298l-59 -61l-482 459l60 61zM485 -14q-185 0 -291 110.5t-106 302.5q0 135 41 261t115 224.5t187.5 158t248.5 59.5q198 0 295.5 -137t54.5 -387l-2 -13h-831q-24 -105 -14.5 -195.5t44 -157t104.5 -104.5t167 -38q146 0 244.5 72t150.5 198h92
q-65 -179 -195 -266.5t-305 -87.5zM217 643h727q8 80 -3.5 146t-43 118t-91 81.5t-142.5 29.5q-158 0 -275.5 -105t-171.5 -270z" />
    <glyph glyph-name="eacute" unicode="&#xe9;" horiz-adv-x="1126" 
d="M1272 1657l-613 -420l-59 63l612 420zM485 -14q-185 0 -291 110.5t-106 302.5q0 135 41 261t115 224.5t187.5 158t248.5 59.5q198 0 295.5 -137t54.5 -387l-2 -13h-831q-24 -105 -14.5 -195.5t44 -157t104.5 -104.5t167 -38q146 0 244.5 72t150.5 198h92
q-65 -179 -195 -266.5t-305 -87.5zM217 643h727q8 80 -3.5 146t-43 118t-91 81.5t-142.5 29.5q-158 0 -275.5 -105t-171.5 -270z" />
    <glyph glyph-name="ecircumflex" unicode="&#xea;" horiz-adv-x="1126" 
d="M784 1577l-430 -338l-59 55l455 355h79l318 -365l-68 -45zM485 -14q-185 0 -291 110.5t-106 302.5q0 135 41 261t115 224.5t187.5 158t248.5 59.5q198 0 295.5 -137t54.5 -387l-2 -13h-831q-24 -105 -14.5 -195.5t44 -157t104.5 -104.5t167 -38q146 0 244.5 72t150.5 198
h92q-65 -179 -195 -266.5t-305 -87.5zM217 643h727q8 80 -3.5 146t-43 118t-91 81.5t-142.5 29.5q-158 0 -275.5 -105t-171.5 -270z" />
    <glyph glyph-name="edieresis" unicode="&#xeb;" horiz-adv-x="1126" 
d="M530 1294q-41 0 -67.5 27.5t-26.5 69.5q0 40 26.5 67t67.5 27q40 0 67.5 -27t27.5 -67q0 -41 -27.5 -69t-67.5 -28zM940 1294q-41 0 -67.5 27.5t-26.5 69.5q0 40 26.5 67t67.5 27q40 0 67 -27t27 -67q0 -41 -27 -69t-67 -28zM485 -14q-185 0 -291 110.5t-106 302.5
q0 135 41 261t115 224.5t187.5 158t248.5 59.5q198 0 295.5 -137t54.5 -387l-2 -13h-831q-24 -105 -14.5 -195.5t44 -157t104.5 -104.5t167 -38q146 0 244.5 72t150.5 198h92q-65 -179 -195 -266.5t-305 -87.5zM217 643h727q8 80 -3.5 146t-43 118t-91 81.5t-142.5 29.5
q-158 0 -275.5 -105t-171.5 -270z" />
    <glyph glyph-name="igrave" unicode="&#xec;" horiz-adv-x="382" 
d="M438 1298l-59 -61l-481 459l59 61zM125 0h-90l223 1085h90z" />
    <glyph glyph-name="iacute" unicode="&#xed;" horiz-adv-x="382" 
d="M901 1657l-612 -420l-60 63l613 420zM125 0h-90l223 1085h90z" />
    <glyph glyph-name="icircumflex" unicode="&#xee;" horiz-adv-x="382" 
d="M414 1577l-430 -338l-60 55l455 355h80l317 -365l-67 -45zM125 0h-90l223 1085h90z" />
    <glyph glyph-name="idieresis" unicode="&#xef;" horiz-adv-x="382" 
d="M160 1294q-41 0 -67.5 27.5t-26.5 69.5q0 40 26.5 67t67.5 27q40 0 67 -27t27 -67q0 -41 -27 -69t-67 -28zM569 1294q-41 0 -67.5 27.5t-26.5 69.5q0 40 26.5 67t67.5 27q40 0 67.5 -27t27.5 -67q0 -41 -27.5 -69t-67.5 -28zM125 0h-90l223 1085h90z" />
    <glyph glyph-name="eth" unicode="&#xf0;" horiz-adv-x="1136" 
d="M459 -14q-171 0 -272 110t-101 297q0 164 64.5 301.5t189.5 222t287 84.5q127 0 218.5 -66t121.5 -185q16 156 -30.5 293.5t-160.5 236.5l-418 -164l-32 72l374 147q-117 71 -276 107l33 84q212 -57 344 -152l329 129l33 -71l-295 -115q189 -180 189 -494
q0 -169 -37 -317t-108.5 -265.5t-188 -186t-264.5 -68.5zM473 70q161 0 285 119.5t160 316.5q35 188 -48 300t-245 112q-131 0 -234 -72.5t-157 -188.5t-54 -251q0 -159 78 -247.5t215 -88.5z" />
    <glyph glyph-name="ntilde" unicode="&#xf1;" horiz-adv-x="1114" 
d="M920 1333q-43 1 -82 18.5t-68.5 42.5t-57 49.5t-58 42t-60.5 17.5q-51 0 -86.5 -43.5t-44.5 -118.5h-84q13 110 71 175t142 65q40 0 77 -17.5t66 -42.5t56.5 -50t61 -42.5t67.5 -17.5q105 0 127 152h81q-12 -111 -65.5 -171t-142.5 -59zM127 0h-90l221 1085h70l-33 -223
q71 111 186 175.5t244 64.5q171 0 247 -110t38 -298l-142 -694h-90l140 688q32 157 -22 243.5t-198 86.5q-158 0 -281.5 -102.5t-158.5 -270.5z" />
    <glyph glyph-name="ograve" unicode="&#xf2;" horiz-adv-x="1181" 
d="M825 1298l-59 -61l-481 459l59 61zM485 -14q-186 0 -290.5 116t-104.5 308q0 136 42.5 261t119 221t191.5 153t251 57q181 0 289.5 -107t108.5 -313q0 -135 -42 -260t-118 -222t-192.5 -155.5t-254.5 -58.5zM506 70q110 0 204 51.5t156.5 136.5t97.5 194.5t35 225.5
q0 162 -84 251t-237 89q-111 0 -205.5 -50.5t-157.5 -134t-98 -190.5t-35 -221q0 -173 89 -262.5t235 -89.5z" />
    <glyph glyph-name="oacute" unicode="&#xf3;" horiz-adv-x="1181" 
d="M1288 1657l-612 -420l-60 63l613 420zM485 -14q-186 0 -290.5 116t-104.5 308q0 136 42.5 261t119 221t191.5 153t251 57q181 0 289.5 -107t108.5 -313q0 -135 -42 -260t-118 -222t-192.5 -155.5t-254.5 -58.5zM506 70q110 0 204 51.5t156.5 136.5t97.5 194.5t35 225.5
q0 162 -84 251t-237 89q-111 0 -205.5 -50.5t-157.5 -134t-98 -190.5t-35 -221q0 -173 89 -262.5t235 -89.5z" />
    <glyph glyph-name="ocircumflex" unicode="&#xf4;" horiz-adv-x="1181" 
d="M801 1577l-430 -338l-60 55l455 355h80l317 -365l-67 -45zM485 -14q-186 0 -290.5 116t-104.5 308q0 136 42.5 261t119 221t191.5 153t251 57q181 0 289.5 -107t108.5 -313q0 -135 -42 -260t-118 -222t-192.5 -155.5t-254.5 -58.5zM506 70q110 0 204 51.5t156.5 136.5
t97.5 194.5t35 225.5q0 162 -84 251t-237 89q-111 0 -205.5 -50.5t-157.5 -134t-98 -190.5t-35 -221q0 -173 89 -262.5t235 -89.5z" />
    <glyph glyph-name="otilde" unicode="&#xf5;" horiz-adv-x="1181" 
d="M930 1333q-43 1 -82 18.5t-68.5 42.5t-57 49.5t-58 42t-60.5 17.5q-51 0 -86.5 -43.5t-44.5 -118.5h-84q13 110 71 175t142 65q40 0 77 -17.5t66 -42.5t56.5 -50t61 -42.5t67.5 -17.5q105 0 127 152h82q-12 -110 -66 -170.5t-143 -59.5zM485 -14q-186 0 -290.5 116
t-104.5 308q0 136 42.5 261t119 221t191.5 153t251 57q181 0 289.5 -107t108.5 -313q0 -135 -42 -260t-118 -222t-192.5 -155.5t-254.5 -58.5zM506 70q110 0 204 51.5t156.5 136.5t97.5 194.5t35 225.5q0 162 -84 251t-237 89q-111 0 -205.5 -50.5t-157.5 -134t-98 -190.5
t-35 -221q0 -173 89 -262.5t235 -89.5z" />
    <glyph glyph-name="odieresis" unicode="&#xf6;" horiz-adv-x="1181" 
d="M547 1294q-41 0 -67.5 27.5t-26.5 69.5q0 40 26.5 67t67.5 27q40 0 67 -27t27 -67q0 -41 -27 -69t-67 -28zM956 1294q-41 0 -67.5 27.5t-26.5 69.5q0 40 26.5 67t67.5 27q40 0 67.5 -27t27.5 -67q0 -41 -27.5 -69t-67.5 -28zM485 -14q-186 0 -290.5 116t-104.5 308
q0 136 42.5 261t119 221t191.5 153t251 57q181 0 289.5 -107t108.5 -313q0 -135 -42 -260t-118 -222t-192.5 -155.5t-254.5 -58.5zM506 70q110 0 204 51.5t156.5 136.5t97.5 194.5t35 225.5q0 162 -84 251t-237 89q-111 0 -205.5 -50.5t-157.5 -134t-98 -190.5t-35 -221
q0 -173 89 -262.5t235 -89.5z" />
    <glyph glyph-name="divide" unicode="&#xf7;" horiz-adv-x="1155" 
d="M662 891q-42 0 -70.5 27.5t-28.5 68.5t29 69.5t70 28.5t68.5 -28.5t27.5 -69.5t-27.5 -68.5t-68.5 -27.5zM1059 606h-938l16 82h938zM528 207q-41 0 -69.5 27.5t-28.5 68.5t28.5 69.5t69.5 28.5t69 -28.5t28 -69.5t-28 -68.5t-69 -27.5z" />
    <glyph glyph-name="oslash" unicode="&#xf8;" horiz-adv-x="1179" 
d="M1147 1161l65 -45l-180 -184q60 -102 60 -250q0 -135 -42 -260t-118 -222t-192.5 -155.5t-254.5 -58.5q-177 0 -280 106l-172 -174l-66 47l187 191q-64 106 -64 254q0 136 42.5 261t119 221t191.5 153t251 57q185 0 289 -107zM182 422q0 -120 41 -197l692 703
q-81 90 -237 90q-111 0 -205.5 -50.5t-157.5 -134t-98 -190.5t-35 -221zM999 678q0 111 -36 184l-693 -702q84 -90 236 -90q110 0 204 51.5t156.5 136.5t97.5 194.5t35 225.5z" />
    <glyph glyph-name="ugrave" unicode="&#xf9;" horiz-adv-x="1116" 
d="M793 1298l-60 -61l-481 459l59 61zM408 -14q-171 0 -257.5 104.5t-50.5 284.5l146 710h90l-146 -712q-28 -140 35.5 -221.5t206.5 -81.5q155 0 271 99t155 269l131 647h90l-221 -1085h-70l33 219q-66 -111 -171.5 -172t-241.5 -61z" />
    <glyph glyph-name="uacute" unicode="&#xfa;" horiz-adv-x="1116" 
d="M1255 1657l-612 -420l-59 63l612 420zM408 -14q-171 0 -257.5 104.5t-50.5 284.5l146 710h90l-146 -712q-28 -140 35.5 -221.5t206.5 -81.5q155 0 271 99t155 269l131 647h90l-221 -1085h-70l33 219q-66 -111 -171.5 -172t-241.5 -61z" />
    <glyph glyph-name="ucircumflex" unicode="&#xfb;" horiz-adv-x="1116" 
d="M768 1577l-430 -338l-59 55l454 355h80l317 -365l-67 -45zM408 -14q-171 0 -257.5 104.5t-50.5 284.5l146 710h90l-146 -712q-28 -140 35.5 -221.5t206.5 -81.5q155 0 271 99t155 269l131 647h90l-221 -1085h-70l33 219q-66 -111 -171.5 -172t-241.5 -61z" />
    <glyph glyph-name="udieresis" unicode="&#xfc;" horiz-adv-x="1116" 
d="M514 1294q-41 0 -67.5 27.5t-26.5 69.5q0 40 26.5 67t67.5 27q40 0 67 -27t27 -67q0 -41 -27 -69t-67 -28zM924 1294q-41 0 -68 28t-27 69q0 40 27 67t68 27q40 0 67 -27t27 -67q0 -41 -27 -69t-67 -28zM408 -14q-171 0 -257.5 104.5t-50.5 284.5l146 710h90l-146 -712
q-28 -140 35.5 -221.5t206.5 -81.5q155 0 271 99t155 269l131 647h90l-221 -1085h-70l33 219q-66 -111 -171.5 -172t-241.5 -61z" />
    <glyph glyph-name="yacute" unicode="&#xfd;" horiz-adv-x="1067" 
d="M1223 1657l-613 -420l-59 63l612 420zM72 -410h-185l17 80h178q73 0 124 36.5t97 115.5l103 178h-41l-209 1085h92l194 -1019l586 1019h105l-760 -1321q-49 -88 -119 -131t-182 -43z" />
    <glyph glyph-name="thorn" unicode="&#xfe;" horiz-adv-x="1222" 
d="M57 -410h-88l398 1946h88l-142 -690q80 120 201.5 188t259.5 68q169 0 265 -109.5t96 -310.5q0 -128 -41 -252t-113 -223t-183 -160t-241 -61q-145 0 -239.5 74.5t-120.5 207.5zM559 70q85 0 161.5 34.5t133.5 94t99 137t63.5 165.5t21.5 177q0 160 -76 250t-219 90
q-148 0 -264 -86t-175.5 -221.5t-59.5 -290.5q0 -162 84 -256t231 -94z" />
    <glyph glyph-name="ydieresis" unicode="&#xff;" horiz-adv-x="1067" 
d="M481 1294q-41 0 -67.5 27.5t-26.5 69.5q0 40 26.5 67t67.5 27q40 0 67 -27t27 -67q0 -41 -27 -69t-67 -28zM891 1294q-41 0 -67.5 27.5t-26.5 69.5q0 40 26.5 67t67.5 27q40 0 67 -27t27 -67q0 -41 -27 -69t-67 -28zM72 -410h-185l17 80h178q73 0 124 36.5t97 115.5
l103 178h-41l-209 1085h92l194 -1019l586 1019h105l-760 -1321q-49 -88 -119 -131t-182 -43z" />
    <glyph glyph-name="Amacron" unicode="&#x100;" horiz-adv-x="1433" 
d="M1290 1679h-688l16 80h689zM70 0h-103l881 1434h96l301 -1434h-96l-98 473h-691zM877 1315l-467 -762h624z" />
    <glyph glyph-name="amacron" unicode="&#x101;" horiz-adv-x="1136" 
d="M1036 1350h-688l17 80h688zM401 -10q-153 0 -246.5 76.5t-93.5 207.5q0 60 15.5 108.5t47 82t69.5 58t92 41t105 26.5t118 18q31 4 78.5 9t74 8t64 8.5t58.5 11.5t46 15.5t39 21t25.5 28.5t15.5 38q24 117 -52.5 194.5t-231.5 77.5q-131 0 -235 -63.5t-140 -196.5h-90
q41 170 172 256t305 86q189 0 289.5 -105t64.5 -284l-102 -504q-13 -65 3 -97t79 -32h43l-17 -80h-41q-78 0 -117.5 38t-39.5 107q0 36 8 72q-136 -227 -406 -227zM416 72q355 0 442 420l29 137q-11 -15 -28 -27.5t-41 -21t-44.5 -14.5t-54.5 -11t-55.5 -7.5t-62.5 -6.5
t-60 -6q-74 -8 -123 -16.5t-104.5 -27t-88 -44t-54 -68.5t-21.5 -100q0 -94 72.5 -150.5t193.5 -56.5z" />
    <glyph glyph-name="Abreve" unicode="&#x102;" horiz-adv-x="1433" 
d="M928 1571q-133 1 -201.5 79.5t-46.5 204.5l6 35h80l-6 -37q-15 -90 35.5 -146t146.5 -56q96 -2 168.5 53.5t87.5 144.5l6 37h82l-6 -37q-22 -124 -121 -202t-231 -76zM70 0h-103l881 1434h96l301 -1434h-96l-98 473h-691zM877 1315l-467 -762h624z" />
    <glyph glyph-name="abreve" unicode="&#x103;" horiz-adv-x="1136" 
d="M678 1257q-131 0 -202 73.5t-50 197.5l6 35h82l-6 -37q-15 -89 35 -141t147 -52q102 0 172.5 50.5t83.5 138.5l6 41h82l-6 -41q-19 -124 -112 -194.5t-238 -70.5zM401 -10q-153 0 -246.5 76.5t-93.5 207.5q0 60 15.5 108.5t47 82t69.5 58t92 41t105 26.5t118 18
q31 4 78.5 9t74 8t64 8.5t58.5 11.5t46 15.5t39 21t25.5 28.5t15.5 38q24 117 -52.5 194.5t-231.5 77.5q-131 0 -235 -63.5t-140 -196.5h-90q41 170 172 256t305 86q189 0 289.5 -105t64.5 -284l-102 -504q-13 -65 3 -97t79 -32h43l-17 -80h-41q-78 0 -117.5 38t-39.5 107
q0 36 8 72q-136 -227 -406 -227zM416 72q355 0 442 420l29 137q-11 -15 -28 -27.5t-41 -21t-44.5 -14.5t-54.5 -11t-55.5 -7.5t-62.5 -6.5t-60 -6q-74 -8 -123 -16.5t-104.5 -27t-88 -44t-54 -68.5t-21.5 -100q0 -94 72.5 -150.5t193.5 -56.5z" />
    <glyph glyph-name="Aogonek" unicode="&#x104;" horiz-adv-x="1433" 
d="M1012 -258q0 -84 102 -84q43 0 84 16l-2 -84q-45 -16 -100 -16q-87 0 -130.5 39t-43.5 104q0 82 63.5 155t163.5 130l-98 471h-691l-290 -473h-103l881 1434h96l301 -1434q-95 -47 -164 -118t-69 -140zM877 1315l-467 -762h624z" />
    <glyph glyph-name="aogonek" unicode="&#x105;" horiz-adv-x="1136" 
d="M1014 80l-17 -80q-95 -47 -164 -118t-69 -140q0 -84 102 -84q43 0 84 16l-2 -84q-45 -16 -100 -16q-87 0 -130.5 39t-43.5 104q0 83 65.5 156.5t167.5 130.5q-108 23 -108 141q0 36 8 72q-136 -227 -406 -227q-153 0 -246.5 76.5t-93.5 207.5q0 60 15.5 108.5t47 82
t69.5 58t92 41t105 26.5t118 18q31 4 78.5 9t74 8t64 8.5t58.5 11.5t46 15.5t39 21t25.5 28.5t15.5 38q24 117 -52.5 194.5t-231.5 77.5q-131 0 -235 -63.5t-140 -196.5h-90q41 170 172 256t305 86q189 0 289.5 -105t64.5 -284l-102 -504q-13 -65 3 -97t79 -32h43zM416 72
q355 0 442 420l29 137q-11 -15 -28 -27.5t-41 -21t-44.5 -14.5t-54.5 -11t-55.5 -7.5t-62.5 -6.5t-60 -6q-74 -8 -123 -16.5t-104.5 -27t-88 -44t-54 -68.5t-21.5 -100q0 -94 72.5 -150.5t193.5 -56.5z" />
    <glyph glyph-name="Cacute" unicode="&#x106;" horiz-adv-x="1527" 
d="M1548 1964l-612 -420l-59 64l612 420zM686 -14q-247 0 -394 147.5t-147 403.5q0 146 37 282.5t109 250t170 198.5t227 132.5t273 47.5q251 0 383.5 -143.5t123.5 -419.5h-92q0 237 -104 357t-328 120q-155 0 -288.5 -67t-223 -179.5t-140 -259t-50.5 -305.5
q0 -236 123 -357.5t331 -121.5q213 0 371 117.5t242 359.5h96q-95 -289 -280 -426t-439 -137z" />
    <glyph glyph-name="cacute" unicode="&#x107;" horiz-adv-x="1148" 
d="M1288 1657l-612 -420l-60 63l613 420zM485 -14q-186 0 -290.5 116t-104.5 308q0 136 42.5 261t119 221t191.5 153t251 57q183 0 282.5 -111.5t92.5 -320.5h-88q0 348 -303 348q-111 0 -205.5 -50.5t-157.5 -134t-98 -190.5t-35 -221q0 -173 89 -262.5t235 -89.5
q148 0 259 89.5t169 262.5h90q-62 -212 -203.5 -324t-335.5 -112z" />
    <glyph glyph-name="Cdotaccent" unicode="&#x10a;" horiz-adv-x="1527" 
d="M1012 1597q-41 0 -70 28t-29 69t29 69.5t70 28.5t68.5 -28.5t27.5 -69.5t-27.5 -69t-68.5 -28zM686 -14q-247 0 -394 147.5t-147 403.5q0 146 37 282.5t109 250t170 198.5t227 132.5t273 47.5q251 0 383.5 -143.5t123.5 -419.5h-92q0 237 -104 357t-328 120
q-155 0 -288.5 -67t-223 -179.5t-140 -259t-50.5 -305.5q0 -236 123 -357.5t331 -121.5q213 0 371 117.5t242 359.5h96q-95 -289 -280 -426t-439 -137z" />
    <glyph glyph-name="cdotaccent" unicode="&#x10b;" horiz-adv-x="1148" 
d="M752 1290q-42 0 -70.5 27.5t-28.5 68.5t29 70t70 29t68.5 -28.5t27.5 -70.5q0 -41 -27.5 -68.5t-68.5 -27.5zM485 -14q-186 0 -290.5 116t-104.5 308q0 136 42.5 261t119 221t191.5 153t251 57q183 0 282.5 -111.5t92.5 -320.5h-88q0 348 -303 348q-111 0 -205.5 -50.5
t-157.5 -134t-98 -190.5t-35 -221q0 -173 89 -262.5t235 -89.5q148 0 259 89.5t169 262.5h90q-62 -212 -203.5 -324t-335.5 -112z" />
    <glyph glyph-name="Ccaron" unicode="&#x10c;" horiz-adv-x="1527" 
d="M1028 1577h-80l-291 334l60 55l274 -317l406 317l59 -55zM686 -14q-247 0 -394 147.5t-147 403.5q0 146 37 282.5t109 250t170 198.5t227 132.5t273 47.5q251 0 383.5 -143.5t123.5 -419.5h-92q0 237 -104 357t-328 120q-155 0 -288.5 -67t-223 -179.5t-140 -259
t-50.5 -305.5q0 -236 123 -357.5t331 -121.5q213 0 371 117.5t242 359.5h96q-95 -289 -280 -426t-439 -137z" />
    <glyph glyph-name="ccaron" unicode="&#x10d;" horiz-adv-x="1148" 
d="M764 1251h-80l-317 365l67 45l293 -338l434 338l58 -55zM485 -14q-186 0 -290.5 116t-104.5 308q0 136 42.5 261t119 221t191.5 153t251 57q183 0 282.5 -111.5t92.5 -320.5h-88q0 348 -303 348q-111 0 -205.5 -50.5t-157.5 -134t-98 -190.5t-35 -221q0 -173 89 -262.5
t235 -89.5q148 0 259 89.5t169 262.5h90q-62 -212 -203.5 -324t-335.5 -112z" />
    <glyph glyph-name="Dcaron" unicode="&#x10e;" horiz-adv-x="1445" 
d="M924 1577h-80l-291 334l59 55l275 -317l405 317l60 -55zM588 0h-506l291 1434h489q240 0 376 -135t136 -379q0 -141 -33 -275t-99.5 -251t-159 -205t-220 -138.5t-274.5 -50.5zM446 1352l-258 -1270h398q154 0 286 69.5t219.5 185.5t137 265.5t49.5 310.5
q0 207 -112.5 323t-313.5 116h-406z" />
    <glyph glyph-name="dcaron" unicode="&#x10f;" horiz-adv-x="1361" 
d="M487 -14q-182 0 -289.5 113t-107.5 313q0 136 42 260.5t117.5 220t188 152.5t244.5 57q144 0 234 -77t112 -216l148 727h90l-312 -1536h-69l37 250q-69 -127 -181 -195.5t-254 -68.5zM1411 868h-82l135 668h82zM504 70q112 0 205 52.5t151.5 139t90.5 193.5t32 221
q0 159 -81.5 250.5t-225.5 91.5q-105 0 -198 -50t-156 -132.5t-99.5 -190t-36.5 -221.5q0 -169 82 -261.5t236 -92.5z" />
    <glyph glyph-name="Dcroat" unicode="&#x110;" horiz-adv-x="1486" 
d="M629 0h-506l139 684h-221l16 80h222l135 670h489q240 0 376 -135t136 -379q0 -141 -33 -275t-99.5 -251t-159 -205t-220 -138.5t-274.5 -50.5zM352 684l-123 -602h398q154 0 286 69.5t219.5 185.5t137 265.5t49.5 310.5q0 207 -112.5 323t-313.5 116h-406l-118 -588h526
l-16 -80h-527z" />
    <glyph glyph-name="dcroat" unicode="&#x111;" horiz-adv-x="1282" 
d="M487 -14q-182 0 -289.5 113t-107.5 313q0 136 42 260.5t117.5 220t188 152.5t244.5 57q144 0 234 -77t112 -216l102 506h-528l16 74h527l31 147h90l-31 -147h231l-14 -74h-231l-267 -1315h-69l37 250q-69 -127 -181 -195.5t-254 -68.5zM504 70q112 0 205 52.5t151.5 139
t90.5 193.5t32 221q0 159 -81.5 250.5t-225.5 91.5q-105 0 -198 -50t-156 -132.5t-99.5 -190t-36.5 -221.5q0 -169 82 -261.5t236 -92.5z" />
    <glyph glyph-name="Emacron" unicode="&#x112;" horiz-adv-x="1245" 
d="M1225 1679h-688l16 80h688zM1026 0h-944l291 1434h925l-16 -82h-836l-112 -553h753l-16 -80h-754l-129 -637h854z" />
    <glyph glyph-name="emacron" unicode="&#x113;" horiz-adv-x="1126" 
d="M1071 1350h-688l16 80h688zM485 -14q-185 0 -291 110.5t-106 302.5q0 135 41 261t115 224.5t187.5 158t248.5 59.5q198 0 295.5 -137t54.5 -387l-2 -13h-831q-24 -105 -14.5 -195.5t44 -157t104.5 -104.5t167 -38q146 0 244.5 72t150.5 198h92q-65 -179 -195 -266.5
t-305 -87.5zM217 643h727q8 80 -3.5 146t-43 118t-91 81.5t-142.5 29.5q-158 0 -275.5 -105t-171.5 -270z" />
    <glyph glyph-name="Edotaccent" unicode="&#x116;" horiz-adv-x="1245" 
d="M885 1597q-41 0 -70 28t-29 69t29 69.5t70 28.5t68.5 -28.5t27.5 -69.5t-27.5 -69t-68.5 -28zM1026 0h-944l291 1434h925l-16 -82h-836l-112 -553h753l-16 -80h-754l-129 -637h854z" />
    <glyph glyph-name="edotaccent" unicode="&#x117;" horiz-adv-x="1126" 
d="M735 1290q-41 0 -69.5 27.5t-28.5 68.5t28.5 70t69.5 29t68.5 -28.5t27.5 -70.5q0 -41 -27.5 -68.5t-68.5 -27.5zM485 -14q-185 0 -291 110.5t-106 302.5q0 135 41 261t115 224.5t187.5 158t248.5 59.5q198 0 295.5 -137t54.5 -387l-2 -13h-831q-24 -105 -14.5 -195.5
t44 -157t104.5 -104.5t167 -38q146 0 244.5 72t150.5 198h92q-65 -179 -195 -266.5t-305 -87.5zM217 643h727q8 80 -3.5 146t-43 118t-91 81.5t-142.5 29.5q-158 0 -275.5 -105t-171.5 -270z" />
    <glyph glyph-name="Eogonek" unicode="&#x118;" horiz-adv-x="1245" 
d="M1298 1434l-16 -82h-836l-112 -553h753l-16 -80h-754l-129 -637h854l-16 -82h-47q-95 -47 -164.5 -118t-69.5 -140q0 -84 103 -84q43 0 84 16l-2 -84q-45 -16 -101 -16q-87 0 -130.5 39t-43.5 104q0 81 63.5 153t162.5 130h-799l291 1434h925z" />
    <glyph glyph-name="eogonek" unicode="&#x119;" horiz-adv-x="1126" 
d="M680 1102q198 0 295.5 -137t54.5 -387l-2 -13h-831q-24 -105 -14.5 -195.5t44 -157t104.5 -104.5t167 -38q146 0 244.5 72t150.5 198h92q-79 -216 -258 -303q-94 -47 -161.5 -117t-67.5 -139q0 -84 102 -84q43 0 84 16l-2 -84q-45 -16 -100 -16q-87 0 -130.5 39
t-43.5 104q0 122 149 234q-46 -4 -72 -4q-185 0 -291 110.5t-106 302.5q0 135 41 261t115 224.5t187.5 158t248.5 59.5zM217 643h727q8 80 -3.5 146t-43 118t-91 81.5t-142.5 29.5q-158 0 -275.5 -105t-171.5 -270z" />
    <glyph glyph-name="Ecaron" unicode="&#x11a;" horiz-adv-x="1245" 
d="M901 1577h-80l-291 334l60 55l274 -317l406 317l59 -55zM1026 0h-944l291 1434h925l-16 -82h-836l-112 -553h753l-16 -80h-754l-129 -637h854z" />
    <glyph glyph-name="ecaron" unicode="&#x11b;" horiz-adv-x="1126" 
d="M748 1251h-80l-318 365l68 45l293 -338l434 338l57 -55zM485 -14q-185 0 -291 110.5t-106 302.5q0 135 41 261t115 224.5t187.5 158t248.5 59.5q198 0 295.5 -137t54.5 -387l-2 -13h-831q-24 -105 -14.5 -195.5t44 -157t104.5 -104.5t167 -38q146 0 244.5 72t150.5 198
h92q-65 -179 -195 -266.5t-305 -87.5zM217 643h727q8 80 -3.5 146t-43 118t-91 81.5t-142.5 29.5q-158 0 -275.5 -105t-171.5 -270z" />
    <glyph glyph-name="Gbreve" unicode="&#x11e;" horiz-adv-x="1558" 
d="M989 1571q-133 1 -201.5 79.5t-46.5 204.5l7 35h79l-6 -37q-15 -89 35.5 -145.5t147.5 -56.5q96 -2 168.5 53.5t87.5 144.5l6 37h82l-7 -37q-22 -124 -121 -202t-231 -76zM686 -14q-248 0 -394.5 147.5t-146.5 403.5q0 146 37 282.5t109 250t170 198.5t227 132.5
t273 47.5q251 0 383.5 -143.5t123.5 -419.5h-92q0 477 -432 477q-125 0 -236.5 -43.5t-195.5 -120.5t-145.5 -178.5t-93 -222.5t-31.5 -248q0 -235 123 -356t331 -121q224 0 378.5 144.5t205.5 399.5h-541l17 82h520q168 0 137 -159l-110 -539h-84l110 539h-2
q-64 -261 -233.5 -407t-407.5 -146z" />
    <glyph glyph-name="gbreve" unicode="&#x11f;" horiz-adv-x="1210" 
d="M721 1257q-131 0 -202 73.5t-50 197.5l6 35h82l-6 -37q-15 -89 35 -141t147 -52q102 0 172.5 50.5t83.5 138.5l6 41h82l-6 -41q-19 -124 -112 -194.5t-238 -70.5zM406 -426q-179 0 -284.5 94t-72.5 266h88q-25 -137 55 -206.5t230 -69.5q174 0 291 87t151 267l47 252
q-68 -115 -180 -176t-248 -61q-182 0 -285.5 106t-103.5 301q0 130 40 249.5t112.5 213t183.5 149.5t244 56q139 0 231 -73t119 -198l61 254h72l-203 -1075q-81 -436 -548 -436zM504 109q140 0 249.5 81.5t165.5 209t56 274.5q0 159 -82.5 251.5t-224.5 92.5
q-110 0 -202.5 -48.5t-152.5 -129t-93.5 -181.5t-33.5 -208q0 -166 81.5 -254t236.5 -88z" />
    <glyph glyph-name="Gdotaccent" unicode="&#x120;" horiz-adv-x="1558" 
d="M1012 1597q-41 0 -70 28t-29 69t29 69.5t70 28.5t68.5 -28.5t27.5 -69.5t-27.5 -69t-68.5 -28zM686 -14q-248 0 -394.5 147.5t-146.5 403.5q0 146 37 282.5t109 250t170 198.5t227 132.5t273 47.5q251 0 383.5 -143.5t123.5 -419.5h-92q0 477 -432 477
q-125 0 -236.5 -43.5t-195.5 -120.5t-145.5 -178.5t-93 -222.5t-31.5 -248q0 -235 123 -356t331 -121q224 0 378.5 144.5t205.5 399.5h-541l17 82h520q168 0 137 -159l-110 -539h-84l110 539h-2q-64 -261 -233.5 -407t-407.5 -146z" />
    <glyph glyph-name="gdotaccent" unicode="&#x121;" horiz-adv-x="1210" 
d="M743 1290q-41 0 -69.5 27.5t-28.5 68.5t28.5 70t69.5 29t69 -29t28 -70t-28 -68.5t-69 -27.5zM406 -426q-179 0 -284.5 94t-72.5 266h88q-25 -137 55 -206.5t230 -69.5q174 0 291 87t151 267l47 252q-68 -115 -180 -176t-248 -61q-182 0 -285.5 106t-103.5 301
q0 130 40 249.5t112.5 213t183.5 149.5t244 56q139 0 231 -73t119 -198l61 254h72l-203 -1075q-81 -436 -548 -436zM504 109q140 0 249.5 81.5t165.5 209t56 274.5q0 159 -82.5 251.5t-224.5 92.5q-110 0 -202.5 -48.5t-152.5 -129t-93.5 -181.5t-33.5 -208
q0 -166 81.5 -254t236.5 -88z" />
    <glyph glyph-name="uni0122" unicode="&#x122;" horiz-adv-x="1558" 
d="M686 -14q-248 0 -394.5 147.5t-146.5 403.5q0 146 37 282.5t109 250t170 198.5t227 132.5t273 47.5q251 0 383.5 -143.5t123.5 -419.5h-92q0 477 -432 477q-125 0 -236.5 -43.5t-195.5 -120.5t-145.5 -178.5t-93 -222.5t-31.5 -248q0 -235 123 -356t331 -121
q224 0 378.5 144.5t205.5 399.5h-541l17 82h520q168 0 137 -159l-110 -539h-84l110 539h-2q-64 -261 -233.5 -407t-407.5 -146zM727 -104l-354 -672l-86 26l346 674z" />
    <glyph glyph-name="uni0123" unicode="&#x123;" horiz-adv-x="1210" 
d="M643 1190l354 672l86 -27l-346 -674zM406 -426q-179 0 -284.5 94t-72.5 266h88q-25 -137 55 -206.5t230 -69.5q174 0 291 87t151 267l47 252q-68 -115 -180 -176t-248 -61q-182 0 -285.5 106t-103.5 301q0 130 40 249.5t112.5 213t183.5 149.5t244 56q139 0 231 -73
t119 -198l61 254h72l-203 -1075q-81 -436 -548 -436zM504 109q140 0 249.5 81.5t165.5 209t56 274.5q0 159 -82.5 251.5t-224.5 92.5q-110 0 -202.5 -48.5t-152.5 -129t-93.5 -181.5t-33.5 -208q0 -166 81.5 -254t236.5 -88z" />
    <glyph glyph-name="Hbar" unicode="&#x126;" horiz-adv-x="1689" 
d="M242 0h-90l227 1122h-281l15 74h280l49 238h90l-47 -238h992l47 238h90l-49 -238h278l-14 -74h-279l-227 -1122h-90l143 711h-991zM469 1122l-66 -329h992l65 329h-991z" />
    <glyph glyph-name="hbar" unicode="&#x127;" horiz-adv-x="1183" 
d="M197 0h-91l267 1315h-228l17 74h225l31 147h90l-31 -147h522l-16 -74h-520l-88 -436q72 103 184 163t236 60q171 0 246.5 -110t37.5 -298l-141 -694h-90l139 688q32 157 -21.5 243.5t-197.5 86.5q-156 0 -278 -103.5t-162 -271.5z" />
    <glyph glyph-name="Imacron" unicode="&#x12a;" horiz-adv-x="475" 
d="M813 1679h-688l16 80h688zM174 0h-92l291 1434h92z" />
    <glyph glyph-name="imacron" unicode="&#x12b;" horiz-adv-x="382" 
d="M700 1350h-688l17 80h688zM125 0h-90l223 1085h90z" />
    <glyph glyph-name="Iogonek" unicode="&#x12e;" horiz-adv-x="475" 
d="M465 1434l-291 -1434q-95 -47 -164 -118t-69 -140q0 -84 102 -84q43 0 84 16l-2 -84q-45 -16 -100 -16q-87 0 -131 39t-44 104q0 83 65.5 156t166.5 131l291 1430h92z" />
    <glyph glyph-name="iogonek" unicode="&#x12f;" horiz-adv-x="380" 
d="M371 1505q40 0 66.5 -26.5t25.5 -65.5q-2 -40 -28.5 -67t-65.5 -27q-40 0 -67 27t-26 67q0 39 27.5 65.5t67.5 26.5zM37 6l219 1079h90l-221 -1085q-95 -47 -164.5 -118t-69.5 -140q0 -84 103 -84q43 0 84 16l-2 -84q-45 -16 -101 -16q-87 0 -130.5 39t-43.5 104
q0 83 66.5 157t169.5 132z" />
    <glyph glyph-name="Idotaccent" unicode="&#x130;" horiz-adv-x="475" 
d="M473 1597q-41 0 -69.5 28t-28.5 69t28.5 69.5t69.5 28.5t68.5 -28.5t27.5 -69.5t-27.5 -69t-68.5 -28zM174 0h-92l291 1434h92z" />
    <glyph glyph-name="dotlessi" unicode="&#x131;" horiz-adv-x="382" 
d="M125 0h-90l223 1085h90z" />
    <glyph glyph-name="uni0136" unicode="&#x136;" horiz-adv-x="1368" 
d="M172 0h-90l291 1434h90l-178 -881l1009 881h131l-673 -582l448 -852h-104l-414 793l-424 -365zM674 -104l-355 -672l-86 26l347 674z" />
    <glyph glyph-name="uni0137" unicode="&#x137;" horiz-adv-x="1091" 
d="M145 0h-90l312 1536h90l-224 -1102l766 651h127l-477 -399l309 -686h-100l-278 629l-371 -312zM551 -104l-354 -672l-86 26l346 674z" />
    <glyph glyph-name="Lacute" unicode="&#x139;" horiz-adv-x="1175" 
d="M1010 1964l-613 -420l-59 64l612 420zM967 0h-885l291 1434h92l-272 -1348h790z" />
    <glyph glyph-name="lacute" unicode="&#x13a;" horiz-adv-x="419" 
d="M1010 2107l-613 -419l-59 63l612 420zM145 0h-90l312 1536h90z" />
    <glyph glyph-name="uni013B" unicode="&#x13b;" horiz-adv-x="1175" 
d="M967 0h-885l291 1434h92l-272 -1348h790zM573 -104l-354 -672l-86 26l346 674z" />
    <glyph glyph-name="uni013C" unicode="&#x13c;" horiz-adv-x="419" 
d="M145 0h-90l312 1536h90zM139 -104l-354 -672l-86 26l346 674z" />
    <glyph glyph-name="Lcaron" unicode="&#x13d;" horiz-adv-x="1175" 
d="M684 868h-82l135 668h82zM967 0h-885l291 1434h92l-272 -1348h790z" />
    <glyph glyph-name="lcaron" unicode="&#x13e;" horiz-adv-x="532" 
d="M145 0h-90l312 1536h90zM582 868h-82l135 668h82z" />
    <glyph glyph-name="Lslash" unicode="&#x141;" horiz-adv-x="1273" 
d="M1065 0h-885l152 745l-293 -159l-37 69l350 191l119 588h92l-106 -533l344 189l37 -70l-402 -219l-145 -715h790z" />
    <glyph glyph-name="lslash" unicode="&#x142;" horiz-adv-x="720" 
d="M301 0h-90l156 764l-328 -178l-37 69l385 209l135 672h90l-125 -616l314 170l37 -70l-371 -201z" />
    <glyph glyph-name="Nacute" unicode="&#x143;" horiz-adv-x="1497" 
d="M1520 1964l-613 -420l-59 64l612 420zM172 0h-90l291 1434h106l651 -1315l267 1315h90l-291 -1434h-106l-652 1317z" />
    <glyph glyph-name="nacute" unicode="&#x144;" horiz-adv-x="1114" 
d="M1278 1657l-612 -420l-60 63l613 420zM127 0h-90l221 1085h70l-33 -223q71 111 186 175.5t244 64.5q171 0 247 -110t38 -298l-142 -694h-90l140 688q32 157 -22 243.5t-198 86.5q-158 0 -281.5 -102.5t-158.5 -270.5z" />
    <glyph glyph-name="uni0145" unicode="&#x145;" horiz-adv-x="1497" 
d="M172 0h-90l291 1434h106l651 -1315l267 1315h90l-291 -1434h-106l-652 1317zM678 -104l-354 -672l-86 26l346 674z" />
    <glyph glyph-name="uni0146" unicode="&#x146;" horiz-adv-x="1114" 
d="M127 0h-90l221 1085h70l-33 -223q71 111 186 175.5t244 64.5q171 0 247 -110t38 -298l-142 -694h-90l140 688q32 157 -22 243.5t-198 86.5q-158 0 -281.5 -102.5t-158.5 -270.5zM508 -104l-354 -672l-86 26l346 674z" />
    <glyph glyph-name="Ncaron" unicode="&#x147;" horiz-adv-x="1497" 
d="M999 1577h-79l-291 334l59 55l275 -317l405 317l59 -55zM172 0h-90l291 1434h106l651 -1315l267 1315h90l-291 -1434h-106l-652 1317z" />
    <glyph glyph-name="ncaron" unicode="&#x148;" horiz-adv-x="1114" 
d="M754 1251h-80l-318 365l68 45l293 -338l434 338l57 -55zM127 0h-90l221 1085h70l-33 -223q71 111 186 175.5t244 64.5q171 0 247 -110t38 -298l-142 -694h-90l140 688q32 157 -22 243.5t-198 86.5q-158 0 -281.5 -102.5t-158.5 -270.5z" />
    <glyph glyph-name="Eng" unicode="&#x14a;" horiz-adv-x="1497" 
d="M803 -410h-103l17 80h102q95 0 170 57.5t94 159.5l23 113h-16l-652 1317l-266 -1317h-90l291 1434h106l651 -1317l267 1317h90l-313 -1547q-28 -144 -124 -220.5t-247 -76.5z" />
    <glyph glyph-name="eng" unicode="&#x14b;" horiz-adv-x="1114" 
d="M477 -410h-102l16 80h103q107 0 173.5 55.5t88.5 161.5l162 801q32 157 -22 243.5t-198 86.5q-156 0 -277.5 -102.5t-162.5 -270.5l-131 -645h-90l221 1085h70l-33 -223q71 111 186 175.5t244 64.5q171 0 247 -110t38 -298l-164 -807q-29 -144 -124 -220.5t-245 -76.5z
" />
    <glyph glyph-name="Omacron" unicode="&#x14c;" horiz-adv-x="1546" 
d="M1341 1679h-688l17 80h688zM674 -14q-246 0 -386.5 146.5t-140.5 406.5q0 255 104.5 463.5t288.5 327t410 118.5q245 0 381.5 -149.5t136.5 -417.5q0 -133 -31.5 -260.5t-97 -242.5t-158 -202.5t-223.5 -138.5t-284 -51zM684 72q130 0 242.5 46t193.5 124.5t139 181.5
t86.5 219t28.5 236q0 230 -114 356.5t-328 126.5q-141 0 -268 -62t-220 -169t-147.5 -258.5t-54.5 -321.5q0 -227 115 -353t327 -126z" />
    <glyph glyph-name="omacron" unicode="&#x14d;" horiz-adv-x="1181" 
d="M1087 1350h-688l17 80h688zM485 -14q-186 0 -290.5 116t-104.5 308q0 136 42.5 261t119 221t191.5 153t251 57q181 0 289.5 -107t108.5 -313q0 -135 -42 -260t-118 -222t-192.5 -155.5t-254.5 -58.5zM506 70q110 0 204 51.5t156.5 136.5t97.5 194.5t35 225.5
q0 162 -84 251t-237 89q-111 0 -205.5 -50.5t-157.5 -134t-98 -190.5t-35 -221q0 -173 89 -262.5t235 -89.5z" />
    <glyph glyph-name="Ohungarumlaut" unicode="&#x150;" horiz-adv-x="1546" 
d="M1550 1995l-465 -459l-67 49l463 459zM1282 1995l-436 -436l-72 47l436 436zM674 -14q-246 0 -386.5 146.5t-140.5 406.5q0 255 104.5 463.5t288.5 327t410 118.5q245 0 381.5 -149.5t136.5 -417.5q0 -133 -31.5 -260.5t-97 -242.5t-158 -202.5t-223.5 -138.5t-284 -51z
M684 72q130 0 242.5 46t193.5 124.5t139 181.5t86.5 219t28.5 236q0 230 -114 356.5t-328 126.5q-141 0 -268 -62t-220 -169t-147.5 -258.5t-54.5 -321.5q0 -227 115 -353t327 -126z" />
    <glyph glyph-name="ohungarumlaut" unicode="&#x151;" horiz-adv-x="1181" 
d="M1032 1688l-436 -437l-72 47l437 437zM1300 1688l-464 -459l-70 47l463 459zM485 -14q-186 0 -290.5 116t-104.5 308q0 136 42.5 261t119 221t191.5 153t251 57q181 0 289.5 -107t108.5 -313q0 -135 -42 -260t-118 -222t-192.5 -155.5t-254.5 -58.5zM506 70
q110 0 204 51.5t156.5 136.5t97.5 194.5t35 225.5q0 162 -84 251t-237 89q-111 0 -205.5 -50.5t-157.5 -134t-98 -190.5t-35 -221q0 -173 89 -262.5t235 -89.5z" />
    <glyph glyph-name="OE" unicode="&#x152;" horiz-adv-x="2381" 
d="M666 -14q-241 0 -381 149t-140 404q0 179 58.5 344t161 290t255 200t328.5 75q195 0 321.5 -106.5t162.5 -288.5l77 381h926l-16 -82h-836l-113 -553h754l-16 -80h-754l-129 -637h854l-16 -82h-944l65 322q-100 -156 -255 -246t-363 -90zM678 72q131 0 244.5 46t195 125
t139.5 183.5t86.5 223t28.5 241.5q0 230 -120 350.5t-322 120.5q-122 0 -231 -44t-192 -121t-143.5 -179t-92 -222t-31.5 -245q0 -226 116.5 -352.5t321.5 -126.5z" />
    <glyph glyph-name="oe" unicode="&#x153;" horiz-adv-x="2023" 
d="M485 -14q-186 0 -290.5 116t-104.5 308q0 136 42.5 261t119 221t191.5 153t251 57q154 0 257 -78.5t130 -230.5q78 142 205.5 225.5t290.5 83.5q198 0 295.5 -137t54.5 -387l-2 -13h-831q-24 -105 -14.5 -195.5t44 -157t104.5 -104.5t167 -38q146 0 244.5 72t150.5 198
h92q-65 -179 -195 -266.5t-305 -87.5q-156 0 -257.5 81t-129.5 226q-78 -141 -209.5 -224t-300.5 -83zM506 70q110 0 204 51.5t156.5 136.5t97.5 194.5t35 225.5q0 162 -84 251t-237 89q-111 0 -205.5 -50.5t-157.5 -134t-98 -190.5t-35 -221q0 -173 89 -262.5t235 -89.5z
M1114 643h727q8 80 -3.5 146t-43 118t-91 81.5t-142.5 29.5q-158 0 -275.5 -105t-171.5 -270z" />
    <glyph glyph-name="Racute" unicode="&#x154;" horiz-adv-x="1378" 
d="M1399 1964l-613 -420l-59 64l612 420zM174 0h-92l291 1434h620q161 0 254.5 -83t93.5 -233q0 -156 -102.5 -276.5t-263.5 -157.5q103 -37 125 -174l80 -510h-95l-75 485q-11 71 -49 113.5t-103 42.5h-555zM449 1352l-127 -629h540q164 0 274.5 114t110.5 273
q0 112 -71 177t-191 65h-536z" />
    <glyph glyph-name="racute" unicode="&#x155;" horiz-adv-x="700" 
d="M1126 1657l-612 -420l-59 63l612 420zM127 0h-90l221 1085h70l-37 -243q147 248 436 248h18l-20 -101h-18q-167 0 -289 -98t-166 -270z" />
    <glyph glyph-name="uni0156" unicode="&#x156;" horiz-adv-x="1378" 
d="M174 0h-92l291 1434h620q161 0 254.5 -83t93.5 -233q0 -156 -102.5 -276.5t-263.5 -157.5q103 -37 125 -174l80 -510h-95l-75 485q-11 71 -49 113.5t-103 42.5h-555zM449 1352l-127 -629h540q164 0 274.5 114t110.5 273q0 112 -71 177t-191 65h-536zM682 -104l-354 -672
l-86 26l346 674z" />
    <glyph glyph-name="uni0157" unicode="&#x157;" horiz-adv-x="700" 
d="M127 0h-90l221 1085h70l-37 -243q147 248 436 248h18l-20 -101h-18q-167 0 -289 -98t-166 -270zM115 -104l-355 -672l-86 26l346 674z" />
    <glyph glyph-name="Rcaron" unicode="&#x158;" horiz-adv-x="1378" 
d="M879 1577h-80l-291 334l59 55l275 -317l405 317l60 -55zM174 0h-92l291 1434h620q161 0 254.5 -83t93.5 -233q0 -156 -102.5 -276.5t-263.5 -157.5q103 -37 125 -174l80 -510h-95l-75 485q-11 71 -49 113.5t-103 42.5h-555zM449 1352l-127 -629h540q164 0 274.5 114
t110.5 273q0 112 -71 177t-191 65h-536z" />
    <glyph glyph-name="rcaron" unicode="&#x159;" horiz-adv-x="700" 
d="M602 1251h-80l-317 365l67 45l293 -338l434 338l58 -55zM127 0h-90l221 1085h70l-37 -243q147 248 436 248h18l-20 -101h-18q-167 0 -289 -98t-166 -270z" />
    <glyph glyph-name="Sacute" unicode="&#x15a;" horiz-adv-x="1288" 
d="M1366 1964l-612 -420l-60 64l613 420zM643 -14q-175 -1 -302.5 49t-189 151t-36.5 238h90q-29 -169 93 -262.5t349 -91.5q179 2 286 92.5t107 243.5q0 46 -13 82.5t-31.5 61t-52 45.5t-61.5 33.5t-73 28.5l-242 88q-102 38 -143 63q-152 89 -152 259q0 174 129 277.5
t326 103.5q245 0 367.5 -114t99.5 -328h-90q17 184 -83 272t-300 86q-158 -2 -256 -80t-98 -211q0 -32 8 -60t17.5 -48t30.5 -39.5t34.5 -30.5t41.5 -24.5t40 -18.5t42.5 -16t36.5 -13l230 -84q51 -19 86 -35t76.5 -44t66.5 -60t42.5 -80.5t17.5 -107.5
q0 -199 -134.5 -311.5t-359.5 -114.5z" />
    <glyph glyph-name="sacute" unicode="&#x15b;" horiz-adv-x="978" 
d="M1178 1657l-613 -420l-59 63l612 420zM446 -14q-191 0 -296.5 90.5t-81.5 255.5h86q-17 -131 63.5 -197.5t233.5 -66.5q141 0 223 56t82 165q0 75 -42.5 116t-133.5 80l-162 70q-5 2 -16 7q-33 14 -50.5 22.5t-48 26t-47.5 35.5t-36 44t-27.5 59.5t-8.5 73.5
q0 124 96.5 201.5t251.5 77.5q176 0 277.5 -86.5t95.5 -257.5h-86q0 136 -77 199t-214 63q-117 0 -187.5 -51.5t-70.5 -139.5q0 -43 13.5 -75.5t44 -56.5t56.5 -37.5t73 -32.5l157 -66q56 -23 90.5 -42.5t69.5 -50t51.5 -73t16.5 -98.5q0 -148 -107 -229.5t-289 -81.5z" />
    <glyph glyph-name="Scedilla" unicode="&#x15e;" horiz-adv-x="1288" 
d="M1194 1006h-90q17 184 -83 272t-300 86q-158 -2 -256 -80t-98 -211q0 -32 8 -60t17.5 -48t30.5 -39.5t34.5 -30.5t41.5 -24.5t40 -18.5t42.5 -16t36.5 -13l230 -84q51 -19 86 -35t76.5 -44t66.5 -60t42.5 -80.5t17.5 -107.5q0 -199 -134.5 -311.5t-359.5 -114.5h-31
l-151 -389l-86 16l147 379q-216 26 -328 138.5t-79 293.5h90q-29 -169 93 -262.5t349 -91.5q179 2 286 92.5t107 243.5q0 46 -13 82.5t-31.5 61t-52 45.5t-61.5 33.5t-73 28.5l-242 88q-102 38 -143 63q-152 89 -152 259q0 174 129 277.5t326 103.5q245 0 367.5 -114
t99.5 -328z" />
    <glyph glyph-name="scedilla" unicode="&#x15f;" horiz-adv-x="978" 
d="M528 1020q-117 0 -187.5 -51.5t-70.5 -139.5q0 -43 13.5 -75.5t44 -56.5t56.5 -37.5t73 -32.5l157 -66q56 -23 90.5 -42.5t69.5 -50t51.5 -73t16.5 -98.5q0 -144 -102 -225t-275 -86l-152 -389l-86 16l148 377q-159 16 -243.5 104.5t-63.5 237.5h86q-17 -131 63.5 -197.5
t233.5 -66.5q141 0 223 56t82 165q0 75 -42.5 116t-133.5 80l-162 70q-5 2 -16 7q-33 14 -50.5 22.5t-48 26t-47.5 35.5t-36 44t-27.5 59.5t-8.5 73.5q0 124 96.5 201.5t251.5 77.5q176 0 277.5 -86.5t95.5 -257.5h-86q0 136 -77 199t-214 63z" />
    <glyph glyph-name="Scaron" unicode="&#x160;" horiz-adv-x="1288" 
d="M846 1577h-80l-291 334l60 55l274 -317l405 317l60 -55zM643 -14q-175 -1 -302.5 49t-189 151t-36.5 238h90q-29 -169 93 -262.5t349 -91.5q179 2 286 92.5t107 243.5q0 46 -13 82.5t-31.5 61t-52 45.5t-61.5 33.5t-73 28.5l-242 88q-102 38 -143 63q-152 89 -152 259
q0 174 129 277.5t326 103.5q245 0 367.5 -114t99.5 -328h-90q17 184 -83 272t-300 86q-158 -2 -256 -80t-98 -211q0 -32 8 -60t17.5 -48t30.5 -39.5t34.5 -30.5t41.5 -24.5t40 -18.5t42.5 -16t36.5 -13l230 -84q51 -19 86 -35t76.5 -44t66.5 -60t42.5 -80.5t17.5 -107.5
q0 -199 -134.5 -311.5t-359.5 -114.5z" />
    <glyph glyph-name="scaron" unicode="&#x161;" horiz-adv-x="978" 
d="M653 1251h-80l-317 365l68 45l292 -338l435 338l57 -55zM446 -14q-191 0 -296.5 90.5t-81.5 255.5h86q-17 -131 63.5 -197.5t233.5 -66.5q141 0 223 56t82 165q0 75 -42.5 116t-133.5 80l-162 70q-5 2 -16 7q-33 14 -50.5 22.5t-48 26t-47.5 35.5t-36 44t-27.5 59.5
t-8.5 73.5q0 124 96.5 201.5t251.5 77.5q176 0 277.5 -86.5t95.5 -257.5h-86q0 136 -77 199t-214 63q-117 0 -187.5 -51.5t-70.5 -139.5q0 -43 13.5 -75.5t44 -56.5t56.5 -37.5t73 -32.5l157 -66q56 -23 90.5 -42.5t69.5 -50t51.5 -73t16.5 -98.5q0 -148 -107 -229.5
t-289 -81.5z" />
    <glyph glyph-name="uni0162" unicode="&#x162;" horiz-adv-x="1288" 
d="M248 1350l16 84h1122l-16 -84h-512l-274 -1350l-158 -403l-86 16l152 387h-3l275 1350h-516z" />
    <glyph glyph-name="uni0163" unicode="&#x163;" horiz-adv-x="753" 
d="M772 1006h-321l-144 -707q-23 -114 12 -166.5t136 -52.5h110l-16 -80h-109l-157 -403l-86 16l155 397q-184 45 -135 289l143 707h-219l17 79h219l76 371h90l-76 -371h321z" />
    <glyph glyph-name="Tcaron" unicode="&#x164;" horiz-adv-x="1288" 
d="M895 1577h-80l-291 334l60 55l274 -317l406 317l59 -55zM584 0h-95l275 1350h-516l16 84h1122l-16 -84h-512z" />
    <glyph glyph-name="tcaron" unicode="&#x165;" horiz-adv-x="753" 
d="M670 1167h-84l102 502h84zM549 0h-111q-137 0 -194 75.5t-27 223.5l143 707h-219l17 79h219l76 371h90l-76 -371h321l-16 -79h-321l-144 -707q-23 -114 12 -166.5t136 -52.5h110z" />
    <glyph glyph-name="Tbar" unicode="&#x166;" horiz-adv-x="1288" 
d="M584 0h-95l154 756h-401l16 73h399l107 521h-516l16 84h1122l-16 -84h-512l-106 -521h409l-16 -73h-408z" />
    <glyph glyph-name="tbar" unicode="&#x167;" horiz-adv-x="755" 
d="M549 0h-111q-137 0 -194 75.5t-27 223.5l66 324h-220l17 73h217l63 310h-219l17 79h219l76 371h90l-76 -371h321l-16 -79h-321l-64 -310h324l-17 -73h-321l-66 -324q-23 -114 12 -166.5t136 -52.5h110z" />
    <glyph glyph-name="Umacron" unicode="&#x16a;" horiz-adv-x="1406" 
d="M1278 1679h-688l16 80h688zM592 -14q-108 0 -196 30t-149 87t-84.5 147t-0.5 203l198 981h93l-199 -977q-38 -184 58.5 -283.5t295.5 -99.5q198 0 335.5 98t176.5 287l197 975h92l-199 -981q-46 -232 -209 -349.5t-409 -117.5z" />
    <glyph glyph-name="umacron" unicode="&#x16b;" horiz-adv-x="1116" 
d="M1055 1350h-688l16 80h688zM408 -14q-171 0 -257.5 104.5t-50.5 284.5l146 710h90l-146 -712q-28 -140 35.5 -221.5t206.5 -81.5q155 0 271 99t155 269l131 647h90l-221 -1085h-70l33 219q-66 -111 -171.5 -172t-241.5 -61z" />
    <glyph glyph-name="Ubreve" unicode="&#x16c;" horiz-adv-x="1406" 
d="M915 1571q-133 1 -201 79.5t-46 204.5l6 35h80l-6 -37q-15 -90 35.5 -146t146.5 -56q96 -2 168.5 53.5t87.5 144.5l6 37h82l-6 -37q-22 -124 -121 -202t-232 -76zM592 -14q-108 0 -196 30t-149 87t-84.5 147t-0.5 203l198 981h93l-199 -977q-38 -184 58.5 -283.5
t295.5 -99.5q198 0 335.5 98t176.5 287l197 975h92l-199 -981q-46 -232 -209 -349.5t-409 -117.5z" />
    <glyph glyph-name="ubreve" unicode="&#x16d;" horiz-adv-x="1116" 
d="M696 1257q-131 0 -202 73.5t-50 197.5l7 35h81l-6 -37q-15 -89 35.5 -141t147.5 -52q102 0 172.5 50.5t83.5 138.5l6 41h82l-6 -41q-19 -124 -112.5 -194.5t-238.5 -70.5zM408 -14q-171 0 -257.5 104.5t-50.5 284.5l146 710h90l-146 -712q-28 -140 35.5 -221.5
t206.5 -81.5q155 0 271 99t155 269l131 647h90l-221 -1085h-70l33 219q-66 -111 -171.5 -172t-241.5 -61z" />
    <glyph glyph-name="Uring" unicode="&#x16e;" horiz-adv-x="1406" 
d="M932 1556q-72 0 -121 46.5t-49 115.5t49 115.5t121 46.5t120 -46.5t48 -115.5t-48 -115.5t-120 -46.5zM932 1626q38 0 64 26t26 66t-26 66t-64 26q-40 0 -66 -26t-26 -66t26 -66t66 -26zM592 -14q-108 0 -196 30t-149 87t-84.5 147t-0.5 203l198 981h93l-199 -977
q-38 -184 58.5 -283.5t295.5 -99.5q198 0 335.5 98t176.5 287l197 975h92l-199 -981q-46 -232 -209 -349.5t-409 -117.5z" />
    <glyph glyph-name="uring" unicode="&#x16f;" horiz-adv-x="1116" 
d="M719 1229q-72 0 -121 46.5t-49 115.5t49 115t121 46t120 -46t48 -115t-48 -115.5t-120 -46.5zM719 1298q38 0 64 26.5t26 66.5t-26 66t-64 26q-40 0 -66 -26t-26 -66t26 -66.5t66 -26.5zM408 -14q-171 0 -257.5 104.5t-50.5 284.5l146 710h90l-146 -712
q-28 -140 35.5 -221.5t206.5 -81.5q155 0 271 99t155 269l131 647h90l-221 -1085h-70l33 219q-66 -111 -171.5 -172t-241.5 -61z" />
    <glyph glyph-name="Uhungarumlaut" unicode="&#x170;" horiz-adv-x="1406" 
d="M1487 1995l-465 -459l-68 49l463 459zM1219 1995l-437 -436l-71 47l436 436zM592 -14q-108 0 -196 30t-149 87t-84.5 147t-0.5 203l198 981h93l-199 -977q-38 -184 58.5 -283.5t295.5 -99.5q198 0 335.5 98t176.5 287l197 975h92l-199 -981q-46 -232 -209 -349.5
t-409 -117.5z" />
    <glyph glyph-name="uhungarumlaut" unicode="&#x171;" horiz-adv-x="1116" 
d="M999 1688l-436 -437l-71 47l436 437zM1268 1688l-465 -459l-70 47l463 459zM408 -14q-171 0 -257.5 104.5t-50.5 284.5l146 710h90l-146 -712q-28 -140 35.5 -221.5t206.5 -81.5q155 0 271 99t155 269l131 647h90l-221 -1085h-70l33 219q-66 -111 -171.5 -172t-241.5 -61
z" />
    <glyph glyph-name="Uogonek" unicode="&#x172;" horiz-adv-x="1406" 
d="M1120 459l197 975h92l-199 -981q-59 -303 -323 -414q-95 -47 -164.5 -118t-69.5 -140q0 -84 103 -84q43 0 84 16l-2 -84q-45 -16 -101 -16q-87 0 -130.5 39t-43.5 104q0 126 156 238q-55 -8 -127 -8q-108 0 -196 30t-149 87t-84.5 147t-0.5 203l198 981h93l-199 -977
q-38 -184 58.5 -283.5t295.5 -99.5q198 0 335.5 98t176.5 287z" />
    <glyph glyph-name="uogonek" unicode="&#x173;" horiz-adv-x="1116" 
d="M1079 1085l-221 -1085q-95 -47 -164 -118t-69 -140q0 -84 102 -84q43 0 84 16l-2 -84q-45 -16 -100 -16q-87 0 -130.5 39t-43.5 104q0 88 73 165t183 136l30 201q-66 -111 -171.5 -172t-241.5 -61q-171 0 -257.5 104.5t-50.5 284.5l146 710h90l-146 -712
q-28 -140 35.5 -221.5t206.5 -81.5q155 0 271 99t155 269l131 647h90z" />
    <glyph glyph-name="Wcircumflex" unicode="&#x174;" horiz-adv-x="1869" 
d="M1214 1884l-403 -317l-59 55l428 334h80l292 -334l-59 -55zM449 0h-107l-115 1434h97l98 -1303l645 1303h96l117 -1301l625 1301h102l-696 -1434h-101l-118 1300z" />
    <glyph glyph-name="wcircumflex" unicode="&#x175;" horiz-adv-x="1472" 
d="M958 1577l-430 -338l-59 55l455 355h80l317 -365l-68 -45zM358 0h-102l-100 1085h90l86 -972l469 972h92l70 -964l477 964h98l-543 -1085h-100l-70 969z" />
    <glyph glyph-name="Ycircumflex" unicode="&#x176;" horiz-adv-x="1265" 
d="M903 1884l-403 -317l-60 55l428 334h80l293 -334l-59 -55zM567 0h-92l129 633l-381 801h101l338 -711l624 711h121l-711 -801z" />
    <glyph glyph-name="ycircumflex" unicode="&#x177;" horiz-adv-x="1067" 
d="M735 1577l-430 -338l-59 55l454 355h80l318 -365l-68 -45zM72 -410h-185l17 80h178q73 0 124 36.5t97 115.5l103 178h-41l-209 1085h92l194 -1019l586 1019h105l-760 -1321q-49 -88 -119 -131t-182 -43z" />
    <glyph glyph-name="Ydieresis" unicode="&#x178;" horiz-adv-x="1265" 
d="M653 1602q-41 0 -67.5 27.5t-26.5 68.5q0 40 26.5 67t67.5 27q40 0 67.5 -27t27.5 -67q0 -41 -27.5 -68.5t-67.5 -27.5zM1063 1602q-41 0 -67.5 27.5t-26.5 68.5q0 40 26.5 67t67.5 27q40 0 67 -27t27 -67q0 -41 -27 -68.5t-67 -27.5zM567 0h-92l129 633l-381 801h101
l338 -711l624 711h121l-711 -801z" />
    <glyph glyph-name="Zacute" unicode="&#x179;" horiz-adv-x="1261" 
d="M1399 1964l-613 -420l-59 64l612 420zM1028 0h-1016l17 82l1134 1266h-839l16 86h958l-16 -82l-1135 -1266h897z" />
    <glyph glyph-name="zacute" unicode="&#x17a;" horiz-adv-x="1013" 
d="M1214 1657l-612 -420l-59 63l612 420zM797 0h-801l16 80l867 924h-660l17 81h774l-17 -79l-866 -924h686z" />
    <glyph glyph-name="Zdotaccent" unicode="&#x17b;" horiz-adv-x="1261" 
d="M862 1597q-41 0 -69.5 28t-28.5 69t28.5 69.5t69.5 28.5t68.5 -28.5t27.5 -69.5t-27.5 -69t-68.5 -28zM1028 0h-1016l17 82l1134 1266h-839l16 86h958l-16 -82l-1135 -1266h897z" />
    <glyph glyph-name="zdotaccent" unicode="&#x17c;" horiz-adv-x="1013" 
d="M678 1290q-41 0 -69.5 27.5t-28.5 68.5t28.5 70t69.5 29t68.5 -28.5t27.5 -70.5q0 -41 -27.5 -68.5t-68.5 -27.5zM797 0h-801l16 80l867 924h-660l17 81h774l-17 -79l-866 -924h686z" />
    <glyph glyph-name="Zcaron" unicode="&#x17d;" horiz-adv-x="1261" 
d="M879 1577h-80l-291 334l59 55l275 -317l405 317l60 -55zM1028 0h-1016l17 82l1134 1266h-839l16 86h958l-16 -82l-1135 -1266h897z" />
    <glyph glyph-name="zcaron" unicode="&#x17e;" horiz-adv-x="1013" 
d="M690 1251h-80l-317 365l67 45l293 -338l434 338l58 -55zM797 0h-801l16 80l867 924h-660l17 81h774l-17 -79l-866 -924h686z" />
    <glyph glyph-name="uni01CD" unicode="&#x1cd;" horiz-adv-x="1433" 
d="M967 1577h-80l-291 334l59 55l275 -317l405 317l60 -55zM70 0h-103l881 1434h96l301 -1434h-96l-98 473h-691zM877 1315l-467 -762h624z" />
    <glyph glyph-name="uni01CE" unicode="&#x1ce;" horiz-adv-x="1136" 
d="M713 1251h-80l-318 365l68 45l293 -338l434 338l57 -55zM401 -10q-153 0 -246.5 76.5t-93.5 207.5q0 60 15.5 108.5t47 82t69.5 58t92 41t105 26.5t118 18q31 4 78.5 9t74 8t64 8.5t58.5 11.5t46 15.5t39 21t25.5 28.5t15.5 38q24 117 -52.5 194.5t-231.5 77.5
q-131 0 -235 -63.5t-140 -196.5h-90q41 170 172 256t305 86q189 0 289.5 -105t64.5 -284l-102 -504q-13 -65 3 -97t79 -32h43l-17 -80h-41q-78 0 -117.5 38t-39.5 107q0 36 8 72q-136 -227 -406 -227zM416 72q355 0 442 420l29 137q-11 -15 -28 -27.5t-41 -21t-44.5 -14.5
t-54.5 -11t-55.5 -7.5t-62.5 -6.5t-60 -6q-74 -8 -123 -16.5t-104.5 -27t-88 -44t-54 -68.5t-21.5 -100q0 -94 72.5 -150.5t193.5 -56.5z" />
    <glyph glyph-name="uni01CF" unicode="&#x1cf;" horiz-adv-x="475" 
d="M489 1577h-79l-291 334l59 55l275 -317l405 317l60 -55zM174 0h-92l291 1434h92z" />
    <glyph glyph-name="uni01D0" unicode="&#x1d0;" horiz-adv-x="382" 
d="M377 1251h-80l-317 365l67 45l293 -338l434 338l57 -55zM125 0h-90l223 1085h90z" />
    <glyph glyph-name="uni01D1" unicode="&#x1d1;" horiz-adv-x="1546" 
d="M1018 1577h-80l-291 334l60 55l274 -317l405 317l60 -55zM674 -14q-246 0 -386.5 146.5t-140.5 406.5q0 255 104.5 463.5t288.5 327t410 118.5q245 0 381.5 -149.5t136.5 -417.5q0 -133 -31.5 -260.5t-97 -242.5t-158 -202.5t-223.5 -138.5t-284 -51zM684 72
q130 0 242.5 46t193.5 124.5t139 181.5t86.5 219t28.5 236q0 230 -114 356.5t-328 126.5q-141 0 -268 -62t-220 -169t-147.5 -258.5t-54.5 -321.5q0 -227 115 -353t327 -126z" />
    <glyph glyph-name="uni01D2" unicode="&#x1d2;" horiz-adv-x="1181" 
d="M764 1251h-80l-317 365l67 45l293 -338l434 338l58 -55zM485 -14q-186 0 -290.5 116t-104.5 308q0 136 42.5 261t119 221t191.5 153t251 57q181 0 289.5 -107t108.5 -313q0 -135 -42 -260t-118 -222t-192.5 -155.5t-254.5 -58.5zM506 70q110 0 204 51.5t156.5 136.5
t97.5 194.5t35 225.5q0 162 -84 251t-237 89q-111 0 -205.5 -50.5t-157.5 -134t-98 -190.5t-35 -221q0 -173 89 -262.5t235 -89.5z" />
    <glyph glyph-name="uni01D3" unicode="&#x1d3;" horiz-adv-x="1406" 
d="M954 1577h-80l-290 334l59 55l275 -317l405 317l59 -55zM592 -14q-108 0 -196 30t-149 87t-84.5 147t-0.5 203l198 981h93l-199 -977q-38 -184 58.5 -283.5t295.5 -99.5q198 0 335.5 98t176.5 287l197 975h92l-199 -981q-46 -232 -209 -349.5t-409 -117.5z" />
    <glyph glyph-name="uni01D4" unicode="&#x1d4;" horiz-adv-x="1116" 
d="M731 1251h-80l-317 365l67 45l293 -338l434 338l58 -55zM408 -14q-171 0 -257.5 104.5t-50.5 284.5l146 710h90l-146 -712q-28 -140 35.5 -221.5t206.5 -81.5q155 0 271 99t155 269l131 647h90l-221 -1085h-70l33 219q-66 -111 -171.5 -172t-241.5 -61z" />
    <glyph glyph-name="uni01D5" unicode="&#x1d5;" horiz-adv-x="1406" 
d="M1360 2079h-688l16 80h688zM733 1602q-41 0 -67.5 27.5t-26.5 68.5q0 40 26.5 67t67.5 27q40 0 67 -27t27 -67q0 -41 -27 -68.5t-67 -27.5zM1143 1602q-41 0 -67.5 27.5t-26.5 68.5q0 40 26.5 67t67.5 27q40 0 67 -27t27 -67q0 -41 -27 -68.5t-67 -27.5zM592 -14
q-108 0 -196 30t-149 87t-84.5 147t-0.5 203l198 981h93l-199 -977q-38 -184 58.5 -283.5t295.5 -99.5q198 0 335.5 98t176.5 287l197 975h92l-199 -981q-46 -232 -209 -349.5t-409 -117.5z" />
    <glyph glyph-name="uni01D6" unicode="&#x1d6;" horiz-adv-x="1116" 
d="M1135 1749h-689l17 80h688zM514 1294q-41 0 -67.5 27.5t-26.5 69.5q0 40 26.5 67t67.5 27q40 0 67 -27t27 -67q0 -41 -27 -69t-67 -28zM924 1294q-41 0 -68 28t-27 69q0 40 27 67t68 27q40 0 67 -27t27 -67q0 -41 -27 -69t-67 -28zM408 -14q-171 0 -257.5 104.5
t-50.5 284.5l146 710h90l-146 -712q-28 -140 35.5 -221.5t206.5 -81.5q155 0 271 99t155 269l131 647h90l-221 -1085h-70l33 219q-66 -111 -171.5 -172t-241.5 -61z" />
    <glyph glyph-name="uni01D7" unicode="&#x1d7;" horiz-adv-x="1406" 
d="M1556 2363l-612 -419l-59 63l612 420zM733 1602q-41 0 -67.5 27.5t-26.5 68.5q0 40 26.5 67t67.5 27q40 0 67 -27t27 -67q0 -41 -27 -68.5t-67 -27.5zM1143 1602q-41 0 -67.5 27.5t-26.5 68.5q0 40 26.5 67t67.5 27q40 0 67 -27t27 -67q0 -41 -27 -68.5t-67 -27.5z
M592 -14q-108 0 -196 30t-149 87t-84.5 147t-0.5 203l198 981h93l-199 -977q-38 -184 58.5 -283.5t295.5 -99.5q198 0 335.5 98t176.5 287l197 975h92l-199 -981q-46 -232 -209 -349.5t-409 -117.5z" />
    <glyph glyph-name="uni01D8" unicode="&#x1d8;" horiz-adv-x="1116" 
d="M1335 2056l-612 -420l-59 64l612 420zM514 1294q-41 0 -67.5 27.5t-26.5 69.5q0 40 26.5 67t67.5 27q40 0 67 -27t27 -67q0 -41 -27 -69t-67 -28zM924 1294q-41 0 -68 28t-27 69q0 40 27 67t68 27q40 0 67 -27t27 -67q0 -41 -27 -69t-67 -28zM408 -14
q-171 0 -257.5 104.5t-50.5 284.5l146 710h90l-146 -712q-28 -140 35.5 -221.5t206.5 -81.5q155 0 271 99t155 269l131 647h90l-221 -1085h-70l33 219q-66 -111 -171.5 -172t-241.5 -61z" />
    <glyph glyph-name="uni01D9" unicode="&#x1d9;" horiz-adv-x="1406" 
d="M1036 1976h-80l-290 334l59 55l274 -317l406 317l59 -55zM733 1602q-41 0 -67.5 27.5t-26.5 68.5q0 40 26.5 67t67.5 27q40 0 67 -27t27 -67q0 -41 -27 -68.5t-67 -27.5zM1143 1602q-41 0 -67.5 27.5t-26.5 68.5q0 40 26.5 67t67.5 27q40 0 67 -27t27 -67
q0 -41 -27 -68.5t-67 -27.5zM592 -14q-108 0 -196 30t-149 87t-84.5 147t-0.5 203l198 981h93l-199 -977q-38 -184 58.5 -283.5t295.5 -99.5q198 0 335.5 98t176.5 287l197 975h92l-199 -981q-46 -232 -209 -349.5t-409 -117.5z" />
    <glyph glyph-name="uni01DA" unicode="&#x1da;" horiz-adv-x="1116" 
d="M811 1651h-80l-317 364l67 45l293 -338l434 338l58 -55zM514 1294q-41 0 -67.5 27.5t-26.5 69.5q0 40 26.5 67t67.5 27q40 0 67 -27t27 -67q0 -41 -27 -69t-67 -28zM924 1294q-41 0 -68 28t-27 69q0 40 27 67t68 27q40 0 67 -27t27 -67q0 -41 -27 -69t-67 -28zM408 -14
q-171 0 -257.5 104.5t-50.5 284.5l146 710h90l-146 -712q-28 -140 35.5 -221.5t206.5 -81.5q155 0 271 99t155 269l131 647h90l-221 -1085h-70l33 219q-66 -111 -171.5 -172t-241.5 -61z" />
    <glyph glyph-name="uni01DB" unicode="&#x1db;" horiz-adv-x="1406" 
d="M1094 2007l-60 -61l-481 458l59 62zM733 1602q-41 0 -67.5 27.5t-26.5 68.5q0 40 26.5 67t67.5 27q40 0 67 -27t27 -67q0 -41 -27 -68.5t-67 -27.5zM1143 1602q-41 0 -67.5 27.5t-26.5 68.5q0 40 26.5 67t67.5 27q40 0 67 -27t27 -67q0 -41 -27 -68.5t-67 -27.5zM592 -14
q-108 0 -196 30t-149 87t-84.5 147t-0.5 203l198 981h93l-199 -977q-38 -184 58.5 -283.5t295.5 -99.5q198 0 335.5 98t176.5 287l197 975h92l-199 -981q-46 -232 -209 -349.5t-409 -117.5z" />
    <glyph glyph-name="uni01DC" unicode="&#x1dc;" horiz-adv-x="1116" 
d="M872 1698l-59 -62l-481 459l59 62zM514 1294q-41 0 -67.5 27.5t-26.5 69.5q0 40 26.5 67t67.5 27q40 0 67 -27t27 -67q0 -41 -27 -69t-67 -28zM924 1294q-41 0 -68 28t-27 69q0 40 27 67t68 27q40 0 67 -27t27 -67q0 -41 -27 -69t-67 -28zM408 -14q-171 0 -257.5 104.5
t-50.5 284.5l146 710h90l-146 -712q-28 -140 35.5 -221.5t206.5 -81.5q155 0 271 99t155 269l131 647h90l-221 -1085h-70l33 219q-66 -111 -171.5 -172t-241.5 -61z" />
    <glyph glyph-name="uni0218" unicode="&#x218;" horiz-adv-x="1288" 
d="M643 -14q-175 -1 -302.5 49t-189 151t-36.5 238h90q-29 -169 93 -262.5t349 -91.5q179 2 286 92.5t107 243.5q0 46 -13 82.5t-31.5 61t-52 45.5t-61.5 33.5t-73 28.5l-242 88q-102 38 -143 63q-152 89 -152 259q0 174 129 277.5t326 103.5q245 0 367.5 -114t99.5 -328
h-90q17 184 -83 272t-300 86q-158 -2 -256 -80t-98 -211q0 -32 8 -60t17.5 -48t30.5 -39.5t34.5 -30.5t41.5 -24.5t40 -18.5t42.5 -16t36.5 -13l230 -84q51 -19 86 -35t76.5 -44t66.5 -60t42.5 -80.5t17.5 -107.5q0 -199 -134.5 -311.5t-359.5 -114.5zM610 -104l-354 -672
l-86 26l346 674z" />
    <glyph glyph-name="uni0219" unicode="&#x219;" horiz-adv-x="978" 
d="M446 -14q-191 0 -296.5 90.5t-81.5 255.5h86q-17 -131 63.5 -197.5t233.5 -66.5q141 0 223 56t82 165q0 75 -42.5 116t-133.5 80l-162 70q-5 2 -16 7q-33 14 -50.5 22.5t-48 26t-47.5 35.5t-36 44t-27.5 59.5t-8.5 73.5q0 124 96.5 201.5t251.5 77.5q176 0 277.5 -86.5
t95.5 -257.5h-86q0 136 -77 199t-214 63q-117 0 -187.5 -51.5t-70.5 -139.5q0 -43 13.5 -75.5t44 -56.5t56.5 -37.5t73 -32.5l157 -66q56 -23 90.5 -42.5t69.5 -50t51.5 -73t16.5 -98.5q0 -148 -107 -229.5t-289 -81.5zM463 -104l-354 -672l-86 26l346 674z" />
    <glyph glyph-name="uni021A" unicode="&#x21a;" horiz-adv-x="1288" 
d="M584 0h-95l275 1350h-516l16 84h1122l-16 -84h-512zM575 -104l-354 -672l-86 26l346 674z" />
    <glyph glyph-name="uni021B" unicode="&#x21b;" horiz-adv-x="753" 
d="M549 0h-111q-137 0 -194 75.5t-27 223.5l143 707h-219l17 79h219l76 371h90l-76 -371h321l-16 -79h-321l-144 -707q-23 -114 12 -166.5t136 -52.5h110zM432 -104l-354 -672l-86 26l346 674z" />
    <glyph glyph-name="circumflex" unicode="&#x2c6;" horiz-adv-x="985" 
d="M709 1577l-430 -338l-60 55l455 355h80l317 -365l-67 -45z" />
    <glyph glyph-name="caron" unicode="&#x2c7;" horiz-adv-x="985" 
d="M682 1251h-80l-317 365l67 45l293 -338l434 338l58 -55z" />
    <glyph glyph-name="breve" unicode="&#x2d8;" horiz-adv-x="829" 
d="M565 1257q-131 0 -202 73.5t-50 197.5l6 35h82l-6 -37q-15 -89 35.5 -141t147.5 -52q102 0 172.5 50.5t83.5 138.5l6 41h82l-7 -41q-19 -124 -112 -194.5t-238 -70.5z" />
    <glyph glyph-name="dotaccent" unicode="&#x2d9;" horiz-adv-x="382" 
d="M365 1290q-42 0 -70.5 27.5t-28.5 68.5t29 70t70 29t68.5 -28.5t27.5 -70.5q0 -41 -27.5 -68.5t-68.5 -27.5z" />
    <glyph glyph-name="ring" unicode="&#x2da;" horiz-adv-x="528" 
d="M438 1229q-72 0 -121 46.5t-49 115.5t49 115t121 46t120 -46t48 -115t-48 -115.5t-120 -46.5zM438 1298q38 0 64 26.5t26 66.5t-26 66t-64 26q-40 0 -66 -26t-26 -66t26 -66.5t66 -26.5z" />
    <glyph glyph-name="tilde" unicode="&#x2dc;" horiz-adv-x="933" 
d="M817 1333q-43 1 -82 18.5t-68.5 42.5t-57 49.5t-57.5 42t-60 17.5q-51 0 -87 -43.5t-45 -118.5h-84q13 110 71 175t142 65q40 0 77 -17.5t66 -42.5t56.5 -50t61 -42.5t67.5 -17.5q105 0 127 152h82q-12 -110 -66 -170.5t-143 -59.5z" />
    <glyph glyph-name="hungarumlaut" unicode="&#x2dd;" horiz-adv-x="827" 
d="M727 1688l-436 -437l-72 47l436 437zM995 1688l-465 -459l-69 47l463 459z" />
    <glyph glyph-name="gravecomb" unicode="&#x300;" 
d="M88 1298l-59 -61l-482 459l60 61z" />
    <glyph glyph-name="acutecomb" unicode="&#x301;" 
d="M162 1657l-613 -420l-59 63l612 420z" />
    <glyph glyph-name="uni0302" unicode="&#x302;" 
d="M-276 1577l-431 -338l-59 55l455 355h80l317 -365l-68 -45z" />
    <glyph glyph-name="tildecomb" unicode="&#x303;" 
d="M-117 1333q-43 1 -82 18.5t-68.5 42.5t-57 49.5t-57.5 42t-60 17.5q-51 0 -86.5 -43.5t-44.5 -118.5h-84q13 110 71 175t142 65q40 0 77 -17.5t65.5 -42.5t56.5 -50t61 -42.5t67 -17.5q105 0 127 152h82q-12 -110 -66 -170.5t-143 -59.5z" />
    <glyph glyph-name="uni0304" unicode="&#x304;" 
d="M92 1350h-688l16 80h689z" />
    <glyph glyph-name="uni0306" unicode="&#x306;" 
d="M-264 1257q-131 0 -202 73.5t-50 197.5l6 35h82l-6 -37q-15 -89 35 -141t147 -52q102 0 172.5 50.5t83.5 138.5l6 41h82l-6 -41q-19 -124 -112 -194.5t-238 -70.5z" />
    <glyph glyph-name="uni0307" unicode="&#x307;" 
d="M-18 1290q-42 0 -70.5 27.5t-28.5 68.5t29 70t70 29t68.5 -28.5t27.5 -70.5q0 -41 -27.5 -68.5t-68.5 -27.5z" />
    <glyph glyph-name="uni0308" unicode="&#x308;" 
d="M-426 1294q-41 0 -67.5 27.5t-26.5 69.5q0 40 26.5 67t67.5 27q40 0 67 -27t27 -67q0 -41 -27 -69t-67 -28zM-16 1294q-41 0 -68 28t-27 69q0 40 27 67t68 27q40 0 67 -27t27 -67q0 -41 -27 -69t-67 -28z" />
    <glyph glyph-name="uni030A" unicode="&#x30a;" 
d="M-90 1229q-72 0 -121 46.5t-49 115.5t49 115t121 46t120 -46t48 -115t-48 -115.5t-120 -46.5zM-90 1298q38 0 64 26.5t26 66.5t-26 66t-64 26q-40 0 -66 -26t-26 -66t26 -66.5t66 -26.5z" />
    <glyph glyph-name="uni030B" unicode="&#x30b;" 
d="M-100 1688l-437 -437l-71 47l436 437zM168 1688l-465 -459l-70 47l463 459z" />
    <glyph glyph-name="uni030C" unicode="&#x30c;" 
d="M-303 1251h-80l-317 365l67 45l293 -338l434 338l58 -55z" />
    <glyph glyph-name="uni0326" unicode="&#x326;" 
d="M-197 -104l-354 -672l-86 26l346 674z" />
    <glyph glyph-name="uni0327" unicode="&#x327;" 
d="M-176 0l-158 -403l-86 16l158 403z" />
    <glyph glyph-name="uni0328" unicode="&#x328;" 
d="M-408 -426q-87 0 -130.5 39t-43.5 104q0 88 73.5 165.5t184.5 135.5h9l-4 -18h61q-95 -47 -164.5 -118t-69.5 -140q0 -84 103 -84q43 0 84 16l-2 -84q-45 -16 -101 -16z" />
    <glyph glyph-name="Wgrave" unicode="&#x1e80;" horiz-adv-x="1869" 
d="M1243 1608l-59 -62l-482 459l60 61zM449 0h-107l-115 1434h97l98 -1303l645 1303h96l117 -1301l625 1301h102l-696 -1434h-101l-118 1300z" />
    <glyph glyph-name="wgrave" unicode="&#x1e81;" horiz-adv-x="1472" 
d="M983 1298l-59 -61l-482 459l60 61zM358 0h-102l-100 1085h90l86 -972l469 972h92l70 -964l477 964h98l-543 -1085h-100l-70 969z" />
    <glyph glyph-name="Wacute" unicode="&#x1e82;" horiz-adv-x="1869" 
d="M1706 1964l-612 -420l-60 64l613 420zM449 0h-107l-115 1434h97l98 -1303l645 1303h96l117 -1301l625 1301h102l-696 -1434h-101l-118 1300z" />
    <glyph glyph-name="wacute" unicode="&#x1e83;" horiz-adv-x="1472" 
d="M1446 1657l-612 -420l-60 63l612 420zM358 0h-102l-100 1085h90l86 -972l469 972h92l70 -964l477 964h98l-543 -1085h-100l-70 969z" />
    <glyph glyph-name="Wdieresis" unicode="&#x1e84;" horiz-adv-x="1869" 
d="M965 1602q-41 0 -68 27.5t-27 68.5q0 40 27 67t68 27q40 0 67 -27t27 -67q0 -41 -27 -68.5t-67 -27.5zM1374 1602q-41 0 -67.5 27.5t-26.5 68.5q0 40 26.5 67t67.5 27q40 0 67 -27t27 -67q0 -41 -27 -68.5t-67 -27.5zM449 0h-107l-115 1434h97l98 -1303l645 1303h96
l117 -1301l625 1301h102l-696 -1434h-101l-118 1300z" />
    <glyph glyph-name="wdieresis" unicode="&#x1e85;" horiz-adv-x="1472" 
d="M705 1294q-41 0 -68 28t-27 69q0 40 27 67t68 27q40 0 67 -27t27 -67q0 -41 -27 -69t-67 -28zM1114 1294q-41 0 -67.5 27.5t-26.5 69.5q0 40 26.5 67t67.5 27q40 0 67 -27t27 -67q0 -41 -27 -69t-67 -28zM358 0h-102l-100 1085h90l86 -972l469 972h92l70 -964l477 964h98
l-543 -1085h-100l-70 969z" />
    <glyph glyph-name="uni1E9E" unicode="&#x1e9e;" horiz-adv-x="1423" 
d="M739 -14q-168 0 -311 63l18 92q138 -71 299 -71q189 0 309 112.5t120 292.5q0 159 -115 242t-336 82l18 96l461 457h-522q-233 0 -289 -267l-221 -1085h-90l221 1085q36 175 131 262t264 87h629l-14 -86l-488 -482q201 -9 320 -108t119 -281q0 -218 -146 -354.5
t-377 -136.5z" />
    <glyph glyph-name="Ygrave" unicode="&#x1ef2;" horiz-adv-x="1265" 
d="M932 1608l-60 -62l-481 459l60 61zM567 0h-92l129 633l-381 801h101l338 -711l624 711h121l-711 -801z" />
    <glyph glyph-name="ygrave" unicode="&#x1ef3;" horiz-adv-x="1067" 
d="M760 1298l-60 -61l-481 459l60 61zM72 -410h-185l17 80h178q73 0 124 36.5t97 115.5l103 178h-41l-209 1085h92l194 -1019l586 1019h105l-760 -1321q-49 -88 -119 -131t-182 -43z" />
    <glyph glyph-name="endash" unicode="&#x2013;" horiz-adv-x="1091" 
d="M995 606h-874l16 82h875z" />
    <glyph glyph-name="emdash" unicode="&#x2014;" horiz-adv-x="1798" 
d="M1702 606h-1581l16 82h1581z" />
    <glyph glyph-name="quoteleft" unicode="&#x2018;" horiz-adv-x="522" 
d="M193 872l354 672l86 -26l-346 -674z" />
    <glyph glyph-name="quoteright" unicode="&#x2019;" horiz-adv-x="522" 
d="M633 1516l-354 -672l-86 26l346 674z" />
    <glyph glyph-name="quotesinglbase" unicode="&#x201a;" horiz-adv-x="522" 
d="M352 317l-354 -671l-86 26l346 674z" />
    <glyph glyph-name="quotedblleft" unicode="&#x201c;" horiz-adv-x="815" 
d="M193 872l354 672l86 -26l-346 -674zM485 872l355 672l86 -26l-346 -674z" />
    <glyph glyph-name="quotedblright" unicode="&#x201d;" horiz-adv-x="815" 
d="M633 1516l-354 -672l-86 26l346 674zM926 1516l-355 -672l-86 26l346 674z" />
    <glyph glyph-name="quotedblbase" unicode="&#x201e;" horiz-adv-x="815" 
d="M352 317l-354 -671l-86 26l346 674zM645 317l-354 -671l-86 26l346 674z" />
    <glyph glyph-name="dagger" unicode="&#x2020;" horiz-adv-x="1101" 
d="M586 496h-92l137 671h-393l14 70h393l62 299h92l-62 -299h396l-15 -70h-395z" />
    <glyph glyph-name="daggerdbl" unicode="&#x2021;" horiz-adv-x="1105" 
d="M588 496h-92l61 299h-393l14 69h393l62 303h-393l14 70h393l62 299h92l-62 -299h396l-15 -70h-395l-61 -303h395l-15 -69h-395z" />
    <glyph glyph-name="bullet" unicode="&#x2022;" horiz-adv-x="618" 
d="M326 469q-66 0 -109 43t-43 109t43 108.5t109 42.5q65 0 107 -42.5t42 -108.5t-42 -109t-107 -43z" />
    <glyph glyph-name="ellipsis" unicode="&#x2026;" horiz-adv-x="1316" 
d="M137 -14q-41 0 -69.5 27.5t-28.5 68.5t28.5 69.5t69.5 28.5t68.5 -28.5t27.5 -69.5t-27.5 -68.5t-68.5 -27.5zM565 -14q-41 0 -69.5 27.5t-28.5 68.5t28.5 69.5t69.5 28.5t69 -28.5t28 -69.5t-28 -68.5t-69 -27.5zM993 -14q-41 0 -69.5 27.5t-28.5 68.5t28.5 69.5
t69.5 28.5t69 -28.5t28 -69.5t-28 -68.5t-69 -27.5z" />
    <glyph glyph-name="perthousand" unicode="&#x2030;" horiz-adv-x="2578" 
d="M1708 1454l-1317 -1468l-82 37l1317 1468zM444 711q-120 0 -181.5 81t-61.5 203q0 80 25.5 159t71.5 145.5t120 107.5t162 41q118 0 179.5 -82t61.5 -209q0 -78 -25.5 -156t-71.5 -143t-119.5 -106t-160.5 -41zM455 788q85 0 151 57t98.5 140t32.5 172q0 90 -44 151.5
t-128 61.5q-63 0 -117 -33.5t-89 -86.5t-54.5 -117t-19.5 -127q0 -95 42.5 -156.5t127.5 -61.5zM1384 -14q-120 0 -181.5 81t-61.5 203q0 80 25.5 159t71.5 145.5t120 107.5t162 41q118 0 179.5 -82t61.5 -209q0 -78 -25.5 -156t-71.5 -143t-119.5 -106t-160.5 -41z
M2071 -14q-120 0 -182 81t-62 203q0 80 25.5 159t71.5 145.5t120 107.5t162 41q118 0 179.5 -82t61.5 -209q0 -78 -25.5 -155.5t-71.5 -143t-119 -106.5t-160 -41zM1395 63q85 0 151 57t98.5 140t32.5 172q0 90 -44 151.5t-128 61.5q-63 0 -117 -33.5t-89 -86.5t-54.5 -117
t-19.5 -127q0 -95 42.5 -156.5t127.5 -61.5zM2081 63q85 0 151 57t98.5 140t32.5 172q0 90 -44 151.5t-128 61.5q-63 0 -117 -33.5t-89 -86.5t-54.5 -117t-19.5 -127q0 -95 42.5 -156.5t127.5 -61.5z" />
    <glyph glyph-name="guilsinglleft" unicode="&#x2039;" horiz-adv-x="716" 
d="M522 141l-67 -59l-351 440l21 99l534 444l64 -64l-537 -442z" />
    <glyph glyph-name="guilsinglright" unicode="&#x203a;" horiz-adv-x="714" 
d="M602 522l-530 -440l-60 63l531 437l-344 424l69 59l355 -444z" />
    <glyph glyph-name="fraction" unicode="&#x2044;" horiz-adv-x="1370" 
d="M1438 1454l-1350 -1505l-82 37l1350 1505z" />
    <glyph glyph-name="uni2070" unicode="&#x2070;" horiz-adv-x="831" 
d="M485 844q-106 0 -165.5 74.5t-59.5 218.5q0 93 25 184t71 166.5t119.5 122.5t161.5 47q108 0 165.5 -73.5t57.5 -217.5q0 -93 -24.5 -184t-70 -167.5t-119 -123.5t-161.5 -47zM498 915q87 0 154 74t98.5 174.5t31.5 200.5q0 105 -39.5 163t-115.5 58q-67 0 -124 -43
t-91.5 -110t-54 -143.5t-19.5 -149.5q0 -108 41.5 -166t118.5 -58z" />
    <glyph glyph-name="uni2074" unicode="&#x2074;" horiz-adv-x="770" 
d="M629 860h-80l41 197h-389l16 80l490 503h81l-104 -514h145l-14 -69h-145zM682 1520l-381 -394h303z" />
    <glyph glyph-name="uni2075" unicode="&#x2075;" horiz-adv-x="753" 
d="M461 844q-118 0 -183 67.5t-53 180.5h72q-8 -77 36 -127t132 -50q101 0 164 64.5t63 167.5q0 75 -42 114t-111 39q-104 0 -183 -73h-80l123 413h414l-14 -71h-344l-80 -271q84 70 188 70q91 0 147 -54.5t56 -162.5q0 -133 -85 -220t-220 -87z" />
    <glyph glyph-name="uni2076" unicode="&#x2076;" horiz-adv-x="811" 
d="M518 844q-125 0 -190.5 79t-65.5 226q0 128 45 242.5t136.5 190t211.5 75.5q110 0 167 -64.5t48 -179.5h-71q5 83 -33 127.5t-117 44.5q-90 0 -158 -54t-105 -139.5t-50 -195.5q44 84 114 132t156 48q100 0 155.5 -60.5t55.5 -162.5q0 -129 -85.5 -219t-213.5 -90z
M520 915q99 0 161 66.5t62 163.5q0 77 -42 119.5t-115 42.5q-104 0 -166 -72.5t-62 -161.5q0 -68 41 -113t121 -45z" />
    <glyph glyph-name="uni2077" unicode="&#x2077;" horiz-adv-x="681" 
d="M315 860h-98l518 709h-454l14 71h543l-17 -77z" />
    <glyph glyph-name="uni2078" unicode="&#x2078;" horiz-adv-x="800" 
d="M473 844q-117 0 -185.5 51t-68.5 141q0 84 58 148.5t151 91.5q-45 22 -71.5 62.5t-26.5 93.5q0 101 78 163t190 62q103 0 163 -53.5t60 -137.5q0 -71 -39 -121t-112 -75q125 -50 125 -174q0 -110 -91 -181t-231 -71zM561 1303q85 0 136 42.5t51 110.5q0 60 -41.5 95.5
t-114.5 35.5q-80 0 -134.5 -43t-54.5 -110q0 -59 43 -95t115 -36zM477 913q105 0 172.5 53.5t67.5 135.5q0 64 -46.5 101.5t-127.5 37.5q-100 0 -173 -54t-73 -138q0 -65 48.5 -100.5t131.5 -35.5z" />
    <glyph glyph-name="uni2079" unicode="&#x2079;" horiz-adv-x="792" 
d="M446 844q-111 0 -170.5 60.5t-52.5 176.5h74q-6 -82 34.5 -124t121.5 -42q66 0 119 31.5t87.5 85t55 118t26.5 136.5q-35 -74 -101.5 -116t-145.5 -42q-99 0 -156 59t-57 159q0 135 84.5 223t216.5 88q111 0 174 -72.5t63 -214.5q0 -98 -22 -189t-65 -168t-117 -123
t-169 -46zM504 1196q99 0 161 74.5t62 161.5q0 68 -37.5 111.5t-111.5 43.5q-96 0 -160 -67t-64 -164q0 -77 40 -118.5t110 -41.5z" />
    <glyph glyph-name="uni2080" unicode="&#x2080;" horiz-adv-x="831" 
d="M268 -223q-106 0 -165.5 74.5t-59.5 218.5q0 93 25 184t71 166.5t119.5 122.5t161.5 47q108 0 165.5 -73.5t57.5 -217.5q0 -93 -24.5 -184t-70 -167.5t-119 -123.5t-161.5 -47zM281 -152q87 0 154 74t98.5 174.5t31.5 200.5q0 105 -39.5 163t-115.5 58q-67 0 -124 -43
t-91.5 -110t-54 -143.5t-19.5 -149.5q0 -108 41.5 -166t118.5 -58z" />
    <glyph glyph-name="uni2081" unicode="&#x2081;" horiz-adv-x="544" 
d="M201 -207h-80l127 625q-54 -78 -174 -78h-43l16 82h43q77 0 126.5 36.5t62.5 104.5l2 10h79z" />
    <glyph glyph-name="uni2082" unicode="&#x2082;" horiz-adv-x="763" 
d="M508 -207h-522l14 70q16 79 71 140t122.5 99.5t134.5 73.5t117.5 79.5t60.5 98.5q14 75 -24.5 119.5t-121.5 44.5q-89 0 -144.5 -48t-70.5 -136h-73q20 121 97 188.5t196 67.5q116 0 177 -67t38 -179q-10 -48 -39.5 -88.5t-70.5 -70.5t-89 -57t-96.5 -54.5t-90.5 -57.5
t-74 -70.5t-44 -88.5h444z" />
    <glyph glyph-name="uni2083" unicode="&#x2083;" horiz-adv-x="741" 
d="M246 -223q-132 0 -201.5 70t-52.5 194h76q-18 -195 184 -195q86 0 144.5 48.5t58.5 130.5q0 60 -38 95.5t-104 35.5h-110l16 77h103q76 0 128 44.5t52 115.5q0 58 -38 92.5t-106 34.5q-71 0 -127.5 -41.5t-83.5 -132.5h-79q33 119 113 181.5t184 62.5q96 0 154.5 -50
t58.5 -132q0 -77 -49 -134t-132 -77q62 -15 98.5 -61t36.5 -111q0 -109 -79.5 -178.5t-206.5 -69.5z" />
    <glyph glyph-name="uni2084" unicode="&#x2084;" horiz-adv-x="770" 
d="M412 -207h-80l41 197h-389l16 80l489 503h82l-104 -514h145l-14 -69h-145zM465 453l-381 -394h303z" />
    <glyph glyph-name="uni2085" unicode="&#x2085;" horiz-adv-x="753" 
d="M244 -223q-118 0 -183 67.5t-53 180.5h72q-8 -77 36 -127t132 -50q101 0 164 64.5t63 167.5q0 75 -42 114t-111 39q-104 0 -183 -73h-80l123 413h414l-14 -71h-344l-80 -271q84 70 188 70q91 0 147 -54.5t56 -162.5q0 -133 -85 -220t-220 -87z" />
    <glyph glyph-name="uni2086" unicode="&#x2086;" horiz-adv-x="811" 
d="M301 -223q-125 0 -190.5 79t-65.5 226q0 128 45 242.5t136.5 190t211.5 75.5q110 0 167 -64.5t48 -179.5h-71q5 83 -33 127.5t-117 44.5q-90 0 -158 -54t-105 -139.5t-50 -195.5q44 84 114 132t156 48q100 0 155.5 -60.5t55.5 -162.5q0 -129 -85.5 -219t-213.5 -90z
M303 -152q99 0 161 66.5t62 163.5q0 77 -42 119.5t-115 42.5q-104 0 -166 -72.5t-62 -161.5q0 -68 41 -113t121 -45z" />
    <glyph glyph-name="uni2087" unicode="&#x2087;" horiz-adv-x="681" 
d="M98 -207h-98l518 709h-455l15 71h543l-17 -77z" />
    <glyph glyph-name="uni2088" unicode="&#x2088;" horiz-adv-x="800" 
d="M256 -223q-117 0 -185.5 51t-68.5 141q0 84 58 148.5t151 91.5q-45 22 -71.5 62.5t-26.5 93.5q0 101 78 163t190 62q103 0 163 -53.5t60 -137.5q0 -71 -39 -121t-112 -75q125 -50 125 -174q0 -110 -91 -181t-231 -71zM344 236q85 0 135.5 42.5t50.5 110.5q0 61 -41 96
t-114 35q-80 0 -134.5 -43t-54.5 -110q0 -59 43 -95t115 -36zM260 -154q105 0 172.5 53.5t67.5 135.5q0 64 -46.5 101.5t-127.5 37.5q-100 0 -173 -54t-73 -138q0 -65 48.5 -100.5t131.5 -35.5z" />
    <glyph glyph-name="uni2089" unicode="&#x2089;" horiz-adv-x="792" 
d="M229 -223q-111 0 -170.5 60.5t-52.5 176.5h74q-6 -82 34.5 -124t121.5 -42q66 0 119 31.5t87.5 85t55 118t26.5 136.5q-35 -74 -102 -116t-146 -42q-99 0 -156 59t-57 159q0 134 84.5 222.5t217.5 88.5q111 0 174 -72.5t63 -214.5q0 -98 -22 -189t-65 -168t-117 -123
t-169 -46zM287 129q99 0 161 74.5t62 161.5q0 67 -38 111t-112 44q-96 0 -159.5 -66.5t-63.5 -164.5q0 -77 40 -118.5t110 -41.5z" />
    <glyph glyph-name="Euro" unicode="&#x20ac;" horiz-adv-x="1718" 
d="M1135 1362q-223 0 -392 -131.5t-249 -343.5h655l-14 -70h-666q-26 -90 -35 -196h660l-15 -70h-647q0 -236 123.5 -357.5t331.5 -121.5q213 0 370.5 117.5t241.5 359.5h96q-95 -289 -280 -426t-438 -137q-247 0 -394 147.5t-147 403.5v14h-262l14 70h252q5 86 33 196h-244
l14 70h252q88 251 287.5 406t468.5 155q251 0 384 -143.5t124 -419.5h-92q0 237 -104 357t-328 120z" />
    <glyph glyph-name="uni2116" unicode="&#x2116;" horiz-adv-x="2158" 
d="M1839 809q-113 0 -174 72.5t-61 181.5q0 96 41.5 183t124.5 144.5t190 57.5q115 0 175 -71t60 -179q0 -67 -24 -135t-67.5 -125t-113 -93t-151.5 -36zM172 0h-90l291 1434h106l651 -1315l267 1315h90l-291 -1434h-106l-652 1317zM1851 879q78 0 140.5 49t93.5 119.5
t31 144.5q0 81 -42 133.5t-124 52.5q-79 0 -142 -48t-94 -117.5t-31 -143.5q0 -81 42.5 -135.5t125.5 -54.5zM2003 545h-465l16 82h465z" />
    <glyph glyph-name="trademark" unicode="&#x2122;" horiz-adv-x="1454" 
d="M424 741h-76l125 623h-244l15 70h563l-14 -70h-244zM803 741h-76l139 693h76l131 -611l377 611h78l-139 -693h-76l104 521l-321 -521h-74l-113 525z" />
    <glyph glyph-name="estimated" unicode="&#x212e;" horiz-adv-x="1591" 
d="M743 -31q-286 0 -459 164t-173 440q0 174 68 337.5t183 285t276.5 195t338.5 73.5q292 0 448 -188t115 -508l-8 -63h-1188l-82 -441q71 -110 197.5 -170.5t290.5 -60.5q143 0 269 45.5t229.5 141t166.5 233.5h72q-92 -230 -293.5 -357t-450.5 -127zM434 1178l-78 -410
h971l78 416q-64 104 -173.5 160.5t-258.5 56.5q-152 0 -291.5 -58t-247.5 -165z" />
    <glyph glyph-name="arrowleft" unicode="&#x2190;" horiz-adv-x="1929" 
d="M713 68l-64 -56l-508 639l17 82l770 639l53 -59l-700 -580h1579l-17 -82h-1599z" />
    <glyph glyph-name="arrowup" unicode="&#x2191;" horiz-adv-x="1550" 
d="M682 -143h-88l303 1495l-696 -576l-47 64l768 637h88l510 -637l-64 -54l-467 588z" />
    <glyph glyph-name="arrowright" unicode="&#x2192;" horiz-adv-x="1929" 
d="M1833 651l-770 -639l-51 64l696 575h-1577l16 82h1598l-465 582l61 57l508 -639z" />
    <glyph glyph-name="arrowdown" unicode="&#x2193;" horiz-adv-x="1548" 
d="M698 -43h-86l-510 637l64 53l467 -586l307 1516h86l-303 -1497l686 569l57 -55z" />
    <glyph glyph-name="arrowboth" unicode="&#x2194;" horiz-adv-x="2136" 
d="M713 68l-64 -56l-508 639l17 82l770 639l53 -59l-700 -580h1671l-465 582l61 57l508 -639l-16 -82l-770 -639l-51 64l696 575h-1671z" />
    <glyph glyph-name="uni2196" unicode="&#x2196;" horiz-adv-x="1644" 
d="M1460 86l-69 -57l-971 1216l-168 -915h-84l182 995l70 66h1003l-16 -82h-922z" />
    <glyph glyph-name="uni2197" unicode="&#x2197;" horiz-adv-x="1667" 
d="M1516 1237l-1465 -1217l-51 72l1464 1215h-909l16 82h992l53 -70l-182 -991h-84z" />
    <glyph glyph-name="uni2198" unicode="&#x2198;" horiz-adv-x="1630" 
d="M1288 45h-1003l16 82h922l-969 1214l68 60l962 -1204l166 909h84l-182 -995z" />
    <glyph glyph-name="uni2199" unicode="&#x2199;" horiz-adv-x="1642" 
d="M1147 45h-997l-48 66l203 995h84l-184 -911l1462 1214l45 -68l-1464 -1214h915z" />
    <glyph glyph-name="uni21B0" unicode="&#x21b0;" horiz-adv-x="1886" 
d="M1591 0h-86l168 827h-1392l305 -378l-64 -52l-342 430l17 82l518 430l55 -59l-448 -371h1454z" />
    <glyph glyph-name="uni21B1" unicode="&#x21b1;" horiz-adv-x="1888" 
d="M162 0h-86l184 909h1477l-301 375l61 55l342 -430l-16 -82l-518 -430l-58 56l453 374h-1370z" />
    <glyph glyph-name="uni21B2" unicode="&#x21b2;" horiz-adv-x="1888" 
d="M524 145l-63 -51l-342 430l16 82l518 430l56 -59l-449 -371h1370l168 828h86l-186 -910h-1479z" />
    <glyph glyph-name="uni21B3" unicode="&#x21b3;" horiz-adv-x="1888" 
d="M1759 524l-518 -430l-57 56l452 374h-1456l187 910h86l-168 -828h1388l-301 375l62 55l342 -430z" />
    <glyph glyph-name="partialdiff" unicode="&#x2202;" horiz-adv-x="1161" 
d="M426 -14q-154 0 -249 106t-95 279q0 168 71 313.5t203.5 235t296.5 88.5q109 -2 198.5 -46t147.5 -126q23 495 -411 628l30 82q227 -67 348 -224.5t121 -403.5q0 -133 -29 -266.5t-87 -253t-136.5 -211.5t-184.5 -146.5t-224 -54.5zM449 72q184 0 331 178.5t207 480.5
q-52 98 -138 146.5t-192 48.5q-140 1 -252 -75t-171.5 -199.5t-59.5 -266.5q0 -145 74 -229t201 -84z" />
    <glyph glyph-name="emptyset" unicode="&#x2205;" horiz-adv-x="1478" 
d="M1436 1425l61 -45l-209 -211q109 -134 109 -331q0 -156 -58.5 -298t-158.5 -245t-239 -164t-294 -61q-202 0 -336 112l-205 -207l-57 45l211 216q-113 135 -113 335q0 206 98 382t271.5 281t380.5 105q206 0 338 -116zM227 586q0 -174 95 -289l856 866q-118 97 -297 97
q-176 0 -327.5 -94t-239 -249t-87.5 -331zM1317 823q0 173 -88 287l-856 -864q114 -94 291 -94q135 0 256.5 55t208 146t137.5 214.5t51 255.5z" />
    <glyph glyph-name="product" unicode="&#x220f;" horiz-adv-x="1564" 
d="M451 0h-93l275 1354h-285l17 80h1200l-17 -80h-284l-275 -1354h-92l274 1354h-446z" />
    <glyph glyph-name="summation" unicode="&#x2211;" horiz-adv-x="1206" 
d="M961 0h-934l16 78l686 663l-428 615l16 78h934l-16 -82h-829l397 -574l-19 -94l-622 -602h815z" />
    <glyph glyph-name="minus" unicode="&#x2212;" horiz-adv-x="1073" 
d="M977 606h-856l16 82h856z" />
    <glyph glyph-name="radical" unicode="&#x221a;" horiz-adv-x="1370" 
d="M748 0h-103l-145 1006h-338l16 79h404l133 -958l741 1423l96 -14z" />
    <glyph glyph-name="integral" unicode="&#x222b;" horiz-adv-x="1257" 
d="M92 -301h-145l16 80h146q93 0 153 48.5t98 147.5l451 1182q53 138 140.5 207.5t224.5 69.5h145l-16 -80h-146q-92 0 -151 -49t-97 -148l-450 -1182q-52 -137 -141.5 -206.5t-227.5 -69.5z" />
    <glyph glyph-name="approxequal" unicode="&#x2248;" horiz-adv-x="1169" 
d="M860 623q-50 0 -96 19t-80 48t-69.5 62t-65 62t-67.5 48t-76 19q-68 0 -116.5 -57.5t-70.5 -164.5h-80q27 145 99.5 223.5t169.5 78.5q41 0 78.5 -14.5t67.5 -37t59 -50t57.5 -55.5t57 -50.5t63 -37t71.5 -14.5q74 0 122 56.5t69 159.5h77q-22 -144 -95.5 -219.5
t-174.5 -75.5zM762 137q-59 0 -112.5 26.5t-93.5 64.5t-78 76t-82 64.5t-89 26.5q-68 0 -116 -57t-70 -164h-80q27 145 99 223t169 78q47 0 91 -19t76 -48t67.5 -62t66 -62t71.5 -48t83 -19q74 0 121.5 56t68.5 159h78q-22 -144 -95.5 -219.5t-174.5 -75.5z" />
    <glyph glyph-name="notequal" unicode="&#x2260;" horiz-adv-x="1142" 
d="M420 350l-211 -252l-66 39l179 213h-246l16 80h297l283 340h-510l16 80h561l199 237l66 -38l-166 -199h254l-17 -80h-305l-285 -340h521l-17 -80h-569z" />
    <glyph glyph-name="lessequal" unicode="&#x2264;" horiz-adv-x="1318" 
d="M1139 414l-37 -74l-924 330l17 75l1056 330l9 -80l-943 -290zM1069 100h-1006l17 80h1005z" />
    <glyph glyph-name="greaterequal" unicode="&#x2265;" horiz-adv-x="1316" 
d="M1190 670l-1059 -330l-4 82l938 291l-819 291l35 71l925 -330zM1075 100h-1005l16 80h1006z" />
    <glyph glyph-name="uni23CE" unicode="&#x23ce;" horiz-adv-x="1888" 
d="M524 145l-63 -51l-342 430l16 82l518 430l56 -59l-449 -371h1370l152 748h-776l16 80h862l-186 -910h-1479z" />
    <glyph glyph-name="uni2460" unicode="&#x2460;" horiz-adv-x="1773" 
d="M780 -66q-287 0 -457.5 166t-170.5 457q0 188 68 360.5t186.5 300.5t291 204.5t369.5 76.5q291 0 458 -166t167 -461q0 -125 -29 -244t-83 -222.5t-135 -190.5t-180.5 -149.5t-223.5 -97t-261 -34.5zM784 18q142 0 271 44t228 123.5t172 185t111 233t38 262.5
q0 254 -142.5 401.5t-402.5 147.5q-173 0 -327 -70t-261 -186.5t-169 -270.5t-62 -319q0 -255 143.5 -403t400.5 -148zM926 328h-80l127 624q-54 -78 -174 -78h-43l16 82h43q77 0 126.5 36.5t62.5 105.5l2 10h79z" />
    <glyph glyph-name="uni2461" unicode="&#x2461;" horiz-adv-x="1773" 
d="M780 -66q-287 0 -457.5 166t-170.5 457q0 188 68 360.5t186.5 300.5t291 204.5t369.5 76.5q291 0 458 -166t167 -461q0 -125 -29 -244t-83 -222.5t-135 -190.5t-180.5 -149.5t-223.5 -97t-261 -34.5zM784 18q142 0 271 44t228 123.5t172 185t111 233t38 262.5
q0 254 -142.5 401.5t-402.5 147.5q-173 0 -327 -70t-261 -186.5t-169 -270.5t-62 -319q0 -255 143.5 -403t400.5 -148zM1135 328h-523l15 69q14 67 55.5 121.5t93.5 88.5t112 68t110.5 61.5t88 67t46.5 85.5q14 75 -24.5 119.5t-121.5 44.5q-89 0 -144.5 -48.5t-70.5 -136.5
h-74q20 121 97 188.5t196 67.5q116 0 177 -66.5t38 -178.5q-11 -55 -49.5 -101.5t-89 -77.5t-109 -65t-110 -65t-92 -77.5t-54.5 -101.5h445z" />
    <glyph glyph-name="uni2462" unicode="&#x2462;" horiz-adv-x="1773" 
d="M780 -66q-287 0 -457.5 166t-170.5 457q0 188 68 360.5t186.5 300.5t291 204.5t369.5 76.5q291 0 458 -166t167 -461q0 -125 -29 -244t-83 -222.5t-135 -190.5t-180.5 -149.5t-223.5 -97t-261 -34.5zM784 18q142 0 271 44t228 123.5t172 185t111 233t38 262.5
q0 254 -142.5 401.5t-402.5 147.5q-173 0 -327 -70t-261 -186.5t-169 -270.5t-62 -319q0 -255 143.5 -403t400.5 -148zM879 311q-132 0 -201.5 70t-52.5 194h75q-18 -194 185 -194q86 0 144 48t58 130q0 60 -37.5 95.5t-103.5 35.5h-110l16 78h102q77 0 129 44.5t52 115.5
q0 58 -38 92.5t-106 34.5q-71 0 -127.5 -41.5t-83.5 -132.5h-80q33 119 113 181t184 62q96 0 154.5 -50t58.5 -132q0 -77 -49 -134t-131 -77q62 -15 98.5 -61t36.5 -111q0 -109 -79.5 -178.5t-206.5 -69.5z" />
    <glyph glyph-name="uni2463" unicode="&#x2463;" horiz-adv-x="1773" 
d="M780 -66q-287 0 -457.5 166t-170.5 457q0 188 68 360.5t186.5 300.5t291 204.5t369.5 76.5q291 0 458 -166t167 -461q0 -125 -29 -244t-83 -222.5t-135 -190.5t-180.5 -149.5t-223.5 -97t-261 -34.5zM784 18q142 0 271 44t228 123.5t172 185t111 233t38 262.5
q0 254 -142.5 401.5t-402.5 147.5q-173 0 -327 -70t-261 -186.5t-169 -270.5t-62 -319q0 -255 143.5 -403t400.5 -148zM983 328h-80l41 196h-389l16 80l490 504h82l-105 -514h146l-15 -70h-145zM1036 987l-381 -393h303z" />
    <glyph glyph-name="uni2464" unicode="&#x2464;" horiz-adv-x="1773" 
d="M780 -66q-287 0 -457.5 166t-170.5 457q0 188 68 360.5t186.5 300.5t291 204.5t369.5 76.5q291 0 458 -166t167 -461q0 -125 -29 -244t-83 -222.5t-135 -190.5t-180.5 -149.5t-223.5 -97t-261 -34.5zM784 18q142 0 271 44t228 123.5t172 185t111 233t38 262.5
q0 254 -142.5 401.5t-402.5 147.5q-173 0 -327 -70t-261 -186.5t-169 -270.5t-62 -319q0 -255 143.5 -403t400.5 -148zM872 311q-118 0 -182.5 67.5t-52.5 180.5h72q-8 -77 36 -126.5t132 -49.5q101 0 164 64t63 167q0 75 -42.5 114.5t-111.5 39.5q-102 0 -182 -74h-80
l123 414h414l-15 -72h-344l-80 -270q84 70 189 70q91 0 147 -55t56 -163q0 -133 -85.5 -220t-220.5 -87z" />
    <glyph glyph-name="uni2465" unicode="&#x2465;" horiz-adv-x="1773" 
d="M780 -66q-287 0 -457.5 166t-170.5 457q0 188 68 360.5t186.5 300.5t291 204.5t369.5 76.5q291 0 458 -166t167 -461q0 -125 -29 -244t-83 -222.5t-135 -190.5t-180.5 -149.5t-223.5 -97t-261 -34.5zM784 18q142 0 271 44t228 123.5t172 185t111 233t38 262.5
q0 254 -142.5 401.5t-402.5 147.5q-173 0 -327 -70t-261 -186.5t-169 -270.5t-62 -319q0 -255 143.5 -403t400.5 -148zM881 311q-125 0 -190.5 79t-65.5 226q0 128 45 242.5t136.5 190t211.5 75.5q110 0 167 -64t48 -179h-72q5 83 -33 127.5t-116 44.5q-90 0 -158 -54
t-105.5 -139.5t-50.5 -195.5q44 84 114.5 132t156.5 48q100 0 155.5 -60.5t55.5 -162.5q0 -129 -85.5 -219.5t-213.5 -90.5zM883 383q99 0 161 66t62 163q0 77 -42.5 119.5t-115.5 42.5q-104 0 -165.5 -72t-61.5 -161q0 -68 41 -113t121 -45z" />
    <glyph glyph-name="uni2466" unicode="&#x2466;" horiz-adv-x="1773" 
d="M780 -66q-287 0 -457.5 166t-170.5 457q0 188 68 360.5t186.5 300.5t291 204.5t369.5 76.5q291 0 458 -166t167 -461q0 -125 -29 -244t-83 -222.5t-135 -190.5t-180.5 -149.5t-223.5 -97t-261 -34.5zM784 18q142 0 271 44t228 123.5t172 185t111 233t38 262.5
q0 254 -142.5 401.5t-402.5 147.5q-173 0 -327 -70t-261 -186.5t-169 -270.5t-62 -319q0 -255 143.5 -403t400.5 -148zM764 328h-98l518 708h-455l14 72h543l-16 -78z" />
    <glyph glyph-name="uni2467" unicode="&#x2467;" horiz-adv-x="1773" 
d="M780 -66q-287 0 -457.5 166t-170.5 457q0 188 68 360.5t186.5 300.5t291 204.5t369.5 76.5q291 0 458 -166t167 -461q0 -125 -29 -244t-83 -222.5t-135 -190.5t-180.5 -149.5t-223.5 -97t-261 -34.5zM784 18q142 0 271 44t228 123.5t172 185t111 233t38 262.5
q0 254 -142.5 401.5t-402.5 147.5q-173 0 -327 -70t-261 -186.5t-169 -270.5t-62 -319q0 -255 143.5 -403t400.5 -148zM860 311q-116 0 -185 51.5t-69 141.5q0 84 58 148t151 91q-45 22 -71.5 62.5t-26.5 93.5q0 101 78 163t190 62q103 0 163 -53t60 -137q0 -71 -39 -121.5
t-112 -75.5q125 -50 125 -174q0 -110 -91 -181t-231 -71zM948 770q85 0 136 43t51 111q0 60 -41.5 95.5t-114.5 35.5q-80 0 -134 -43.5t-54 -110.5q0 -59 42.5 -95t114.5 -36zM864 381q105 0 172.5 53t67.5 135q0 64 -46.5 102t-127.5 38q-100 0 -173 -54.5t-73 -138.5
q0 -65 48.5 -100t131.5 -35z" />
    <glyph glyph-name="uni2468" unicode="&#x2468;" horiz-adv-x="1773" 
d="M780 -66q-287 0 -457.5 166t-170.5 457q0 188 68 360.5t186.5 300.5t291 204.5t369.5 76.5q291 0 458 -166t167 -461q0 -125 -29 -244t-83 -222.5t-135 -190.5t-180.5 -149.5t-223.5 -97t-261 -34.5zM784 18q142 0 271 44t228 123.5t172 185t111 233t38 262.5
q0 254 -142.5 401.5t-402.5 147.5q-173 0 -327 -70t-261 -186.5t-169 -270.5t-62 -319q0 -255 143.5 -403t400.5 -148zM860 311q-111 0 -170.5 61t-52.5 177h74q-6 -82 34 -124t121 -42q66 0 119.5 31.5t88 85t55 118t26.5 136.5q-35 -74 -102 -116t-146 -42
q-99 0 -156 58.5t-57 158.5q0 135 84.5 223t216.5 88q112 0 175 -72.5t63 -213.5q0 -98 -22 -189t-65 -168t-117 -123.5t-169 -46.5zM918 664q99 0 161 74t62 161q0 68 -38 112t-112 44q-96 0 -159.5 -67t-63.5 -165q0 -77 40 -118t110 -41z" />
    <glyph glyph-name="uni24EA" unicode="&#x24ea;" horiz-adv-x="1773" 
d="M780 -66q-287 0 -457.5 166t-170.5 457q0 188 68 360.5t186.5 300.5t291 204.5t369.5 76.5q291 0 458 -166t167 -461q0 -125 -29 -244t-83 -222.5t-135 -190.5t-180.5 -149.5t-223.5 -97t-261 -34.5zM784 18q142 0 271 44t228 123.5t172 185t111 233t38 262.5
q0 254 -142.5 401.5t-402.5 147.5q-173 0 -327 -70t-261 -186.5t-169 -270.5t-62 -319q0 -255 143.5 -403t400.5 -148zM848 311q-106 0 -165.5 74.5t-59.5 218.5q0 93 25 184t71 166.5t119 122.5t161 47q108 0 166 -73.5t58 -216.5q0 -93 -24.5 -184t-70 -167.5t-119 -124
t-161.5 -47.5zM860 383q66 0 121.5 43t90.5 110t54 144.5t19 150.5q0 105 -40 163.5t-116 58.5q-67 0 -124 -43t-91.5 -110.5t-54 -144t-19.5 -149.5q0 -108 41.5 -165.5t118.5 -57.5z" />
    <glyph glyph-name="uni24FF" unicode="&#x24ff;" horiz-adv-x="1773" 
d="M780 -66q137 0 261 34.5t223.5 97t180.5 149.5t135 190.5t83 222.5t29 244q0 295 -167 461t-458 166q-197 0 -369.5 -76.5t-291 -204.5t-186.5 -300.5t-68 -360.5q0 -291 170.5 -457t457.5 -166zM848 311q-106 0 -165.5 74.5t-59.5 218.5q0 93 25 184t71 166.5t119 122.5
t161 47q108 0 166 -73.5t58 -216.5q0 -93 -24.5 -184t-70 -167.5t-119 -124t-161.5 -47.5zM860 383q66 0 121.5 43t90.5 110t54 144.5t19 150.5q0 105 -40 163.5t-116 58.5q-67 0 -124 -43t-91.5 -110.5t-54 -144t-19.5 -149.5q0 -108 41.5 -165.5t118.5 -57.5z" />
    <glyph glyph-name="lozenge" unicode="&#x25ca;" horiz-adv-x="1153" 
d="M516 0h-102l-273 717l564 717h102l274 -717zM229 707l242 -637l520 659l-241 633z" />
    <glyph glyph-name="uni2600" unicode="&#x2600;" horiz-adv-x="1744" 
d="M1024 1128h-63l75 365h64zM1376 1423l-209 -338l-53 27l207 336zM854 1108l-55 -23l-70 338l57 21zM700 1026l-47 -39l-204 258l47 39zM1587 1235l-311 -256l-35 49l307 254zM580 901l-31 -53l-309 141l30 53zM1690 979l-365 -137l-12 59l364 137zM848 412
q-116 0 -185 68t-69 179q0 71 28.5 138t77.5 118.5t119.5 83t149.5 31.5q117 0 186.5 -68t69.5 -178q0 -151 -108.5 -261.5t-268.5 -110.5zM496 690h-365l12 60h365zM1675 690h-364l12 60h365zM506 532l-365 -137l-14 60l369 139zM1577 449l-29 -56l-309 142l29 55zM584 406
l-310 -256l-38 47l311 258zM1370 193l-47 -41l-205 258l47 41zM702 332l-206 -336l-56 24l209 338zM1079 16l-55 -20l-70 336l56 22zM778 -51h-63l76 364h63z" />
    <glyph glyph-name="sun" unicode="&#x263c;" horiz-adv-x="1744" 
d="M1024 1128h-63l75 365h64zM1376 1423l-209 -338l-53 27l207 336zM854 1108l-55 -23l-70 338l57 21zM700 1026l-47 -39l-204 258l47 39zM1587 1235l-311 -256l-35 49l307 254zM580 901l-31 -53l-309 141l30 53zM1690 979l-365 -137l-12 59l364 137zM848 412
q-116 0 -185 68t-69 179q0 71 28.5 138t77.5 118.5t119.5 83t149.5 31.5q117 0 186.5 -68t69.5 -178q0 -151 -108.5 -261.5t-268.5 -110.5zM860 496q120 0 200.5 83.5t80.5 194.5q0 77 -48.5 124.5t-136.5 47.5q-116 0 -197 -81.5t-81 -192.5q0 -82 48 -129t134 -47z
M496 690h-365l12 60h365zM1675 690h-364l12 60h365zM506 532l-365 -137l-14 60l369 139zM1577 449l-29 -56l-309 142l29 55zM584 406l-310 -256l-38 47l311 258zM1370 193l-47 -41l-205 258l47 41zM702 332l-206 -336l-56 24l209 338zM1079 16l-55 -20l-70 336l56 22z
M778 -51h-63l76 364h63z" />
    <glyph glyph-name="uni2776" unicode="&#x2776;" horiz-adv-x="1773" 
d="M780 -66q137 0 261 34.5t223.5 97t180.5 149.5t135 190.5t83 222.5t29 244q0 295 -167 461t-458 166q-197 0 -369.5 -76.5t-291 -204.5t-186.5 -300.5t-68 -360.5q0 -291 170.5 -457t457.5 -166zM926 328h-80l127 624q-54 -78 -174 -78h-43l16 82h43q77 0 126.5 36.5
t62.5 105.5l2 10h79z" />
    <glyph glyph-name="uni2777" unicode="&#x2777;" horiz-adv-x="1773" 
d="M780 -66q137 0 261 34.5t223.5 97t180.5 149.5t135 190.5t83 222.5t29 244q0 295 -167 461t-458 166q-197 0 -369.5 -76.5t-291 -204.5t-186.5 -300.5t-68 -360.5q0 -291 170.5 -457t457.5 -166zM1135 328h-523l15 69q14 67 55.5 121.5t93.5 88.5t112 68t110.5 61.5
t88 67t46.5 85.5q14 75 -24.5 119.5t-121.5 44.5q-89 0 -144.5 -48.5t-70.5 -136.5h-74q20 121 97 188.5t196 67.5q116 0 177 -66.5t38 -178.5q-11 -55 -49.5 -101.5t-89 -77.5t-109 -65t-110 -65t-92 -77.5t-54.5 -101.5h445z" />
    <glyph glyph-name="uni2778" unicode="&#x2778;" horiz-adv-x="1773" 
d="M780 -66q137 0 261 34.5t223.5 97t180.5 149.5t135 190.5t83 222.5t29 244q0 295 -167 461t-458 166q-197 0 -369.5 -76.5t-291 -204.5t-186.5 -300.5t-68 -360.5q0 -291 170.5 -457t457.5 -166zM879 311q-132 0 -201.5 70t-52.5 194h75q-18 -194 185 -194q86 0 144 48
t58 130q0 60 -37.5 95.5t-103.5 35.5h-110l16 78h102q77 0 129 44.5t52 115.5q0 58 -38 92.5t-106 34.5q-71 0 -127.5 -41.5t-83.5 -132.5h-80q33 119 113 181t184 62q96 0 154.5 -50t58.5 -132q0 -77 -49 -134t-131 -77q62 -15 98.5 -61t36.5 -111q0 -109 -79.5 -178.5
t-206.5 -69.5z" />
    <glyph glyph-name="uni2779" unicode="&#x2779;" horiz-adv-x="1773" 
d="M780 -66q137 0 261 34.5t223.5 97t180.5 149.5t135 190.5t83 222.5t29 244q0 295 -167 461t-458 166q-197 0 -369.5 -76.5t-291 -204.5t-186.5 -300.5t-68 -360.5q0 -291 170.5 -457t457.5 -166zM983 328h-80l41 196h-389l16 80l490 504h82l-105 -514h146l-15 -70h-145z
M1036 987l-381 -393h303z" />
    <glyph glyph-name="uni277A" unicode="&#x277a;" horiz-adv-x="1773" 
d="M780 -66q137 0 261 34.5t223.5 97t180.5 149.5t135 190.5t83 222.5t29 244q0 295 -167 461t-458 166q-197 0 -369.5 -76.5t-291 -204.5t-186.5 -300.5t-68 -360.5q0 -291 170.5 -457t457.5 -166zM872 311q-118 0 -182.5 67.5t-52.5 180.5h72q-8 -77 36 -126.5t132 -49.5
q101 0 164 64t63 167q0 75 -42.5 114.5t-111.5 39.5q-102 0 -182 -74h-80l123 414h414l-15 -72h-344l-80 -270q84 70 189 70q91 0 147 -55t56 -163q0 -133 -85.5 -220t-220.5 -87z" />
    <glyph glyph-name="uni277B" unicode="&#x277b;" horiz-adv-x="1773" 
d="M780 -66q137 0 261 34.5t223.5 97t180.5 149.5t135 190.5t83 222.5t29 244q0 295 -167 461t-458 166q-197 0 -369.5 -76.5t-291 -204.5t-186.5 -300.5t-68 -360.5q0 -291 170.5 -457t457.5 -166zM881 311q-125 0 -190.5 79t-65.5 226q0 128 45 242.5t136.5 190
t211.5 75.5q110 0 167 -64t48 -179h-72q5 83 -33 127.5t-116 44.5q-90 0 -158 -54t-105.5 -139.5t-50.5 -195.5q44 84 114.5 132t156.5 48q100 0 155.5 -60.5t55.5 -162.5q0 -129 -85.5 -219.5t-213.5 -90.5zM883 383q99 0 161 66t62 163q0 77 -42.5 119.5t-115.5 42.5
q-104 0 -165.5 -72t-61.5 -161q0 -68 41 -113t121 -45z" />
    <glyph glyph-name="uni277C" unicode="&#x277c;" horiz-adv-x="1773" 
d="M780 -66q137 0 261 34.5t223.5 97t180.5 149.5t135 190.5t83 222.5t29 244q0 295 -167 461t-458 166q-197 0 -369.5 -76.5t-291 -204.5t-186.5 -300.5t-68 -360.5q0 -291 170.5 -457t457.5 -166zM764 328h-98l518 708h-455l14 72h543l-16 -78z" />
    <glyph glyph-name="uni277D" unicode="&#x277d;" horiz-adv-x="1773" 
d="M780 -66q137 0 261 34.5t223.5 97t180.5 149.5t135 190.5t83 222.5t29 244q0 295 -167 461t-458 166q-197 0 -369.5 -76.5t-291 -204.5t-186.5 -300.5t-68 -360.5q0 -291 170.5 -457t457.5 -166zM860 311q-116 0 -185 51.5t-69 141.5q0 84 58 148t151 91
q-45 22 -71.5 62.5t-26.5 93.5q0 101 78 163t190 62q103 0 163 -53t60 -137q0 -71 -39 -121.5t-112 -75.5q125 -50 125 -174q0 -110 -91 -181t-231 -71zM948 770q85 0 136 43t51 111q0 60 -41.5 95.5t-114.5 35.5q-80 0 -134 -43.5t-54 -110.5q0 -59 42.5 -95t114.5 -36z
M864 381q105 0 172.5 53t67.5 135q0 64 -46.5 102t-127.5 38q-100 0 -173 -54.5t-73 -138.5q0 -65 48.5 -100t131.5 -35z" />
    <glyph glyph-name="uni277E" unicode="&#x277e;" horiz-adv-x="1773" 
d="M780 -66q137 0 261 34.5t223.5 97t180.5 149.5t135 190.5t83 222.5t29 244q0 295 -167 461t-458 166q-197 0 -369.5 -76.5t-291 -204.5t-186.5 -300.5t-68 -360.5q0 -291 170.5 -457t457.5 -166zM860 311q-111 0 -170.5 61t-52.5 177h74q-6 -82 34 -124t121 -42
q66 0 119.5 31.5t88 85t55 118t26.5 136.5q-35 -74 -102 -116t-146 -42q-99 0 -156 58.5t-57 158.5q0 135 84.5 223t216.5 88q112 0 175 -72.5t63 -213.5q0 -98 -22 -189t-65 -168t-117 -123.5t-169 -46.5zM918 664q99 0 161 74t62 161q0 68 -38 112t-112 44
q-96 0 -159.5 -67t-63.5 -165q0 -77 40 -118t110 -41z" />
    <glyph glyph-name="uni3010" unicode="&#x3010;" horiz-adv-x="743" 
d="M471 -174h-401l368 1816h402l-2 -12q-177 -155 -305.5 -394t-182.5 -511q-53 -269 -20.5 -503t143.5 -384z" />
    <glyph glyph-name="uni3011" unicode="&#x3011;" horiz-adv-x="743" 
d="M752 1642l-371 -1816h-401l4 12q171 150 299.5 385t183.5 502q57 271 26 510.5t-145 394.5l2 12h402z" />
    <glyph glyph-name="uni301C" unicode="&#x301c;" horiz-adv-x="2254" 
d="M1653 481q-84 0 -160.5 16t-137 42t-118.5 57t-116 62.5t-117.5 57.5t-134 42t-156.5 16q-123 0 -261 -53.5t-270 -155.5l-47 74q142 105 295.5 163t288.5 58q90 0 171 -16t144 -42t122 -57t116 -62.5t114 -57.5t128 -42t147 -16q138 0 242.5 58t216.5 178l61 -60
q-108 -127 -231.5 -194.5t-296.5 -67.5z" />
    <glyph glyph-name="fi" unicode="&#xfb01;" horiz-adv-x="1101" 
d="M248 0h-90l204 1006h-221l17 79h221l31 152q31 154 107 226.5t235 72.5h186l-16 -80h-187q-100 0 -156 -52t-79 -167l-31 -152h600l-221 -1085h-90l205 1006h-510zM1090 1319q-40 0 -67 27t-26 67q0 39 27.5 65.5t67.5 26.5t66.5 -26.5t25.5 -65.5q-2 -40 -28.5 -67
t-65.5 -27z" />
    <glyph glyph-name="fl" unicode="&#xfb02;" horiz-adv-x="1122" 
d="M248 0h-90l204 1006h-221l17 79h221l31 152q31 154 107 226.5t235 72.5h407l-311 -1536h-90l295 1456h-318q-100 0 -156 -52t-79 -167l-31 -152h391l-16 -79h-391z" />
    <glyph glyph-name="u1F311" unicode="&#x1f311;" horiz-adv-x="1359" 
d="M608 127q-213 0 -347 128.5t-134 344.5q0 139 55.5 268.5t149.5 225.5t226 153.5t278 57.5q218 0 343.5 -125t125.5 -342q0 -140 -52.5 -270t-143 -227t-222 -155.5t-279.5 -58.5z" />
    <glyph glyph-name="u1F312" unicode="&#x1f312;" horiz-adv-x="1359" 
d="M608 127q-213 0 -347 128.5t-134 344.5q0 139 55.5 268.5t149.5 225.5t226 153.5t278 57.5q218 0 343.5 -125t125.5 -342q0 -140 -52.5 -270t-143 -227t-222 -155.5t-279.5 -58.5zM1051 1171l-187 -909q162 74 261.5 229t99.5 340q0 238 -174 340z" />
    <glyph glyph-name="u1F313" unicode="&#x1f313;" horiz-adv-x="1359" 
d="M608 127q-213 0 -347 128.5t-134 344.5q0 139 55.5 268.5t149.5 225.5t226 153.5t278 57.5q218 0 343.5 -125t125.5 -342q0 -140 -52.5 -270t-143 -227t-222 -155.5t-279.5 -58.5zM829 1225l-206 -1018q165 1 304.5 87.5t218.5 229.5t79 307q0 181 -105 287t-291 107z
" />
    <glyph glyph-name="u1F314" unicode="&#x1f314;" horiz-adv-x="1359" 
d="M608 127q-213 0 -347 128.5t-134 344.5q0 139 55.5 268.5t149.5 225.5t226 153.5t278 57.5q218 0 343.5 -125t125.5 -342q0 -140 -52.5 -270t-143 -227t-222 -155.5t-279.5 -58.5zM618 207q166 0 306.5 86t220.5 229.5t80 308.5q0 183 -106.5 288.5t-295.5 105.5
q-183 0 -340 -109l-164 -801q108 -108 299 -108z" />
    <glyph glyph-name="u1F315" unicode="&#x1f315;" horiz-adv-x="1359" 
d="M608 127q-213 0 -347 128.5t-134 344.5q0 139 55.5 268.5t149.5 225.5t226 153.5t278 57.5q218 0 343.5 -125t125.5 -342q0 -140 -52.5 -270t-143 -227t-222 -155.5t-279.5 -58.5zM618 207q166 0 306.5 86t220.5 229.5t80 308.5q0 183 -106.5 288.5t-295.5 105.5
q-162 0 -304 -84t-226 -226t-84 -305q0 -188 109.5 -295.5t299.5 -107.5z" />
    <glyph glyph-name="u1F316" unicode="&#x1f316;" horiz-adv-x="1359" 
d="M608 127q-213 0 -347 128.5t-134 344.5q0 139 55.5 268.5t149.5 225.5t226 153.5t278 57.5q218 0 343.5 -125t125.5 -342q0 -140 -52.5 -270t-143 -227t-222 -155.5t-279.5 -58.5zM618 207q144 0 271 65l178 889q-98 64 -244 64q-162 0 -304 -84t-226 -226t-84 -305
q0 -188 109.5 -295.5t299.5 -107.5z" />
    <glyph glyph-name="u1F317" unicode="&#x1f317;" horiz-adv-x="1359" 
d="M608 127q-213 0 -347 128.5t-134 344.5q0 139 55.5 268.5t149.5 225.5t226 153.5t278 57.5q218 0 343.5 -125t125.5 -342q0 -140 -52.5 -270t-143 -227t-222 -155.5t-279.5 -58.5zM612 207l209 1018q-121 -1 -234.5 -51t-196 -133t-132 -196.5t-49.5 -234.5
q0 -186 108 -294t295 -109z" />
    <glyph glyph-name="u1F318" unicode="&#x1f318;" horiz-adv-x="1359" 
d="M608 127q-213 0 -347 128.5t-134 344.5q0 139 55.5 268.5t149.5 225.5t226 153.5t278 57.5q218 0 343.5 -125t125.5 -342q0 -140 -52.5 -270t-143 -227t-222 -155.5t-279.5 -58.5zM358 281l179 868q-147 -79 -237.5 -224.5t-90.5 -314.5q0 -220 149 -329z" />
    <glyph glyph-name="a.ss02" horiz-adv-x="1210" 
d="M487 -14q-182 0 -289.5 113t-107.5 313q0 136 42.5 260.5t118 220t188 152.5t243.5 57q148 0 239.5 -81.5t108.5 -227.5l74 292h70l-222 -1085h-88l47 231q-71 -118 -180 -181.5t-244 -63.5zM504 70q112 0 205 52.5t151.5 139t90.5 193.5t32 221q0 159 -81.5 250.5
t-225.5 91.5q-105 0 -198 -50t-156 -132.5t-99.5 -190t-36.5 -221.5q0 -169 82 -261.5t236 -92.5z" />
    <glyph glyph-name="aacute.ss02" horiz-adv-x="1210" 
d="M1311 1657l-613 -420l-59 63l612 420zM487 -14q-182 0 -289.5 113t-107.5 313q0 136 42.5 260.5t118 220t188 152.5t243.5 57q148 0 239.5 -81.5t108.5 -227.5l74 292h70l-222 -1085h-88l47 231q-71 -118 -180 -181.5t-244 -63.5zM504 70q112 0 205 52.5t151.5 139
t90.5 193.5t32 221q0 159 -81.5 250.5t-225.5 91.5q-105 0 -198 -50t-156 -132.5t-99.5 -190t-36.5 -221.5q0 -169 82 -261.5t236 -92.5z" />
    <glyph glyph-name="abreve.ss02" horiz-adv-x="1210" 
d="M752 1257q-131 0 -202 73.5t-50 197.5l6 35h82l-6 -37q-15 -89 35 -141t147 -52q102 0 172.5 50.5t83.5 138.5l6 41h82l-6 -41q-19 -124 -112 -194.5t-238 -70.5zM487 -14q-182 0 -289.5 113t-107.5 313q0 136 42.5 260.5t118 220t188 152.5t243.5 57q148 0 239.5 -81.5
t108.5 -227.5l74 292h70l-222 -1085h-88l47 231q-71 -118 -180 -181.5t-244 -63.5zM504 70q112 0 205 52.5t151.5 139t90.5 193.5t32 221q0 159 -81.5 250.5t-225.5 91.5q-105 0 -198 -50t-156 -132.5t-99.5 -190t-36.5 -221.5q0 -169 82 -261.5t236 -92.5z" />
    <glyph glyph-name="acircumflex.ss02" horiz-adv-x="1210" 
d="M823 1577l-430 -338l-59 55l454 355h80l318 -365l-68 -45zM487 -14q-182 0 -289.5 113t-107.5 313q0 136 42.5 260.5t118 220t188 152.5t243.5 57q148 0 239.5 -81.5t108.5 -227.5l74 292h70l-222 -1085h-88l47 231q-71 -118 -180 -181.5t-244 -63.5zM504 70
q112 0 205 52.5t151.5 139t90.5 193.5t32 221q0 159 -81.5 250.5t-225.5 91.5q-105 0 -198 -50t-156 -132.5t-99.5 -190t-36.5 -221.5q0 -169 82 -261.5t236 -92.5z" />
    <glyph glyph-name="adieresis.ss02" horiz-adv-x="1210" 
d="M569 1294q-41 0 -67.5 27.5t-26.5 69.5q0 40 26.5 67t67.5 27q40 0 67.5 -27t27.5 -67q0 -41 -27.5 -69t-67.5 -28zM979 1294q-41 0 -67.5 27.5t-26.5 69.5q0 40 26.5 67t67.5 27q40 0 67 -27t27 -67q0 -41 -27 -69t-67 -28zM487 -14q-182 0 -289.5 113t-107.5 313
q0 136 42.5 260.5t118 220t188 152.5t243.5 57q148 0 239.5 -81.5t108.5 -227.5l74 292h70l-222 -1085h-88l47 231q-71 -118 -180 -181.5t-244 -63.5zM504 70q112 0 205 52.5t151.5 139t90.5 193.5t32 221q0 159 -81.5 250.5t-225.5 91.5q-105 0 -198 -50t-156 -132.5
t-99.5 -190t-36.5 -221.5q0 -169 82 -261.5t236 -92.5z" />
    <glyph glyph-name="agrave.ss02" horiz-adv-x="1210" 
d="M848 1298l-60 -61l-481 459l60 61zM487 -14q-182 0 -289.5 113t-107.5 313q0 136 42.5 260.5t118 220t188 152.5t243.5 57q148 0 239.5 -81.5t108.5 -227.5l74 292h70l-222 -1085h-88l47 231q-71 -118 -180 -181.5t-244 -63.5zM504 70q112 0 205 52.5t151.5 139
t90.5 193.5t32 221q0 159 -81.5 250.5t-225.5 91.5q-105 0 -198 -50t-156 -132.5t-99.5 -190t-36.5 -221.5q0 -169 82 -261.5t236 -92.5z" />
    <glyph glyph-name="amacron.ss02" horiz-adv-x="1210" 
d="M1110 1350h-688l16 80h688zM487 -14q-182 0 -289.5 113t-107.5 313q0 136 42.5 260.5t118 220t188 152.5t243.5 57q148 0 239.5 -81.5t108.5 -227.5l74 292h70l-222 -1085h-88l47 231q-71 -118 -180 -181.5t-244 -63.5zM504 70q112 0 205 52.5t151.5 139t90.5 193.5
t32 221q0 159 -81.5 250.5t-225.5 91.5q-105 0 -198 -50t-156 -132.5t-99.5 -190t-36.5 -221.5q0 -169 82 -261.5t236 -92.5z" />
    <glyph glyph-name="aogonek.ss02" horiz-adv-x="1210" 
d="M1174 1085l-222 -1085q-95 -47 -164 -118t-69 -140q0 -84 102 -84q43 0 84 16l-2 -84q-45 -16 -100 -16q-87 0 -130.5 39t-43.5 104q0 84 66.5 157.5t170.5 131.5l45 225q-71 -118 -180 -181.5t-244 -63.5q-182 0 -289.5 113t-107.5 313q0 136 42.5 260.5t118 220
t188 152.5t243.5 57q148 0 239.5 -81.5t108.5 -227.5l74 292h70zM504 70q112 0 205 52.5t151.5 139t90.5 193.5t32 221q0 159 -81.5 250.5t-225.5 91.5q-105 0 -198 -50t-156 -132.5t-99.5 -190t-36.5 -221.5q0 -169 82 -261.5t236 -92.5z" />
    <glyph glyph-name="aring.ss02" horiz-adv-x="1210" 
d="M774 1229q-72 0 -121 46.5t-49 115.5t49 115t121 46t120 -46t48 -115t-48 -115.5t-120 -46.5zM774 1298q38 0 64 26.5t26 66.5t-26 66t-64 26q-40 0 -66 -26t-26 -66t26 -66.5t66 -26.5zM487 -14q-182 0 -289.5 113t-107.5 313q0 136 42.5 260.5t118 220t188 152.5
t243.5 57q148 0 239.5 -81.5t108.5 -227.5l74 292h70l-222 -1085h-88l47 231q-71 -118 -180 -181.5t-244 -63.5zM504 70q112 0 205 52.5t151.5 139t90.5 193.5t32 221q0 159 -81.5 250.5t-225.5 91.5q-105 0 -198 -50t-156 -132.5t-99.5 -190t-36.5 -221.5q0 -169 82 -261.5
t236 -92.5z" />
    <glyph glyph-name="atilde.ss02" horiz-adv-x="1210" 
d="M952 1333q-43 1 -82 18.5t-68.5 42.5t-57 49.5t-57.5 42t-60 17.5q-51 0 -86.5 -43.5t-44.5 -118.5h-84q13 110 71 175t142 65q40 0 77 -17.5t65.5 -42.5t56.5 -50t61 -42.5t67 -17.5q105 0 127 152h82q-12 -110 -66 -170.5t-143 -59.5zM487 -14q-182 0 -289.5 113
t-107.5 313q0 136 42.5 260.5t118 220t188 152.5t243.5 57q148 0 239.5 -81.5t108.5 -227.5l74 292h70l-222 -1085h-88l47 231q-71 -118 -180 -181.5t-244 -63.5zM504 70q112 0 205 52.5t151.5 139t90.5 193.5t32 221q0 159 -81.5 250.5t-225.5 91.5q-105 0 -198 -50
t-156 -132.5t-99.5 -190t-36.5 -221.5q0 -169 82 -261.5t236 -92.5z" />
    <glyph glyph-name="g.ss03" horiz-adv-x="1036" 
d="M362 -426q-208 0 -319 78t-111 209q0 104 67.5 178t178.5 98q-67 45 -67 123q0 72 52 122t136 73q-117 75 -117 239q0 177 120.5 292.5t315.5 115.5q62 0 125 -17h387l-14 -75h-285q93 -87 93 -224q0 -76 -28 -145t-80 -123t-135 -85.5t-185 -31.5q-71 0 -138 23
q-71 -12 -117 -51.5t-46 -93.5q0 -47 34.5 -73t98.5 -26h276q135 -1 205 -64.5t70 -170.5q0 -167 -141 -269t-376 -102zM504 481q82 0 147.5 27t105 72t60.5 100t21 115q0 102 -58 164.5t-172 62.5q-149 0 -244.5 -88.5t-95.5 -224.5q0 -106 63.5 -167t172.5 -61zM371 -344
q195 0 306 78.5t111 204.5q0 72 -49.5 116.5t-156.5 44.5h-308q-108 0 -178.5 -63t-70.5 -156q0 -104 88.5 -164.5t257.5 -60.5z" />
    <glyph glyph-name="gbreve.ss03" horiz-adv-x="1036" 
d="M668 1257q-131 0 -202 73.5t-50 197.5l6 35h82l-6 -37q-15 -89 35 -141t147 -52q102 0 172.5 50.5t83.5 138.5l6 41h82l-6 -41q-19 -124 -112 -194.5t-238 -70.5zM362 -426q-208 0 -319 78t-111 209q0 104 67.5 178t178.5 98q-67 45 -67 123q0 72 52 122t136 73
q-117 75 -117 239q0 177 120.5 292.5t315.5 115.5q62 0 125 -17h387l-14 -75h-285q93 -87 93 -224q0 -76 -28 -145t-80 -123t-135 -85.5t-185 -31.5q-71 0 -138 23q-71 -12 -117 -51.5t-46 -93.5q0 -47 34.5 -73t98.5 -26h276q135 -1 205 -64.5t70 -170.5q0 -167 -141 -269
t-376 -102zM504 481q82 0 147.5 27t105 72t60.5 100t21 115q0 102 -58 164.5t-172 62.5q-149 0 -244.5 -88.5t-95.5 -224.5q0 -106 63.5 -167t172.5 -61zM371 -344q195 0 306 78.5t111 204.5q0 72 -49.5 116.5t-156.5 44.5h-308q-108 0 -178.5 -63t-70.5 -156
q0 -104 88.5 -164.5t257.5 -60.5z" />
    <glyph glyph-name="uni0123.ss03" horiz-adv-x="1036" 
d="M590 1190l354 672l86 -27l-346 -674zM362 -426q-208 0 -319 78t-111 209q0 104 67.5 178t178.5 98q-67 45 -67 123q0 72 52 122t136 73q-117 75 -117 239q0 177 120.5 292.5t315.5 115.5q62 0 125 -17h387l-14 -75h-285q93 -87 93 -224q0 -76 -28 -145t-80 -123
t-135 -85.5t-185 -31.5q-71 0 -138 23q-71 -12 -117 -51.5t-46 -93.5q0 -47 34.5 -73t98.5 -26h276q135 -1 205 -64.5t70 -170.5q0 -167 -141 -269t-376 -102zM504 481q82 0 147.5 27t105 72t60.5 100t21 115q0 102 -58 164.5t-172 62.5q-149 0 -244.5 -88.5t-95.5 -224.5
q0 -106 63.5 -167t172.5 -61zM371 -344q195 0 306 78.5t111 204.5q0 72 -49.5 116.5t-156.5 44.5h-308q-108 0 -178.5 -63t-70.5 -156q0 -104 88.5 -164.5t257.5 -60.5z" />
    <glyph glyph-name="gdotaccent.ss03" horiz-adv-x="1036" 
d="M690 1290q-41 0 -69.5 27.5t-28.5 68.5t28.5 70t69.5 29t68.5 -28.5t27.5 -70.5q0 -41 -27.5 -68.5t-68.5 -27.5zM362 -426q-208 0 -319 78t-111 209q0 104 67.5 178t178.5 98q-67 45 -67 123q0 72 52 122t136 73q-117 75 -117 239q0 177 120.5 292.5t315.5 115.5
q62 0 125 -17h387l-14 -75h-285q93 -87 93 -224q0 -76 -28 -145t-80 -123t-135 -85.5t-185 -31.5q-71 0 -138 23q-71 -12 -117 -51.5t-46 -93.5q0 -47 34.5 -73t98.5 -26h276q135 -1 205 -64.5t70 -170.5q0 -167 -141 -269t-376 -102zM504 481q82 0 147.5 27t105 72
t60.5 100t21 115q0 102 -58 164.5t-172 62.5q-149 0 -244.5 -88.5t-95.5 -224.5q0 -106 63.5 -167t172.5 -61zM371 -344q195 0 306 78.5t111 204.5q0 72 -49.5 116.5t-156.5 44.5h-308q-108 0 -178.5 -63t-70.5 -156q0 -104 88.5 -164.5t257.5 -60.5z" />
    <glyph glyph-name="i.loclTRK" horiz-adv-x="382" 
d="M365 1290q-42 0 -70.5 27.5t-28.5 68.5t29 70t70 29t68.5 -28.5t27.5 -70.5q0 -41 -27.5 -68.5t-68.5 -27.5zM125 0h-90l223 1085h90z" />
    <glyph glyph-name="r.ss04" horiz-adv-x="700" 
d="M127 0h-90l221 1085h70l-49 -329l493 346l53 -64l-567 -395z" />
    <glyph glyph-name="racute.ss04" horiz-adv-x="700" 
d="M1126 1657l-612 -420l-59 63l612 420zM127 0h-90l221 1085h70l-49 -329l493 346l53 -64l-567 -395z" />
    <glyph glyph-name="rcaron.ss04" horiz-adv-x="700" 
d="M602 1251h-80l-317 365l67 45l293 -338l434 338l58 -55zM127 0h-90l221 1085h70l-49 -329l493 346l53 -64l-567 -395z" />
    <glyph glyph-name="uni0157.ss04" horiz-adv-x="700" 
d="M127 0h-90l221 1085h70l-49 -329l493 346l53 -64l-567 -395zM115 -104l-355 -672l-86 26l346 674z" />
    <glyph glyph-name="y.ss05" horiz-adv-x="1069" 
d="M442 66l588 1019h105l-871 -1511l-92 23l234 403h-41l-209 1085h92z" />
    <glyph glyph-name="yacute.ss05" horiz-adv-x="1069" 
d="M1163 1720l60 -63l-613 -420l-59 63zM248 1085l194 -1019l588 1019h105l-871 -1511l-92 23l234 403h-41l-209 1085h92z" />
    <glyph glyph-name="ycircumflex.ss05" horiz-adv-x="1069" 
d="M1030 1239l-295 338l-430 -338l-59 55l454 355h80l318 -365zM442 66l588 1019h105l-871 -1511l-92 23l234 403h-41l-209 1085h92z" />
    <glyph glyph-name="ydieresis.ss05" horiz-adv-x="1069" 
d="M481 1294q-41 0 -67.5 27.5t-26.5 69.5q0 40 26.5 67t67.5 27q40 0 67 -27t27 -67q0 -41 -27 -69t-67 -28zM891 1294q-41 0 -67.5 27.5t-26.5 69.5q0 40 26.5 67t67.5 27q40 0 67 -27t27 -67q0 -41 -27 -69t-67 -28zM442 66l588 1019h105l-871 -1511l-92 23l234 403h-41
l-209 1085h92z" />
    <glyph glyph-name="ygrave.ss05" horiz-adv-x="1069" 
d="M279 1757l481 -459l-60 -61l-481 459zM442 66l588 1019h105l-871 -1511l-92 23l234 403h-41l-209 1085h92z" />
    <glyph glyph-name="f_f_i" horiz-adv-x="1703" 
d="M248 0h-90l204 1006h-221l17 79h221l31 152q31 154 107 226.5t235 72.5h227l-16 -80h-228q-100 0 -156 -52t-79 -167l-31 -152h510l31 152q31 154 107 226.5t235 72.5h186l-16 -80h-187q-100 0 -156 -52t-79 -167l-31 -152h600l-221 -1085h-90l205 1006h-510l-205 -1006
h-90l205 1006h-510zM1690 1319q-40 0 -67 27t-26 67q0 39 27.5 65.5t67.5 26.5t66 -26t26 -66t-27 -67t-67 -27z" />
    <glyph glyph-name="f_i" horiz-adv-x="1101" 
d="M248 0h-90l204 1006h-221l17 79h221l31 152q31 154 107 226.5t235 72.5h186l-16 -80h-187q-100 0 -156 -52t-79 -167l-31 -152h600l-221 -1085h-90l205 1006h-510zM1090 1319q-40 0 -67 27t-26 67q0 39 27.5 65.5t67.5 26.5t66.5 -26.5t25.5 -65.5q-2 -40 -28.5 -67
t-65.5 -27z" />
    <glyph glyph-name="f_l" horiz-adv-x="1122" 
d="M248 0h-90l204 1006h-221l17 79h221l31 152q31 154 107 226.5t235 72.5h407l-311 -1536h-90l295 1456h-318q-100 0 -156 -52t-79 -167l-31 -152h391l-16 -79h-391z" />
    <glyph glyph-name="w_w_w" horiz-adv-x="4069" 
d="M358 0h-102l-100 1085h90l86 -972l469 972h92l70 -964l477 964h104l86 -972l469 972h92l70 -964l477 964h105l86 -972l469 972h92l69 -964l478 964h98l-543 -1085h-100l-70 969l-467 -969h-102l-88 944l-471 -944h-101l-69 969l-467 -969h-103l-88 944l-471 -944h-100
l-70 969z" />
    <glyph glyph-name="zero.squared" horiz-adv-x="1828" 
d="M1522 0h-1434l291 1434h1433zM446 1362l-262 -1290h1270l262 1290h-1270zM877 311q-106 0 -166 74.5t-60 218.5q0 93 25 184t71 166.5t119.5 122.5t161.5 47q108 0 165.5 -73.5t57.5 -216.5q0 -93 -24.5 -184t-69.5 -167.5t-118.5 -124t-161.5 -47.5zM889 383
q66 0 121.5 43t90.5 110t54 144.5t19 150.5q0 105 -40 163.5t-116 58.5q-67 0 -124 -43t-91.5 -110.5t-54 -144t-19.5 -149.5q0 -108 41.5 -165.5t118.5 -57.5z" />
    <glyph glyph-name="one.squared" horiz-adv-x="1828" 
d="M1522 0h-1434l291 1434h1433zM446 1362l-262 -1290h1270l262 1290h-1270zM969 328h-80l127 624q-54 -78 -174 -78h-43l16 82h43q77 0 126.5 36.5t62.5 105.5l2 10h79z" />
    <glyph glyph-name="two.squared" horiz-adv-x="1828" 
d="M1522 0h-1434l291 1434h1433zM446 1362l-262 -1290h1270l262 1290h-1270zM1171 328h-522l15 69q14 67 55.5 121.5t93.5 88.5t111.5 68t110 61.5t88 67t46.5 85.5q14 75 -24 119.5t-121 44.5q-89 0 -144.5 -48.5t-70.5 -136.5h-74q20 121 97 188.5t196 67.5
q116 0 177 -66.5t38 -178.5q-11 -55 -49.5 -101.5t-89 -77.5t-109 -65t-110 -65t-92 -77.5t-54.5 -101.5h445z" />
    <glyph glyph-name="three.squared" horiz-adv-x="1828" 
d="M1522 0h-1434l291 1434h1433zM446 1362l-262 -1290h1270l262 1290h-1270zM909 311q-132 0 -201.5 70t-52.5 194h76q-18 -194 184 -194q87 0 145 48t58 130q0 60 -37.5 95.5t-103.5 35.5h-111l17 78h102q76 0 128 44.5t52 115.5q0 58 -37.5 92.5t-105.5 34.5
q-71 0 -127.5 -41.5t-83.5 -132.5h-80q33 119 113 181t184 62q96 0 154.5 -50t58.5 -132q0 -77 -49 -134t-131 -77q62 -15 98.5 -61t36.5 -111q0 -109 -80 -178.5t-207 -69.5z" />
    <glyph glyph-name="four.squared" horiz-adv-x="1828" 
d="M1522 0h-1434l291 1434h1433zM446 1362l-262 -1290h1270l262 1290h-1270zM1026 328h-80l41 196h-389l16 80l490 504h82l-105 -514h146l-15 -70h-145zM1079 987l-381 -393h303z" />
    <glyph glyph-name="five.squared" horiz-adv-x="1828" 
d="M1522 0h-1434l291 1434h1433zM446 1362l-262 -1290h1270l262 1290h-1270zM889 311q-118 0 -183 67.5t-53 180.5h72q-8 -77 36 -126.5t132 -49.5q101 0 164 64t63 167q0 75 -42 114.5t-111 39.5q-103 0 -183 -74h-79l122 414h414l-14 -72h-344l-80 -270q84 70 188 70
q91 0 147 -55t56 -163q0 -133 -85 -220t-220 -87z" />
    <glyph glyph-name="six.squared" horiz-adv-x="1828" 
d="M1522 0h-1434l291 1434h1433zM446 1362l-262 -1290h1270l262 1290h-1270zM897 311q-125 0 -190.5 79t-65.5 226q0 128 45 242.5t136.5 190t211.5 75.5q110 0 167 -64t48 -179h-71q5 83 -33 127.5t-117 44.5q-90 0 -158 -54t-105 -139.5t-50 -195.5q44 84 114 132t156 48
q100 0 155.5 -60.5t55.5 -162.5q0 -129 -85.5 -219.5t-213.5 -90.5zM899 383q99 0 161 66t62 163q0 77 -42 119.5t-115 42.5q-104 0 -166 -72t-62 -161q0 -68 41 -113t121 -45z" />
    <glyph glyph-name="seven.squared" horiz-adv-x="1828" 
d="M1522 0h-1434l291 1434h1433zM446 1362l-262 -1290h1270l262 1290h-1270zM774 328h-98l518 708h-455l15 72h542l-16 -78z" />
    <glyph glyph-name="eight.squared" horiz-adv-x="1828" 
d="M1522 0h-1434l291 1434h1433zM446 1362l-262 -1290h1270l262 1290h-1270zM897 311q-116 0 -185 51.5t-69 141.5q0 84 58 148t151 91q-45 22 -71.5 62.5t-26.5 93.5q0 101 78 163t190 62q103 0 163 -53t60 -137q0 -71 -39 -121.5t-112 -75.5q125 -50 125 -174
q0 -110 -91 -181t-231 -71zM985 770q85 0 135.5 43t50.5 111q0 61 -41 96t-114 35q-80 0 -134.5 -43.5t-54.5 -110.5q0 -59 43 -95t115 -36zM901 381q105 0 172.5 53t67.5 135q0 64 -46.5 102t-127.5 38q-100 0 -173 -54.5t-73 -138.5q0 -65 48.5 -100t131.5 -35z" />
    <glyph glyph-name="nine.squared" horiz-adv-x="1828" 
d="M1522 0h-1434l291 1434h1433zM446 1362l-262 -1290h1270l262 1290h-1270zM858 311q-111 0 -170.5 61t-52.5 177h74q-6 -82 34 -124t121 -42q66 0 119.5 31.5t88 85t55 118t26.5 136.5q-35 -74 -102 -116t-146 -42q-99 0 -156 58.5t-57 158.5q0 135 84.5 223t216.5 88
q112 0 175 -72.5t63 -213.5q0 -98 -22 -189t-65 -168t-117 -123.5t-169 -46.5zM915 664q99 0 161.5 74t62.5 161q0 68 -38 112t-112 44q-96 0 -159.5 -67t-63.5 -165q0 -77 39.5 -118t109.5 -41z" />
    <glyph glyph-name="zero.blacksquared" horiz-adv-x="1828" 
d="M379 1434l-291 -1434h1434l290 1434h-1433zM877 311q-106 0 -166 74.5t-60 218.5q0 93 25 184t71 166.5t119.5 122.5t161.5 47q108 0 165.5 -73.5t57.5 -216.5q0 -93 -24.5 -184t-69.5 -167.5t-118.5 -124t-161.5 -47.5zM889 383q66 0 121.5 43t90.5 110t54 144.5
t19 150.5q0 105 -40 163.5t-116 58.5q-67 0 -124 -43t-91.5 -110.5t-54 -144t-19.5 -149.5q0 -108 41.5 -165.5t118.5 -57.5z" />
    <glyph glyph-name="one.blacksquared" horiz-adv-x="1828" 
d="M379 1434l-291 -1434h1434l290 1434h-1433zM969 328h-80l127 624q-54 -78 -174 -78h-43l16 82h43q77 0 126.5 36.5t62.5 105.5l2 10h79z" />
    <glyph glyph-name="two.blacksquared" horiz-adv-x="1828" 
d="M379 1434l-291 -1434h1434l290 1434h-1433zM1171 328h-522l15 69q14 67 55.5 121.5t93.5 88.5t111.5 68t110 61.5t88 67t46.5 85.5q14 75 -24 119.5t-121 44.5q-89 0 -144.5 -48.5t-70.5 -136.5h-74q20 121 97 188.5t196 67.5q116 0 177 -66.5t38 -178.5
q-11 -55 -49.5 -101.5t-89 -77.5t-109 -65t-110 -65t-92 -77.5t-54.5 -101.5h445z" />
    <glyph glyph-name="three.blacksquared" horiz-adv-x="1828" 
d="M379 1434l-291 -1434h1434l290 1434h-1433zM909 311q-132 0 -201.5 70t-52.5 194h76q-18 -194 184 -194q87 0 145 48t58 130q0 60 -37.5 95.5t-103.5 35.5h-111l17 78h102q76 0 128 44.5t52 115.5q0 58 -37.5 92.5t-105.5 34.5q-71 0 -127.5 -41.5t-83.5 -132.5h-80
q33 119 113 181t184 62q96 0 154.5 -50t58.5 -132q0 -77 -49 -134t-131 -77q62 -15 98.5 -61t36.5 -111q0 -109 -80 -178.5t-207 -69.5z" />
    <glyph glyph-name="four.blacksquared" horiz-adv-x="1828" 
d="M379 1434l-291 -1434h1434l290 1434h-1433zM1026 328h-80l41 196h-389l16 80l490 504h82l-105 -514h146l-15 -70h-145zM1079 987l-381 -393h303z" />
    <glyph glyph-name="five.blacksquared" horiz-adv-x="1828" 
d="M379 1434l-291 -1434h1434l290 1434h-1433zM887 311q-118 0 -183 67.5t-53 180.5h72q-8 -77 36 -126.5t132 -49.5q101 0 164 64t63 167q0 75 -42 114.5t-111 39.5q-103 0 -183 -74h-80l123 414h414l-14 -72h-344l-80 -270q84 70 188 70q91 0 147 -55t56 -163
q0 -133 -85 -220t-220 -87z" />
    <glyph glyph-name="six.blacksquared" horiz-adv-x="1828" 
d="M379 1434l-291 -1434h1434l290 1434h-1433zM897 311q-125 0 -190.5 79t-65.5 226q0 128 45 242.5t136.5 190t211.5 75.5q110 0 167 -64t48 -179h-71q5 83 -33 127.5t-117 44.5q-90 0 -158 -54t-105 -139.5t-50 -195.5q44 84 114 132t156 48q100 0 155.5 -60.5
t55.5 -162.5q0 -129 -85.5 -219.5t-213.5 -90.5zM899 383q99 0 161 66t62 163q0 77 -42 119.5t-115 42.5q-104 0 -166 -72t-62 -161q0 -68 41 -113t121 -45z" />
    <glyph glyph-name="seven.blacksquared" horiz-adv-x="1828" 
d="M379 1434l-291 -1434h1434l290 1434h-1433zM766 319h-98l518 709h-455l14 72h543l-16 -78z" />
    <glyph glyph-name="eight.blacksquared" horiz-adv-x="1828" 
d="M379 1434l-291 -1434h1434l290 1434h-1433zM897 311q-116 0 -185 51.5t-69 141.5q0 84 58 148t151 91q-45 22 -71.5 62.5t-26.5 93.5q0 101 78 163t190 62q103 0 163 -53t60 -137q0 -71 -39 -121.5t-112 -75.5q125 -50 125 -174q0 -110 -91 -181t-231 -71zM985 770
q85 0 135.5 43t50.5 111q0 61 -41 96t-114 35q-80 0 -134.5 -43.5t-54.5 -110.5q0 -59 43 -95t115 -36zM901 381q105 0 172.5 53t67.5 135q0 64 -46.5 102t-127.5 38q-100 0 -173 -54.5t-73 -138.5q0 -65 48.5 -100t131.5 -35z" />
    <glyph glyph-name="nine.blacksquared" horiz-adv-x="1828" 
d="M379 1434l-291 -1434h1434l290 1434h-1433zM858 311q-111 0 -170.5 61t-52.5 177h74q-6 -82 34 -124t121 -42q66 0 119.5 31.5t88 85t55 118t26.5 136.5q-35 -74 -102 -116t-146 -42q-99 0 -156 58.5t-57 158.5q0 135 84.5 223t216.5 88q112 0 175 -72.5t63 -213.5
q0 -98 -22 -189t-65 -168t-117 -123.5t-169 -46.5zM915 664q99 0 161.5 74t62.5 161q0 68 -38 112t-112 44q-96 0 -159.5 -67t-63.5 -165q0 -77 39.5 -118t109.5 -41z" />
    <glyph glyph-name="copyright.ss06" horiz-adv-x="1769" 
d="M778 -66q-287 0 -457.5 165.5t-170.5 453.5q0 190 68 363t186.5 301.5t291 205t369.5 76.5q291 0 458 -165t167 -457q0 -151 -41 -292t-120.5 -259t-188.5 -206t-254 -137t-308 -49zM879 338q127 0 227 79t139 224h-82q-36 -109 -109.5 -167t-164.5 -58q-99 0 -156 62.5
t-57 172.5q0 95 41.5 182.5t118 143t168.5 55.5q99 0 149 -58t45 -165h80q10 141 -60 220t-204 79q-122 0 -220.5 -66t-151 -172t-52.5 -227q0 -142 79.5 -223.5t209.5 -81.5z" />
    <glyph glyph-name="registered.ss07" horiz-adv-x="1241" 
d="M612 438q-195 0 -313.5 113.5t-118.5 308.5q0 180 80.5 328t226 234.5t326.5 86.5q193 0 307.5 -114t114.5 -314q0 -176 -76.5 -322t-220 -233.5t-326.5 -87.5zM569 1217l-102 -504h78l41 200h178q18 0 30 -8.5t13 -23.5l16 -168h74l-18 182q-3 43 -54 55
q54 17 87.5 58.5t33.5 93.5q0 54 -33.5 84.5t-93.5 30.5h-250zM776 983h-176l33 162h174q31 0 46 -17t15 -45q0 -40 -27 -70t-65 -30z" />
    <glyph glyph-name="circled" horiz-adv-x="1773" 
d="M780 -66q-287 0 -457.5 166t-170.5 457q0 188 68 360.5t186.5 300.5t291 204.5t369.5 76.5q291 0 458 -166t167 -461q0 -125 -29 -244t-83 -222.5t-135 -190.5t-180.5 -149.5t-223.5 -97t-261 -34.5zM784 18q142 0 271 44t228 123.5t172 185t111 233t38 262.5
q0 254 -142.5 401.5t-402.5 147.5q-173 0 -327 -70t-261 -186.5t-169 -270.5t-62 -319q0 -255 143.5 -403t400.5 -148z" />
    <glyph glyph-name="blackcircled" horiz-adv-x="1769" 
d="M778 -66q-287 0 -457.5 165.5t-170.5 453.5q0 190 68 363t186.5 301.5t291 205t369.5 76.5q291 0 458 -165t167 -457q0 -151 -41 -292t-120.5 -259t-188.5 -206t-254 -137t-308 -49z" />
    <glyph glyph-name="squared" horiz-adv-x="1828" 
d="M1522 0h-1434l291 1434h1433zM446 1362l-262 -1290h1270l262 1290h-1270z" />
    <glyph glyph-name="blacksquared" horiz-adv-x="1828" 
d="M1522 0h-1434l291 1434h1433z" />
    <glyph glyph-name="uni0308.case" 
d="M-434 1253q-41 0 -67.5 27.5t-26.5 69.5q0 40 26.5 67t67.5 27q40 0 67 -27t27 -67q0 -41 -27 -69t-67 -28zM-25 1253q-41 0 -67.5 27.5t-26.5 69.5q0 40 26.5 67t67.5 27q40 0 67.5 -27t27.5 -67q0 -41 -27.5 -69t-67.5 -28z" />
    <glyph glyph-name="uni0307.case" 
d="M-27 1249q-41 0 -69.5 28t-28.5 69t28.5 69.5t69.5 28.5t69 -28.5t28 -69.5t-28 -69t-69 -28z" />
    <glyph glyph-name="gravecomb.case" 
d="M80 1260l-60 -62l-481 459l60 61z" />
    <glyph glyph-name="acutecomb.case" 
d="M154 1616l-613 -420l-59 64l612 419z" />
    <glyph glyph-name="uni030B.case" 
d="M160 1647l-465 -459l-68 49l463 459zM-109 1647l-436 -437l-71 47l436 437z" />
    <glyph glyph-name="uni0302.case" 
d="M-254 1536l-403 -317l-60 55l428 334h80l293 -334l-59 -55z" />
    <glyph glyph-name="uni030C.case" 
d="M-287 1229h-80l-290 334l59 55l274 -318l406 318l59 -55z" />
    <glyph glyph-name="uni0306.case" 
d="M-270 1223q-133 1 -201.5 79.5t-46.5 204.5l6 35h80l-6 -37q-15 -90 35.5 -146t146.5 -56q96 -2 168.5 53.5t87.5 144.5l6 37h82l-6 -37q-22 -124 -121 -202t-231 -76z" />
    <glyph glyph-name="uni030A.case" 
d="M-96 1208q-72 0 -121 46.5t-49 115.5t49 115.5t121 46.5t120 -46.5t48 -115.5t-48 -115.5t-120 -46.5zM-96 1278q38 0 64 26t26 66t-26 66t-64 26q-40 0 -66 -26t-26 -66t26 -66t66 -26z" />
    <glyph glyph-name="tildecomb.case" 
d="M-129 1272q-43 1 -82 18.5t-68.5 42.5t-57 49.5t-58 42t-60.5 17.5q-51 0 -86.5 -43.5t-44.5 -118.5h-84q13 110 71 175t142 65q40 0 77 -17.5t66 -42.5t56.5 -50t61 -42.5t67.5 -17.5q102 0 127 151h82q-12 -110 -65.5 -170t-143.5 -59z" />
    <glyph glyph-name="uni0304.case" 
d="M88 1331h-688l16 80h688z" />
    <glyph glyph-name="exclam.ss01" horiz-adv-x="460" 
d="M215 348h-55l241 1188h56zM135 -4q-32 0 -53 20.5t-21 51.5q0 32 21 52.5t53 20.5q31 0 51.5 -20.5t20.5 -52.5q0 -31 -20.5 -51.5t-51.5 -20.5z" />
    <glyph glyph-name="exclamdown.ss01" horiz-adv-x="460" 
d="M330 956q-32 0 -53 20.5t-21 51.5q0 32 21 53t53 21q31 0 51 -21t20 -53q0 -31 -20 -51.5t-51 -20.5zM57 -438h-55l242 1188h55z" />
    <glyph glyph-name="question.ss01" horiz-adv-x="1056" 
d="M539 311h-54l17 82q13 65 44.5 121t72 98t87.5 81.5t94 78.5t87.5 80.5t71 96.5t42.5 118q28 148 -48.5 240t-235.5 92q-173 0 -294 -104t-167 -285h-55q45 200 185 319t337 119q184 0 274 -107.5t60 -275.5q-12 -66 -43 -124t-72 -101.5t-88 -83.5t-94.5 -79
t-88.5 -79.5t-72.5 -93.5t-43.5 -113zM471 -4q-32 0 -53 20.5t-21 51.5q0 32 21 52.5t53 20.5q31 0 51.5 -20.5t20.5 -52.5q0 -31 -20.5 -51.5t-51.5 -20.5z" />
    <glyph glyph-name="questiondown.ss01" horiz-adv-x="1056" 
d="M588 1102q32 0 53 -20.5t21 -51.5q0 -32 -21 -53t-53 -21q-31 0 -51.5 21t-20.5 53q0 31 20.5 51.5t51.5 20.5zM520 786h53l-16 -81q-13 -65 -44.5 -121t-72 -98t-88 -81.5t-94 -78.5t-87 -80.5t-71.5 -96.5t-43 -118q-28 -148 49 -240t236 -92q173 0 294 104t167 285h55
q-45 -200 -185 -319t-337 -119q-184 0 -274 107.5t-60 275.5q12 66 43 124t72 101.5t88 83.5t94.5 79t88.5 79.5t72.5 93.5t43.5 113z" />
    <glyph glyph-name="asterisk.ss01" horiz-adv-x="1007" 
d="M539 592h-50l82 399l-415 -215l-19 39l420 217l-332 219l31 33l330 -219l84 410h49l-82 -406l418 219l14 -41l-420 -219l332 -217l-31 -31l-329 215z" />
    <glyph glyph-name="numbersign.ss01" horiz-adv-x="1583" 
d="M492 434l-199 -457l-53 13l192 444h-385l10 49h398l213 492h-381l10 49h393l193 444l53 -12l-188 -432h399l192 444l54 -12l-189 -432h408l-10 -49h-418l-215 -492h403l-10 -49h-414l-198 -457l-54 13l193 444h-397zM727 975l-215 -492h399l213 492h-397z" />
    <glyph glyph-name="slash.ss01" horiz-adv-x="454" 
d="M649 1501l-706 -1616l-58 13l707 1615z" />
    <glyph glyph-name="backslash.ss01" horiz-adv-x="436" 
d="M305 -102l-55 -13l-47 1616l55 12z" />
    <glyph glyph-name="parenleft.ss01" horiz-adv-x="530" 
d="M319 -279l-47 -26q-74 130 -114.5 295.5t-40.5 337.5q0 329 146 653t386 569l47 -26q-239 -244 -380.5 -559t-141.5 -641q0 -166 37.5 -323.5t107.5 -279.5z" />
    <glyph glyph-name="parenright.ss01" horiz-adv-x="524" 
d="M-86 -307l-45 28q232 238 373 563.5t141 645.5q0 330 -150 596l50 24q157 -273 157 -622q0 -339 -145 -667.5t-381 -567.5z" />
    <glyph glyph-name="braceleft.ss01" horiz-adv-x="753" 
d="M518 -262h-131q-120 0 -171 64.5t-26 185.5l95 465q35 174 -133 174l10 53q171 0 209 192l90 443q51 250 299 250h131l-10 -49h-131q-101 0 -157 -50t-77 -151l-90 -443q-19 -93 -72.5 -150t-136.5 -69q157 -31 123 -200l-94 -465q-41 -201 151 -201h131z" />
    <glyph glyph-name="braceright.ss01" horiz-adv-x="753" 
d="M41 -262h-131l10 49h131q193 0 234 201l94 465q34 169 205 200q-78 12 -109 69t-12 150l90 443q21 100 -15 150.5t-137 50.5h-131l11 49h131q247 0 196 -250l-90 -443q-38 -192 131 -192l-10 -53q-170 0 -205 -174l-94 -465q-26 -122 -102.5 -186t-196.5 -64z" />
    <glyph glyph-name="bracketleft.ss01" horiz-adv-x="702" 
d="M455 -262h-426l372 1827h426l-10 -47h-371l-352 -1733h371z" />
    <glyph glyph-name="bracketright.ss01" horiz-adv-x="704" 
d="M719 1565l-371 -1827h-426l8 47h371l354 1733h-370l8 47h426z" />
    <glyph glyph-name="hyphen.ss01" horiz-adv-x="933" 
d="M838 616h-711l8 50h711z" />
    <glyph glyph-name="endash.ss01" horiz-adv-x="1097" 
d="M1001 616h-874l8 50h875z" />
    <glyph glyph-name="emdash.ss01" horiz-adv-x="1804" 
d="M1708 616h-1581l8 50h1581z" />
    <glyph glyph-name="underscore.ss01" horiz-adv-x="1097" 
d="M864 -63h-874l8 49h874z" />
    <glyph glyph-name="uni301C.ss01" horiz-adv-x="2224" 
d="M1599 481q-76 0 -146.5 18t-127 46.5t-111.5 63.5t-109.5 70t-111 63.5t-127 46.5t-145.5 18q-275 0 -561 -209l-25 45q294 217 596 217q88 0 170.5 -24t143 -60t129 -78.5t129 -78.5t141.5 -60t168 -24q277 0 502 237l34 -37q-239 -254 -549 -254z" />
    <glyph glyph-name="quotesinglbase.ss01" horiz-adv-x="342" 
d="M211 332l-217 -686l-49 14l213 686z" />
    <glyph glyph-name="quotedblbase.ss01" horiz-adv-x="589" 
d="M211 332l-217 -686l-49 14l213 686zM459 332l-217 -686l-49 14l213 686z" />
    <glyph glyph-name="quotedblleft.ss01" horiz-adv-x="589" 
d="M455 1530l-213 -686l-54 14l218 686zM702 1530l-213 -686l-53 14l217 686z" />
    <glyph glyph-name="quotedblright.ss01" horiz-adv-x="589" 
d="M455 1530l-217 -686l-50 14l213 686zM702 1530l-217 -686l-49 14l213 686z" />
    <glyph glyph-name="quoteleft.ss01" horiz-adv-x="342" 
d="M455 1530l-213 -686l-54 14l218 686z" />
    <glyph glyph-name="quoteright.ss01" horiz-adv-x="342" 
d="M455 1530l-217 -686l-50 14l213 686z" />
    <glyph glyph-name="quotedbl.ss01" horiz-adv-x="550" 
d="M240 856h-54l140 680h53zM492 856h-54l140 680h53z" />
    <glyph glyph-name="quotesingle.ss01" horiz-adv-x="299" 
d="M240 856h-54l140 680h53z" />
    <glyph glyph-name="guillemotleft.ss01" horiz-adv-x="1011" 
d="M508 133l-45 -35l-354 445l12 57l534 444l37 -38l-534 -439zM829 133l-45 -35l-354 445l12 57l535 444l37 -38l-535 -439z" />
    <glyph glyph-name="guillemotright.ss01" horiz-adv-x="1007" 
d="M578 543l-535 -445l-33 41l531 441l-346 426l41 38l352 -444zM899 543l-534 -445l-33 41l530 441l-346 426l41 38l352 -444z" />
    <glyph glyph-name="guilsinglleft.ss01" horiz-adv-x="690" 
d="M508 133l-45 -35l-354 445l12 57l534 444l37 -38l-534 -439z" />
    <glyph glyph-name="guilsinglright.ss01" horiz-adv-x="686" 
d="M578 543l-535 -445l-33 41l531 441l-346 426l41 38l352 -444z" />
    <glyph glyph-name="cent.ss01" horiz-adv-x="1171" 
d="M487 -104h-57l53 256q-168 14 -263 125.5t-95 295.5q0 136 42.5 262.5t118 223t187 157t240.5 66.5l49 238h57l-49 -238q183 -11 279 -128t77 -314h-57q12 174 -70 276t-239 111l-209 -1022q164 3 290 102t181 289h59q-57 -213 -201.5 -328t-340.5 -118zM494 207
l208 1020q-92 -5 -174.5 -42.5t-144.5 -99t-107 -141t-68.5 -171.5t-23.5 -187q0 -166 82 -265.5t228 -113.5z" />
    <glyph glyph-name="currency.ss01" horiz-adv-x="1112" 
d="M954 713q0 -96 -35.5 -182t-99.5 -150l133 -168l-43 -39l-135 168q-118 -90 -266 -90q-154 0 -238 94l-207 -172l-38 39l213 178q-39 70 -39 162q0 96 38.5 183.5t106.5 152.5l-143 178l43 39l143 -180q118 88 264 88q140 0 223 -86l213 178l39 -39l-219 -182
q47 -71 47 -172zM256 563q0 -115 71 -185.5t187 -70.5q161 0 272 116.5t111 278.5q0 116 -69.5 186t-186.5 70q-157 0 -271 -116.5t-114 -278.5z" />
    <glyph glyph-name="dollar.ss01" horiz-adv-x="1277" 
d="M899 1694l-51 -248q183 -17 278 -127.5t86 -294.5h-57q3 162 -79 258t-238 111l-133 -656l139 -49q74 -26 119.5 -48t86 -55.5t58.5 -80.5t18 -111q0 -193 -156.5 -300t-410.5 -107h-8l-53 -262h-56l54 264q-221 14 -326.5 125.5t-79.5 314.5h57q-25 -181 67 -278
t294 -109l133 659l-119 41q-72 25 -118.5 47t-86.5 55t-58.5 79t-18.5 108q0 181 152 299.5t392 118.5h11l49 246h55zM547 791l106 -37l129 641h-4q-206 0 -342.5 -100.5t-136.5 -258.5q0 -52 15.5 -90.5t51 -66.5t76 -47t105.5 -41zM825 637l-133 45l-131 -643h8
q225 0 361.5 93t136.5 255q0 101 -57.5 153.5t-184.5 96.5z" />
    <glyph glyph-name="Euro.ss01" horiz-adv-x="1646" 
d="M1108 1448q246 0 377.5 -149t122.5 -416h-58q3 244 -112.5 377t-339.5 133q-238 0 -418.5 -141.5t-265.5 -370.5h714l-10 -50h-721q-31 -95 -41 -219h717l-10 -49h-709v-16q0 -235 128.5 -370.5t351.5 -135.5q220 0 390 128t263 382h59q-93 -280 -282 -422.5t-441 -142.5
q-246 0 -387 147t-141 404v26h-232l11 49h223q8 104 41 219h-219l10 50h223q90 254 291.5 410.5t464.5 156.5z" />
    <glyph glyph-name="sterling.ss01" horiz-adv-x="1218" 
d="M717 0h-760l10 49q151 0 249.5 75.5t123.5 207.5q6 33 6.5 68t-1.5 62.5t-9.5 66t-13.5 61t-17 65.5h-203l13 56h178q-43 184 -14 340q37 191 175.5 294t329.5 103q197 0 291 -114.5t82 -321.5h-55q8 184 -71 284.5t-255 100.5q-166 0 -286.5 -89.5t-153.5 -256.5
q-28 -146 16 -340h529l-13 -56h-501q14 -56 20 -83.5t13.5 -74t6 -87t-9.5 -82.5q-21 -106 -93.5 -180.5t-190.5 -98.5h612q120 0 183 56.5t87 179.5l35 188h60l-37 -188q-30 -151 -106.5 -218t-229.5 -67z" />
    <glyph glyph-name="yen.ss01" horiz-adv-x="1286" 
d="M561 0h-53l70 340h-447l10 49h447l39 195h-445l11 49h444l-385 801h65l353 -742l655 742h74l-709 -801h447l-11 -49h-446l-39 -195h446l-10 -49h-446z" />
    <glyph glyph-name="plus.ss01" horiz-adv-x="1138" 
d="M530 215h-55l80 397h-430l10 50h430l86 419h56l-86 -419h432l-11 -50h-432z" />
    <glyph glyph-name="minus.ss01" horiz-adv-x="1079" 
d="M983 612h-856l8 50h856z" />
    <glyph glyph-name="multiply.ss01" horiz-adv-x="1026" 
d="M522 559l-450 -375l-39 37l456 379l-292 369l39 37l294 -371l447 371l37 -37l-451 -375l297 -373l-41 -37z" />
    <glyph glyph-name="divide.ss01" horiz-adv-x="1161" 
d="M678 942q-32 0 -53 20.5t-21 51.5q0 32 21 52.5t53 20.5q31 0 51.5 -20.5t20.5 -52.5q0 -31 -20.5 -51.5t-51.5 -20.5zM1065 612h-938l8 50h938zM528 209q-32 0 -52.5 20.5t-20.5 51.5q0 32 20.5 52.5t52.5 20.5q31 0 51.5 -20.5t20.5 -52.5q0 -31 -20.5 -51.5
t-51.5 -20.5z" />
    <glyph glyph-name="equal.ss01" horiz-adv-x="1136" 
d="M1075 793h-913l10 49h913zM987 356h-913l10 50h913z" />
    <glyph glyph-name="notequal.ss01" horiz-adv-x="1136" 
d="M401 356l-215 -256l-39 29l191 227h-264l10 50h295l323 387h-540l10 49h571l209 250l39 -29l-184 -221h278l-10 -49h-309l-324 -387h555l-10 -50h-586z" />
    <glyph glyph-name="greater.ss01" horiz-adv-x="1196" 
d="M1090 543l-1010 -475l-21 47l985 463l-796 462l37 41l817 -475z" />
    <glyph glyph-name="less.ss01" horiz-adv-x="1198" 
d="M963 106l-41 -38l-816 475l13 63l1011 475l21 -47l-987 -465z" />
    <glyph glyph-name="greaterequal.ss01" horiz-adv-x="1292" 
d="M1186 682l-1059 -330l-6 49l1001 312l-874 311l24 45l924 -330zM1071 123h-1022l10 49h1022z" />
    <glyph glyph-name="lessequal.ss01" horiz-adv-x="1294" 
d="M1114 397l-24 -45l-926 330l14 57l1057 330l6 -49l-1001 -311zM1073 123h-1022l10 49h1022z" />
    <glyph glyph-name="plusminus.ss01" horiz-adv-x="1196" 
d="M580 315h-56l74 367h-459l11 49h458l72 350h55l-71 -350h460l-10 -49h-461zM999 123h-974l10 49h975z" />
    <glyph glyph-name="approxequal.ss01" horiz-adv-x="1165" 
d="M850 612q-51 0 -98 21.5t-80.5 53t-68.5 69t-63 69t-63.5 53t-70.5 21.5q-82 0 -138.5 -65.5t-79.5 -186.5h-55q27 147 100.5 225t176.5 78q44 0 84 -21t68.5 -53t62 -69t64.5 -69t75 -53t94 -21q79 0 136.5 64t80.5 181h53q-26 -141 -99.5 -219t-178.5 -78zM754 143
q-51 0 -98 21.5t-81 53t-69 69t-63 69t-63.5 53t-70.5 21.5q-82 0 -138 -65t-79 -187h-55q27 147 100 225t176 78q52 0 97.5 -29.5t81.5 -71.5t73 -84t87.5 -71.5t109.5 -29.5q79 0 136.5 64t80.5 181h53q-26 -141 -99.5 -219t-178.5 -78z" />
    <glyph glyph-name="asciitilde.ss01" horiz-adv-x="1163" 
d="M811 426q-51 0 -98 21.5t-80.5 53t-68.5 69t-63 69t-63.5 53t-70.5 21.5q-82 0 -138 -65t-79 -187h-56q27 147 100.5 225t176.5 78q44 0 84 -21.5t68.5 -53t62 -69t64.5 -69t75 -53t94 -21.5q79 0 136.5 64.5t80.5 181.5h54q-26 -140 -100 -218.5t-179 -78.5z" />
    <glyph glyph-name="logicalnot.ss01" horiz-adv-x="1159" 
d="M913 35h-53l113 557h-852l10 49h905z" />
    <glyph glyph-name="asciicircum.ss01" horiz-adv-x="884" 
d="M231 885h-63l430 549h47l211 -549h-55l-187 489z" />
    <glyph glyph-name="emptyset.ss01" horiz-adv-x="1431" 
d="M274 197l-217 -220l-43 31l224 225q-113 135 -113 338q0 153 59.5 295t159.5 245.5t239 165.5t291 62q205 0 340 -116l209 211l43 -31l-215 -217q123 -139 123 -348q0 -153 -59.5 -295t-159.5 -245.5t-239 -165.5t-291 -62q-214 0 -351 127zM281 279l890 901
q-123 104 -309 104q-138 0 -265 -57.5t-218 -153t-145 -224.5t-54 -267q0 -178 101 -303zM637 125q138 0 264.5 57.5t217.5 153t145.5 224.5t54.5 267q0 193 -111 316l-891 -903q121 -115 320 -115z" />
    <glyph glyph-name="integral.ss01" horiz-adv-x="1042" 
d="M-18 -301h-142l10 53h142q84 0 157 58.5t113 164.5l451 1182q108 277 352 277h145l-10 -54h-145q-88 0 -161 -58t-114 -165l-450 -1182q-53 -135 -141.5 -205.5t-206.5 -70.5z" />
    <glyph glyph-name="summation.ss01" horiz-adv-x="1206" 
d="M961 0h-934l10 49l715 668l-445 667l10 50h934l-10 -50h-864l416 -626l-21 -99l-653 -610h852z" />
    <glyph glyph-name="radical.ss01" horiz-adv-x="1347" 
d="M698 0h-65l-150 1036h-315l10 49h354l146 -1003l747 1427l58 -14z" />
    <glyph glyph-name="partialdiff.ss01" horiz-adv-x="1175" 
d="M449 -14q-164 0 -258.5 102t-94.5 277q0 129 42.5 246.5t117.5 205t184 139.5t234 52q120 0 212 -50t148 -143q12 283 -89.5 440.5t-356.5 241.5l18 49q242 -72 364 -229.5t122 -433.5q0 -127 -26.5 -254.5t-81 -243t-129.5 -204.5t-180.5 -142t-225.5 -53zM459 41
q117 0 219 61t172.5 161.5t116 224t61.5 255.5q-47 99 -139.5 155t-218.5 56q-150 0 -269.5 -80.5t-183 -211.5t-63.5 -285q0 -157 81.5 -246.5t223.5 -89.5z" />
    <glyph glyph-name="product.ss01" horiz-adv-x="1400" 
d="M373 0h-58l281 1384h-283l11 50h1118l-10 -50h-283l-281 -1384h-57l281 1384h-439z" />
    <glyph glyph-name="percent.ss01" horiz-adv-x="1720" 
d="M1573 1481l-1284 -1549l-53 23l1284 1548zM432 711q-108 0 -171.5 78t-63.5 206q0 184 106.5 318.5t265.5 134.5q113 0 175.5 -73.5t62.5 -205.5q0 -79 -25 -158.5t-71 -147t-119 -110t-160 -42.5zM440 760q73 0 134 39t98.5 100.5t57.5 130t20 133.5q0 112 -50 174
t-141 62q-85 0 -155.5 -56t-110 -146.5t-39.5 -192.5q0 -111 49 -177.5t137 -66.5zM1219 -23q-108 0 -172 78.5t-64 206.5q0 184 107 318.5t266 134.5q112 0 174.5 -73.5t62.5 -205.5q0 -62 -15.5 -126t-47 -124t-75 -106.5t-105 -74.5t-131.5 -28zM1227 27q73 0 134 39
t98 100.5t57 130t20 133.5q0 113 -49.5 174.5t-140.5 61.5q-85 0 -156 -56t-110.5 -147t-39.5 -193q0 -111 49.5 -177t137.5 -66z" />
    <glyph glyph-name="perthousand.ss01" horiz-adv-x="2381" 
d="M1573 1481l-1284 -1549l-53 23l1284 1548zM432 711q-108 0 -171.5 78t-63.5 206q0 184 106.5 318.5t265.5 134.5q113 0 175.5 -73.5t62.5 -205.5q0 -79 -25 -158.5t-71 -147t-119 -110t-160 -42.5zM440 760q73 0 134 39t98.5 100.5t57.5 130t20 133.5q0 112 -50 174
t-141 62q-85 0 -155.5 -56t-110 -146.5t-39.5 -192.5q0 -111 49 -177.5t137 -66.5zM1219 -23q-108 0 -172 78.5t-64 206.5q0 184 107 318.5t266 134.5q112 0 174.5 -73.5t62.5 -205.5q0 -62 -15.5 -126t-47 -124t-75 -106.5t-105 -74.5t-131.5 -28zM1880 -23
q-108 0 -171.5 78t-63.5 207q0 184 106.5 318.5t265.5 134.5q113 0 175.5 -73.5t62.5 -205.5q0 -79 -25 -158.5t-71 -147.5t-119 -110.5t-160 -42.5zM1227 27q73 0 134 39t98 100.5t57 130t20 133.5q0 113 -49.5 174.5t-140.5 61.5q-85 0 -156 -56t-110.5 -147t-39.5 -193
q0 -111 49.5 -177t137.5 -66zM1888 27q73 0 134 39t98.5 100.5t57.5 130t20 133.5q0 112 -50 174t-141 62q-85 0 -155.5 -56t-110 -147t-39.5 -193q0 -111 49 -177t137 -66z" />
    <glyph glyph-name="arrowup.ss01" horiz-adv-x="1558" 
d="M666 -143h-54l316 1540l-719 -598l-35 41l770 637h55l508 -637l-39 -37l-485 608z" />
    <glyph glyph-name="uni2197.ss01" horiz-adv-x="1660" 
d="M1554 1290l-1503 -1247l-31 49l1506 1247h-957l13 50h1003l31 -48l-199 -987h-53z" />
    <glyph glyph-name="arrowright.ss01" horiz-adv-x="1947" 
d="M1851 670l-770 -639l-41 35l727 604h-1617l8 49h1636l-485 604l43 35l508 -639z" />
    <glyph glyph-name="uni2198.ss01" horiz-adv-x="1650" 
d="M1309 45h-1004l8 49h957l-996 1247l41 41l994 -1245l192 942h53l-202 -995z" />
    <glyph glyph-name="arrowdown.ss01" horiz-adv-x="1556" 
d="M686 -43h-53l-510 637l39 39l485 -610l314 1554h53l-312 -1538l719 596l33 -41z" />
    <glyph glyph-name="uni2199.ss01" horiz-adv-x="1669" 
d="M1143 45h-987l-43 39l200 995h54l-193 -944l1503 1247l41 -41l-1503 -1247h940z" />
    <glyph glyph-name="arrowleft.ss01" horiz-adv-x="1951" 
d="M702 61l-43 -30l-509 639l12 49l768 639l37 -39l-727 -600h1624l-13 -49h-1632z" />
    <glyph glyph-name="uni2196.ss01" horiz-adv-x="1650" 
d="M1446 92l-41 -41l-993 1245l-193 -942h-53l203 996l43 39h1003l-8 -50h-956z" />
    <glyph glyph-name="arrowboth.ss01" horiz-adv-x="2156" 
d="M702 61l-43 -30l-509 639l12 49l768 639l37 -39l-727 -600h1763l-485 604l43 35l507 -639l-8 -49l-770 -639l-41 35l727 604h-1757z" />
    <glyph glyph-name="uni21B0.ss01" horiz-adv-x="1951" 
d="M1595 0h-55l174 858h-1470l356 -444l-41 -35l-383 479l10 49l578 479l41 -34l-537 -445h1512z" />
    <glyph glyph-name="uni21B1.ss01" horiz-adv-x="1953" 
d="M190 0h-55l184 907h1526l-354 445l41 34l381 -479l-8 -49l-580 -479l-41 35l537 444h-1456z" />
    <glyph glyph-name="uni21B2.ss01" horiz-adv-x="1951" 
d="M532 82l-40 -35l-383 479l10 49l577 480l41 -35l-536 -445h1456l174 859h55l-184 -908h-1526z" />
    <glyph glyph-name="uni21B3.ss01" horiz-adv-x="1953" 
d="M1837 526l-580 -479l-40 35l536 444h-1509l184 908h55l-174 -859h1469l-355 445l41 35l381 -480z" />
    <glyph glyph-name="lozenge.ss01" horiz-adv-x="1050" 
d="M438 0h-49l-272 717l563 717h49l275 -717zM180 711l244 -641l516 657l-244 637z" />
    <glyph glyph-name="at.ss01" horiz-adv-x="1794" 
d="M795 -201q-149 0 -270.5 38.5t-210 113t-137 191.5t-48.5 266q0 189 72.5 366t198.5 311.5t308.5 215.5t389.5 81q280 0 440 -146.5t160 -404.5q0 -162 -54.5 -310.5t-152.5 -242.5t-213 -94q-88 0 -125.5 60t-3.5 176h-8q-142 -236 -365 -236q-116 0 -183 69t-67 202
q0 101 38.5 204t102.5 185t156.5 134t192.5 52q109 0 170.5 -60.5t64.5 -168.5l74 213h45l-174 -594q-26 -94 -2.5 -140.5t90.5 -46.5q96 0 180 90t131 225t47 271q0 241 -146.5 375.5t-405.5 134.5q-188 0 -358 -77t-288.5 -204t-188 -293.5t-69.5 -342.5
q0 -274 165 -416.5t460 -142.5q222 0 422 90l-12 -64q-196 -80 -426 -80zM782 238q133 0 241.5 100t164.5 274q50 166 1 265.5t-179 99.5q-116 0 -216 -79.5t-155 -198t-55 -240.5q0 -111 52.5 -166t145.5 -55z" />
    <glyph glyph-name="ampersand.ss01" horiz-adv-x="1378" 
d="M512 -14q-220 0 -336.5 111.5t-85.5 297.5q11 68 41 128t68.5 103.5t95 84t107 68.5t118.5 59q-57 98 -83.5 163.5t-26.5 133.5q0 136 101.5 223.5t250.5 87.5q137 0 211.5 -76.5t50.5 -202.5q-6 -31 -18 -59t-33 -53t-40 -45.5t-52.5 -42.5t-56 -36.5t-65 -36t-66 -32.5
t-71.5 -33q-17 -8 -26 -12q148 -239 391 -551q176 201 238 527h57q-69 -356 -262 -570q23 -30 49.5 -64t60.5 -76t54 -67l-45 -32l-156 198q-202 -196 -471 -196zM569 860q177 80 233 114q142 85 166 191q0 3 1 6q19 98 -38 161t-171 63q-123 0 -208 -71t-85 -183
q0 -109 102 -281zM514 41q249 0 436 184q-235 303 -403 570q-82 -39 -139.5 -73.5t-117.5 -84t-96.5 -113t-48.5 -139.5q-25 -159 76 -251.5t293 -92.5z" />
    <glyph glyph-name="paragraph.ss01" horiz-adv-x="1138" 
d="M510 -211h-55l170 832h-74q-167 0 -267 83t-100 242q0 131 67 243t186.5 178.5t264.5 66.5h455l-336 -1645h-55l326 1595h-256z" />
    <glyph glyph-name="section.ss01" horiz-adv-x="1167" 
d="M457 -180q-181 0 -274.5 85t-73.5 249h51q-12 -140 64.5 -210.5t244.5 -70.5q159 0 259.5 69.5t100.5 178.5q0 63 -39.5 105t-111.5 77l-203 96q-123 58 -158 82q-96 65 -96 162q0 106 80.5 185t206.5 120q-83 42 -126.5 89.5t-43.5 125.5q0 123 108 204t277 81
q163 0 253 -83t81 -247h-58q4 147 -70.5 212t-211.5 65q-139 0 -231.5 -63.5t-92.5 -162.5q0 -19 4 -36t8 -30.5t15.5 -27.5t18 -22.5t24.5 -21t26 -18t30.5 -17t30.5 -15.5t34.5 -16t33.5 -15l197 -92q42 -20 69 -36.5t54.5 -42t41 -60t13.5 -78.5q0 -109 -86.5 -180
t-226.5 -103l29 -14q86 -40 131 -90t45 -131q0 -134 -119.5 -218.5t-308.5 -84.5zM504 442l143 -69q130 37 210.5 103.5t80.5 162.5q0 59 -39.5 99.5t-110.5 74.5l-194 94l-53 25q-116 -40 -190.5 -111.5t-74.5 -165.5q0 -38 14.5 -68t47.5 -54.5t61 -39.5t79 -39
q17 -8 26 -12z" />
    <glyph glyph-name="copyright.ss01" horiz-adv-x="1875" 
d="M817 -82q-286 0 -457.5 167.5t-171.5 451.5q0 201 72 381.5t196 312t299 208.5t373 77q286 0 457.5 -167.5t171.5 -451.5q0 -202 -72 -383t-196 -312t-299 -207.5t-373 -76.5zM827 -27q184 0 347.5 73.5t278 197.5t181 290t66.5 347q0 263 -156.5 421t-425.5 158
q-184 0 -347.5 -73.5t-277.5 -197t-180.5 -289.5t-66.5 -347q0 -263 156 -421.5t425 -158.5zM918 332q-127 0 -206 80.5t-79 222.5q0 91 30.5 175.5t84.5 149.5t134.5 103.5t174.5 38.5q129 0 199.5 -79t64.5 -220h-55q1 116 -56.5 180t-162.5 64q-106 0 -189 -59
t-125.5 -151t-42.5 -198q0 -116 64.5 -183t175.5 -67q106 0 187 63t120 183h57q-42 -146 -143 -224.5t-233 -78.5z" />
    <glyph glyph-name="registered.ss01" horiz-adv-x="1101" 
d="M549 516q-165 0 -265 98t-100 263q0 154 70.5 283.5t196.5 205.5t278 76q165 0 265 -98.5t100 -264.5q0 -154 -68 -282t-193.5 -204.5t-283.5 -76.5zM559 565q140 0 252 70.5t171.5 185.5t59.5 250q0 146 -86 234t-237 88q-137 0 -248.5 -70t-173 -185.5t-61.5 -250.5
q0 -146 86 -234t237 -88zM463 733h-47l98 484h231q51 0 82 -29t31 -80t-33 -92t-84 -55q34 -5 41 -43l25 -185h-47l-21 168q-1 17 -10 26t-22 9h-203zM553 1176l-41 -199h190q45 0 76 38t31 87q0 35 -17.5 54.5t-48.5 19.5h-190z" />
    <glyph glyph-name="trademark.ss01" horiz-adv-x="1402" 
d="M395 741h-55l129 641h-254l10 52h561l-10 -52h-252zM766 741h-55l139 693h55l139 -633l400 633h55l-139 -693h-55l112 564l-352 -564h-57l-127 568z" />
    <glyph glyph-name="degree.ss01" horiz-adv-x="722" 
d="M426 850q-100 0 -159.5 59t-59.5 160q0 134 93.5 231t231.5 97q101 0 161.5 -60t60.5 -161q0 -133 -94 -229.5t-234 -96.5zM434 901q112 0 188 79.5t76 190.5q0 80 -47.5 127.5t-128.5 47.5q-110 0 -185 -80t-75 -189q0 -82 46.5 -129t125.5 -47z" />
    <glyph glyph-name="bar.ss01" horiz-adv-x="481" 
d="M113 -236h-60l361 1772h59z" />
    <glyph glyph-name="brokenbar.ss01" horiz-adv-x="483" 
d="M315 758h-59l158 778h59zM113 -236h-60l158 779h59z" />
    <glyph glyph-name="dagger.ss01" horiz-adv-x="1056" 
d="M545 496h-56l140 682h-412l10 49h412l63 309h56l-64 -309h414l-10 -49h-414z" />
    <glyph glyph-name="daggerdbl.ss01" horiz-adv-x="1056" 
d="M545 496h-56l66 319h-412l11 49h411l64 314h-412l10 49h412l63 309h56l-64 -309h414l-10 -49h-414l-63 -314h413l-10 -49h-414z" />
    <glyph glyph-name="uni2116.ss01" horiz-adv-x="2138" 
d="M1819 807q-106 0 -171 68t-65 178q0 105 45 195t127 144t184 54q109 0 172.5 -65.5t63.5 -180.5q0 -103 -41.5 -191.5t-124.5 -145t-190 -56.5zM137 0h-55l291 1434h82l686 -1375l278 1375h56l-291 -1434h-74l-690 1391zM1827 856q86 0 154.5 49.5t104.5 126t36 162.5
q0 94 -50 148.5t-139 54.5q-127 0 -212 -99t-85 -237q0 -95 51 -150t140 -55zM2003 616h-444l8 50h444z" />
    <glyph glyph-name="uni23CE.ss01" horiz-adv-x="1953" 
d="M532 82l-40 -35l-383 479l10 49l577 480l41 -35l-536 -445h1458l164 809h-770l8 50h827l-184 -908h-1528z" />
    </font>
</defs>
</svg>
